<?xml version="1.0" encoding="UTF-8" standalone="no"?>
<!DOCTYPE svg PUBLIC "-//W3C//DTD SVG 1.1//EN"
 "http://www.w3.org/Graphics/SVG/1.1/DTD/svg11.dtd">
<!-- Generated by graphviz version 2.38.0 (20140413.2041)
 -->
<!-- Title: %3 Pages: 1 -->
<svg width="1017pt" height="164pt"
 viewBox="0.00 0.00 1017.04 164.47" xmlns="http://www.w3.org/2000/svg" xmlns:xlink="http://www.w3.org/1999/xlink">
<g id="graph0" class="graph" transform="scale(1 1) rotate(0) translate(4 160.468)">
<title>%3</title>
<polygon fill="white" stroke="none" points="-4,4 -4,-160.468 1013.04,-160.468 1013.04,4 -4,4"/>
<!-- &#45;1 -->
<g id="node1" class="node"><title>&#45;1</title>
<polygon fill="lightgray" stroke="black" points="778.267,-93.0833 754.267,-93.0833 754.267,-75.0833 778.267,-75.0833 778.267,-93.0833"/>
<text text-anchor="middle" x="766.267" y="-81.8833" font-family="Times New Roman,serif" font-size="9.00">&#45;1</text>
</g>
<!-- 0 -->
<g id="node21" class="node"><title>0</title>
<ellipse fill="lightblue" stroke="black" cx="545.267" cy="-14.8492" rx="14.7" ry="14.7"/>
<text text-anchor="middle" x="545.267" y="-12.6492" font-family="Times New Roman,serif" font-size="9.00">0</text>
</g>
<!-- &#45;1&#45;&gt;0 -->
<g id="edge1" class="edge"><title>&#45;1&#45;&gt;0</title>
<path fill="none" stroke="green" stroke-width="0.291811" d="M758.3,-75.0389C754.61,-71.7156 749.999,-68.0892 745.267,-65.6985 686.588,-36.0475 609.121,-23.2808 570.058,-18.4355"/>
<polygon fill="green" stroke="green" stroke-width="0.291811" points="570.445,-14.957 560.106,-17.2715 569.632,-21.9096 570.445,-14.957"/>
</g>
<!-- 1 -->
<g id="node22" class="node"><title>1</title>
<ellipse fill="lightblue" stroke="black" cx="353.267" cy="-14.8492" rx="14.7" ry="14.7"/>
<text text-anchor="middle" x="353.267" y="-12.6492" font-family="Times New Roman,serif" font-size="9.00">1</text>
</g>
<!-- &#45;1&#45;&gt;1 -->
<g id="edge2" class="edge"><title>&#45;1&#45;&gt;1</title>
<path fill="none" stroke="red" stroke-width="0.156091" stroke-dasharray="1,5" d="M758.843,-75.0654C755.123,-71.576 750.336,-67.8087 745.267,-65.6985 593.554,-2.53583 533.748,-79.9004 377.267,-29.6985 376.214,-29.3605 375.156,-28.9714 374.103,-28.5432"/>
<polygon fill="red" stroke="red" stroke-width="0.156091" points="375.512,-25.3342 365.008,-23.9536 372.359,-31.5835 375.512,-25.3342"/>
</g>
<!-- 2 -->
<g id="node23" class="node"><title>2</title>
<ellipse fill="lightblue" stroke="black" cx="401.267" cy="-14.8492" rx="14.7" ry="14.7"/>
<text text-anchor="middle" x="401.267" y="-12.6492" font-family="Times New Roman,serif" font-size="9.00">2</text>
</g>
<!-- &#45;1&#45;&gt;2 -->
<g id="edge3" class="edge"><title>&#45;1&#45;&gt;2</title>
<path fill="none" stroke="green" stroke-width="0.122614" d="M758.44,-74.7372C754.776,-71.358 750.146,-67.7714 745.267,-65.6985 613.544,-9.73323 561.225,-74.4067 425.267,-29.6985 424.388,-29.4092 423.505,-29.0851 422.624,-28.7331"/>
<polygon fill="green" stroke="green" stroke-width="0.122614" points="424.026,-25.5219 413.514,-24.2055 420.911,-31.7904 424.026,-25.5219"/>
</g>
<!-- 3 -->
<g id="node24" class="node"><title>3</title>
<ellipse fill="lightblue" stroke="black" cx="449.267" cy="-14.8492" rx="14.7" ry="14.7"/>
<text text-anchor="middle" x="449.267" y="-12.6492" font-family="Times New Roman,serif" font-size="9.00">3</text>
</g>
<!-- &#45;1&#45;&gt;3 -->
<g id="edge4" class="edge"><title>&#45;1&#45;&gt;3</title>
<path fill="none" stroke="red" stroke-width="0.273171" d="M758.421,-74.7824C754.753,-71.4116 750.126,-67.819 745.267,-65.6985 633.506,-16.9187 588.73,-68.9226 473.267,-29.6985 472.391,-29.4006 471.51,-29.0692 470.631,-28.7111"/>
<polygon fill="red" stroke="red" stroke-width="0.273171" points="472.039,-25.5021 461.531,-24.1548 468.906,-31.7614 472.039,-25.5021"/>
</g>
<!-- 4 -->
<g id="node25" class="node"><title>4</title>
<ellipse fill="lightblue" stroke="black" cx="497.267" cy="-14.8492" rx="14.7" ry="14.7"/>
<text text-anchor="middle" x="497.267" y="-12.6492" font-family="Times New Roman,serif" font-size="9.00">4</text>
</g>
<!-- &#45;1&#45;&gt;4 -->
<g id="edge5" class="edge"><title>&#45;1&#45;&gt;4</title>
<path fill="none" stroke="red" stroke-width="0.278179" d="M758.392,-74.8462C754.719,-71.4873 750.096,-67.8862 745.267,-65.6985 653.422,-24.0842 616.282,-63.4546 521.267,-29.6985 520.395,-29.3885 519.518,-29.0468 518.642,-28.6799"/>
<polygon fill="red" stroke="red" stroke-width="0.278179" points="520.059,-25.4743 509.556,-24.0831 516.899,-31.7205 520.059,-25.4743"/>
</g>
<!-- &#45;2 -->
<g id="node2" class="node"><title>&#45;2</title>
<polygon fill="lightgray" stroke="black" points="552.267,-93.0833 528.267,-93.0833 528.267,-75.0833 552.267,-75.0833 552.267,-93.0833"/>
<text text-anchor="middle" x="540.267" y="-81.8833" font-family="Times New Roman,serif" font-size="9.00">&#45;2</text>
</g>
<!-- &#45;2&#45;&gt;0 -->
<g id="edge6" class="edge"><title>&#45;2&#45;&gt;0</title>
<path fill="none" stroke="green" stroke-width="0.3" d="M540.881,-74.8391C541.526,-66.1604 542.573,-52.0878 543.482,-39.8642"/>
<polygon fill="green" stroke="green" stroke-width="0.3" points="546.98,-40.0122 544.231,-29.7802 539.999,-39.493 546.98,-40.0122"/>
</g>
<!-- &#45;2&#45;&gt;1 -->
<g id="edge7" class="edge"><title>&#45;2&#45;&gt;1</title>
<path fill="none" stroke="red" stroke-width="0.184255" d="M531.855,-75.0642C527.976,-71.7456 523.154,-68.1159 518.267,-65.6985 460.295,-37.0222 437.169,-54.089 377.267,-29.6985 376.41,-29.3493 375.545,-28.9742 374.68,-28.5793"/>
<polygon fill="red" stroke="red" stroke-width="0.184255" points="376.127,-25.3861 365.644,-23.8515 372.882,-31.5885 376.127,-25.3861"/>
</g>
<!-- &#45;2&#45;&gt;2 -->
<g id="edge8" class="edge"><title>&#45;2&#45;&gt;2</title>
<path fill="none" stroke="green" stroke-width="0.3" d="M531.288,-74.9851C527.461,-71.808 522.833,-68.3064 518.267,-65.6985 479.783,-43.7127 465.247,-48.8314 425.267,-29.6985 424.432,-29.2987 423.587,-28.8808 422.738,-28.4496"/>
<polygon fill="green" stroke="green" stroke-width="0.3" points="424.23,-25.2765 413.776,-23.5531 420.873,-31.4194 424.23,-25.2765"/>
</g>
<!-- &#45;2&#45;&gt;3 -->
<g id="edge9" class="edge"><title>&#45;2&#45;&gt;3</title>
<path fill="none" stroke="red" stroke-width="0.265154" stroke-dasharray="1,5" d="M530.042,-74.854C526.358,-71.9284 522.151,-68.6337 518.267,-65.6985 502.02,-53.4186 483.269,-39.9137 469.419,-30.0614"/>
<polygon fill="red" stroke="red" stroke-width="0.265154" points="471.283,-27.0925 461.101,-24.1641 467.234,-32.803 471.283,-27.0925"/>
</g>
<!-- &#45;2&#45;&gt;4 -->
<g id="edge10" class="edge"><title>&#45;2&#45;&gt;4</title>
<path fill="none" stroke="red" stroke-width="0.188576" d="M534.995,-74.8391C528.931,-65.3583 518.751,-49.4405 510.493,-36.528"/>
<polygon fill="red" stroke="red" stroke-width="0.188576" points="513.242,-34.3305 504.905,-27.7919 507.345,-38.1021 513.242,-34.3305"/>
</g>
<!-- &#45;3 -->
<g id="node3" class="node"><title>&#45;3</title>
<polygon fill="lightgray" stroke="black" points="858.267,-93.0833 834.267,-93.0833 834.267,-75.0833 858.267,-75.0833 858.267,-93.0833"/>
<text text-anchor="middle" x="846.267" y="-81.8833" font-family="Times New Roman,serif" font-size="9.00">&#45;3</text>
</g>
<!-- &#45;3&#45;&gt;0 -->
<g id="edge11" class="edge"><title>&#45;3&#45;&gt;0</title>
<path fill="none" stroke="red" stroke-width="0.270957" d="M836.194,-74.9341C831.587,-71.5914 825.905,-67.9788 820.267,-65.6985 732.867,-30.3483 619.718,-19.9425 570.256,-16.9801"/>
<polygon fill="red" stroke="red" stroke-width="0.270957" points="570.342,-13.4796 560.166,-16.4281 569.959,-20.4691 570.342,-13.4796"/>
</g>
<!-- &#45;3&#45;&gt;1 -->
<g id="edge12" class="edge"><title>&#45;3&#45;&gt;1</title>
<path fill="none" stroke="red" stroke-width="0.299262" d="M834.237,-78.7703C822.434,-74.7231 803.845,-68.8363 787.267,-65.6985 607.535,-31.6793 551.722,-84.7124 377.267,-29.6985 376.212,-29.3657 375.153,-28.981 374.099,-28.5562"/>
<polygon fill="red" stroke="red" stroke-width="0.299262" points="375.506,-25.3463 365,-23.9794 372.36,-31.5998 375.506,-25.3463"/>
</g>
<!-- &#45;3&#45;&gt;2 -->
<g id="edge13" class="edge"><title>&#45;3&#45;&gt;2</title>
<path fill="none" stroke="red" stroke-width="0.292965" d="M834.229,-78.8123C822.42,-74.7963 803.827,-68.9319 787.267,-65.6985 628.582,-34.7133 579.181,-79.2133 425.267,-29.6985 424.214,-29.3596 423.156,-28.9699 422.104,-28.5411"/>
<polygon fill="red" stroke="red" stroke-width="0.292965" points="423.514,-25.3322 413.009,-23.9494 420.359,-31.5809 423.514,-25.3322"/>
</g>
<!-- &#45;3&#45;&gt;3 -->
<g id="edge14" class="edge"><title>&#45;3&#45;&gt;3</title>
<path fill="none" stroke="red" stroke-width="0.189152" d="M836.273,-74.7293C831.68,-71.3487 825.988,-67.7631 820.267,-65.6985 674.426,-13.0607 620.766,-77.496 473.267,-29.6985 472.215,-29.3574 471.158,-28.9658 470.105,-28.5356"/>
<polygon fill="red" stroke="red" stroke-width="0.189152" points="471.516,-25.327 461.013,-23.9384 468.358,-31.574 471.516,-25.327"/>
</g>
<!-- &#45;3&#45;&gt;4 -->
<g id="edge15" class="edge"><title>&#45;3&#45;&gt;4</title>
<path fill="none" stroke="green" stroke-width="0.296078" d="M836.256,-74.7739C831.66,-71.4016 825.971,-67.8101 820.267,-65.6985 694.746,-19.2245 648.254,-72.006 521.267,-29.6985 520.389,-29.4058 519.507,-29.0788 518.627,-28.7243"/>
<polygon fill="green" stroke="green" stroke-width="0.296078" points="520.032,-25.514 509.52,-24.1853 516.909,-31.7788 520.032,-25.514"/>
</g>
<!-- &#45;4 -->
<g id="node4" class="node"><title>&#45;4</title>
<polygon fill="lightgray" stroke="black" points="900.267,-93.0833 876.267,-93.0833 876.267,-75.0833 900.267,-75.0833 900.267,-93.0833"/>
<text text-anchor="middle" x="888.267" y="-81.8833" font-family="Times New Roman,serif" font-size="9.00">&#45;4</text>
</g>
<!-- &#45;4&#45;&gt;0 -->
<g id="edge16" class="edge"><title>&#45;4&#45;&gt;0</title>
<path fill="none" stroke="red" stroke-width="0.140215" d="M880.398,-74.833C876.726,-71.4716 872.102,-67.8723 867.267,-65.6985 764.242,-19.3756 626.023,-14.9886 570.2,-15.3"/>
<polygon fill="red" stroke="red" stroke-width="0.140215" points="570.128,-11.8005 560.168,-15.4139 570.207,-18.8 570.128,-11.8005"/>
</g>
<!-- &#45;4&#45;&gt;1 -->
<g id="edge17" class="edge"><title>&#45;4&#45;&gt;1</title>
<path fill="none" stroke="red" stroke-width="0.170085" stroke-dasharray="1,5" d="M880.865,-75.0103C877.151,-71.5088 872.361,-67.7473 867.267,-65.6985 664.676,15.7869 585.985,-93.8867 377.267,-29.6985 376.21,-29.3732 375.149,-28.9947 374.093,-28.5749"/>
<polygon fill="red" stroke="red" stroke-width="0.170085" points="375.497,-25.3638 364.988,-24.0164 372.363,-31.6231 375.497,-25.3638"/>
</g>
<!-- &#45;4&#45;&gt;2 -->
<g id="edge18" class="edge"><title>&#45;4&#45;&gt;2</title>
<path fill="none" stroke="green" stroke-width="0.191815" d="M880.858,-75.0284C877.142,-71.5309 872.353,-67.7674 867.267,-65.6985 684.703,8.57433 613.424,-88.381 425.267,-29.6985 424.211,-29.3691 423.151,-28.987 422.096,-28.5645"/>
<polygon fill="green" stroke="green" stroke-width="0.191815" points="423.502,-25.3541 412.995,-23.9958 420.362,-31.6101 423.502,-25.3541"/>
</g>
<!-- &#45;4&#45;&gt;3 -->
<g id="edge19" class="edge"><title>&#45;4&#45;&gt;3</title>
<path fill="none" stroke="red" stroke-width="0.138447" d="M880.849,-75.0508C877.13,-71.5583 872.343,-67.7925 867.267,-65.6985 704.718,1.36616 640.873,-82.8788 473.267,-29.6985 472.213,-29.3639 471.154,-28.9776 470.1,-28.5516"/>
<polygon fill="red" stroke="red" stroke-width="0.138447" points="471.508,-25.342 461.003,-23.9702 468.36,-31.594 471.508,-25.342"/>
</g>
<!-- &#45;4&#45;&gt;4 -->
<g id="edge20" class="edge"><title>&#45;4&#45;&gt;4</title>
<path fill="none" stroke="green" stroke-width="0.209464" d="M880.837,-75.0794C877.116,-71.5931 872.33,-67.8243 867.267,-65.6985 724.719,-5.83579 668.339,-77.3815 521.267,-29.6985 520.215,-29.3572 519.158,-28.9655 518.105,-28.5352"/>
<polygon fill="green" stroke="green" stroke-width="0.209464" points="519.517,-25.3267 509.013,-23.9376 516.358,-31.5735 519.517,-25.3267"/>
</g>
<!-- &#45;5 -->
<g id="node5" class="node"><title>&#45;5</title>
<polygon fill="lightgray" stroke="black" points="53.2675,-93.0833 29.2675,-93.0833 29.2675,-75.0833 53.2675,-75.0833 53.2675,-93.0833"/>
<text text-anchor="middle" x="41.2675" y="-81.8833" font-family="Times New Roman,serif" font-size="9.00">&#45;5</text>
</g>
<!-- &#45;5&#45;&gt;0 -->
<g id="edge21" class="edge"><title>&#45;5&#45;&gt;0</title>
<path fill="none" stroke="red" stroke-width="0.10049" d="M48.6741,-75.0216C52.39,-71.5226 57.1788,-67.7598 62.2675,-65.6985 251.924,11.1283 325.83,-90.3306 521.267,-29.6985 522.324,-29.3706 523.385,-28.9899 524.44,-28.5685"/>
<polygon fill="red" stroke="red" stroke-width="0.10049" points="526.173,-31.615 533.543,-24.0036 523.035,-25.3577 526.173,-31.615"/>
</g>
<!-- &#45;5&#45;&gt;1 -->
<g id="edge22" class="edge"><title>&#45;5&#45;&gt;1</title>
<path fill="none" stroke="red" stroke-width="0.134506" d="M49.1535,-74.8698C52.8287,-71.5152 57.4503,-67.9111 62.2675,-65.6985 153.612,-23.7423 275.778,-16.8141 327.938,-15.8687"/>
<polygon fill="red" stroke="red" stroke-width="0.134506" points="328.292,-19.3648 338.249,-15.7457 328.208,-12.3653 328.292,-19.3648"/>
</g>
<!-- &#45;5&#45;&gt;2 -->
<g id="edge23" class="edge"><title>&#45;5&#45;&gt;2</title>
<path fill="none" stroke="red" stroke-width="0.296289" d="M49.0966,-74.7413C52.7613,-71.3629 57.3904,-67.7757 62.2675,-65.6985 191.91,-10.4824 243.447,-73.835 377.267,-29.6985 378.147,-29.4084 379.03,-29.0837 379.911,-28.7311"/>
<polygon fill="red" stroke="red" stroke-width="0.296289" points="381.625,-31.7878 389.02,-24.201 378.507,-25.5201 381.625,-31.7878"/>
</g>
<!-- &#45;5&#45;&gt;3 -->
<g id="edge24" class="edge"><title>&#45;5&#45;&gt;3</title>
<path fill="none" stroke="red" stroke-width="0.278899" d="M48.6934,-75.0684C52.4135,-71.5797 57.2003,-67.8121 62.2675,-65.6985 211.897,-3.28598 270.926,-79.3278 425.267,-29.6985 426.321,-29.3598 427.379,-28.9702 428.432,-28.5415"/>
<polygon fill="red" stroke="red" stroke-width="0.278899" points="430.176,-31.5814 437.526,-23.9501 427.022,-25.3326 430.176,-31.5814"/>
</g>
<!-- &#45;5&#45;&gt;4 -->
<g id="edge25" class="edge"><title>&#45;5&#45;&gt;4</title>
<path fill="none" stroke="red" stroke-width="0.214154" d="M48.6826,-75.0423C52.4003,-71.5478 57.1883,-67.7829 62.2675,-65.6985 231.904,3.91845 298.385,-84.827 473.267,-29.6985 474.323,-29.3658 475.382,-28.9812 476.436,-28.5565"/>
<polygon fill="red" stroke="red" stroke-width="0.214154" points="478.174,-31.6001 485.535,-23.9799 475.029,-25.3466 478.174,-31.6001"/>
</g>
<!-- &#45;6 -->
<g id="node6" class="node"><title>&#45;6</title>
<polygon fill="lightgray" stroke="black" points="736.267,-93.0833 712.267,-93.0833 712.267,-75.0833 736.267,-75.0833 736.267,-93.0833"/>
<text text-anchor="middle" x="724.267" y="-81.8833" font-family="Times New Roman,serif" font-size="9.00">&#45;6</text>
</g>
<!-- &#45;6&#45;&gt;0 -->
<g id="edge26" class="edge"><title>&#45;6&#45;&gt;0</title>
<path fill="none" stroke="green" stroke-width="0.277522" d="M715.828,-74.8209C712.196,-71.6187 707.757,-68.1427 703.267,-65.6985 659.236,-41.7267 601.921,-27.2894 569.821,-20.5157"/>
<polygon fill="green" stroke="green" stroke-width="0.277522" points="570.454,-17.0729 559.957,-18.5097 569.059,-23.9325 570.454,-17.0729"/>
</g>
<!-- &#45;6&#45;&gt;1 -->
<g id="edge27" class="edge"><title>&#45;6&#45;&gt;1</title>
<path fill="none" stroke="red" stroke-width="0.29884" d="M716.442,-74.7324C712.778,-71.3524 708.149,-67.7664 703.267,-65.6985 569.047,-8.83409 515.789,-75.093 377.267,-29.6985 376.388,-29.4101 375.504,-29.0868 374.623,-28.7354"/>
<polygon fill="red" stroke="red" stroke-width="0.29884" points="376.025,-25.5239 365.512,-24.2109 372.912,-31.7934 376.025,-25.5239"/>
</g>
<!-- &#45;6&#45;&gt;2 -->
<g id="edge28" class="edge"><title>&#45;6&#45;&gt;2</title>
<path fill="none" stroke="red" stroke-width="0.294424" d="M716.424,-74.7759C712.756,-71.4039 708.129,-67.8122 703.267,-65.6985 589.013,-16.0214 543.29,-69.6074 425.267,-29.6985 424.39,-29.4018 423.509,-29.0715 422.63,-28.7142"/>
<polygon fill="red" stroke="red" stroke-width="0.294424" points="424.038,-25.5049 413.528,-24.1621 420.906,-31.7656 424.038,-25.5049"/>
</g>
<!-- &#45;6&#45;&gt;3 -->
<g id="edge29" class="edge"><title>&#45;6&#45;&gt;3</title>
<path fill="none" stroke="red" stroke-width="0.297408" d="M716.397,-74.8368C712.724,-71.4761 708.1,-67.8764 703.267,-65.6985 608.936,-23.19 570.835,-64.1368 473.267,-29.6985 472.394,-29.3903 471.517,-29.0501 470.64,-28.6845"/>
<polygon fill="red" stroke="red" stroke-width="0.297408" points="472.056,-25.4784 461.552,-24.0936 468.9,-31.7265 472.056,-25.4784"/>
</g>
<!-- &#45;6&#45;&gt;4 -->
<g id="edge30" class="edge"><title>&#45;6&#45;&gt;4</title>
<path fill="none" stroke="red" stroke-width="0.137333" d="M716.354,-74.9282C712.674,-71.5844 708.056,-67.9726 703.267,-65.6985 628.785,-30.3247 598.457,-58.6938 521.267,-29.6985 520.401,-29.3728 519.528,-29.0179 518.657,-28.6398"/>
<polygon fill="red" stroke="red" stroke-width="0.137333" points="520.085,-25.4389 509.589,-23.9908 516.891,-31.6678 520.085,-25.4389"/>
</g>
<!-- &#45;7 -->
<g id="node7" class="node"><title>&#45;7</title>
<polygon fill="lightgray" stroke="black" points="95.2675,-93.0833 71.2675,-93.0833 71.2675,-75.0833 95.2675,-75.0833 95.2675,-93.0833"/>
<text text-anchor="middle" x="83.2675" y="-81.8833" font-family="Times New Roman,serif" font-size="9.00">&#45;7</text>
</g>
<!-- &#45;7&#45;&gt;0 -->
<g id="edge31" class="edge"><title>&#45;7&#45;&gt;0</title>
<path fill="none" stroke="green" stroke-width="0.226777" d="M90.6814,-75.0394C94.3989,-71.5444 99.187,-67.7798 104.267,-65.6985 276.406,4.81943 343.816,-85.5148 521.267,-29.6985 522.323,-29.3665 523.382,-28.9824 524.437,-28.5582"/>
<polygon fill="green" stroke="green" stroke-width="0.226777" points="526.174,-31.6022 533.536,-23.9832 523.03,-25.3481 526.174,-31.6022"/>
</g>
<!-- &#45;7&#45;&gt;1 -->
<g id="edge32" class="edge"><title>&#45;7&#45;&gt;1</title>
<path fill="none" stroke="red" stroke-width="0.185424" stroke-dasharray="1,5" d="M91.1832,-74.9334C94.864,-71.5906 99.4817,-67.9781 104.267,-65.6985 180.543,-29.3657 282.155,-19.4948 328.427,-16.828"/>
<polygon fill="red" stroke="red" stroke-width="0.185424" points="328.64,-20.3218 338.448,-16.3156 328.282,-13.3309 328.64,-20.3218"/>
</g>
<!-- &#45;7&#45;&gt;2 -->
<g id="edge33" class="edge"><title>&#45;7&#45;&gt;2</title>
<path fill="none" stroke="green" stroke-width="0.189537" d="M91.1138,-74.7813C94.7817,-71.4103 99.4086,-67.8178 104.267,-65.6985 216.445,-16.7691 261.378,-69.0368 377.267,-29.6985 378.144,-29.4008 379.025,-29.0696 379.904,-28.7116"/>
<polygon fill="green" stroke="green" stroke-width="0.189537" points="381.629,-31.7621 389.005,-24.156 378.496,-25.5026 381.629,-31.7621"/>
</g>
<!-- &#45;7&#45;&gt;3 -->
<g id="edge34" class="edge"><title>&#45;7&#45;&gt;3</title>
<path fill="none" stroke="green" stroke-width="0.3" d="M91.0945,-74.7364C94.7588,-71.3571 99.3882,-67.7705 104.267,-65.6985 236.407,-9.58338 288.883,-74.5211 425.267,-29.6985 426.147,-29.4094 427.03,-29.0854 427.911,-28.7335"/>
<polygon fill="green" stroke="green" stroke-width="0.3" points="429.624,-31.7909 437.022,-24.2064 426.509,-25.5222 429.624,-31.7909"/>
</g>
<!-- &#45;7&#45;&gt;4 -->
<g id="edge35" class="edge"><title>&#45;7&#45;&gt;4</title>
<path fill="none" stroke="red" stroke-width="0.176891" d="M90.6919,-75.0648C94.4117,-71.5753 99.1986,-67.808 104.267,-65.6985 256.397,-2.3858 316.359,-80.0149 473.267,-29.6985 474.321,-29.3606 475.379,-28.9717 476.432,-28.5436"/>
<polygon fill="red" stroke="red" stroke-width="0.176891" points="478.176,-31.584 485.527,-23.9543 475.023,-25.3345 478.176,-31.584"/>
</g>
<!-- &#45;8 -->
<g id="node8" class="node"><title>&#45;8</title>
<polygon fill="lightgray" stroke="black" points="137.267,-93.0833 113.267,-93.0833 113.267,-75.0833 137.267,-75.0833 137.267,-93.0833"/>
<text text-anchor="middle" x="125.267" y="-81.8833" font-family="Times New Roman,serif" font-size="9.00">&#45;8</text>
</g>
<!-- &#45;8&#45;&gt;0 -->
<g id="edge36" class="edge"><title>&#45;8&#45;&gt;0</title>
<path fill="none" stroke="red" stroke-width="0.185549" d="M132.69,-75.0613C136.41,-71.571 141.197,-67.8041 146.267,-65.6985 300.898,-1.4855 361.792,-80.7021 521.267,-29.6985 522.321,-29.3614 523.38,-28.9732 524.433,-28.5456"/>
<polygon fill="red" stroke="red" stroke-width="0.185549" points="526.176,-31.5865 533.529,-23.9583 523.024,-25.3364 526.176,-31.5865"/>
</g>
<!-- &#45;8&#45;&gt;1 -->
<g id="edge37" class="edge"><title>&#45;8&#45;&gt;1</title>
<path fill="none" stroke="red" stroke-width="0.135619" stroke-dasharray="1,5" d="M133.226,-75.021C136.915,-71.6944 141.527,-68.0704 146.267,-65.6985 207.437,-35.0942 288.324,-22.6883 328.468,-18.1621"/>
<polygon fill="red" stroke="red" stroke-width="0.135619" points="328.859,-21.6403 338.436,-17.1079 328.123,-14.6791 328.859,-21.6403"/>
</g>
<!-- &#45;8&#45;&gt;2 -->
<g id="edge38" class="edge"><title>&#45;8&#45;&gt;2</title>
<path fill="none" stroke="red" stroke-width="0.294316" d="M133.138,-74.8353C136.81,-71.4743 141.434,-67.8748 146.267,-65.6985 241.013,-23.041 279.275,-64.2506 377.267,-29.6985 378.141,-29.3905 379.019,-29.0506 379.895,-28.6852"/>
<polygon fill="red" stroke="red" stroke-width="0.294316" points="381.635,-31.7275 388.984,-24.0953 378.48,-25.479 381.635,-31.7275"/>
</g>
<!-- &#45;8&#45;&gt;3 -->
<g id="edge39" class="edge"><title>&#45;8&#45;&gt;3</title>
<path fill="none" stroke="red" stroke-width="0.3" d="M133.111,-74.7748C136.778,-71.4027 141.406,-67.8111 146.267,-65.6985 260.938,-15.8718 306.819,-69.7216 425.267,-29.6985 426.145,-29.402 427.026,-29.0719 427.905,-28.7147"/>
<polygon fill="red" stroke="red" stroke-width="0.3" points="429.629,-31.7662 437.007,-24.1633 426.498,-25.5054 429.629,-31.7662"/>
</g>
<!-- &#45;8&#45;&gt;4 -->
<g id="edge40" class="edge"><title>&#45;8&#45;&gt;4</title>
<path fill="none" stroke="green" stroke-width="0.180563" d="M133.093,-74.7317C136.756,-71.3515 141.386,-67.7656 146.267,-65.6985 280.905,-8.68422 334.319,-75.2074 473.267,-29.6985 474.148,-29.4102 475.031,-29.0871 475.912,-28.7358"/>
<polygon fill="green" stroke="green" stroke-width="0.180563" points="477.623,-31.7939 485.023,-24.2117 474.51,-25.5243 477.623,-31.7939"/>
</g>
<!-- &#45;9 -->
<g id="node9" class="node"><title>&#45;9</title>
<polygon fill="lightgray" stroke="black" points="227.267,-93.0833 203.267,-93.0833 203.267,-75.0833 227.267,-75.0833 227.267,-93.0833"/>
<text text-anchor="middle" x="215.267" y="-81.8833" font-family="Times New Roman,serif" font-size="9.00">&#45;9</text>
</g>
<!-- &#45;9&#45;&gt;0 -->
<g id="edge41" class="edge"><title>&#45;9&#45;&gt;0</title>
<path fill="none" stroke="red" stroke-width="0.125871" d="M223.108,-74.7687C226.775,-71.3954 231.403,-67.8046 236.267,-65.6985 353.432,-14.9742 400.258,-70.4067 521.267,-29.6985 522.145,-29.4032 523.027,-29.074 523.906,-28.7177"/>
<polygon fill="red" stroke="red" stroke-width="0.125871" points="525.628,-31.7702 533.01,-24.1702 522.5,-25.5081 525.628,-31.7702"/>
</g>
<!-- &#45;9&#45;&gt;1 -->
<g id="edge42" class="edge"><title>&#45;9&#45;&gt;1</title>
<path fill="none" stroke="red" stroke-width="0.155488" d="M223.831,-75.0366C227.482,-71.8674 231.902,-68.3578 236.267,-65.6985 266.791,-47.1047 305.494,-32.0941 329.827,-23.5696"/>
<polygon fill="red" stroke="red" stroke-width="0.155488" points="330.984,-26.8731 339.31,-20.3219 328.716,-20.2507 330.984,-26.8731"/>
</g>
<!-- &#45;9&#45;&gt;2 -->
<g id="edge43" class="edge"><title>&#45;9&#45;&gt;2</title>
<path fill="none" stroke="green" stroke-width="0.294873" d="M223.241,-75.0517C226.933,-71.7308 231.543,-68.1027 236.267,-65.6985 293.91,-36.3648 317.366,-54.089 377.267,-29.6985 378.125,-29.3493 378.99,-28.9742 379.855,-28.5793"/>
<polygon fill="green" stroke="green" stroke-width="0.294873" points="381.653,-31.5885 388.891,-23.8515 378.408,-25.3861 381.653,-31.5885"/>
</g>
<!-- &#45;9&#45;&gt;3 -->
<g id="edge44" class="edge"><title>&#45;9&#45;&gt;3</title>
<path fill="none" stroke="red" stroke-width="0.164808" d="M223.173,-74.9121C226.852,-71.5654 231.471,-67.9557 236.267,-65.6985 313.638,-29.2874 345.113,-59.485 425.267,-29.6985 426.136,-29.3759 427.009,-29.0235 427.881,-28.6477"/>
<polygon fill="red" stroke="red" stroke-width="0.164808" points="429.643,-31.6781 436.953,-24.0089 426.456,-25.4458 429.643,-31.6781"/>
</g>
<!-- &#45;9&#45;&gt;4 -->
<g id="edge45" class="edge"><title>&#45;9&#45;&gt;4</title>
<path fill="none" stroke="red" stroke-width="0.287152" stroke-dasharray="1,5" d="M223.134,-74.8264C226.805,-71.4639 231.43,-67.8654 236.267,-65.6985 333.501,-22.1462 372.721,-64.9333 473.267,-29.6985 474.141,-29.3922 475.02,-29.0537 475.897,-28.6895"/>
<polygon fill="red" stroke="red" stroke-width="0.287152" points="477.634,-31.7331 484.987,-24.1053 474.482,-25.4829 477.634,-31.7331"/>
</g>
<!-- &#45;10 -->
<g id="node10" class="node"><title>&#45;10</title>
<polygon fill="lightgray" stroke="black" points="274.767,-93.0833 245.767,-93.0833 245.767,-75.0833 274.767,-75.0833 274.767,-93.0833"/>
<text text-anchor="middle" x="260.267" y="-81.8833" font-family="Times New Roman,serif" font-size="9.00">&#45;10</text>
</g>
<!-- &#45;10&#45;&gt;0 -->
<g id="edge46" class="edge"><title>&#45;10&#45;&gt;0</title>
<path fill="none" stroke="red" stroke-width="0.10878" d="M269.008,-74.8353C273.053,-71.4744 278.101,-67.8748 283.267,-65.6985 381.858,-24.1681 420.295,-65.0472 521.267,-29.6985 522.142,-29.3925 523.02,-29.0542 523.897,-28.6902"/>
<polygon fill="red" stroke="red" stroke-width="0.10878" points="525.634,-31.7341 532.988,-24.1069 522.483,-25.4835 525.634,-31.7341"/>
</g>
<!-- &#45;10&#45;&gt;1 -->
<g id="edge47" class="edge"><title>&#45;10&#45;&gt;1</title>
<path fill="none" stroke="green" stroke-width="0.217345" d="M270.985,-74.8829C274.84,-71.9601 279.232,-68.6596 283.267,-65.6985 299.844,-53.5349 318.86,-40.0211 332.884,-30.1358"/>
<polygon fill="green" stroke="green" stroke-width="0.217345" points="335.137,-32.83 341.303,-24.2144 331.11,-27.1043 335.137,-32.83"/>
</g>
<!-- &#45;10&#45;&gt;2 -->
<g id="edge48" class="edge"><title>&#45;10&#45;&gt;2</title>
<path fill="none" stroke="green" stroke-width="0.23627" d="M269.701,-74.9997C273.708,-71.8248 278.54,-68.3209 283.267,-65.6985 322.388,-43.996 336.879,-48.9381 377.267,-29.6985 378.104,-29.3002 378.95,-28.8836 379.799,-28.4535"/>
<polygon fill="green" stroke="green" stroke-width="0.23627" points="381.662,-31.4244 388.763,-23.5619 378.309,-25.2797 381.662,-31.4244"/>
</g>
<!-- &#45;10&#45;&gt;3 -->
<g id="edge49" class="edge"><title>&#45;10&#45;&gt;3</title>
<path fill="none" stroke="red" stroke-width="0.164906" d="M269.116,-75.0734C273.18,-71.7566 278.214,-68.1256 283.267,-65.6985 341.957,-37.51 364.946,-54.2005 425.267,-29.6985 426.125,-29.35 426.99,-28.9756 427.856,-28.5812"/>
<polygon fill="red" stroke="red" stroke-width="0.164906" points="429.653,-31.591 436.893,-23.8558 426.409,-25.3877 429.653,-31.591"/>
</g>
<!-- &#45;10&#45;&gt;4 -->
<g id="edge50" class="edge"><title>&#45;10&#45;&gt;4</title>
<path fill="none" stroke="red" stroke-width="0.292151" d="M269.048,-74.926C273.099,-71.5818 278.142,-67.9703 283.267,-65.6985 361.841,-30.8689 392.689,-59.5981 473.267,-29.6985 474.136,-29.3763 475.009,-29.0243 475.882,-28.6487"/>
<polygon fill="red" stroke="red" stroke-width="0.292151" points="477.642,-31.6796 484.953,-24.0114 474.456,-25.4467 477.642,-31.6796"/>
</g>
<!-- &#45;11 -->
<g id="node11" class="node"><title>&#45;11</title>
<polygon fill="lightgray" stroke="black" points="321.767,-93.0833 292.767,-93.0833 292.767,-75.0833 321.767,-75.0833 321.767,-93.0833"/>
<text text-anchor="middle" x="307.267" y="-81.8833" font-family="Times New Roman,serif" font-size="9.00">&#45;11</text>
</g>
<!-- &#45;11&#45;&gt;0 -->
<g id="edge51" class="edge"><title>&#45;11&#45;&gt;0</title>
<path fill="none" stroke="red" stroke-width="0.105312" d="M316.047,-74.9237C320.098,-71.5791 325.141,-67.9679 330.267,-65.6985 409.257,-30.7297 440.265,-59.7113 521.267,-29.6985 522.136,-29.3767 523.009,-29.0251 523.882,-28.6498"/>
<polygon fill="red" stroke="red" stroke-width="0.105312" points="525.642,-31.681 532.954,-24.0138 522.457,-25.4477 525.642,-31.681"/>
</g>
<!-- &#45;11&#45;&gt;1 -->
<g id="edge52" class="edge"><title>&#45;11&#45;&gt;1</title>
<path fill="none" stroke="red" stroke-width="0.294607" d="M312.908,-74.8391C319.458,-65.2662 330.497,-49.1308 339.376,-36.1528"/>
<polygon fill="red" stroke="red" stroke-width="0.294607" points="342.339,-38.0214 345.097,-27.7919 336.561,-34.0687 342.339,-38.0214"/>
</g>
<!-- &#45;11&#45;&gt;2 -->
<g id="edge53" class="edge"><title>&#45;11&#45;&gt;2</title>
<path fill="none" stroke="green" stroke-width="0.3" d="M317.974,-74.8679C321.828,-71.9436 326.222,-68.6461 330.267,-65.6985 347.043,-53.4753 366.333,-39.9661 380.568,-30.0977"/>
<polygon fill="green" stroke="green" stroke-width="0.3" points="382.88,-32.7542 389.116,-24.1886 378.9,-26.9962 382.88,-32.7542"/>
</g>
<!-- &#45;11&#45;&gt;3 -->
<g id="edge54" class="edge"><title>&#45;11&#45;&gt;3</title>
<path fill="none" stroke="green" stroke-width="0.195851" d="M316.696,-74.9913C320.703,-71.8152 325.536,-68.3126 330.267,-65.6985 369.789,-43.8641 384.47,-49.0449 425.267,-29.6985 426.104,-29.3017 426.951,-28.8863 427.801,-28.4573"/>
<polygon fill="green" stroke="green" stroke-width="0.195851" points="429.662,-31.4293 436.768,-23.5706 426.312,-25.2828 429.662,-31.4293"/>
</g>
<!-- &#45;11&#45;&gt;4 -->
<g id="edge55" class="edge"><title>&#45;11&#45;&gt;4</title>
<path fill="none" stroke="green" stroke-width="0.298076" d="M316.114,-75.0694C320.178,-71.7518 325.212,-68.1214 330.267,-65.6985 389.369,-37.3726 412.526,-54.3121 473.267,-29.6985 474.126,-29.3507 474.991,-28.9769 475.856,-28.583"/>
<polygon fill="green" stroke="green" stroke-width="0.298076" points="477.653,-31.5934 484.895,-23.86 474.411,-25.3893 477.653,-31.5934"/>
</g>
<!-- &#45;12 -->
<g id="node12" class="node"><title>&#45;12</title>
<polygon fill="lightgray" stroke="black" points="368.767,-93.0833 339.767,-93.0833 339.767,-75.0833 368.767,-75.0833 368.767,-93.0833"/>
<text text-anchor="middle" x="354.267" y="-81.8833" font-family="Times New Roman,serif" font-size="9.00">&#45;12</text>
</g>
<!-- &#45;12&#45;&gt;0 -->
<g id="edge56" class="edge"><title>&#45;12&#45;&gt;0</title>
<path fill="none" stroke="red" stroke-width="0.112976" d="M363.112,-75.0655C367.176,-71.7472 372.21,-68.1173 377.267,-65.6985 436.781,-37.2352 460.107,-54.4237 521.267,-29.6985 522.126,-29.3514 522.991,-28.9782 523.857,-28.5848"/>
<polygon fill="red" stroke="red" stroke-width="0.112976" points="525.653,-31.5957 532.896,-23.8642 522.412,-25.3909 525.653,-31.5957"/>
</g>
<!-- &#45;12&#45;&gt;1 -->
<g id="edge57" class="edge"><title>&#45;12&#45;&gt;1</title>
<path fill="none" stroke="green" stroke-width="0.296005" d="M354.145,-74.8391C354.016,-66.1604 353.806,-52.0878 353.625,-39.8642"/>
<polygon fill="green" stroke="green" stroke-width="0.296005" points="357.123,-39.727 353.475,-29.7802 350.124,-39.8312 357.123,-39.727"/>
</g>
<!-- &#45;12&#45;&gt;2 -->
<g id="edge58" class="edge"><title>&#45;12&#45;&gt;2</title>
<path fill="none" stroke="red" stroke-width="0.298414" stroke-dasharray="1,5" d="M360.031,-74.8391C366.723,-65.2662 378.002,-49.1308 387.074,-36.1528"/>
<polygon fill="red" stroke="red" stroke-width="0.298414" points="390.058,-37.9932 392.919,-27.7919 384.321,-33.9825 390.058,-37.9932"/>
</g>
<!-- &#45;12&#45;&gt;3 -->
<g id="edge59" class="edge"><title>&#45;12&#45;&gt;3</title>
<path fill="none" stroke="red" stroke-width="0.291338" d="M364.963,-74.8531C368.816,-71.9274 373.212,-68.6328 377.267,-65.6985 394.343,-53.3423 414.039,-39.7499 428.51,-29.8838"/>
<polygon fill="red" stroke="red" stroke-width="0.291338" points="430.881,-32.5043 437.185,-23.9889 426.947,-26.7146 430.881,-32.5043"/>
</g>
<!-- &#45;12&#45;&gt;4 -->
<g id="edge60" class="edge"><title>&#45;12&#45;&gt;4</title>
<path fill="none" stroke="green" stroke-width="0.296276" d="M363.692,-74.9831C367.698,-71.8057 372.531,-68.3044 377.267,-65.6985 417.191,-43.7319 432.061,-49.1519 473.267,-29.6985 474.105,-29.3031 474.952,-28.889 475.803,-28.461"/>
<polygon fill="green" stroke="green" stroke-width="0.296276" points="477.662,-31.4341 484.772,-23.5792 474.315,-25.2859 477.662,-31.4341"/>
</g>
<!-- &#45;13 -->
<g id="node13" class="node"><title>&#45;13</title>
<polygon fill="lightgray" stroke="black" points="415.767,-93.0833 386.767,-93.0833 386.767,-75.0833 415.767,-75.0833 415.767,-93.0833"/>
<text text-anchor="middle" x="401.267" y="-81.8833" font-family="Times New Roman,serif" font-size="9.00">&#45;13</text>
</g>
<!-- &#45;13&#45;&gt;0 -->
<g id="edge61" class="edge"><title>&#45;13&#45;&gt;0</title>
<path fill="none" stroke="green" stroke-width="0.13454" d="M410.687,-74.975C414.693,-71.7964 419.527,-68.2964 424.267,-65.6985 464.594,-43.5996 479.651,-49.2591 521.267,-29.6985 522.106,-29.3046 522.953,-28.8916 523.805,-28.4646"/>
<polygon fill="green" stroke="green" stroke-width="0.13454" points="525.662,-31.4389 532.776,-23.5875 522.318,-25.2889 525.662,-31.4389"/>
</g>
<!-- &#45;13&#45;&gt;1 -->
<g id="edge62" class="edge"><title>&#45;13&#45;&gt;1</title>
<path fill="none" stroke="red" stroke-width="0.220502" d="M395.382,-74.8391C388.466,-65.1523 376.753,-48.7457 367.433,-35.6906"/>
<polygon fill="red" stroke="red" stroke-width="0.220502" points="370.11,-33.4168 361.451,-27.3117 364.413,-37.4841 370.11,-33.4168"/>
</g>
<!-- &#45;13&#45;&gt;2 -->
<g id="edge63" class="edge"><title>&#45;13&#45;&gt;2</title>
<path fill="none" stroke="green" stroke-width="0.244503" d="M401.267,-74.8391C401.267,-66.1604 401.267,-52.0878 401.267,-39.8642"/>
<polygon fill="green" stroke="green" stroke-width="0.244503" points="404.768,-39.7801 401.267,-29.7802 397.768,-39.7802 404.768,-39.7801"/>
</g>
<!-- &#45;13&#45;&gt;3 -->
<g id="edge64" class="edge"><title>&#45;13&#45;&gt;3</title>
<path fill="none" stroke="green" stroke-width="0.235248" d="M407.153,-74.8391C414.069,-65.1523 425.782,-48.7457 435.102,-35.6906"/>
<polygon fill="green" stroke="green" stroke-width="0.235248" points="438.122,-37.4841 441.084,-27.3117 432.425,-33.4168 438.122,-37.4841"/>
</g>
<!-- &#45;13&#45;&gt;4 -->
<g id="edge65" class="edge"><title>&#45;13&#45;&gt;4</title>
<path fill="none" stroke="green" stroke-width="0.298446" d="M411.953,-74.8385C415.804,-71.9115 420.203,-68.6198 424.267,-65.6985 441.811,-53.0891 462.136,-39.2728 476.878,-29.3904"/>
<polygon fill="green" stroke="green" stroke-width="0.298446" points="478.888,-32.2563 485.26,-23.7915 475,-26.4354 478.888,-32.2563"/>
</g>
<!-- &#45;14 -->
<g id="node14" class="node"><title>&#45;14</title>
<polygon fill="lightgray" stroke="black" points="184.767,-93.0833 155.767,-93.0833 155.767,-75.0833 184.767,-75.0833 184.767,-93.0833"/>
<text text-anchor="middle" x="170.267" y="-81.8833" font-family="Times New Roman,serif" font-size="9.00">&#45;14</text>
</g>
<!-- &#45;14&#45;&gt;0 -->
<g id="edge66" class="edge"><title>&#45;14&#45;&gt;0</title>
<path fill="none" stroke="green" stroke-width="0.13683" d="M179.403,-74.7387C183.626,-71.3598 188.892,-67.7729 194.267,-65.6985 330.676,-13.0619 382.319,-75.2074 521.267,-29.6985 522.148,-29.4102 523.031,-29.0871 523.912,-28.7358"/>
<polygon fill="green" stroke="green" stroke-width="0.13683" points="525.623,-31.7939 533.023,-24.2117 522.51,-25.5243 525.623,-31.7939"/>
</g>
<!-- &#45;14&#45;&gt;1 -->
<g id="edge67" class="edge"><title>&#45;14&#45;&gt;1</title>
<path fill="none" stroke="red" stroke-width="0.299634" d="M180.078,-74.8703C184.254,-71.6756 189.302,-68.1919 194.267,-65.6985 239.328,-43.0721 296.735,-28.1482 328.788,-20.9268"/>
<polygon fill="red" stroke="red" stroke-width="0.299634" points="329.611,-24.3297 338.632,-18.7732 328.115,-17.4914 329.611,-24.3297"/>
</g>
<!-- &#45;14&#45;&gt;2 -->
<g id="edge68" class="edge"><title>&#45;14&#45;&gt;2</title>
<path fill="none" stroke="green" stroke-width="0.293732" d="M179.491,-74.9527C183.73,-71.6135 188.984,-67.9984 194.267,-65.6985 270.271,-32.6138 299.654,-58.8068 377.267,-29.6985 378.135,-29.3733 379.007,-29.0187 379.879,-28.641"/>
<polygon fill="green" stroke="green" stroke-width="0.293732" points="381.644,-31.6694 388.947,-23.9935 378.451,-25.4399 381.644,-31.6694"/>
</g>
<!-- &#45;14&#45;&gt;3 -->
<g id="edge69" class="edge"><title>&#45;14&#45;&gt;3</title>
<path fill="none" stroke="green" stroke-width="0.119053" d="M179.448,-74.8528C183.68,-71.4951 188.939,-67.8932 194.267,-65.6985 290.342,-26.1229 327.275,-64.2506 425.267,-29.6985 426.141,-29.3905 427.019,-29.0506 427.895,-28.6852"/>
<polygon fill="green" stroke="green" stroke-width="0.119053" points="429.635,-31.7275 436.984,-24.0953 426.48,-25.479 429.635,-31.7275"/>
</g>
<!-- &#45;14&#45;&gt;4 -->
<g id="edge70" class="edge"><title>&#45;14&#45;&gt;4</title>
<path fill="none" stroke="green" stroke-width="0.295399" d="M179.421,-74.7862C183.648,-71.4162 188.911,-67.8231 194.267,-65.6985 310.487,-19.6009 354.819,-69.7216 473.267,-29.6985 474.145,-29.402 475.026,-29.0719 475.905,-28.7147"/>
<polygon fill="green" stroke="green" stroke-width="0.295399" points="477.629,-31.7662 485.007,-24.1633 474.498,-25.5054 477.629,-31.7662"/>
</g>
<!-- &#45;15 -->
<g id="node15" class="node"><title>&#45;15</title>
<polygon fill="lightgray" stroke="black" points="462.767,-93.0833 433.767,-93.0833 433.767,-75.0833 462.767,-75.0833 462.767,-93.0833"/>
<text text-anchor="middle" x="448.267" y="-81.8833" font-family="Times New Roman,serif" font-size="9.00">&#45;15</text>
</g>
<!-- &#45;15&#45;&gt;0 -->
<g id="edge71" class="edge"><title>&#45;15&#45;&gt;0</title>
<path fill="none" stroke="red" stroke-width="0.3" d="M458.943,-74.8242C462.793,-71.8958 467.194,-68.6069 471.267,-65.6985 489.016,-53.0271 509.623,-39.217 524.577,-29.3527"/>
<polygon fill="red" stroke="red" stroke-width="0.3" points="526.645,-32.1819 533.081,-23.7661 522.801,-26.3313 526.645,-32.1819"/>
</g>
<!-- &#45;15&#45;&gt;1 -->
<g id="edge72" class="edge"><title>&#45;15&#45;&gt;1</title>
<path fill="none" stroke="red" stroke-width="0.258898" d="M437.059,-74.9121C433.035,-71.992 428.456,-68.6858 424.267,-65.6985 407.369,-53.6466 388.088,-40.1243 373.888,-30.2072"/>
<polygon fill="red" stroke="red" stroke-width="0.258898" points="375.57,-27.1132 365.366,-24.2627 371.565,-32.8544 375.57,-27.1132"/>
</g>
<!-- &#45;15&#45;&gt;2 -->
<g id="edge73" class="edge"><title>&#45;15&#45;&gt;2</title>
<path fill="none" stroke="red" stroke-width="0.240208" d="M442.504,-74.8391C435.812,-65.2662 424.533,-49.1308 415.461,-36.1528"/>
<polygon fill="red" stroke="red" stroke-width="0.240208" points="418.214,-33.9825 409.616,-27.7919 412.477,-37.9932 418.214,-33.9825"/>
</g>
<!-- &#45;15&#45;&gt;3 -->
<g id="edge74" class="edge"><title>&#45;15&#45;&gt;3</title>
<path fill="none" stroke="red" stroke-width="0.22828" d="M448.39,-74.8391C448.519,-66.1604 448.729,-52.0878 448.91,-39.8642"/>
<polygon fill="red" stroke="red" stroke-width="0.22828" points="452.411,-39.8312 449.06,-29.7802 445.412,-39.727 452.411,-39.8312"/>
</g>
<!-- &#45;15&#45;&gt;4 -->
<g id="edge75" class="edge"><title>&#45;15&#45;&gt;4</title>
<path fill="none" stroke="red" stroke-width="0.20992" d="M454.276,-74.8391C461.336,-65.1523 473.293,-48.7457 482.807,-35.6906"/>
<polygon fill="red" stroke="red" stroke-width="0.20992" points="485.852,-37.4547 488.914,-27.3117 480.195,-33.3318 485.852,-37.4547"/>
</g>
<!-- &#45;16 -->
<g id="node16" class="node"><title>&#45;16</title>
<polygon fill="lightgray" stroke="black" points="509.767,-93.0833 480.767,-93.0833 480.767,-75.0833 509.767,-75.0833 509.767,-93.0833"/>
<text text-anchor="middle" x="495.267" y="-81.8833" font-family="Times New Roman,serif" font-size="9.00">&#45;16</text>
</g>
<!-- &#45;16&#45;&gt;0 -->
<g id="edge76" class="edge"><title>&#45;16&#45;&gt;0</title>
<path fill="none" stroke="green" stroke-width="0.102731" d="M501.398,-74.8391C508.602,-65.1523 520.803,-48.7457 530.512,-35.6906"/>
<polygon fill="green" stroke="green" stroke-width="0.102731" points="533.584,-37.4247 536.743,-27.3117 527.967,-33.2474 533.584,-37.4247"/>
</g>
<!-- &#45;16&#45;&gt;1 -->
<g id="edge77" class="edge"><title>&#45;16&#45;&gt;1</title>
<path fill="none" stroke="red" stroke-width="0.29818" d="M485.377,-75.0233C481.189,-71.852 476.154,-68.3445 471.267,-65.6985 431.929,-44.3951 417.656,-48.9381 377.267,-29.6985 376.431,-29.3002 375.585,-28.8836 374.736,-28.4535"/>
<polygon fill="red" stroke="red" stroke-width="0.29818" points="376.226,-25.2797 365.772,-23.5619 372.873,-31.4244 376.226,-25.2797"/>
</g>
<!-- &#45;16&#45;&gt;2 -->
<g id="edge78" class="edge"><title>&#45;16&#45;&gt;2</title>
<path fill="none" stroke="red" stroke-width="0.221759" d="M484.048,-74.9277C480.023,-72.0091 475.446,-68.6998 471.267,-65.6985 454.568,-53.7042 435.562,-40.1774 421.573,-30.244"/>
<polygon fill="red" stroke="red" stroke-width="0.221759" points="423.359,-27.2203 413.179,-24.2875 419.308,-32.9291 423.359,-27.2203"/>
</g>
<!-- &#45;16&#45;&gt;3 -->
<g id="edge79" class="edge"><title>&#45;16&#45;&gt;3</title>
<path fill="none" stroke="green" stroke-width="0.296427" d="M489.627,-74.8391C483.077,-65.2662 472.038,-49.1308 463.159,-36.1528"/>
<polygon fill="green" stroke="green" stroke-width="0.296427" points="465.974,-34.0687 457.438,-27.7919 460.196,-38.0214 465.974,-34.0687"/>
</g>
<!-- &#45;16&#45;&gt;4 -->
<g id="edge80" class="edge"><title>&#45;16&#45;&gt;4</title>
<path fill="none" stroke="red" stroke-width="0.299829" d="M495.513,-74.8391C495.771,-66.1604 496.19,-52.0878 496.553,-39.8642"/>
<polygon fill="red" stroke="red" stroke-width="0.299829" points="500.054,-39.8799 496.853,-29.7802 493.057,-39.6717 500.054,-39.8799"/>
</g>
<!-- &#45;17 -->
<g id="node17" class="node"><title>&#45;17</title>
<polygon fill="lightgray" stroke="black" points="599.767,-93.0833 570.767,-93.0833 570.767,-75.0833 599.767,-75.0833 599.767,-93.0833"/>
<text text-anchor="middle" x="585.267" y="-81.8833" font-family="Times New Roman,serif" font-size="9.00">&#45;17</text>
</g>
<!-- &#45;17&#45;&gt;0 -->
<g id="edge81" class="edge"><title>&#45;17&#45;&gt;0</title>
<path fill="none" stroke="green" stroke-width="0.217058" d="M580.363,-74.8391C574.789,-65.4711 565.477,-49.8186 557.845,-36.9904"/>
<polygon fill="green" stroke="green" stroke-width="0.217058" points="560.783,-35.0835 552.662,-28.279 554.767,-38.6626 560.783,-35.0835"/>
</g>
<!-- &#45;17&#45;&gt;1 -->
<g id="edge82" class="edge"><title>&#45;17&#45;&gt;1</title>
<path fill="none" stroke="red" stroke-width="0.232586" d="M576.046,-74.9501C571.806,-71.6104 566.552,-67.9957 561.267,-65.6985 484.847,-32.4791 455.304,-58.9197 377.267,-29.6985 376.4,-29.3737 375.528,-29.0195 374.656,-28.6421"/>
<polygon fill="red" stroke="red" stroke-width="0.232586" points="376.083,-25.4409 365.587,-23.9961 372.891,-31.6709 376.083,-25.4409"/>
</g>
<!-- &#45;17&#45;&gt;2 -->
<g id="edge83" class="edge"><title>&#45;17&#45;&gt;2</title>
<path fill="none" stroke="red" stroke-width="0.148152" d="M575.512,-74.7575C571.344,-71.5456 566.288,-68.0795 561.267,-65.6985 504.772,-38.906 483.073,-53.5323 425.267,-29.6985 424.411,-29.3455 423.548,-28.9673 422.684,-28.5696"/>
<polygon fill="red" stroke="red" stroke-width="0.148152" points="424.134,-25.3778 413.653,-23.8293 420.881,-31.5759 424.134,-25.3778"/>
</g>
<!-- &#45;17&#45;&gt;3 -->
<g id="edge84" class="edge"><title>&#45;17&#45;&gt;3</title>
<path fill="none" stroke="green" stroke-width="0.156083" stroke-dasharray="1,5" d="M575.347,-75.0784C571.154,-71.9156 566.123,-68.3994 561.267,-65.6985 524.338,-45.1578 511.21,-48.3011 473.267,-29.6985 472.436,-29.2908 471.594,-28.8662 470.747,-28.4293"/>
<polygon fill="green" stroke="green" stroke-width="0.156083" points="472.247,-25.2598 461.798,-23.5063 468.873,-31.393 472.247,-25.2598"/>
</g>
<!-- &#45;17&#45;&gt;4 -->
<g id="edge85" class="edge"><title>&#45;17&#45;&gt;4</title>
<path fill="none" stroke="green" stroke-width="0.184887" d="M574.477,-74.8391C560.12,-63.8702 534.486,-44.2851 516.714,-30.7065"/>
<polygon fill="green" stroke="green" stroke-width="0.184887" points="518.775,-27.8771 508.704,-24.5872 514.526,-33.4395 518.775,-27.8771"/>
</g>
<!-- &#45;18 -->
<g id="node18" class="node"><title>&#45;18</title>
<polygon fill="lightgray" stroke="black" points="646.767,-93.0833 617.767,-93.0833 617.767,-75.0833 646.767,-75.0833 646.767,-93.0833"/>
<text text-anchor="middle" x="632.267" y="-81.8833" font-family="Times New Roman,serif" font-size="9.00">&#45;18</text>
</g>
<!-- &#45;18&#45;&gt;0 -->
<g id="edge86" class="edge"><title>&#45;18&#45;&gt;0</title>
<path fill="none" stroke="green" stroke-width="0.122538" d="M621.6,-74.8391C607.406,-63.8702 582.063,-44.2851 564.493,-30.7065"/>
<polygon fill="green" stroke="green" stroke-width="0.122538" points="566.627,-27.9327 556.574,-24.5872 562.347,-33.4715 566.627,-27.9327"/>
</g>
<!-- &#45;18&#45;&gt;1 -->
<g id="edge87" class="edge"><title>&#45;18&#45;&gt;1</title>
<path fill="none" stroke="green" stroke-width="0.131862" d="M623.523,-74.8447C619.477,-71.4855 614.43,-67.8846 609.267,-65.6985 513.183,-25.0076 475.686,-64.3644 377.267,-29.6985 376.394,-29.3908 375.516,-29.0511 374.64,-28.686"/>
<polygon fill="green" stroke="green" stroke-width="0.131862" points="376.055,-25.4797 365.551,-24.097 372.9,-31.7284 376.055,-25.4797"/>
</g>
<!-- &#45;18&#45;&gt;2 -->
<g id="edge88" class="edge"><title>&#45;18&#45;&gt;2</title>
<path fill="none" stroke="green" stroke-width="0.294841" d="M623.481,-74.9405C619.428,-71.599 614.386,-67.9856 609.267,-65.6985 533.189,-31.7033 503.304,-58.9197 425.267,-29.6985 424.4,-29.3737 423.528,-29.0195 422.656,-28.6421"/>
<polygon fill="green" stroke="green" stroke-width="0.294841" points="424.083,-25.4409 413.587,-23.9961 420.891,-31.6709 424.083,-25.4409"/>
</g>
<!-- &#45;18&#45;&gt;3 -->
<g id="edge89" class="edge"><title>&#45;18&#45;&gt;3</title>
<path fill="none" stroke="green" stroke-width="0.208431" d="M622.968,-74.7425C618.981,-71.5283 614.128,-68.0645 609.267,-65.6985 553.048,-38.3326 531.073,-53.5323 473.267,-29.6985 472.411,-29.3455 471.548,-28.9673 470.684,-28.5696"/>
<polygon fill="green" stroke="green" stroke-width="0.208431" points="472.134,-25.3778 461.653,-23.8293 468.881,-31.5759 472.134,-25.3778"/>
</g>
<!-- &#45;18&#45;&gt;4 -->
<g id="edge90" class="edge"><title>&#45;18&#45;&gt;4</title>
<path fill="none" stroke="red" stroke-width="0.195882" d="M622.804,-75.053C618.792,-71.8863 613.965,-68.3741 609.267,-65.6985 572.549,-44.7831 559.21,-48.3011 521.267,-29.6985 520.436,-29.2908 519.594,-28.8662 518.747,-28.4293"/>
<polygon fill="red" stroke="red" stroke-width="0.195882" points="520.247,-25.2598 509.798,-23.5063 516.873,-31.393 520.247,-25.2598"/>
</g>
<!-- &#45;19 -->
<g id="node19" class="node"><title>&#45;19</title>
<polygon fill="lightgray" stroke="black" points="881.767,-156.468 852.767,-156.468 852.767,-138.468 881.767,-138.468 881.767,-156.468"/>
<text text-anchor="middle" x="867.267" y="-145.268" font-family="Times New Roman,serif" font-size="9.00">&#45;19</text>
</g>
<!-- &#45;19&#45;&gt;0 -->
<g id="edge91" class="edge"><title>&#45;19&#45;&gt;0</title>
<path fill="none" stroke="red" stroke-width="0.230749" stroke-dasharray="1,5" d="M882.137,-146.746C910.819,-146.372 973.406,-140.942 1001.27,-102.468 1010.85,-89.2322 1012.18,-77.8657 1001.27,-65.6985 972.275,-33.3637 661.615,-19.94 570.345,-16.6762"/>
<polygon fill="red" stroke="red" stroke-width="0.230749" points="570.451,-13.1779 560.335,-16.328 570.207,-20.1737 570.451,-13.1779"/>
</g>
<!-- &#45;19&#45;&gt;1 -->
<g id="edge92" class="edge"><title>&#45;19&#45;&gt;1</title>
<path fill="none" stroke="green" stroke-width="0.149187" d="M852.562,-146.285C741.541,-144.829 38.5774,-134.37 8.2675,-102.468 -2.98861,-90.6206 -2.42994,-78.0527 8.2675,-65.6985 49.9044,-17.613 255.78,-14.8853 328.098,-15.448"/>
<polygon fill="green" stroke="green" stroke-width="0.149187" points="328.103,-18.9481 338.139,-15.5549 328.177,-11.9485 328.103,-18.9481"/>
</g>
<!-- &#45;19&#45;&gt;2 -->
<g id="edge93" class="edge"><title>&#45;19&#45;&gt;2</title>
<path fill="none" stroke="red" stroke-width="0.166824" stroke-dasharray="1,5" d="M852.417,-146.272C741.826,-144.738 50.112,-133.903 20.2675,-102.468 9.01568,-90.6165 9.30696,-77.8199 20.2675,-65.6985 73.746,-6.55602 301.38,-54.1696 377.267,-29.6985 378.321,-29.3589 379.378,-28.9686 380.431,-28.5393"/>
<polygon fill="red" stroke="red" stroke-width="0.166824" points="382.177,-31.5787 389.525,-23.9458 379.021,-25.3305 382.177,-31.5787"/>
</g>
<!-- &#45;19&#45;&gt;3 -->
<g id="edge94" class="edge"><title>&#45;19&#45;&gt;3</title>
<path fill="none" stroke="green" stroke-width="0.272649" d="M859.549,-138.392C840.38,-118.372 791.817,-67.9082 787.267,-65.6985 660.915,-4.3249 606.661,-73.7206 473.267,-29.6985 472.388,-29.4083 471.505,-29.0834 470.624,-28.7307"/>
<polygon fill="green" stroke="green" stroke-width="0.272649" points="472.028,-25.5197 461.515,-24.2 468.91,-31.7873 472.028,-25.5197"/>
</g>
<!-- &#45;19&#45;&gt;4 -->
<g id="edge95" class="edge"><title>&#45;19&#45;&gt;4</title>
<path fill="none" stroke="red" stroke-width="0.258644" d="M879.076,-138.269C889.249,-130.421 903.219,-117.564 909.267,-102.468 915.345,-87.2983 920.276,-77.776 909.267,-65.6985 850.934,-1.70234 603.787,-55.9449 521.267,-29.6985 520.213,-29.3631 519.154,-28.9762 518.101,-28.5498"/>
<polygon fill="red" stroke="red" stroke-width="0.258644" points="519.509,-25.3403 509.004,-23.9665 516.36,-31.5917 519.509,-25.3403"/>
</g>
<!-- 63 -->
<g id="node26" class="node"><title>63</title>
<ellipse fill="white" stroke="black" cx="974.267" cy="-84.0833" rx="18.2703" ry="18.2703"/>
<text text-anchor="middle" x="974.267" y="-81.8833" font-family="Times New Roman,serif" font-size="9.00">63</text>
</g>
<!-- &#45;19&#45;&gt;63 -->
<g id="edge101" class="edge"><title>&#45;19&#45;&gt;63</title>
<path fill="none" stroke="green" stroke-width="0.3" d="M881.256,-138.443C898.625,-128.478 928.55,-111.311 949.761,-99.1423"/>
<polygon fill="green" stroke="green" stroke-width="0.3" points="951.604,-102.12 958.537,-94.1078 948.121,-96.0481 951.604,-102.12"/>
</g>
<!-- &#45;20 -->
<g id="node20" class="node"><title>&#45;20</title>
<polygon fill="lightgray" stroke="black" points="693.767,-93.0833 664.767,-93.0833 664.767,-75.0833 693.767,-75.0833 693.767,-93.0833"/>
<text text-anchor="middle" x="679.267" y="-81.8833" font-family="Times New Roman,serif" font-size="9.00">&#45;20</text>
</g>
<!-- &#45;20&#45;&gt;0 -->
<g id="edge96" class="edge"><title>&#45;20&#45;&gt;0</title>
<path fill="none" stroke="red" stroke-width="0.103658" stroke-dasharray="1,5" d="M669.308,-74.7802C665.382,-71.7176 660.747,-68.351 656.267,-65.6985 627.422,-48.6159 591.684,-33.5564 568.684,-24.5762"/>
<polygon fill="red" stroke="red" stroke-width="0.103658" points="569.673,-21.207 559.083,-20.8925 567.166,-27.7425 569.673,-21.207"/>
</g>
<!-- &#45;20&#45;&gt;1 -->
<g id="edge97" class="edge"><title>&#45;20&#45;&gt;1</title>
<path fill="none" stroke="red" stroke-width="0.222605" d="M670.549,-74.7817C666.508,-71.4109 661.457,-67.8183 656.267,-65.6985 540.523,-18.4209 495.716,-69.7216 377.267,-29.6985 376.39,-29.402 375.509,-29.0719 374.63,-28.7147"/>
<polygon fill="red" stroke="red" stroke-width="0.222605" points="376.037,-25.5054 365.528,-24.1633 372.906,-31.7662 376.037,-25.5054"/>
</g>
<!-- &#45;20&#45;&gt;2 -->
<g id="edge98" class="edge"><title>&#45;20&#45;&gt;2</title>
<path fill="none" stroke="red" stroke-width="0.3" stroke-dasharray="1,5" d="M670.522,-74.8463C666.477,-71.4874 661.429,-67.8863 656.267,-65.6985 560.601,-25.1475 523.26,-64.2506 425.267,-29.6985 424.394,-29.3905 423.516,-29.0506 422.64,-28.6852"/>
<polygon fill="red" stroke="red" stroke-width="0.3" points="424.055,-25.479 413.551,-24.0953 420.9,-31.7275 424.055,-25.479"/>
</g>
<!-- &#45;20&#45;&gt;3 -->
<g id="edge99" class="edge"><title>&#45;20&#45;&gt;3</title>
<path fill="none" stroke="green" stroke-width="0.10037" d="M670.48,-74.943C666.427,-71.602 661.385,-67.9882 656.267,-65.6985 580.605,-31.8423 550.881,-58.8068 473.267,-29.6985 472.4,-29.3733 471.528,-29.0187 470.656,-28.641"/>
<polygon fill="green" stroke="green" stroke-width="0.10037" points="472.084,-25.4399 461.588,-23.9935 468.891,-31.6694 472.084,-25.4399"/>
</g>
<!-- &#45;20&#45;&gt;4 -->
<g id="edge100" class="edge"><title>&#45;20&#45;&gt;4</title>
<path fill="none" stroke="red" stroke-width="0.104264" d="M669.966,-74.747C665.979,-71.5334 661.126,-68.0689 656.267,-65.6985 600.459,-38.4695 578.654,-53.4211 521.267,-29.6985 520.412,-29.3447 519.549,-28.9658 518.685,-28.5676"/>
<polygon fill="red" stroke="red" stroke-width="0.104264" points="520.135,-25.3761 509.655,-23.8246 516.88,-31.5733 520.135,-25.3761"/>
</g>
<!-- 63&#45;&gt;0 -->
<g id="edge102" class="edge"><title>63&#45;&gt;0</title>
<path fill="none" stroke="red" stroke-width="0.238978" d="M959.163,-73.3777C953.99,-70.467 948.045,-67.5575 942.267,-65.6985 806.901,-22.1445 634.17,-16.3708 570.389,-15.8055"/>
<polygon fill="red" stroke="red" stroke-width="0.238978" points="570.129,-12.3042 560.111,-15.753 570.093,-19.3041 570.129,-12.3042"/>
</g>
</g>
</svg>
