<?xml version="1.0" encoding="UTF-8" standalone="no"?>
<!DOCTYPE svg PUBLIC "-//W3C//DTD SVG 1.1//EN"
 "http://www.w3.org/Graphics/SVG/1.1/DTD/svg11.dtd">
<!-- Generated by graphviz version 2.38.0 (20140413.2041)
 -->
<!-- Title: %3 Pages: 1 -->
<svg width="887pt" height="92pt"
 viewBox="0.00 0.00 886.50 91.70" xmlns="http://www.w3.org/2000/svg" xmlns:xlink="http://www.w3.org/1999/xlink">
<g id="graph0" class="graph" transform="scale(1 1) rotate(0) translate(4 87.6985)">
<title>%3</title>
<polygon fill="white" stroke="none" points="-4,4 -4,-87.6985 882.5,-87.6985 882.5,4 -4,4"/>
<!-- &#45;1 -->
<g id="node1" class="node"><title>&#45;1</title>
<polygon fill="lightgray" stroke="black" points="494.5,-83.6985 470.5,-83.6985 470.5,-65.6985 494.5,-65.6985 494.5,-83.6985"/>
<text text-anchor="middle" x="482.5" y="-72.4985" font-family="Times New Roman,serif" font-size="9.00">&#45;1</text>
</g>
<!-- 0 -->
<g id="node21" class="node"><title>0</title>
<ellipse fill="lightblue" stroke="black" cx="535.5" cy="-14.8492" rx="14.7" ry="14.7"/>
<text text-anchor="middle" x="535.5" y="-12.6492" font-family="Times New Roman,serif" font-size="9.00">0</text>
</g>
<!-- &#45;1&#45;&gt;0 -->
<g id="edge1" class="edge"><title>&#45;1&#45;&gt;0</title>
<path fill="none" stroke="green" stroke-width="0.694098" d="M489.869,-65.6548C497.304,-57.5402 509.039,-44.7309 518.747,-34.1348"/>
<polygon fill="green" stroke="green" stroke-width="0.694098" points="521.496,-36.3155 525.671,-26.5778 516.335,-31.5868 521.496,-36.3155"/>
</g>
<!-- 1 -->
<g id="node22" class="node"><title>1</title>
<ellipse fill="lightblue" stroke="black" cx="343.5" cy="-14.8492" rx="14.7" ry="14.7"/>
<text text-anchor="middle" x="343.5" y="-12.6492" font-family="Times New Roman,serif" font-size="9.00">1</text>
</g>
<!-- &#45;1&#45;&gt;1 -->
<g id="edge2" class="edge"><title>&#45;1&#45;&gt;1</title>
<path fill="none" stroke="green" stroke-width="0.495759" d="M470.199,-69.1178C442.561,-58.8075 377.198,-34.3166 367.5,-29.6985 366.664,-29.3004 365.818,-28.8838 364.968,-28.4538"/>
<polygon fill="green" stroke="green" stroke-width="0.495759" points="366.458,-25.28 356.004,-23.5627 363.106,-31.4248 366.458,-25.28"/>
</g>
<!-- 2 -->
<g id="node23" class="node"><title>2</title>
<ellipse fill="lightblue" stroke="black" cx="391.5" cy="-14.8492" rx="14.7" ry="14.7"/>
<text text-anchor="middle" x="391.5" y="-12.6492" font-family="Times New Roman,serif" font-size="9.00">2</text>
</g>
<!-- &#45;1&#45;&gt;2 -->
<g id="edge3" class="edge"><title>&#45;1&#45;&gt;2</title>
<path fill="none" stroke="red" stroke-width="0.47129" d="M470.227,-65.8967C455.355,-56.4421 430.068,-40.3671 412.17,-28.9892"/>
<polygon fill="red" stroke="red" stroke-width="0.47129" points="413.895,-25.9386 403.578,-23.5274 410.14,-31.846 413.895,-25.9386"/>
</g>
<!-- 3 -->
<g id="node24" class="node"><title>3</title>
<ellipse fill="lightblue" stroke="black" cx="439.5" cy="-14.8492" rx="14.7" ry="14.7"/>
<text text-anchor="middle" x="439.5" y="-12.6492" font-family="Times New Roman,serif" font-size="9.00">3</text>
</g>
<!-- &#45;1&#45;&gt;3 -->
<g id="edge4" class="edge"><title>&#45;1&#45;&gt;3</title>
<path fill="none" stroke="red" stroke-width="0.282208" d="M476.521,-65.6548C470.752,-57.8934 461.79,-45.8369 454.129,-35.5302"/>
<polygon fill="red" stroke="red" stroke-width="0.282208" points="456.873,-33.3546 448.098,-27.4169 451.255,-37.5305 456.873,-33.3546"/>
</g>
<!-- 4 -->
<g id="node25" class="node"><title>4</title>
<ellipse fill="lightblue" stroke="black" cx="487.5" cy="-14.8492" rx="14.7" ry="14.7"/>
<text text-anchor="middle" x="487.5" y="-12.6492" font-family="Times New Roman,serif" font-size="9.00">4</text>
</g>
<!-- &#45;1&#45;&gt;4 -->
<g id="edge5" class="edge"><title>&#45;1&#45;&gt;4</title>
<path fill="none" stroke="green" stroke-width="0.108562" d="M483.195,-65.6548C483.766,-59.0498 484.606,-49.3344 485.392,-40.2339"/>
<polygon fill="green" stroke="green" stroke-width="0.108562" points="488.898,-40.3206 486.272,-30.0563 481.924,-39.7178 488.898,-40.3206"/>
</g>
<!-- &#45;2 -->
<g id="node2" class="node"><title>&#45;2</title>
<polygon fill="lightgray" stroke="black" points="536.5,-83.6985 512.5,-83.6985 512.5,-65.6985 536.5,-65.6985 536.5,-83.6985"/>
<text text-anchor="middle" x="524.5" y="-72.4985" font-family="Times New Roman,serif" font-size="9.00">&#45;2</text>
</g>
<!-- &#45;2&#45;&gt;0 -->
<g id="edge6" class="edge"><title>&#45;2&#45;&gt;0</title>
<path fill="none" stroke="red" stroke-width="0.107097" d="M526.03,-65.6548C527.316,-58.8878 529.224,-48.8559 530.99,-39.5653"/>
<polygon fill="red" stroke="red" stroke-width="0.107097" points="534.455,-40.0824 532.884,-29.6046 527.578,-38.7747 534.455,-40.0824"/>
</g>
<!-- &#45;2&#45;&gt;1 -->
<g id="edge7" class="edge"><title>&#45;2&#45;&gt;1</title>
<path fill="none" stroke="green" stroke-width="0.479091" d="M512.14,-68.7424C509.32,-67.681 506.323,-66.6069 503.5,-65.6985 443.98,-46.5425 425.306,-53.5323 367.5,-29.6985 366.644,-29.3455 365.781,-28.9673 364.917,-28.5696"/>
<polygon fill="green" stroke="green" stroke-width="0.479091" points="366.366,-25.3778 355.885,-23.8293 363.113,-31.5759 366.366,-25.3778"/>
</g>
<!-- &#45;2&#45;&gt;2 -->
<g id="edge8" class="edge"><title>&#45;2&#45;&gt;2</title>
<path fill="none" stroke="green" stroke-width="0.136596" d="M512.307,-69.0244C487.821,-59.5978 433.477,-38.4607 415.5,-29.6985 414.668,-29.2928 413.825,-28.8697 412.977,-28.4343"/>
<polygon fill="green" stroke="green" stroke-width="0.136596" points="414.475,-25.2639 404.025,-23.5178 411.106,-31.3994 414.475,-25.2639"/>
</g>
<!-- &#45;2&#45;&gt;3 -->
<g id="edge9" class="edge"><title>&#45;2&#45;&gt;3</title>
<path fill="none" stroke="red" stroke-width="0.337967" d="M512.681,-65.6548C499.056,-56.3818 476.423,-40.978 459.928,-29.7523"/>
<polygon fill="red" stroke="red" stroke-width="0.337967" points="461.729,-26.7441 451.493,-24.0111 457.79,-32.531 461.729,-26.7441"/>
</g>
<!-- &#45;2&#45;&gt;4 -->
<g id="edge10" class="edge"><title>&#45;2&#45;&gt;4</title>
<path fill="none" stroke="red" stroke-width="0.135183" d="M519.355,-65.6548C514.551,-58.1437 507.174,-46.6101 500.729,-36.5326"/>
<polygon fill="red" stroke="red" stroke-width="0.135183" points="503.509,-34.3829 495.172,-27.8444 497.612,-38.1546 503.509,-34.3829"/>
</g>
<!-- &#45;3 -->
<g id="node3" class="node"><title>&#45;3</title>
<polygon fill="lightgray" stroke="black" points="878.5,-83.6985 854.5,-83.6985 854.5,-65.6985 878.5,-65.6985 878.5,-83.6985"/>
<text text-anchor="middle" x="866.5" y="-72.4985" font-family="Times New Roman,serif" font-size="9.00">&#45;3</text>
</g>
<!-- &#45;3&#45;&gt;0 -->
<g id="edge11" class="edge"><title>&#45;3&#45;&gt;0</title>
<path fill="none" stroke="red" stroke-width="0.215821" d="M854.201,-68.5329C851.378,-67.4824 848.364,-66.4656 845.5,-65.6985 741.531,-37.85 613.522,-23.3049 560.41,-18.1087"/>
<polygon fill="red" stroke="red" stroke-width="0.215821" points="560.536,-14.6049 550.25,-17.1404 559.872,-21.5734 560.536,-14.6049"/>
</g>
<!-- &#45;3&#45;&gt;2 -->
<g id="edge12" class="edge"><title>&#45;3&#45;&gt;2</title>
<path fill="none" stroke="green" stroke-width="0.283839" d="M854.242,-68.3709C851.417,-67.3288 848.391,-66.3564 845.5,-65.6985 658.501,-23.1445 598.518,-87.0051 415.5,-29.6985 414.444,-29.3679 413.384,-28.9849 412.33,-28.5616"/>
<polygon fill="green" stroke="green" stroke-width="0.283839" points="413.736,-25.3513 403.229,-23.9899 410.594,-31.6064 413.736,-25.3513"/>
</g>
<!-- &#45;3&#45;&gt;3 -->
<g id="edge13" class="edge"><title>&#45;3&#45;&gt;3</title>
<path fill="none" stroke="green" stroke-width="0.251317" d="M854.236,-68.3932C851.412,-67.35 848.388,-66.3715 845.5,-65.6985 679.421,-26.9923 625.971,-81.504 463.5,-29.6985 462.446,-29.3624 461.387,-28.9748 460.334,-28.5479"/>
<polygon fill="green" stroke="green" stroke-width="0.251317" points="461.743,-25.3385 451.238,-23.9628 458.592,-31.5893 461.743,-25.3385"/>
</g>
<!-- &#45;3&#45;&gt;4 -->
<g id="edge14" class="edge"><title>&#45;3&#45;&gt;4</title>
<path fill="none" stroke="green" stroke-width="0.150722" d="M854.23,-68.4219C851.405,-67.3772 848.383,-66.3908 845.5,-65.6985 700.323,-30.8361 653.441,-76.0083 511.5,-29.6985 510.62,-29.4113 509.736,-29.0889 508.854,-28.7384"/>
<polygon fill="green" stroke="green" stroke-width="0.150722" points="510.256,-25.5266 499.742,-24.2177 507.145,-31.7973 510.256,-25.5266"/>
</g>
<!-- &#45;4 -->
<g id="node4" class="node"><title>&#45;4</title>
<polygon fill="lightgray" stroke="black" points="578.5,-83.6985 554.5,-83.6985 554.5,-65.6985 578.5,-65.6985 578.5,-83.6985"/>
<text text-anchor="middle" x="566.5" y="-72.4985" font-family="Times New Roman,serif" font-size="9.00">&#45;4</text>
</g>
<!-- &#45;4&#45;&gt;0 -->
<g id="edge15" class="edge"><title>&#45;4&#45;&gt;0</title>
<path fill="none" stroke="green" stroke-width="0.219592" d="M562.19,-65.6548C558.256,-58.3144 552.264,-47.1324 546.953,-37.2221"/>
<polygon fill="green" stroke="green" stroke-width="0.219592" points="549.968,-35.4382 542.16,-28.2771 543.798,-38.7445 549.968,-35.4382"/>
</g>
<!-- &#45;4&#45;&gt;1 -->
<g id="edge16" class="edge"><title>&#45;4&#45;&gt;1</title>
<path fill="none" stroke="red" stroke-width="0.855968" d="M554.178,-68.6179C551.356,-67.5629 548.348,-66.5229 545.5,-65.6985 467.97,-43.256 442.997,-58.2422 367.5,-29.6985 366.634,-29.371 365.762,-29.0144 364.891,-28.6351"/>
<polygon fill="red" stroke="red" stroke-width="0.855968" points="366.32,-25.4347 355.826,-23.9799 363.123,-31.6616 366.32,-25.4347"/>
</g>
<!-- &#45;4&#45;&gt;2 -->
<g id="edge17" class="edge"><title>&#45;4&#45;&gt;2</title>
<path fill="none" stroke="green" stroke-width="0.355265" d="M554.132,-68.7662C551.313,-67.7036 548.317,-66.6229 545.5,-65.6985 488.536,-47.0066 470.795,-52.8662 415.5,-29.6985 414.646,-29.3406 413.785,-28.9583 412.922,-28.5571"/>
<polygon fill="green" stroke="green" stroke-width="0.355265" points="414.376,-25.3671 403.897,-23.8005 411.112,-31.5596 414.376,-25.3671"/>
</g>
<!-- &#45;4&#45;&gt;3 -->
<g id="edge18" class="edge"><title>&#45;4&#45;&gt;3</title>
<path fill="none" stroke="green" stroke-width="0.606673" d="M554.235,-69.0112C534.712,-61.4277 495.503,-45.6962 463.5,-29.6985 462.672,-29.2844 461.832,-28.8543 460.988,-28.413"/>
<polygon fill="green" stroke="green" stroke-width="0.606673" points="462.494,-25.2464 452.05,-23.4686 459.106,-31.3717 462.494,-25.2464"/>
</g>
<!-- &#45;4&#45;&gt;4 -->
<g id="edge19" class="edge"><title>&#45;4&#45;&gt;4</title>
<path fill="none" stroke="green" stroke-width="0.327688" d="M555.515,-65.6548C543.111,-56.5715 522.673,-41.6056 507.434,-30.4463"/>
<polygon fill="green" stroke="green" stroke-width="0.327688" points="509.298,-27.4732 499.162,-24.389 505.162,-33.1209 509.298,-27.4732"/>
</g>
<!-- &#45;5 -->
<g id="node5" class="node"><title>&#45;5</title>
<polygon fill="lightgray" stroke="black" points="620.5,-83.6985 596.5,-83.6985 596.5,-65.6985 620.5,-65.6985 620.5,-83.6985"/>
<text text-anchor="middle" x="608.5" y="-72.4985" font-family="Times New Roman,serif" font-size="9.00">&#45;5</text>
</g>
<!-- &#45;5&#45;&gt;0 -->
<g id="edge20" class="edge"><title>&#45;5&#45;&gt;0</title>
<path fill="none" stroke="green" stroke-width="0.3628" d="M598.35,-65.6548C587.189,-56.8107 568.991,-42.3896 555.042,-31.3354"/>
<polygon fill="green" stroke="green" stroke-width="0.3628" points="557.018,-28.4355 547.007,-24.9678 552.67,-33.9217 557.018,-28.4355"/>
</g>
<!-- &#45;5&#45;&gt;1 -->
<g id="edge21" class="edge"><title>&#45;5&#45;&gt;1</title>
<path fill="none" stroke="green" stroke-width="0.411749" d="M596.2,-68.5388C593.377,-67.4879 590.363,-66.4696 587.5,-65.6985 491.831,-39.9318 460.814,-63 367.5,-29.6985 366.628,-29.3872 365.751,-29.0445 364.875,-28.6767"/>
<polygon fill="green" stroke="green" stroke-width="0.411749" points="366.293,-25.4715 355.791,-24.0758 363.13,-31.7163 366.293,-25.4715"/>
</g>
<!-- &#45;5&#45;&gt;2 -->
<g id="edge22" class="edge"><title>&#45;5&#45;&gt;2</title>
<path fill="none" stroke="red" stroke-width="0.29264" d="M596.174,-68.6322C593.352,-67.5765 590.345,-66.5326 587.5,-65.6985 512.553,-43.7285 488.46,-57.5656 415.5,-29.6985 414.635,-29.3681 413.764,-29.009 412.894,-28.6275"/>
<polygon fill="red" stroke="red" stroke-width="0.29264" points="414.325,-25.4281 403.832,-23.9626 411.121,-31.6517 414.325,-25.4281"/>
</g>
<!-- &#45;5&#45;&gt;3 -->
<g id="edge23" class="edge"><title>&#45;5&#45;&gt;3</title>
<path fill="none" stroke="green" stroke-width="0.226592" d="M596.123,-68.7921C593.305,-67.7281 590.311,-66.6404 587.5,-65.6985 533.086,-47.4687 516.29,-52.2025 463.5,-29.6985 462.648,-29.3353 461.789,-28.9485 460.928,-28.5436"/>
<polygon fill="green" stroke="green" stroke-width="0.226592" points="462.386,-25.3555 451.911,-23.7693 459.11,-31.5418 462.386,-25.3555"/>
</g>
<!-- &#45;5&#45;&gt;4 -->
<g id="edge24" class="edge"><title>&#45;5&#45;&gt;4</title>
<path fill="none" stroke="green" stroke-width="0.110326" d="M596.375,-68.6498C577.833,-60.8292 541.435,-45.0787 511.5,-29.6985 510.676,-29.2753 509.841,-28.8374 509,-28.3895"/>
<polygon fill="green" stroke="green" stroke-width="0.110326" points="510.516,-25.2274 500.077,-23.4146 507.107,-31.3413 510.516,-25.2274"/>
</g>
<!-- &#45;6 -->
<g id="node6" class="node"><title>&#45;6</title>
<polygon fill="lightgray" stroke="black" points="662.5,-83.6985 638.5,-83.6985 638.5,-65.6985 662.5,-65.6985 662.5,-83.6985"/>
<text text-anchor="middle" x="650.5" y="-72.4985" font-family="Times New Roman,serif" font-size="9.00">&#45;6</text>
</g>
<!-- &#45;6&#45;&gt;0 -->
<g id="edge25" class="edge"><title>&#45;6&#45;&gt;0</title>
<path fill="none" stroke="green" stroke-width="0.282864" d="M638.193,-67.5076C618.943,-57.824 581.436,-38.9569 557.471,-26.9015"/>
<polygon fill="green" stroke="green" stroke-width="0.282864" points="558.926,-23.7155 548.42,-22.3483 555.78,-29.9689 558.926,-23.7155"/>
</g>
<!-- &#45;6&#45;&gt;1 -->
<g id="edge26" class="edge"><title>&#45;6&#45;&gt;1</title>
<path fill="none" stroke="red" stroke-width="0.518306" d="M638.214,-68.4842C635.391,-67.4362 632.373,-66.4328 629.5,-65.6985 515.623,-36.5889 478.698,-67.7818 367.5,-29.6985 366.624,-29.3984 365.744,-29.0652 364.865,-28.7055"/>
<polygon fill="red" stroke="red" stroke-width="0.518306" points="366.275,-25.4971 355.767,-24.142 363.137,-31.7541 366.275,-25.4971"/>
</g>
<!-- &#45;6&#45;&gt;2 -->
<g id="edge27" class="edge"><title>&#45;6&#45;&gt;2</title>
<path fill="none" stroke="green" stroke-width="0.159234" d="M638.197,-68.5482C635.375,-67.4969 632.361,-66.476 629.5,-65.6985 536.427,-40.4081 506.264,-62.3185 415.5,-29.6985 414.629,-29.3853 413.752,-29.0409 412.877,-28.6717"/>
<polygon fill="green" stroke="green" stroke-width="0.159234" points="414.296,-25.467 403.795,-24.0643 411.129,-31.7097 414.296,-25.467"/>
</g>
<!-- &#45;6&#45;&gt;3 -->
<g id="edge28" class="edge"><title>&#45;6&#45;&gt;3</title>
<path fill="none" stroke="green" stroke-width="0.404909" d="M638.169,-68.6474C635.348,-67.591 632.342,-66.5429 629.5,-65.6985 557.133,-44.2002 533.926,-56.89 463.5,-29.6985 462.636,-29.3649 461.766,-29.0032 460.897,-28.6195"/>
<polygon fill="green" stroke="green" stroke-width="0.404909" points="462.331,-25.4211 451.84,-23.9441 459.12,-31.6412 462.331,-25.4211"/>
</g>
<!-- &#45;6&#45;&gt;4 -->
<g id="edge29" class="edge"><title>&#45;6&#45;&gt;4</title>
<path fill="none" stroke="green" stroke-width="0.139435" d="M638.114,-68.8203C635.295,-67.7549 632.305,-66.6594 629.5,-65.6985 577.629,-47.9285 561.792,-51.5417 511.5,-29.6985 510.651,-29.3296 509.793,-28.9378 508.934,-28.5288"/>
<polygon fill="green" stroke="green" stroke-width="0.139435" points="510.397,-25.3429 499.925,-23.7352 507.109,-31.5225 510.397,-25.3429"/>
</g>
<!-- &#45;7 -->
<g id="node7" class="node"><title>&#45;7</title>
<polygon fill="lightgray" stroke="black" points="704.5,-83.6985 680.5,-83.6985 680.5,-65.6985 704.5,-65.6985 704.5,-83.6985"/>
<text text-anchor="middle" x="692.5" y="-72.4985" font-family="Times New Roman,serif" font-size="9.00">&#45;7</text>
</g>
<!-- &#45;7&#45;&gt;0 -->
<g id="edge30" class="edge"><title>&#45;7&#45;&gt;0</title>
<path fill="none" stroke="green" stroke-width="0.144992" d="M680.073,-68.9346C677.257,-67.8633 674.277,-66.7365 671.5,-65.6985 632.023,-50.9447 585.948,-34.1444 558.833,-24.3"/>
<polygon fill="green" stroke="green" stroke-width="0.144992" points="560.016,-21.0062 549.422,-20.8864 557.629,-27.5867 560.016,-21.0062"/>
</g>
<!-- &#45;7&#45;&gt;1 -->
<g id="edge31" class="edge"><title>&#45;7&#45;&gt;1</title>
<path fill="none" stroke="red" stroke-width="0.429634" d="M680.224,-68.4444C677.4,-67.3984 674.379,-66.406 671.5,-65.6985 539.374,-33.2355 496.622,-72.5774 367.5,-29.6985 366.621,-29.4066 365.739,-29.0804 364.858,-28.7265"/>
<polygon fill="red" stroke="red" stroke-width="0.429634" points="366.263,-25.5159 355.751,-24.1904 363.142,-31.7817 366.263,-25.5159"/>
</g>
<!-- &#45;7&#45;&gt;2 -->
<g id="edge32" class="edge"><title>&#45;7&#45;&gt;2</title>
<path fill="none" stroke="red" stroke-width="0.24643" d="M680.213,-68.4909C677.389,-67.4426 674.372,-66.4374 671.5,-65.6985 560.227,-37.0672 524.14,-67.0977 415.5,-29.6985 414.624,-29.3971 413.745,-29.0627 412.867,-28.7019"/>
<polygon fill="red" stroke="red" stroke-width="0.24643" points="414.277,-25.4939 403.77,-24.1338 411.136,-31.7494 414.277,-25.4939"/>
</g>
<!-- &#45;7&#45;&gt;3 -->
<g id="edge33" class="edge"><title>&#45;7&#45;&gt;3</title>
<path fill="none" stroke="green" stroke-width="0.649385" d="M680.195,-68.5582C677.372,-67.5064 674.359,-66.4827 671.5,-65.6985 581.022,-40.884 551.715,-61.6375 463.5,-29.6985 462.629,-29.3832 461.754,-29.0371 460.879,-28.6665"/>
<polygon fill="green" stroke="green" stroke-width="0.649385" points="462.3,-25.4624 451.799,-24.0521 459.128,-31.7028 462.3,-25.4624"/>
</g>
<!-- &#45;7&#45;&gt;4 -->
<g id="edge34" class="edge"><title>&#45;7&#45;&gt;4</title>
<path fill="none" stroke="green" stroke-width="0.127134" d="M680.164,-68.6638C677.343,-67.6065 674.339,-66.5539 671.5,-65.6985 601.71,-44.671 579.394,-56.2155 511.5,-29.6985 510.637,-29.3616 509.769,-28.9971 508.9,-28.6109"/>
<polygon fill="green" stroke="green" stroke-width="0.127134" points="510.337,-25.4136 499.847,-23.9243 507.119,-31.63 510.337,-25.4136"/>
</g>
<!-- &#45;8 -->
<g id="node8" class="node"><title>&#45;8</title>
<polygon fill="lightgray" stroke="black" points="746.5,-83.6985 722.5,-83.6985 722.5,-65.6985 746.5,-65.6985 746.5,-83.6985"/>
<text text-anchor="middle" x="734.5" y="-72.4985" font-family="Times New Roman,serif" font-size="9.00">&#45;8</text>
</g>
<!-- &#45;8&#45;&gt;0 -->
<g id="edge35" class="edge"><title>&#45;8&#45;&gt;0</title>
<path fill="none" stroke="green" stroke-width="0.266962" d="M722.13,-68.7723C719.311,-67.7093 716.316,-66.627 713.5,-65.6985 659.323,-47.8337 594.559,-30.7433 560.034,-21.9656"/>
<polygon fill="green" stroke="green" stroke-width="0.266962" points="560.491,-18.4713 549.939,-19.4173 558.778,-25.2584 560.491,-18.4713"/>
</g>
<!-- &#45;8&#45;&gt;1 -->
<g id="edge36" class="edge"><title>&#45;8&#45;&gt;1</title>
<path fill="none" stroke="red" stroke-width="0.158291" d="M722.232,-68.414C719.407,-67.3697 716.384,-66.3855 713.5,-65.6985 563.099,-29.8757 514.571,-77.3815 367.5,-29.6985 366.447,-29.3572 365.39,-28.9655 364.338,-28.5352"/>
<polygon fill="red" stroke="red" stroke-width="0.158291" points="365.749,-25.3267 355.246,-23.9376 362.59,-31.5735 365.749,-25.3267"/>
</g>
<!-- &#45;8&#45;&gt;2 -->
<g id="edge37" class="edge"><title>&#45;8&#45;&gt;2</title>
<path fill="none" stroke="red" stroke-width="0.147695" d="M722.223,-68.4494C719.399,-67.4032 716.379,-66.4093 713.5,-65.6985 583.983,-33.715 542.059,-71.8917 415.5,-29.6985 414.621,-29.4056 413.739,-29.0785 412.859,-28.7239"/>
<polygon fill="red" stroke="red" stroke-width="0.147695" points="414.264,-25.5136 403.753,-24.1843 411.141,-31.7782 414.264,-25.5136"/>
</g>
<!-- &#45;8&#45;&gt;3 -->
<g id="edge38" class="edge"><title>&#45;8&#45;&gt;3</title>
<path fill="none" stroke="green" stroke-width="0.902867" d="M722.211,-68.498C719.387,-67.4493 716.37,-66.4421 713.5,-65.6985 604.83,-37.5453 569.583,-66.4139 463.5,-29.6985 462.625,-29.3956 461.746,-29.06 460.868,-28.6982"/>
<polygon fill="green" stroke="green" stroke-width="0.902867" points="462.28,-25.4906 451.773,-24.1253 459.135,-31.7445 462.28,-25.4906"/>
</g>
<!-- &#45;8&#45;&gt;4 -->
<g id="edge39" class="edge"><title>&#45;8&#45;&gt;4</title>
<path fill="none" stroke="green" stroke-width="0.452121" stroke-dasharray="1,5" d="M722.192,-68.5688C719.369,-67.5164 716.358,-66.4899 713.5,-65.6985 625.616,-41.3594 597.168,-60.9571 511.5,-29.6985 510.63,-29.3811 509.755,-29.0331 508.881,-28.6609"/>
<polygon fill="green" stroke="green" stroke-width="0.452121" points="510.303,-25.4574 499.804,-24.0393 507.127,-31.6955 510.303,-25.4574"/>
</g>
<!-- &#45;9 -->
<g id="node9" class="node"><title>&#45;9</title>
<polygon fill="lightgray" stroke="black" points="788.5,-83.6985 764.5,-83.6985 764.5,-65.6985 788.5,-65.6985 788.5,-83.6985"/>
<text text-anchor="middle" x="776.5" y="-72.4985" font-family="Times New Roman,serif" font-size="9.00">&#45;9</text>
</g>
<!-- &#45;9&#45;&gt;0 -->
<g id="edge40" class="edge"><title>&#45;9&#45;&gt;0</title>
<path fill="none" stroke="red" stroke-width="0.197301" d="M764.163,-68.6669C761.342,-67.6095 758.338,-66.556 755.5,-65.6985 685.64,-44.5923 600.914,-27.7998 559.981,-20.2245"/>
<polygon fill="red" stroke="red" stroke-width="0.197301" points="560.565,-16.7733 550.099,-18.418 559.306,-23.6592 560.565,-16.7733"/>
</g>
<!-- &#45;9&#45;&gt;1 -->
<g id="edge41" class="edge"><title>&#45;9&#45;&gt;1</title>
<path fill="none" stroke="green" stroke-width="0.370062" d="M764.237,-68.3902C761.412,-67.347 758.388,-66.3694 755.5,-65.6985 586.807,-26.5115 532.538,-82.1913 367.5,-29.6985 366.446,-29.3631 365.387,-28.9762 364.333,-28.5498"/>
<polygon fill="green" stroke="green" stroke-width="0.370062" points="365.742,-25.3403 355.236,-23.9665 362.592,-31.5917 365.742,-25.3403"/>
</g>
<!-- &#45;9&#45;&gt;2 -->
<g id="edge42" class="edge"><title>&#45;9&#45;&gt;2</title>
<path fill="none" stroke="red" stroke-width="0.555001" d="M764.231,-68.4179C761.406,-67.3734 758.384,-66.3881 755.5,-65.6985 607.711,-30.3559 560.006,-76.6948 415.5,-29.6985 414.448,-29.3563 413.391,-28.9638 412.339,-28.5328"/>
<polygon fill="red" stroke="red" stroke-width="0.555001" points="413.75,-25.3245 403.247,-23.9329 410.59,-31.5705 413.75,-25.3245"/>
</g>
<!-- &#45;9&#45;&gt;3 -->
<g id="edge43" class="edge"><title>&#45;9&#45;&gt;3</title>
<path fill="none" stroke="red" stroke-width="0.538034" d="M764.222,-68.4546C761.398,-67.4082 758.378,-66.4129 755.5,-65.6985 628.592,-34.1944 587.498,-71.2062 463.5,-29.6985 462.622,-29.4045 461.74,-29.0765 460.86,-28.7211"/>
<polygon fill="red" stroke="red" stroke-width="0.538034" points="462.266,-25.5111 451.755,-24.1779 459.141,-31.7746 462.266,-25.5111"/>
</g>
<!-- &#45;9&#45;&gt;4 -->
<g id="edge44" class="edge"><title>&#45;9&#45;&gt;4</title>
<path fill="none" stroke="green" stroke-width="0.719559" d="M764.209,-68.5054C761.385,-67.4563 758.369,-66.4471 755.5,-65.6985 649.433,-38.0232 615.027,-65.7303 511.5,-29.6985 510.625,-29.3941 509.747,-29.0572 508.869,-28.6943"/>
<polygon fill="green" stroke="green" stroke-width="0.719559" points="510.282,-25.4871 499.776,-24.1163 507.134,-31.7394 510.282,-25.4871"/>
</g>
<!-- &#45;10 -->
<g id="node10" class="node"><title>&#45;10</title>
<polygon fill="lightgray" stroke="black" points="836,-83.6985 807,-83.6985 807,-65.6985 836,-65.6985 836,-83.6985"/>
<text text-anchor="middle" x="821.5" y="-72.4985" font-family="Times New Roman,serif" font-size="9.00">&#45;10</text>
</g>
<!-- &#45;10&#45;&gt;0 -->
<g id="edge45" class="edge"><title>&#45;10&#45;&gt;0</title>
<path fill="none" stroke="green" stroke-width="0.537513" stroke-dasharray="1,5" d="M806.87,-68.4766C803.797,-67.4774 800.56,-66.4958 797.5,-65.6985 711.427,-43.2722 607.003,-26.4335 560.234,-19.4245"/>
<polygon fill="green" stroke="green" stroke-width="0.537513" points="560.542,-15.932 550.137,-17.9305 559.517,-22.8566 560.542,-15.932"/>
</g>
<!-- &#45;10&#45;&gt;1 -->
<g id="edge46" class="edge"><title>&#45;10&#45;&gt;1</title>
<path fill="none" stroke="green" stroke-width="0.147593" d="M806.928,-68.2273C803.851,-67.2462 800.598,-66.3349 797.5,-65.6985 609.644,-27.102 550.518,-87.0051 367.5,-29.6985 366.444,-29.3679 365.384,-28.9849 364.33,-28.5616"/>
<polygon fill="green" stroke="green" stroke-width="0.147593" points="365.736,-25.3513 355.229,-23.9899 362.594,-31.6064 365.736,-25.3513"/>
</g>
<!-- &#45;10&#45;&gt;2 -->
<g id="edge47" class="edge"><title>&#45;10&#45;&gt;2</title>
<path fill="none" stroke="red" stroke-width="0.61084" d="M806.923,-68.2523C803.846,-67.2694 800.594,-66.3511 797.5,-65.6985 630.641,-30.5073 577.971,-81.504 415.5,-29.6985 414.446,-29.3624 413.387,-28.9748 412.334,-28.5479"/>
<polygon fill="red" stroke="red" stroke-width="0.61084" points="413.743,-25.3385 403.238,-23.9628 410.592,-31.5893 413.743,-25.3385"/>
</g>
<!-- &#45;10&#45;&gt;3 -->
<g id="edge48" class="edge"><title>&#45;10&#45;&gt;3</title>
<path fill="none" stroke="green" stroke-width="0.440131" d="M806.916,-68.2845C803.84,-67.2992 800.59,-66.3718 797.5,-65.6985 651.619,-33.909 605.441,-76.0083 463.5,-29.6985 462.62,-29.4113 461.736,-29.0889 460.854,-28.7384"/>
<polygon fill="green" stroke="green" stroke-width="0.440131" points="462.256,-25.5266 451.742,-24.2177 459.145,-31.7973 462.256,-25.5266"/>
</g>
<!-- &#45;10&#45;&gt;4 -->
<g id="edge49" class="edge"><title>&#45;10&#45;&gt;4</title>
<path fill="none" stroke="green" stroke-width="0.696477" d="M806.906,-68.3271C803.831,-67.3388 800.584,-66.3993 797.5,-65.6985 672.572,-37.3049 632.936,-70.5209 511.5,-29.6985 510.622,-29.4034 509.741,-29.0744 508.861,-28.7182"/>
<polygon fill="green" stroke="green" stroke-width="0.696477" points="510.268,-25.5085 499.758,-24.1713 507.14,-31.7708 510.268,-25.5085"/>
</g>
<!-- &#45;11 -->
<g id="node11" class="node"><title>&#45;11</title>
<polygon fill="lightgray" stroke="black" points="29,-83.6985 0,-83.6985 0,-65.6985 29,-65.6985 29,-83.6985"/>
<text text-anchor="middle" x="14.5" y="-72.4985" font-family="Times New Roman,serif" font-size="9.00">&#45;11</text>
</g>
<!-- &#45;11&#45;&gt;0 -->
<g id="edge50" class="edge"><title>&#45;11&#45;&gt;0</title>
<path fill="none" stroke="red" stroke-width="0.401979" d="M29.4362,-67.8792C32.0891,-67.0258 34.8511,-66.25 37.5,-65.6985 244.338,-22.6342 309.637,-92.0512 511.5,-29.6985 512.557,-29.3719 513.618,-28.9923 514.674,-28.5717"/>
<polygon fill="red" stroke="red" stroke-width="0.401979" points="516.405,-31.6191 523.777,-24.01 513.269,-25.3608 516.405,-31.6191"/>
</g>
<!-- &#45;11&#45;&gt;1 -->
<g id="edge51" class="edge"><title>&#45;11&#45;&gt;1</title>
<path fill="none" stroke="green" stroke-width="0.365003" d="M29.4801,-68.0698C32.1282,-67.1952 34.8771,-66.3629 37.5,-65.6985 140.283,-39.6603 266.071,-24.178 318.601,-18.4238"/>
<polygon fill="green" stroke="green" stroke-width="0.365003" points="319.095,-21.891 328.664,-17.3433 318.348,-14.931 319.095,-21.891"/>
</g>
<!-- &#45;11&#45;&gt;2 -->
<g id="edge52" class="edge"><title>&#45;11&#45;&gt;2</title>
<path fill="none" stroke="red" stroke-width="0.499544" d="M29.4521,-67.9525C32.1032,-67.0909 34.8605,-66.2934 37.5,-65.6985 181.426,-33.257 227.269,-75.5506 367.5,-29.6985 368.38,-29.4107 369.264,-29.0879 370.145,-28.7369"/>
<polygon fill="red" stroke="red" stroke-width="0.499544" points="371.856,-31.7954 379.257,-24.2143 368.743,-25.5253 371.856,-31.7954"/>
</g>
<!-- &#45;11&#45;&gt;3 -->
<g id="edge53" class="edge"><title>&#45;11&#45;&gt;3</title>
<path fill="none" stroke="red" stroke-width="0.407205" d="M29.4453,-67.9219C32.0972,-67.0638 34.8565,-66.2753 37.5,-65.6985 202.38,-29.7196 254.741,-81.0457 415.5,-29.6985 416.554,-29.3618 417.612,-28.9739 418.666,-28.5466"/>
<polygon fill="red" stroke="red" stroke-width="0.407205" points="420.408,-31.5877 427.762,-23.9602 417.257,-25.3373 420.408,-31.5877"/>
</g>
<!-- &#45;11&#45;&gt;4 -->
<g id="edge54" class="edge"><title>&#45;11&#45;&gt;4</title>
<path fill="none" stroke="red" stroke-width="0.220631" d="M29.4402,-67.8982C32.0927,-67.0426 34.8534,-66.2613 37.5,-65.6985 223.353,-26.1783 282.195,-86.5465 463.5,-29.6985 464.556,-29.3675 465.616,-28.9841 466.67,-28.5605"/>
<polygon fill="red" stroke="red" stroke-width="0.220631" points="468.406,-31.6051 475.77,-23.9879 465.264,-25.3503 468.406,-31.6051"/>
</g>
<!-- &#45;12 -->
<g id="node12" class="node"><title>&#45;12</title>
<polygon fill="lightgray" stroke="black" points="76,-83.6985 47,-83.6985 47,-65.6985 76,-65.6985 76,-83.6985"/>
<text text-anchor="middle" x="61.5" y="-72.4985" font-family="Times New Roman,serif" font-size="9.00">&#45;12</text>
</g>
<!-- &#45;12&#45;&gt;0 -->
<g id="edge55" class="edge"><title>&#45;12&#45;&gt;0</title>
<path fill="none" stroke="green" stroke-width="0.314882" d="M76.4401,-67.8977C79.0926,-67.0423 81.8534,-66.261 84.5,-65.6985 270.79,-26.1045 329.767,-86.6612 511.5,-29.6985 512.556,-29.3676 513.616,-28.9843 514.67,-28.5608"/>
<polygon fill="green" stroke="green" stroke-width="0.314882" points="516.406,-31.6055 523.771,-23.9884 513.264,-25.3506 516.406,-31.6055"/>
</g>
<!-- &#45;12&#45;&gt;1 -->
<g id="edge56" class="edge"><title>&#45;12&#45;&gt;1</title>
<path fill="none" stroke="red" stroke-width="0.222745" stroke-dasharray="1,5" d="M76.0017,-68.2987C78.7994,-67.3584 81.7236,-66.4443 84.5,-65.6985 169.247,-42.9324 272.251,-26.3167 318.688,-19.4007"/>
<polygon fill="red" stroke="red" stroke-width="0.222745" points="319.342,-22.8423 328.727,-17.9262 318.325,-15.9166 319.342,-22.8423"/>
</g>
<!-- &#45;12&#45;&gt;2 -->
<g id="edge57" class="edge"><title>&#45;12&#45;&gt;2</title>
<path fill="none" stroke="red" stroke-width="0.418832" d="M76.4612,-67.9922C79.1114,-67.1263 81.8659,-66.317 84.5,-65.6985 207.934,-36.7148 247.344,-70.1783 367.5,-29.6985 368.378,-29.4028 369.259,-29.0733 370.138,-28.7168"/>
<polygon fill="red" stroke="red" stroke-width="0.418832" points="371.861,-31.7689 379.241,-24.1679 368.731,-25.5072 371.861,-31.7689"/>
</g>
<!-- &#45;12&#45;&gt;3 -->
<g id="edge58" class="edge"><title>&#45;12&#45;&gt;3</title>
<path fill="none" stroke="green" stroke-width="0.163008" d="M76.4519,-67.9517C79.1031,-67.0903 81.8604,-66.293 84.5,-65.6985 228.862,-33.1834 274.842,-75.665 415.5,-29.6985 416.38,-29.4108 417.264,-29.0881 418.145,-28.7373"/>
<polygon fill="green" stroke="green" stroke-width="0.163008" points="419.855,-31.7959 427.257,-24.2151 416.744,-25.5256 419.855,-31.7959"/>
</g>
<!-- &#45;12&#45;&gt;4 -->
<g id="edge59" class="edge"><title>&#45;12&#45;&gt;4</title>
<path fill="none" stroke="green" stroke-width="0.231225" stroke-dasharray="1,5" d="M76.4452,-67.9214C79.0971,-67.0633 81.8564,-66.275 84.5,-65.6985 249.817,-29.6459 302.313,-81.1603 463.5,-29.6985 464.554,-29.362 465.612,-28.9741 466.666,-28.5469"/>
<polygon fill="green" stroke="green" stroke-width="0.231225" points="468.408,-31.5881 475.762,-23.9609 465.257,-25.3376 468.408,-31.5881"/>
</g>
<!-- &#45;13 -->
<g id="node13" class="node"><title>&#45;13</title>
<polygon fill="lightgray" stroke="black" points="123,-83.6985 94,-83.6985 94,-65.6985 123,-65.6985 123,-83.6985"/>
<text text-anchor="middle" x="108.5" y="-72.4985" font-family="Times New Roman,serif" font-size="9.00">&#45;13</text>
</g>
<!-- &#45;13&#45;&gt;0 -->
<g id="edge60" class="edge"><title>&#45;13&#45;&gt;0</title>
<path fill="none" stroke="green" stroke-width="0.403622" d="M123.445,-67.9208C126.097,-67.0628 128.856,-66.2747 131.5,-65.6985 297.254,-29.5721 349.885,-81.2748 511.5,-29.6985 512.554,-29.3621 513.612,-28.9744 514.666,-28.5472"/>
<polygon fill="green" stroke="green" stroke-width="0.403622" points="516.408,-31.5885 523.762,-23.9615 513.257,-25.3379 516.408,-31.5885"/>
</g>
<!-- &#45;13&#45;&gt;1 -->
<g id="edge61" class="edge"><title>&#45;13&#45;&gt;1</title>
<path fill="none" stroke="red" stroke-width="0.294024" d="M123.027,-68.3901C125.823,-67.4413 128.739,-66.5008 131.5,-65.6985 198.681,-46.1736 279.501,-28.8309 319.147,-20.7162"/>
<polygon fill="red" stroke="red" stroke-width="0.294024" points="319.867,-24.1415 328.971,-18.7224 318.474,-17.2814 319.867,-24.1415"/>
</g>
<!-- &#45;13&#45;&gt;2 -->
<g id="edge62" class="edge"><title>&#45;13&#45;&gt;2</title>
<path fill="none" stroke="green" stroke-width="0.111967" stroke-dasharray="1,5" d="M123.475,-68.0474C126.123,-67.1753 128.874,-66.3497 131.5,-65.6985 234.484,-40.1629 267.379,-64.8195 367.5,-29.6985 368.374,-29.392 369.252,-29.0532 370.129,-28.6888"/>
<polygon fill="green" stroke="green" stroke-width="0.111967" points="371.867,-31.7322 379.219,-24.1037 368.714,-25.4822 371.867,-31.7322"/>
</g>
<!-- &#45;13&#45;&gt;3 -->
<g id="edge63" class="edge"><title>&#45;13&#45;&gt;3</title>
<path fill="none" stroke="green" stroke-width="0.120569" d="M123.461,-67.9912C126.111,-67.1254 128.866,-66.3164 131.5,-65.6985 255.37,-36.6413 294.917,-70.2925 415.5,-29.6985 416.378,-29.403 417.259,-29.0737 418.139,-28.7173"/>
<polygon fill="green" stroke="green" stroke-width="0.120569" points="419.86,-31.7696 427.242,-24.1691 416.732,-25.5076 419.86,-31.7696"/>
</g>
<!-- &#45;13&#45;&gt;4 -->
<g id="edge64" class="edge"><title>&#45;13&#45;&gt;4</title>
<path fill="none" stroke="red" stroke-width="0.175552" d="M123.452,-67.951C126.103,-67.0896 128.86,-66.2926 131.5,-65.6985 276.299,-33.1097 322.414,-75.7794 463.5,-29.6985 464.38,-29.411 465.264,-29.0884 466.145,-28.7376"/>
<polygon fill="red" stroke="red" stroke-width="0.175552" points="467.855,-31.7964 475.257,-24.216 464.744,-25.526 467.855,-31.7964"/>
</g>
<!-- &#45;14 -->
<g id="node14" class="node"><title>&#45;14</title>
<polygon fill="lightgray" stroke="black" points="170,-83.6985 141,-83.6985 141,-65.6985 170,-65.6985 170,-83.6985"/>
<text text-anchor="middle" x="155.5" y="-72.4985" font-family="Times New Roman,serif" font-size="9.00">&#45;14</text>
</g>
<!-- &#45;14&#45;&gt;0 -->
<g id="edge65" class="edge"><title>&#45;14&#45;&gt;0</title>
<path fill="none" stroke="red" stroke-width="0.552715" d="M170.452,-67.9503C173.103,-67.089 175.86,-66.2922 178.5,-65.6985 323.735,-33.0361 369.987,-75.8938 511.5,-29.6985 512.38,-29.4111 513.264,-29.0886 514.145,-28.738"/>
<polygon fill="red" stroke="red" stroke-width="0.552715" points="515.855,-31.7968 523.258,-24.2168 512.744,-25.5263 515.855,-31.7968"/>
</g>
<!-- &#45;14&#45;&gt;1 -->
<g id="edge66" class="edge"><title>&#45;14&#45;&gt;1</title>
<path fill="none" stroke="red" stroke-width="0.130168" d="M170.07,-68.5289C172.861,-67.5674 175.766,-66.5866 178.5,-65.6985 228.362,-49.5024 287.254,-32.1275 319.464,-22.7726"/>
<polygon fill="red" stroke="red" stroke-width="0.130168" points="320.681,-26.0641 329.313,-19.9208 318.734,-19.3403 320.681,-26.0641"/>
</g>
<!-- &#45;14&#45;&gt;2 -->
<g id="edge67" class="edge"><title>&#45;14&#45;&gt;2</title>
<path fill="none" stroke="red" stroke-width="0.87588" d="M170.001,-68.2944C172.798,-67.3545 175.723,-66.4417 178.5,-65.6985 261.104,-43.5933 287.345,-59.485 367.5,-29.6985 368.368,-29.3759 369.241,-29.0235 370.114,-28.6477"/>
<polygon fill="red" stroke="red" stroke-width="0.87588" points="371.875,-31.6781 379.185,-24.0089 368.688,-25.4458 371.875,-31.6781"/>
</g>
<!-- &#45;14&#45;&gt;3 -->
<g id="edge68" class="edge"><title>&#45;14&#45;&gt;3</title>
<path fill="none" stroke="green" stroke-width="0.264507" d="M170.474,-68.046C173.123,-67.174 175.874,-66.3488 178.5,-65.6985 281.918,-40.0896 314.953,-64.9333 415.5,-29.6985 416.374,-29.3922 417.252,-29.0537 418.129,-28.6895"/>
<polygon fill="green" stroke="green" stroke-width="0.264507" points="419.867,-31.7331 427.22,-24.1053 416.715,-25.4829 419.867,-31.7331"/>
</g>
<!-- &#45;14&#45;&gt;4 -->
<g id="edge69" class="edge"><title>&#45;14&#45;&gt;4</title>
<path fill="none" stroke="red" stroke-width="0.1888" d="M170.461,-67.9903C173.111,-67.1245 175.866,-66.3158 178.5,-65.6985 302.805,-36.5678 342.491,-70.4067 463.5,-29.6985 464.378,-29.4032 465.259,-29.074 466.139,-28.7177"/>
<polygon fill="red" stroke="red" stroke-width="0.1888" points="467.86,-31.7702 475.242,-24.1702 464.732,-25.5081 467.86,-31.7702"/>
</g>
<!-- &#45;15 -->
<g id="node15" class="node"><title>&#45;15</title>
<polygon fill="lightgray" stroke="black" points="217,-83.6985 188,-83.6985 188,-65.6985 217,-65.6985 217,-83.6985"/>
<text text-anchor="middle" x="202.5" y="-72.4985" font-family="Times New Roman,serif" font-size="9.00">&#45;15</text>
</g>
<!-- &#45;15&#45;&gt;0 -->
<g id="edge70" class="edge"><title>&#45;15&#45;&gt;0</title>
<path fill="none" stroke="green" stroke-width="0.185313" d="M217.461,-67.9893C220.111,-67.1237 222.866,-66.3153 225.5,-65.6985 350.241,-36.4943 390.064,-70.5209 511.5,-29.6985 512.378,-29.4034 513.259,-29.0744 514.139,-28.7182"/>
<polygon fill="green" stroke="green" stroke-width="0.185313" points="515.86,-31.7708 523.242,-24.1713 512.732,-25.5085 515.86,-31.7708"/>
</g>
<!-- &#45;15&#45;&gt;1 -->
<g id="edge71" class="edge"><title>&#45;15&#45;&gt;1</title>
<path fill="none" stroke="red" stroke-width="0.545838" d="M217.058,-67.7255C241.605,-57.6544 291.405,-37.2227 320.647,-25.2252"/>
<polygon fill="red" stroke="red" stroke-width="0.545838" points="322.135,-28.398 330.058,-21.3641 319.478,-21.9219 322.135,-28.398"/>
</g>
<!-- &#45;15&#45;&gt;2 -->
<g id="edge72" class="edge"><title>&#45;15&#45;&gt;2</title>
<path fill="none" stroke="green" stroke-width="0.106705" d="M217.039,-68.4288C219.833,-67.4765 222.746,-66.5247 225.5,-65.6985 287.861,-46.9864 307.179,-54.2005 367.5,-29.6985 368.358,-29.35 369.223,-28.9756 370.088,-28.5812"/>
<polygon fill="green" stroke="green" stroke-width="0.106705" points="371.885,-31.591 379.125,-23.8558 368.642,-25.3877 371.885,-31.591"/>
</g>
<!-- &#45;15&#45;&gt;3 -->
<g id="edge73" class="edge"><title>&#45;15&#45;&gt;3</title>
<path fill="none" stroke="red" stroke-width="0.220294" d="M217.495,-68.1267C220.141,-67.2458 222.886,-66.3967 225.5,-65.6985 308.536,-43.5206 334.922,-59.5981 415.5,-29.6985 416.368,-29.3763 417.242,-29.0243 418.114,-28.6487"/>
<polygon fill="red" stroke="red" stroke-width="0.220294" points="419.875,-31.6796 427.186,-24.0114 416.689,-25.4467 419.875,-31.6796"/>
</g>
<!-- &#45;15&#45;&gt;4 -->
<g id="edge74" class="edge"><title>&#45;15&#45;&gt;4</title>
<path fill="none" stroke="red" stroke-width="0.478758" d="M217.474,-68.0446C220.123,-67.1728 222.873,-66.348 225.5,-65.6985 329.353,-40.0164 362.528,-65.0472 463.5,-29.6985 464.374,-29.3925 465.252,-29.0542 466.129,-28.6902"/>
<polygon fill="red" stroke="red" stroke-width="0.478758" points="467.867,-31.7341 475.22,-24.1069 464.715,-25.4835 467.867,-31.7341"/>
</g>
<!-- &#45;16 -->
<g id="node16" class="node"><title>&#45;16</title>
<polygon fill="lightgray" stroke="black" points="264,-83.6985 235,-83.6985 235,-65.6985 264,-65.6985 264,-83.6985"/>
<text text-anchor="middle" x="249.5" y="-72.4985" font-family="Times New Roman,serif" font-size="9.00">&#45;16</text>
</g>
<!-- &#45;16&#45;&gt;0 -->
<g id="edge75" class="edge"><title>&#45;16&#45;&gt;0</title>
<path fill="none" stroke="green" stroke-width="0.304655" d="M264.474,-68.0432C267.122,-67.1716 269.873,-66.3472 272.5,-65.6985 376.787,-39.9432 410.102,-65.161 511.5,-29.6985 512.374,-29.3928 513.253,-29.0547 514.13,-28.6909"/>
<polygon fill="green" stroke="green" stroke-width="0.304655" points="515.866,-31.735 523.221,-24.1085 512.716,-25.4841 515.866,-31.735"/>
</g>
<!-- &#45;16&#45;&gt;1 -->
<g id="edge76" class="edge"><title>&#45;16&#45;&gt;1</title>
<path fill="none" stroke="red" stroke-width="0.177707" d="M262.57,-65.6548C278.106,-56.0937 304.233,-40.0148 322.589,-28.7182"/>
<polygon fill="red" stroke="red" stroke-width="0.177707" points="324.457,-31.6786 331.139,-23.4566 320.788,-25.7171 324.457,-31.6786"/>
</g>
<!-- &#45;16&#45;&gt;2 -->
<g id="edge77" class="edge"><title>&#45;16&#45;&gt;2</title>
<path fill="none" stroke="green" stroke-width="0.33683" d="M264.377,-68.5003C291.631,-58.92 348.511,-38.6414 367.5,-29.6985 368.338,-29.3039 369.185,-28.8904 370.036,-28.463"/>
<polygon fill="green" stroke="green" stroke-width="0.33683" points="371.894,-31.4367 379.006,-23.5837 368.549,-25.2876 371.894,-31.4367"/>
</g>
<!-- &#45;16&#45;&gt;3 -->
<g id="edge78" class="edge"><title>&#45;16&#45;&gt;3</title>
<path fill="none" stroke="red" stroke-width="0.387823" d="M264.038,-68.425C266.832,-67.4731 269.746,-66.5224 272.5,-65.6985 335.289,-46.9149 354.759,-54.3121 415.5,-29.6985 416.358,-29.3507 417.223,-28.9769 418.089,-28.583"/>
<polygon fill="red" stroke="red" stroke-width="0.387823" points="419.885,-31.5934 427.127,-23.86 416.643,-25.3893 419.885,-31.5934"/>
</g>
<!-- &#45;16&#45;&gt;4 -->
<g id="edge79" class="edge"><title>&#45;16&#45;&gt;4</title>
<path fill="none" stroke="green" stroke-width="0.23813" d="M264.494,-68.1246C267.141,-67.2439 269.886,-66.3954 272.5,-65.6985 355.969,-43.4478 382.498,-59.7113 463.5,-29.6985 464.368,-29.3767 465.242,-29.0251 466.115,-28.6498"/>
<polygon fill="green" stroke="green" stroke-width="0.23813" points="467.875,-31.681 475.187,-24.0138 464.689,-25.4477 467.875,-31.681"/>
</g>
<!-- &#45;17 -->
<g id="node17" class="node"><title>&#45;17</title>
<polygon fill="lightgray" stroke="black" points="311,-83.6985 282,-83.6985 282,-65.6985 311,-65.6985 311,-83.6985"/>
<text text-anchor="middle" x="296.5" y="-72.4985" font-family="Times New Roman,serif" font-size="9.00">&#45;17</text>
</g>
<!-- &#45;17&#45;&gt;0 -->
<g id="edge80" class="edge"><title>&#45;17&#45;&gt;0</title>
<path fill="none" stroke="green" stroke-width="0.112504" d="M311.494,-68.1225C314.14,-67.242 316.885,-66.3942 319.5,-65.6985 403.401,-43.3751 430.074,-59.8244 511.5,-29.6985 512.369,-29.3772 513.242,-29.0258 514.115,-28.6509"/>
<polygon fill="green" stroke="green" stroke-width="0.112504" points="515.875,-31.6823 523.188,-24.0163 512.69,-25.4486 515.875,-31.6823"/>
</g>
<!-- &#45;17&#45;&gt;1 -->
<g id="edge81" class="edge"><title>&#45;17&#45;&gt;1</title>
<path fill="none" stroke="green" stroke-width="0.174249" d="M303.035,-65.6548C309.484,-57.7178 319.581,-45.2891 328.076,-34.8334"/>
<polygon fill="green" stroke="green" stroke-width="0.174249" points="330.856,-36.9629 334.445,-26.9946 325.423,-32.5489 330.856,-36.9629"/>
</g>
<!-- &#45;17&#45;&gt;2 -->
<g id="edge82" class="edge"><title>&#45;17&#45;&gt;2</title>
<path fill="none" stroke="green" stroke-width="0.501637" d="M309.709,-65.6548C325.411,-56.0937 351.815,-40.0148 370.367,-28.7182"/>
<polygon fill="green" stroke="green" stroke-width="0.501637" points="372.286,-31.647 379.007,-23.4566 368.646,-25.6683 372.286,-31.647"/>
</g>
<!-- &#45;17&#45;&gt;3 -->
<g id="edge83" class="edge"><title>&#45;17&#45;&gt;3</title>
<path fill="none" stroke="green" stroke-width="0.151538" d="M311.436,-68.3361C341.164,-57.6398 405.729,-34.2836 415.5,-29.6985 416.338,-29.3051 417.186,-28.8925 418.038,-28.4659"/>
<polygon fill="green" stroke="green" stroke-width="0.151538" points="419.894,-31.4406 427.009,-23.5906 416.552,-25.29 419.894,-31.4406"/>
</g>
<!-- &#45;17&#45;&gt;4 -->
<g id="edge84" class="edge"><title>&#45;17&#45;&gt;4</title>
<path fill="none" stroke="red" stroke-width="0.110719" d="M311.036,-68.4214C313.831,-67.4698 316.745,-66.5202 319.5,-65.6985 382.718,-46.8433 402.339,-54.4237 463.5,-29.6985 464.359,-29.3514 465.224,-28.9782 466.09,-28.5848"/>
<polygon fill="red" stroke="red" stroke-width="0.110719" points="467.885,-31.5957 475.129,-23.8642 464.645,-25.3909 467.885,-31.5957"/>
</g>
<!-- &#45;18 -->
<g id="node18" class="node"><title>&#45;18</title>
<polygon fill="lightgray" stroke="black" points="358,-83.6985 329,-83.6985 329,-65.6985 358,-65.6985 358,-83.6985"/>
<text text-anchor="middle" x="343.5" y="-72.4985" font-family="Times New Roman,serif" font-size="9.00">&#45;18</text>
</g>
<!-- &#45;18&#45;&gt;0 -->
<g id="edge85" class="edge"><title>&#45;18&#45;&gt;0</title>
<path fill="none" stroke="green" stroke-width="0.157816" d="M358.035,-68.4178C360.83,-67.4665 363.744,-66.5179 366.5,-65.6985 430.146,-46.7717 449.919,-54.5353 511.5,-29.6985 512.359,-29.3521 513.224,-28.9795 514.09,-28.5866"/>
<polygon fill="green" stroke="green" stroke-width="0.157816" points="515.885,-31.5981 523.131,-23.8683 512.646,-25.3924 515.885,-31.5981"/>
</g>
<!-- &#45;18&#45;&gt;1 -->
<g id="edge86" class="edge"><title>&#45;18&#45;&gt;1</title>
<path fill="none" stroke="green" stroke-width="0.181227" d="M343.5,-65.6548C343.5,-59.0498 343.5,-49.3344 343.5,-40.2339"/>
<polygon fill="green" stroke="green" stroke-width="0.181227" points="347,-40.0563 343.5,-30.0563 340,-40.0564 347,-40.0563"/>
</g>
<!-- &#45;18&#45;&gt;2 -->
<g id="edge87" class="edge"><title>&#45;18&#45;&gt;2</title>
<path fill="none" stroke="green" stroke-width="0.278881" d="M350.174,-65.6548C356.76,-57.7178 367.072,-45.2891 375.748,-34.8334"/>
<polygon fill="green" stroke="green" stroke-width="0.278881" points="378.56,-36.9253 382.252,-26.9946 373.173,-32.4555 378.56,-36.9253"/>
</g>
<!-- &#45;18&#45;&gt;3 -->
<g id="edge88" class="edge"><title>&#45;18&#45;&gt;3</title>
<path fill="none" stroke="red" stroke-width="0.399478" d="M356.848,-65.6548C372.803,-56.0406 399.694,-39.8359 418.456,-28.5304"/>
<polygon fill="red" stroke="red" stroke-width="0.399478" points="420.418,-31.4343 427.177,-23.2752 416.805,-25.4387 420.418,-31.4343"/>
</g>
<!-- &#45;18&#45;&gt;4 -->
<g id="edge89" class="edge"><title>&#45;18&#45;&gt;4</title>
<path fill="none" stroke="green" stroke-width="0.214909" d="M358.106,-68.5021C387.876,-57.8881 453.6,-34.3277 463.5,-29.6985 464.339,-29.3062 465.187,-28.8946 466.039,-28.4689"/>
<polygon fill="green" stroke="green" stroke-width="0.214909" points="467.894,-31.4444 475.013,-23.5973 464.554,-25.2924 467.894,-31.4444"/>
</g>
<!-- &#45;19 -->
<g id="node19" class="node"><title>&#45;19</title>
<polygon fill="lightgray" stroke="black" points="405,-83.6985 376,-83.6985 376,-65.6985 405,-65.6985 405,-83.6985"/>
<text text-anchor="middle" x="390.5" y="-72.4985" font-family="Times New Roman,serif" font-size="9.00">&#45;19</text>
</g>
<!-- &#45;19&#45;&gt;0 -->
<g id="edge90" class="edge"><title>&#45;19&#45;&gt;0</title>
<path fill="none" stroke="red" stroke-width="0.740298" d="M405.229,-68.5054C435.247,-57.8976 501.522,-34.3484 511.5,-29.6985 512.339,-29.3073 513.188,-28.8967 514.04,-28.4717"/>
<polygon fill="red" stroke="red" stroke-width="0.740298" points="515.894,-31.4481 523.016,-23.6039 512.557,-25.2948 515.894,-31.4481"/>
</g>
<!-- &#45;19&#45;&gt;1 -->
<g id="edge91" class="edge"><title>&#45;19&#45;&gt;1</title>
<path fill="none" stroke="green" stroke-width="0.239326" d="M383.965,-65.6548C377.516,-57.7178 367.419,-45.2891 358.924,-34.8334"/>
<polygon fill="green" stroke="green" stroke-width="0.239326" points="361.577,-32.5489 352.555,-26.9946 356.144,-36.9629 361.577,-32.5489"/>
</g>
<!-- &#45;19&#45;&gt;2 -->
<g id="edge92" class="edge"><title>&#45;19&#45;&gt;2</title>
<path fill="none" stroke="green" stroke-width="0.478768" d="M390.639,-65.6548C390.753,-59.0498 390.921,-49.3344 391.078,-40.2339"/>
<polygon fill="green" stroke="green" stroke-width="0.478768" points="394.581,-40.1153 391.254,-30.0563 387.582,-39.9943 394.581,-40.1153"/>
</g>
<!-- &#45;19&#45;&gt;3 -->
<g id="edge93" class="edge"><title>&#45;19&#45;&gt;3</title>
<path fill="none" stroke="green" stroke-width="0.340345" d="M397.313,-65.6548C404.036,-57.7178 414.564,-45.2891 423.42,-34.8334"/>
<polygon fill="green" stroke="green" stroke-width="0.340345" points="426.267,-36.8874 430.06,-26.9946 420.926,-32.363 426.267,-36.8874"/>
</g>
<!-- &#45;19&#45;&gt;4 -->
<g id="edge94" class="edge"><title>&#45;19&#45;&gt;4</title>
<path fill="none" stroke="red" stroke-width="0.125122" d="M403.987,-65.6548C420.108,-56.0406 447.28,-39.8359 466.237,-28.5304"/>
<polygon fill="red" stroke="red" stroke-width="0.125122" points="468.253,-31.4033 475.048,-23.2752 464.667,-25.3913 468.253,-31.4033"/>
</g>
<!-- &#45;20 -->
<g id="node20" class="node"><title>&#45;20</title>
<polygon fill="lightgray" stroke="black" points="452,-83.6985 423,-83.6985 423,-65.6985 452,-65.6985 452,-83.6985"/>
<text text-anchor="middle" x="437.5" y="-72.4985" font-family="Times New Roman,serif" font-size="9.00">&#45;20</text>
</g>
<!-- &#45;20&#45;&gt;0 -->
<g id="edge95" class="edge"><title>&#45;20&#45;&gt;0</title>
<path fill="none" stroke="red" stroke-width="0.113143" d="M451.126,-65.6548C467.488,-55.9967 495.116,-39.6878 514.279,-28.3758"/>
<polygon fill="red" stroke="red" stroke-width="0.113143" points="516.088,-31.3726 522.92,-23.2752 512.529,-25.3445 516.088,-31.3726"/>
</g>
<!-- &#45;20&#45;&gt;1 -->
<g id="edge96" class="edge"><title>&#45;20&#45;&gt;1</title>
<path fill="none" stroke="red" stroke-width="0.253549" d="M424.43,-65.6548C408.894,-56.0937 382.767,-40.0148 364.411,-28.7182"/>
<polygon fill="red" stroke="red" stroke-width="0.253549" points="366.212,-25.7171 355.861,-23.4566 362.543,-31.6786 366.212,-25.7171"/>
</g>
<!-- &#45;20&#45;&gt;2 -->
<g id="edge97" class="edge"><title>&#45;20&#45;&gt;2</title>
<path fill="none" stroke="green" stroke-width="0.12986" d="M431.104,-65.6548C424.793,-57.7178 414.91,-45.2891 406.596,-34.8334"/>
<polygon fill="green" stroke="green" stroke-width="0.12986" points="409.326,-32.6433 400.362,-26.9946 403.847,-37.0001 409.326,-32.6433"/>
</g>
<!-- &#45;20&#45;&gt;3 -->
<g id="edge98" class="edge"><title>&#45;20&#45;&gt;3</title>
<path fill="none" stroke="green" stroke-width="0.241654" d="M437.778,-65.6548C438.006,-59.0498 438.342,-49.3344 438.657,-40.2339"/>
<polygon fill="green" stroke="green" stroke-width="0.241654" points="442.161,-40.1713 439.009,-30.0563 435.165,-39.9294 442.161,-40.1713"/>
</g>
<!-- &#45;20&#45;&gt;4 -->
<g id="edge99" class="edge"><title>&#45;20&#45;&gt;4</title>
<path fill="none" stroke="green" stroke-width="0.393292" d="M444.452,-65.6548C451.397,-57.6198 462.32,-44.9816 471.426,-34.4471"/>
<polygon fill="green" stroke="green" stroke-width="0.393292" points="474.336,-36.4322 478.227,-26.5778 469.04,-31.8548 474.336,-36.4322"/>
</g>
</g>
</svg>
