<?xml version="1.0" encoding="UTF-8" standalone="no"?>
<!DOCTYPE svg PUBLIC "-//W3C//DTD SVG 1.1//EN"
 "http://www.w3.org/Graphics/SVG/1.1/DTD/svg11.dtd">
<!-- Generated by graphviz version 2.38.0 (20140413.2041)
 -->
<!-- Title: %3 Pages: 1 -->
<svg width="886pt" height="92pt"
 viewBox="0.00 0.00 886.00 91.70" xmlns="http://www.w3.org/2000/svg" xmlns:xlink="http://www.w3.org/1999/xlink">
<g id="graph0" class="graph" transform="scale(1 1) rotate(0) translate(4 87.6985)">
<title>%3</title>
<polygon fill="white" stroke="none" points="-4,4 -4,-87.6985 882,-87.6985 882,4 -4,4"/>
<!-- &#45;1 -->
<g id="node1" class="node"><title>&#45;1</title>
<polygon fill="lightgray" stroke="black" points="668,-83.6985 644,-83.6985 644,-65.6985 668,-65.6985 668,-83.6985"/>
<text text-anchor="middle" x="656" y="-72.4985" font-family="Times New Roman,serif" font-size="9.00">&#45;1</text>
</g>
<!-- 0 -->
<g id="node21" class="node"><title>0</title>
<ellipse fill="lightblue" stroke="black" cx="542" cy="-14.8492" rx="14.7" ry="14.7"/>
<text text-anchor="middle" x="542" y="-12.6492" font-family="Times New Roman,serif" font-size="9.00">0</text>
</g>
<!-- &#45;1&#45;&gt;0 -->
<g id="edge1" class="edge"><title>&#45;1&#45;&gt;0</title>
<path fill="none" stroke="green" stroke-width="0.257534" d="M643.8,-67.5076C624.818,-57.8753 587.93,-39.1563 564.158,-27.0934"/>
<polygon fill="green" stroke="green" stroke-width="0.257534" points="565.662,-23.9318 555.161,-22.5277 562.494,-30.1741 565.662,-23.9318"/>
</g>
<!-- 1 -->
<g id="node22" class="node"><title>1</title>
<ellipse fill="lightblue" stroke="black" cx="350" cy="-14.8492" rx="14.7" ry="14.7"/>
<text text-anchor="middle" x="350" y="-12.6492" font-family="Times New Roman,serif" font-size="9.00">1</text>
</g>
<!-- &#45;1&#45;&gt;1 -->
<g id="edge2" class="edge"><title>&#45;1&#45;&gt;1</title>
<path fill="none" stroke="red" stroke-width="0.296757" d="M643.714,-68.4853C640.89,-67.4373 637.873,-66.4336 635,-65.6985 521.557,-36.6686 484.772,-67.6678 374,-29.6985 373.124,-29.3982 372.244,-29.0648 371.366,-28.7049"/>
<polygon fill="red" stroke="red" stroke-width="0.296757" points="372.776,-25.4966 362.268,-24.1406 369.637,-31.7533 372.776,-25.4966"/>
</g>
<!-- 2 -->
<g id="node23" class="node"><title>2</title>
<ellipse fill="lightblue" stroke="black" cx="398" cy="-14.8492" rx="14.7" ry="14.7"/>
<text text-anchor="middle" x="398" y="-12.6492" font-family="Times New Roman,serif" font-size="9.00">2</text>
</g>
<!-- &#45;1&#45;&gt;2 -->
<g id="edge3" class="edge"><title>&#45;1&#45;&gt;2</title>
<path fill="none" stroke="red" stroke-width="0.289609" d="M643.697,-68.5499C640.874,-67.4985 637.861,-66.4771 635,-65.6985 542.36,-40.4874 512.339,-62.2049 422,-29.6985 421.129,-29.3849 420.253,-29.0403 419.378,-28.6709"/>
<polygon fill="red" stroke="red" stroke-width="0.289609" points="420.797,-25.4663 410.295,-24.0623 417.629,-31.7086 420.797,-25.4663"/>
</g>
<!-- 3 -->
<g id="node24" class="node"><title>3</title>
<ellipse fill="lightblue" stroke="black" cx="446" cy="-14.8492" rx="14.7" ry="14.7"/>
<text text-anchor="middle" x="446" y="-12.6492" font-family="Times New Roman,serif" font-size="9.00">3</text>
</g>
<!-- &#45;1&#45;&gt;3 -->
<g id="edge4" class="edge"><title>&#45;1&#45;&gt;3</title>
<path fill="none" stroke="red" stroke-width="0.19351" d="M643.668,-68.6501C640.847,-67.5935 637.842,-66.5446 635,-65.6985 563.063,-44.2787 540.004,-56.7775 470,-29.6985 469.136,-29.3644 468.267,-29.0022 467.397,-28.6181"/>
<polygon fill="red" stroke="red" stroke-width="0.19351" points="468.832,-25.4199 458.341,-23.9409 465.62,-31.6394 468.832,-25.4199"/>
</g>
<!-- 4 -->
<g id="node25" class="node"><title>4</title>
<ellipse fill="lightblue" stroke="black" cx="494" cy="-14.8492" rx="14.7" ry="14.7"/>
<text text-anchor="middle" x="494" y="-12.6492" font-family="Times New Roman,serif" font-size="9.00">4</text>
</g>
<!-- &#45;1&#45;&gt;4 -->
<g id="edge5" class="edge"><title>&#45;1&#45;&gt;4</title>
<path fill="none" stroke="red" stroke-width="0.265178" d="M643.612,-68.8253C640.794,-67.7596 637.804,-66.6628 635,-65.6985 583.552,-48.0049 567.876,-51.4319 518,-29.6985 517.151,-29.3286 516.294,-28.936 515.435,-28.5262"/>
<polygon fill="red" stroke="red" stroke-width="0.265178" points="516.899,-25.3407 506.428,-23.7292 513.609,-31.5191 516.899,-25.3407"/>
</g>
<!-- &#45;2 -->
<g id="node2" class="node"><title>&#45;2</title>
<polygon fill="lightgray" stroke="black" points="710,-83.6985 686,-83.6985 686,-65.6985 710,-65.6985 710,-83.6985"/>
<text text-anchor="middle" x="698" y="-72.4985" font-family="Times New Roman,serif" font-size="9.00">&#45;2</text>
</g>
<!-- &#45;2&#45;&gt;0 -->
<g id="edge6" class="edge"><title>&#45;2&#45;&gt;0</title>
<path fill="none" stroke="green" stroke-width="0.19721" d="M685.571,-68.9395C682.755,-67.8679 679.776,-66.7398 677,-65.6985 637.969,-51.0582 592.468,-34.3261 565.512,-24.4482"/>
<polygon fill="green" stroke="green" stroke-width="0.19721" points="566.409,-21.0496 555.816,-20.8977 564.002,-27.6228 566.409,-21.0496"/>
</g>
<!-- &#45;2&#45;&gt;1 -->
<g id="edge7" class="edge"><title>&#45;2&#45;&gt;1</title>
<path fill="none" stroke="red" stroke-width="0.298167" d="M685.724,-68.4452C682.9,-67.3992 679.879,-66.4065 677,-65.6985 545.309,-33.3154 502.695,-72.4631 374,-29.6985 373.121,-29.4065 372.239,-29.0801 371.358,-28.7261"/>
<polygon fill="red" stroke="red" stroke-width="0.298167" points="372.763,-25.5155 362.251,-24.1894 369.642,-31.7812 372.763,-25.5155"/>
</g>
<!-- &#45;2&#45;&gt;2 -->
<g id="edge8" class="edge"><title>&#45;2&#45;&gt;2</title>
<path fill="none" stroke="red" stroke-width="0.296746" d="M685.712,-68.4921C682.889,-67.4437 679.871,-66.4381 677,-65.6985 566.161,-37.1469 530.214,-66.9837 422,-29.6985 421.124,-29.3968 420.245,-29.0622 419.367,-28.7013"/>
<polygon fill="red" stroke="red" stroke-width="0.296746" points="420.778,-25.4934 410.271,-24.1324 417.636,-31.7486 420.778,-25.4934"/>
</g>
<!-- &#45;2&#45;&gt;3 -->
<g id="edge9" class="edge"><title>&#45;2&#45;&gt;3</title>
<path fill="none" stroke="green" stroke-width="0.1482" d="M685.694,-68.56C682.872,-67.508 679.859,-66.4839 677,-65.6985 586.955,-40.9633 557.79,-61.524 470,-29.6985 469.129,-29.3829 468.254,-29.0364 467.38,-28.6655"/>
<polygon fill="green" stroke="green" stroke-width="0.1482" points="468.8,-25.4616 458.3,-24.05 465.628,-31.7016 468.8,-25.4616"/>
</g>
<!-- &#45;2&#45;&gt;4 -->
<g id="edge10" class="edge"><title>&#45;2&#45;&gt;4</title>
<path fill="none" stroke="red" stroke-width="0.298113" stroke-dasharray="1,5" d="M685.663,-68.6666C682.842,-67.6091 679.838,-66.5558 677,-65.6985 607.639,-44.7493 585.473,-56.1032 518,-29.6985 517.138,-29.361 516.269,-28.996 515.401,-28.6094"/>
<polygon fill="red" stroke="red" stroke-width="0.298113" points="516.838,-25.4123 506.349,-23.9209 513.618,-31.628 516.838,-25.4123"/>
</g>
<!-- &#45;3 -->
<g id="node3" class="node"><title>&#45;3</title>
<polygon fill="lightgray" stroke="black" points="752,-83.6985 728,-83.6985 728,-65.6985 752,-65.6985 752,-83.6985"/>
<text text-anchor="middle" x="740" y="-72.4985" font-family="Times New Roman,serif" font-size="9.00">&#45;3</text>
</g>
<!-- &#45;3&#45;&gt;0 -->
<g id="edge11" class="edge"><title>&#45;3&#45;&gt;0</title>
<path fill="none" stroke="green" stroke-width="0.199841" d="M727.629,-68.7753C724.81,-67.7122 721.815,-66.6291 719,-65.6985 665.118,-47.8873 600.722,-30.776 566.393,-21.9806"/>
<polygon fill="green" stroke="green" stroke-width="0.199841" points="566.91,-18.5006 556.356,-19.4268 565.184,-25.2845 566.91,-18.5006"/>
</g>
<!-- &#45;3&#45;&gt;1 -->
<g id="edge12" class="edge"><title>&#45;3&#45;&gt;1</title>
<path fill="none" stroke="green" stroke-width="0.192615" d="M727.731,-68.4147C724.907,-67.3703 721.884,-66.3859 719,-65.6985 569.035,-29.9557 520.644,-77.2671 374,-29.6985 372.948,-29.3571 371.89,-28.9652 370.838,-28.5348"/>
<polygon fill="green" stroke="green" stroke-width="0.192615" points="372.249,-25.3263 361.746,-23.9368 369.09,-31.573 372.249,-25.3263"/>
</g>
<!-- &#45;3&#45;&gt;2 -->
<g id="edge13" class="edge"><title>&#45;3&#45;&gt;2</title>
<path fill="none" stroke="green" stroke-width="0.210105" d="M727.723,-68.4502C724.899,-67.404 721.878,-66.4099 719,-65.6985 589.918,-33.7949 548.132,-71.7774 422,-29.6985 421.122,-29.4054 420.24,-29.0781 419.359,-28.7234"/>
<polygon fill="green" stroke="green" stroke-width="0.210105" points="420.765,-25.5132 410.254,-24.1832 417.641,-31.7777 420.765,-25.5132"/>
</g>
<!-- &#45;3&#45;&gt;3 -->
<g id="edge14" class="edge"><title>&#45;3&#45;&gt;3</title>
<path fill="none" stroke="green" stroke-width="0.154434" d="M727.71,-68.4992C724.887,-67.4504 721.87,-66.4429 719,-65.6985 610.764,-37.625 575.657,-66.2999 470,-29.6985 469.125,-29.3954 468.246,-29.0595 467.368,-28.6976"/>
<polygon fill="green" stroke="green" stroke-width="0.154434" points="468.78,-25.49 458.274,-24.1238 465.635,-31.7437 468.78,-25.49"/>
</g>
<!-- &#45;3&#45;&gt;4 -->
<g id="edge15" class="edge"><title>&#45;3&#45;&gt;4</title>
<path fill="none" stroke="red" stroke-width="0.164209" d="M727.691,-68.5706C724.869,-67.5182 721.857,-66.4911 719,-65.6985 631.548,-41.4386 603.243,-60.8437 518,-29.6985 517.13,-29.3807 516.255,-29.0324 515.382,-28.6599"/>
<polygon fill="red" stroke="red" stroke-width="0.164209" points="516.804,-25.4566 506.305,-24.0371 513.627,-31.6942 516.804,-25.4566"/>
</g>
<!-- &#45;4 -->
<g id="node4" class="node"><title>&#45;4</title>
<polygon fill="lightgray" stroke="black" points="794,-83.6985 770,-83.6985 770,-65.6985 794,-65.6985 794,-83.6985"/>
<text text-anchor="middle" x="782" y="-72.4985" font-family="Times New Roman,serif" font-size="9.00">&#45;4</text>
</g>
<!-- &#45;4&#45;&gt;0 -->
<g id="edge16" class="edge"><title>&#45;4&#45;&gt;0</title>
<path fill="none" stroke="red" stroke-width="0.108402" d="M769.663,-68.669C766.842,-67.6114 763.838,-66.5574 761,-65.6985 691.452,-44.6493 607.114,-27.8309 566.369,-20.2372"/>
<polygon fill="red" stroke="red" stroke-width="0.108402" points="567,-16.7946 556.532,-18.426 565.733,-23.6789 567,-16.7946"/>
</g>
<!-- &#45;4&#45;&gt;1 -->
<g id="edge17" class="edge"><title>&#45;4&#45;&gt;1</title>
<path fill="none" stroke="red" stroke-width="0.288418" d="M769.737,-68.3907C766.912,-67.3475 763.888,-66.3697 761,-65.6985 592.742,-26.5917 538.61,-82.0768 374,-29.6985 372.946,-29.363 371.887,-28.976 370.833,-28.5495"/>
<polygon fill="red" stroke="red" stroke-width="0.288418" points="372.242,-25.34 361.737,-23.9659 369.092,-31.5913 372.242,-25.34"/>
</g>
<!-- &#45;4&#45;&gt;2 -->
<g id="edge18" class="edge"><title>&#45;4&#45;&gt;2</title>
<path fill="none" stroke="red" stroke-width="0.3" d="M769.73,-68.4186C766.906,-67.374 763.884,-66.3886 761,-65.6985 613.647,-30.436 566.078,-76.5804 422,-29.6985 421.119,-29.4119 420.236,-29.0902 419.354,-28.7401"/>
<polygon fill="red" stroke="red" stroke-width="0.3" points="420.755,-25.5282 410.241,-24.2217 417.645,-31.7997 420.755,-25.5282"/>
</g>
<!-- &#45;4&#45;&gt;3 -->
<g id="edge19" class="edge"><title>&#45;4&#45;&gt;3</title>
<path fill="none" stroke="green" stroke-width="0.293454" d="M769.721,-68.4555C766.897,-67.409 763.878,-66.4135 761,-65.6985 634.526,-34.2743 593.571,-71.092 470,-29.6985 469.122,-29.4043 468.24,-29.0761 467.36,-28.7206"/>
<polygon fill="green" stroke="green" stroke-width="0.293454" points="468.766,-25.5107 458.256,-24.1768 465.64,-31.774 468.766,-25.5107"/>
</g>
<!-- &#45;4&#45;&gt;4 -->
<g id="edge20" class="edge"><title>&#45;4&#45;&gt;4</title>
<path fill="none" stroke="green" stroke-width="0.14935" d="M769.708,-68.5066C766.885,-67.4575 763.869,-66.4479 761,-65.6985 655.366,-38.1028 621.101,-65.6165 518,-29.6985 517.126,-29.3938 516.247,-29.0567 515.37,-28.6937"/>
<polygon fill="green" stroke="green" stroke-width="0.14935" points="516.783,-25.4865 506.277,-24.1148 513.634,-31.7385 516.783,-25.4865"/>
</g>
<!-- &#45;5 -->
<g id="node5" class="node"><title>&#45;5</title>
<polygon fill="lightgray" stroke="black" points="836,-83.6985 812,-83.6985 812,-65.6985 836,-65.6985 836,-83.6985"/>
<text text-anchor="middle" x="824" y="-72.4985" font-family="Times New Roman,serif" font-size="9.00">&#45;5</text>
</g>
<!-- &#45;5&#45;&gt;0 -->
<g id="edge21" class="edge"><title>&#45;5&#45;&gt;0</title>
<path fill="none" stroke="green" stroke-width="0.188611" d="M811.684,-68.595C808.862,-67.5412 805.853,-66.5075 803,-65.6985 717.744,-41.5193 613.473,-25.5584 566.731,-19.0969"/>
<polygon fill="green" stroke="green" stroke-width="0.188611" points="567.018,-15.6038 556.638,-17.7267 566.076,-22.5402 567.018,-15.6038"/>
</g>
<!-- &#45;5&#45;&gt;1 -->
<g id="edge22" class="edge"><title>&#45;5&#45;&gt;1</title>
<path fill="none" stroke="green" stroke-width="0.208295" d="M811.742,-68.3713C808.916,-67.3292 805.891,-66.3567 803,-65.6985 616.437,-23.2246 556.589,-86.8905 374,-29.6985 372.944,-29.3678 371.884,-28.9847 370.83,-28.5613"/>
<polygon fill="green" stroke="green" stroke-width="0.208295" points="372.236,-25.3511 361.729,-23.9894 369.094,-31.6061 372.236,-25.3511"/>
</g>
<!-- &#45;5&#45;&gt;2 -->
<g id="edge23" class="edge"><title>&#45;5&#45;&gt;2</title>
<path fill="none" stroke="red" stroke-width="0.127698" d="M811.736,-68.3938C808.912,-67.3505 805.888,-66.3718 803,-65.6985 637.356,-27.0724 584.043,-81.3894 422,-29.6985 420.946,-29.3622 419.887,-28.9746 418.834,-28.5476"/>
<polygon fill="red" stroke="red" stroke-width="0.127698" points="420.243,-25.3382 409.738,-23.9622 417.092,-31.5889 420.243,-25.3382"/>
</g>
<!-- &#45;5&#45;&gt;3 -->
<g id="edge24" class="edge"><title>&#45;5&#45;&gt;3</title>
<path fill="none" stroke="red" stroke-width="0.295421" d="M811.73,-68.4226C808.905,-67.3778 805.883,-66.3913 803,-65.6985 658.258,-30.9161 611.513,-75.8938 470,-29.6985 469.12,-29.4111 468.236,-29.0886 467.355,-28.738"/>
<polygon fill="red" stroke="red" stroke-width="0.295421" points="468.756,-25.5263 458.242,-24.2168 465.645,-31.7968 468.756,-25.5263"/>
</g>
<!-- &#45;5&#45;&gt;4 -->
<g id="edge25" class="edge"><title>&#45;5&#45;&gt;4</title>
<path fill="none" stroke="red" stroke-width="0.213591" d="M811.72,-68.461C808.896,-67.4142 805.877,-66.4172 803,-65.6985 679.134,-34.7535 639.009,-70.4067 518,-29.6985 517.122,-29.4032 516.241,-29.074 515.361,-28.7177"/>
<polygon fill="red" stroke="red" stroke-width="0.213591" points="516.768,-25.5081 506.258,-24.1702 513.64,-31.7702 516.768,-25.5081"/>
</g>
<!-- &#45;6 -->
<g id="node6" class="node"><title>&#45;6</title>
<polygon fill="lightgray" stroke="black" points="878,-83.6985 854,-83.6985 854,-65.6985 878,-65.6985 878,-83.6985"/>
<text text-anchor="middle" x="866" y="-72.4985" font-family="Times New Roman,serif" font-size="9.00">&#45;6</text>
</g>
<!-- &#45;6&#45;&gt;0 -->
<g id="edge26" class="edge"><title>&#45;6&#45;&gt;0</title>
<path fill="none" stroke="green" stroke-width="0.121297" d="M853.699,-68.5406C850.877,-67.4897 847.863,-66.4708 845,-65.6985 743.608,-38.3437 618.847,-23.571 566.716,-18.2139"/>
<polygon fill="green" stroke="green" stroke-width="0.121297" points="567.028,-14.7277 556.729,-17.2125 566.329,-21.6928 567.028,-14.7277"/>
</g>
<!-- &#45;6&#45;&gt;1 -->
<g id="edge27" class="edge"><title>&#45;6&#45;&gt;1</title>
<path fill="none" stroke="red" stroke-width="0.297138" d="M853.745,-68.3553C850.92,-67.314 847.894,-66.3459 845,-65.6985 640.122,-19.8555 574.578,-91.707 374,-29.6985 372.943,-29.3717 371.882,-28.9918 370.827,-28.5711"/>
<polygon fill="red" stroke="red" stroke-width="0.297138" points="372.231,-25.3602 361.723,-24.0087 369.095,-31.6183 372.231,-25.3602"/>
</g>
<!-- &#45;6&#45;&gt;2 -->
<g id="edge28" class="edge"><title>&#45;6&#45;&gt;2</title>
<path fill="none" stroke="green" stroke-width="0.15358" d="M853.741,-68.3738C850.916,-67.3316 847.891,-66.3584 845,-65.6985 661.053,-23.7058 602.02,-86.2026 422,-29.6985 420.944,-29.3671 419.885,-28.9835 418.83,-28.5598"/>
<polygon fill="green" stroke="green" stroke-width="0.15358" points="420.237,-25.3496 409.73,-23.9863 417.093,-31.6042 420.237,-25.3496"/>
</g>
<!-- &#45;6&#45;&gt;3 -->
<g id="edge29" class="edge"><title>&#45;6&#45;&gt;3</title>
<path fill="none" stroke="red" stroke-width="0.24149" d="M853.736,-68.397C850.911,-67.3535 847.887,-66.374 845,-65.6985 681.97,-27.5532 629.475,-80.7021 470,-29.6985 468.946,-29.3614 467.888,-28.9732 466.835,-28.5456"/>
<polygon fill="red" stroke="red" stroke-width="0.24149" points="468.244,-25.3364 457.739,-23.9583 465.092,-31.5865 468.244,-25.3364"/>
</g>
<!-- &#45;6&#45;&gt;4 -->
<g id="edge30" class="edge"><title>&#45;6&#45;&gt;4</title>
<path fill="none" stroke="green" stroke-width="0.126678" d="M853.728,-68.4268C850.904,-67.3818 847.882,-66.3941 845,-65.6985 702.869,-31.3962 656.949,-75.2074 518,-29.6985 517.12,-29.4102 516.237,-29.0871 515.355,-28.7358"/>
<polygon fill="green" stroke="green" stroke-width="0.126678" points="516.757,-25.5243 506.244,-24.2117 513.644,-31.7939 516.757,-25.5243"/>
</g>
<!-- &#45;7 -->
<g id="node7" class="node"><title>&#45;7</title>
<polygon fill="lightgray" stroke="black" points="24,-83.6985 0,-83.6985 0,-65.6985 24,-65.6985 24,-83.6985"/>
<text text-anchor="middle" x="12" y="-72.4985" font-family="Times New Roman,serif" font-size="9.00">&#45;7</text>
</g>
<!-- &#45;7&#45;&gt;0 -->
<g id="edge31" class="edge"><title>&#45;7&#45;&gt;0</title>
<path fill="none" stroke="red" stroke-width="0.213965" d="M24.2538,-68.3506C27.0791,-67.3096 30.1058,-66.3428 33,-65.6985 243.984,-18.7321 311.425,-93.313 518,-29.6985 519.057,-29.3728 520.119,-28.9939 521.174,-28.5739"/>
<polygon fill="red" stroke="red" stroke-width="0.213965" points="522.905,-31.6219 530.279,-24.0145 519.77,-25.3629 522.905,-31.6219"/>
</g>
<!-- &#45;7&#45;&gt;1 -->
<g id="edge32" class="edge"><title>&#45;7&#45;&gt;1</title>
<path fill="none" stroke="red" stroke-width="0.157753" d="M24.2965,-68.5255C27.1196,-67.4754 30.1346,-66.4607 33,-65.6985 139.782,-37.2948 271.38,-22.9812 325.248,-17.9741"/>
<polygon fill="red" stroke="red" stroke-width="0.157753" points="325.597,-21.4569 335.241,-17.0702 324.966,-14.4854 325.597,-21.4569"/>
</g>
<!-- &#45;7&#45;&gt;2 -->
<g id="edge33" class="edge"><title>&#45;7&#45;&gt;2</title>
<path fill="none" stroke="red" stroke-width="0.241482" d="M24.2692,-68.4173C27.0937,-67.3727 30.1161,-66.3877 33,-65.6985 181.224,-30.2759 229.067,-76.8093 374,-29.6985 375.052,-29.3564 376.109,-28.9641 377.161,-28.5332"/>
<polygon fill="red" stroke="red" stroke-width="0.241482" points="378.91,-31.571 386.253,-23.9337 375.75,-25.3248 378.91,-31.571"/>
</g>
<!-- &#45;7&#45;&gt;3 -->
<g id="edge34" class="edge"><title>&#45;7&#45;&gt;3</title>
<path fill="none" stroke="red" stroke-width="0.263015" d="M24.2627,-68.3896C27.0876,-67.3466 30.1117,-66.3691 33,-65.6985 202.129,-26.4314 256.534,-82.3059 422,-29.6985 423.054,-29.3632 424.113,-28.9765 425.167,-28.5501"/>
<polygon fill="red" stroke="red" stroke-width="0.263015" points="426.908,-31.5921 434.264,-23.9672 423.758,-25.3406 426.908,-31.5921"/>
</g>
<!-- &#45;7&#45;&gt;4 -->
<g id="edge35" class="edge"><title>&#45;7&#45;&gt;4</title>
<path fill="none" stroke="red" stroke-width="0.293818" d="M24.2577,-68.368C27.0828,-67.3261 30.1084,-66.3545 33,-65.6985 223.051,-22.583 283.985,-87.8077 470,-29.6985 471.056,-29.3686 472.116,-28.9861 473.171,-28.5633"/>
<polygon fill="red" stroke="red" stroke-width="0.293818" points="474.906,-31.6086 482.272,-23.9934 471.765,-25.3529 474.906,-31.6086"/>
</g>
<!-- &#45;8 -->
<g id="node8" class="node"><title>&#45;8</title>
<polygon fill="lightgray" stroke="black" points="66,-83.6985 42,-83.6985 42,-65.6985 66,-65.6985 66,-83.6985"/>
<text text-anchor="middle" x="54" y="-72.4985" font-family="Times New Roman,serif" font-size="9.00">&#45;8</text>
</g>
<!-- &#45;8&#45;&gt;0 -->
<g id="edge36" class="edge"><title>&#45;8&#45;&gt;0</title>
<path fill="none" stroke="green" stroke-width="0.298663" d="M66.2572,-68.3656C69.0823,-67.3238 72.108,-66.3529 75,-65.6985 267.667,-22.1018 329.415,-88.4957 518,-29.6985 519.056,-29.3692 520.117,-28.9872 521.171,-28.5648"/>
<polygon fill="green" stroke="green" stroke-width="0.298663" points="522.906,-31.6104 530.273,-23.9963 519.766,-25.3543 522.906,-31.6104"/>
</g>
<!-- &#45;8&#45;&gt;1 -->
<g id="edge37" class="edge"><title>&#45;8&#45;&gt;1</title>
<path fill="none" stroke="green" stroke-width="0.239307" d="M66.31,-68.5751C69.1324,-67.5224 72.1436,-66.4941 75,-65.6985 165.414,-40.5149 276.2,-24.9284 324.952,-18.8138"/>
<polygon fill="green" stroke="green" stroke-width="0.239307" points="325.678,-22.251 335.176,-17.5573 324.824,-15.3033 325.678,-22.251"/>
</g>
<!-- &#45;8&#45;&gt;2 -->
<g id="edge38" class="edge"><title>&#45;8&#45;&gt;2</title>
<path fill="none" stroke="green" stroke-width="0.3" d="M66.2768,-68.4485C69.1009,-67.4024 72.1212,-66.4088 75,-65.6985 204.952,-33.6351 247.014,-72.006 374,-29.6985 374.879,-29.4058 375.761,-29.0788 376.641,-28.7243"/>
<polygon fill="green" stroke="green" stroke-width="0.3" points="378.359,-31.7788 385.747,-24.1853 375.236,-25.514 378.359,-31.7788"/>
</g>
<!-- &#45;8&#45;&gt;3 -->
<g id="edge39" class="edge"><title>&#45;8&#45;&gt;3</title>
<path fill="none" stroke="green" stroke-width="0.117126" d="M66.2683,-68.4134C69.0928,-67.3691 72.1155,-66.3851 75,-65.6985 225.836,-29.7956 274.501,-77.496 422,-29.6985 423.053,-29.3574 424.11,-28.9658 425.162,-28.5356"/>
<polygon fill="green" stroke="green" stroke-width="0.117126" points="426.91,-31.574 434.255,-23.9384 423.751,-25.327 426.91,-31.574"/>
</g>
<!-- &#45;8&#45;&gt;4 -->
<g id="edge40" class="edge"><title>&#45;8&#45;&gt;4</title>
<path fill="none" stroke="red" stroke-width="0.163354" d="M66.262,-68.3867C69.0869,-67.3437 72.1113,-66.367 75,-65.6985 246.744,-25.9505 301.966,-82.9934 470,-29.6985 471.055,-29.364 472.114,-28.9778 473.167,-28.5519"/>
<polygon fill="red" stroke="red" stroke-width="0.163354" points="474.908,-31.5944 482.265,-23.9708 471.759,-25.3423 474.908,-31.5944"/>
</g>
<!-- &#45;9 -->
<g id="node9" class="node"><title>&#45;9</title>
<polygon fill="lightgray" stroke="black" points="108,-83.6985 84,-83.6985 84,-65.6985 108,-65.6985 108,-83.6985"/>
<text text-anchor="middle" x="96" y="-72.4985" font-family="Times New Roman,serif" font-size="9.00">&#45;9</text>
</g>
<!-- &#45;9&#45;&gt;0 -->
<g id="edge41" class="edge"><title>&#45;9&#45;&gt;0</title>
<path fill="none" stroke="red" stroke-width="0.193356" d="M108.261,-68.3838C111.086,-67.341 114.111,-66.3651 117,-65.6985 291.358,-25.4696 347.398,-83.681 518,-29.6985 519.055,-29.3647 520.114,-28.9791 521.168,-28.5537"/>
<polygon fill="red" stroke="red" stroke-width="0.193356" points="522.907,-31.5966 530.266,-23.9743 519.76,-25.3439 522.907,-31.5966"/>
</g>
<!-- &#45;9&#45;&gt;1 -->
<g id="edge42" class="edge"><title>&#45;9&#45;&gt;1</title>
<path fill="none" stroke="red" stroke-width="0.291857" d="M108.329,-68.6415C111.151,-67.5854 114.157,-66.5389 117,-65.6985 191.63,-43.6414 282.399,-27.0825 325.286,-19.8523"/>
<polygon fill="red" stroke="red" stroke-width="0.291857" points="326.064,-23.271 335.355,-18.1787 324.916,-16.3657 326.064,-23.271"/>
</g>
<!-- &#45;9&#45;&gt;2 -->
<g id="edge43" class="edge"><title>&#45;9&#45;&gt;2</title>
<path fill="none" stroke="green" stroke-width="0.297228" d="M108.287,-68.4898C111.111,-67.4415 114.128,-66.4366 117,-65.6985 228.707,-36.9875 264.934,-67.2117 374,-29.6985 374.876,-29.3973 375.755,-29.0631 376.634,-28.7025"/>
<polygon fill="green" stroke="green" stroke-width="0.297228" points="378.364,-31.7502 385.73,-24.1352 375.223,-25.4945 378.364,-31.7502"/>
</g>
<!-- &#45;9&#45;&gt;3 -->
<g id="edge44" class="edge"><title>&#45;9&#45;&gt;3</title>
<path fill="none" stroke="red" stroke-width="0.130123" d="M108.276,-68.4436C111.1,-67.3977 114.12,-66.4054 117,-65.6985 249.56,-33.1556 292.451,-72.6917 422,-29.6985 422.879,-29.4068 423.761,-29.0807 424.642,-28.7269"/>
<polygon fill="red" stroke="red" stroke-width="0.130123" points="426.358,-31.7823 433.749,-24.1914 423.237,-25.5163 426.358,-31.7823"/>
</g>
<!-- &#45;9&#45;&gt;4 -->
<g id="edge45" class="edge"><title>&#45;9&#45;&gt;4</title>
<path fill="none" stroke="red" stroke-width="0.3" d="M108.267,-68.4097C111.092,-67.3655 114.115,-66.3826 117,-65.6985 270.448,-29.3152 319.935,-78.1828 470,-29.6985 471.053,-29.3583 472.11,-28.9675 473.163,-28.5378"/>
<polygon fill="red" stroke="red" stroke-width="0.3" points="474.909,-31.5768 482.256,-23.9429 471.752,-25.3292 474.909,-31.5768"/>
</g>
<!-- &#45;10 -->
<g id="node10" class="node"><title>&#45;10</title>
<polygon fill="lightgray" stroke="black" points="155.5,-83.6985 126.5,-83.6985 126.5,-65.6985 155.5,-65.6985 155.5,-83.6985"/>
<text text-anchor="middle" x="141" y="-72.4985" font-family="Times New Roman,serif" font-size="9.00">&#45;10</text>
</g>
<!-- &#45;10&#45;&gt;0 -->
<g id="edge46" class="edge"><title>&#45;10&#45;&gt;0</title>
<path fill="none" stroke="red" stroke-width="0.125104" d="M155.948,-67.9362C158.6,-67.0764 161.358,-66.2838 164,-65.6985 318.4,-31.4889 367.508,-78.2973 518,-29.6985 519.053,-29.3585 520.11,-28.9678 521.163,-28.5382"/>
<polygon fill="red" stroke="red" stroke-width="0.125104" points="522.909,-31.5773 530.256,-23.9436 519.753,-25.3295 522.909,-31.5773"/>
</g>
<!-- &#45;10&#45;&gt;1 -->
<g id="edge47" class="edge"><title>&#45;10&#45;&gt;1</title>
<path fill="none" stroke="red" stroke-width="0.182219" d="M155.548,-68.4589C158.341,-67.5039 161.252,-66.5434 164,-65.6985 221.339,-48.0685 289.679,-30.6623 325.427,-21.8278"/>
<polygon fill="red" stroke="red" stroke-width="0.182219" points="326.551,-25.1558 335.427,-19.3704 324.881,-18.358 326.551,-25.1558"/>
</g>
<!-- &#45;10&#45;&gt;2 -->
<g id="edge48" class="edge"><title>&#45;10&#45;&gt;2</title>
<path fill="none" stroke="red" stroke-width="0.175554" d="M155.985,-68.0881C158.632,-67.2115 161.38,-66.3738 164,-65.6985 255.698,-42.0635 284.936,-61.8644 374,-29.6985 374.871,-29.3839 375.747,-29.0384 376.621,-28.6682"/>
<polygon fill="red" stroke="red" stroke-width="0.175554" points="378.371,-31.7052 385.702,-24.0563 375.201,-25.4639 378.371,-31.7052"/>
</g>
<!-- &#45;10&#45;&gt;3 -->
<g id="edge49" class="edge"><title>&#45;10&#45;&gt;3</title>
<path fill="none" stroke="red" stroke-width="0.156482" d="M155.968,-68.0191C158.617,-67.1502 161.37,-66.3329 164,-65.6985 276.55,-38.5504 312.507,-67.3257 422,-29.6985 422.876,-29.3975 423.756,-29.0635 424.634,-28.7031"/>
<polygon fill="red" stroke="red" stroke-width="0.156482" points="426.364,-31.751 433.731,-24.1366 423.223,-25.495 426.364,-31.751"/>
</g>
<!-- &#45;10&#45;&gt;4 -->
<g id="edge50" class="edge"><title>&#45;10&#45;&gt;4</title>
<path fill="none" stroke="red" stroke-width="0.183786" d="M155.956,-67.9713C158.607,-67.1076 161.363,-66.3046 164,-65.6985 297.458,-35.0236 340.024,-72.806 470,-29.6985 470.879,-29.407 471.761,-29.081 472.642,-28.7274"/>
<polygon fill="red" stroke="red" stroke-width="0.183786" points="474.358,-31.7829 481.749,-24.1924 471.238,-25.5167 474.358,-31.7829"/>
</g>
<!-- &#45;11 -->
<g id="node11" class="node"><title>&#45;11</title>
<polygon fill="lightgray" stroke="black" points="202.5,-83.6985 173.5,-83.6985 173.5,-65.6985 202.5,-65.6985 202.5,-83.6985"/>
<text text-anchor="middle" x="188" y="-72.4985" font-family="Times New Roman,serif" font-size="9.00">&#45;11</text>
</g>
<!-- &#45;11&#45;&gt;0 -->
<g id="edge51" class="edge"><title>&#45;11&#45;&gt;0</title>
<path fill="none" stroke="green" stroke-width="0.249179" d="M202.956,-67.9704C205.607,-67.1069 208.363,-66.3041 211,-65.6985 344.894,-34.95 387.597,-72.9203 518,-29.6985 518.879,-29.4071 519.762,-29.0813 520.642,-28.7278"/>
<polygon fill="green" stroke="green" stroke-width="0.249179" points="522.358,-31.7834 529.75,-24.1933 519.238,-25.5171 522.358,-31.7834"/>
</g>
<!-- &#45;11&#45;&gt;1 -->
<g id="edge52" class="edge"><title>&#45;11&#45;&gt;1</title>
<path fill="none" stroke="green" stroke-width="0.153373" stroke-dasharray="1,5" d="M202.662,-68.4627C230.755,-58.431 292.387,-36.4226 326.362,-24.2904"/>
<polygon fill="green" stroke="green" stroke-width="0.153373" points="327.709,-27.5256 335.95,-20.8664 325.355,-20.9333 327.709,-27.5256"/>
</g>
<!-- &#45;11&#45;&gt;2 -->
<g id="edge53" class="edge"><title>&#45;11&#45;&gt;2</title>
<path fill="none" stroke="green" stroke-width="0.14316" d="M202.519,-68.3597C205.315,-67.4138 208.234,-66.4821 211,-65.6985 282.381,-45.4772 304.84,-56.5526 374,-29.6985 374.863,-29.3633 375.732,-29.0002 376.602,-28.6153"/>
<polygon fill="green" stroke="green" stroke-width="0.14316" points="378.381,-31.6357 385.657,-23.9344 375.166,-25.4174 378.381,-31.6357"/>
</g>
<!-- &#45;11&#45;&gt;3 -->
<g id="edge54" class="edge"><title>&#45;11&#45;&gt;3</title>
<path fill="none" stroke="green" stroke-width="0.299661" d="M202.984,-68.0864C205.632,-67.2099 208.38,-66.3728 211,-65.6985 303.131,-41.9906 332.511,-61.9779 422,-29.6985 422.871,-29.3843 423.747,-29.039 424.622,-28.6691"/>
<polygon fill="green" stroke="green" stroke-width="0.299661" points="426.371,-31.7063 433.703,-24.0583 423.202,-25.4647 426.371,-31.7063"/>
</g>
<!-- &#45;11&#45;&gt;4 -->
<g id="edge55" class="edge"><title>&#45;11&#45;&gt;4</title>
<path fill="none" stroke="red" stroke-width="0.25001" d="M202.967,-68.018C205.617,-67.1491 208.37,-66.3322 211,-65.6985 323.985,-38.4771 360.081,-67.4397 470,-29.6985 470.876,-29.3978 471.756,-29.0639 472.634,-28.7037"/>
<polygon fill="red" stroke="red" stroke-width="0.25001" points="474.364,-31.7518 481.731,-24.1379 471.224,-25.4955 474.364,-31.7518"/>
</g>
<!-- &#45;12 -->
<g id="node12" class="node"><title>&#45;12</title>
<polygon fill="lightgray" stroke="black" points="249.5,-83.6985 220.5,-83.6985 220.5,-65.6985 249.5,-65.6985 249.5,-83.6985"/>
<text text-anchor="middle" x="235" y="-72.4985" font-family="Times New Roman,serif" font-size="9.00">&#45;12</text>
</g>
<!-- &#45;12&#45;&gt;0 -->
<g id="edge56" class="edge"><title>&#45;12&#45;&gt;0</title>
<path fill="none" stroke="green" stroke-width="0.291498" d="M249.967,-68.0168C252.617,-67.1481 255.369,-66.3316 258,-65.6985 371.42,-38.4037 407.655,-67.5538 518,-29.6985 518.876,-29.398 519.756,-29.0644 520.634,-28.7043"/>
<polygon fill="green" stroke="green" stroke-width="0.291498" points="522.363,-31.7525 529.732,-24.1393 519.224,-25.496 522.363,-31.7525"/>
</g>
<!-- &#45;12&#45;&gt;1 -->
<g id="edge57" class="edge"><title>&#45;12&#45;&gt;1</title>
<path fill="none" stroke="green" stroke-width="0.103135" d="M249.565,-66.3718C269.344,-56.4224 304.869,-38.5518 327.932,-26.9503"/>
<polygon fill="green" stroke="green" stroke-width="0.103135" points="329.61,-30.0241 336.971,-22.4035 326.464,-23.7707 329.61,-30.0241"/>
</g>
<!-- &#45;12&#45;&gt;2 -->
<g id="edge58" class="edge"><title>&#45;12&#45;&gt;2</title>
<path fill="none" stroke="green" stroke-width="0.226613" d="M249.575,-68.5455C252.366,-67.5825 255.269,-66.5969 258,-65.6985 309.278,-48.8291 324.539,-51.3222 374,-29.6985 374.849,-29.3275 375.705,-28.9341 376.564,-28.5235"/>
<polygon fill="green" stroke="green" stroke-width="0.226613" points="378.391,-31.5157 385.57,-23.7232 375.099,-25.3384 378.391,-31.5157"/>
</g>
<!-- &#45;12&#45;&gt;3 -->
<g id="edge59" class="edge"><title>&#45;12&#45;&gt;3</title>
<path fill="none" stroke="red" stroke-width="0.192089" d="M249.518,-68.3569C252.314,-67.4112 255.234,-66.4803 258,-65.6985 329.812,-45.405 352.418,-56.665 422,-29.6985 422.863,-29.3638 423.733,-29.0012 424.602,-28.6167"/>
<polygon fill="red" stroke="red" stroke-width="0.192089" points="426.38,-31.6376 433.658,-23.9377 423.167,-25.4186 426.38,-31.6376"/>
</g>
<!-- &#45;12&#45;&gt;4 -->
<g id="edge60" class="edge"><title>&#45;12&#45;&gt;4</title>
<path fill="none" stroke="red" stroke-width="0.192239" d="M249.984,-68.0846C252.632,-67.2084 255.379,-66.3718 258,-65.6985 350.565,-41.9176 380.086,-62.0914 470,-29.6985 470.871,-29.3846 471.747,-29.0396 472.622,-28.67"/>
<polygon fill="red" stroke="red" stroke-width="0.192239" points="474.371,-31.7075 481.704,-24.0603 471.203,-25.4655 474.371,-31.7075"/>
</g>
<!-- &#45;13 -->
<g id="node13" class="node"><title>&#45;13</title>
<polygon fill="lightgray" stroke="black" points="296.5,-83.6985 267.5,-83.6985 267.5,-65.6985 296.5,-65.6985 296.5,-83.6985"/>
<text text-anchor="middle" x="282" y="-72.4985" font-family="Times New Roman,serif" font-size="9.00">&#45;13</text>
</g>
<!-- &#45;13&#45;&gt;0 -->
<g id="edge61" class="edge"><title>&#45;13&#45;&gt;0</title>
<path fill="none" stroke="green" stroke-width="0.219958" d="M296.983,-68.0829C299.631,-67.2069 302.379,-66.3707 305,-65.6985 397.999,-41.8446 427.661,-62.2049 518,-29.6985 518.871,-29.3849 519.747,-29.0403 520.622,-28.6709"/>
<polygon fill="green" stroke="green" stroke-width="0.219958" points="522.371,-31.7086 529.705,-24.0623 519.203,-25.4663 522.371,-31.7086"/>
</g>
<!-- &#45;13&#45;&gt;1 -->
<g id="edge62" class="edge"><title>&#45;13&#45;&gt;1</title>
<path fill="none" stroke="red" stroke-width="0.121409" d="M291.455,-65.6548C301.633,-56.996 318.095,-42.9914 330.975,-32.0346"/>
<polygon fill="red" stroke="red" stroke-width="0.121409" points="333.47,-34.5069 338.819,-25.3614 328.934,-29.1752 333.47,-34.5069"/>
</g>
<!-- &#45;13&#45;&gt;2 -->
<g id="edge63" class="edge"><title>&#45;13&#45;&gt;2</title>
<path fill="none" stroke="red" stroke-width="0.163852" d="M296.513,-67.1788C314.788,-58.8731 347.056,-43.8887 374,-29.6985 374.819,-29.267 375.651,-28.822 376.489,-28.3682"/>
<polygon fill="red" stroke="red" stroke-width="0.163852" points="378.392,-31.3137 385.397,-23.3655 374.964,-25.2102 378.392,-31.3137"/>
</g>
<!-- &#45;13&#45;&gt;3 -->
<g id="edge64" class="edge"><title>&#45;13&#45;&gt;3</title>
<path fill="none" stroke="green" stroke-width="0.105105" d="M296.574,-68.5402C299.365,-67.5776 302.268,-66.5936 305,-65.6985 356.702,-48.759 372.124,-51.4319 422,-29.6985 422.849,-29.3286 423.706,-28.936 424.565,-28.5262"/>
<polygon fill="green" stroke="green" stroke-width="0.105105" points="426.391,-31.5191 433.572,-23.7292 423.101,-25.3407 426.391,-31.5191"/>
</g>
<!-- &#45;13&#45;&gt;4 -->
<g id="edge65" class="edge"><title>&#45;13&#45;&gt;4</title>
<path fill="none" stroke="red" stroke-width="0.281251" d="M296.517,-68.354C299.313,-67.4086 302.233,-66.4785 305,-65.6985 377.243,-45.3328 399.996,-56.7775 470,-29.6985 470.864,-29.3644 471.733,-29.0022 472.603,-28.6181"/>
<polygon fill="red" stroke="red" stroke-width="0.281251" points="474.38,-31.6394 481.659,-23.9409 471.168,-25.4199 474.38,-31.6394"/>
</g>
<!-- &#45;14 -->
<g id="node14" class="node"><title>&#45;14</title>
<polygon fill="lightgray" stroke="black" points="343.5,-83.6985 314.5,-83.6985 314.5,-65.6985 343.5,-65.6985 343.5,-83.6985"/>
<text text-anchor="middle" x="329" y="-72.4985" font-family="Times New Roman,serif" font-size="9.00">&#45;14</text>
</g>
<!-- &#45;14&#45;&gt;0 -->
<g id="edge66" class="edge"><title>&#45;14&#45;&gt;0</title>
<path fill="none" stroke="green" stroke-width="0.293471" d="M343.516,-68.3512C346.312,-67.4061 349.233,-66.4768 352,-65.6985 424.674,-45.2605 447.574,-56.89 518,-29.6985 518.864,-29.3649 519.734,-29.0032 520.603,-28.6195"/>
<polygon fill="green" stroke="green" stroke-width="0.293471" points="522.38,-31.6412 529.66,-23.9441 519.169,-25.4211 522.38,-31.6412"/>
</g>
<!-- &#45;14&#45;&gt;1 -->
<g id="edge67" class="edge"><title>&#45;14&#45;&gt;1</title>
<path fill="none" stroke="green" stroke-width="0.3" d="M331.92,-65.6548C334.463,-58.6501 338.275,-48.1471 341.745,-38.5892"/>
<polygon fill="green" stroke="green" stroke-width="0.3" points="345.047,-39.7515 345.169,-29.1573 338.467,-37.3628 345.047,-39.7515"/>
</g>
<!-- &#45;14&#45;&gt;2 -->
<g id="edge68" class="edge"><title>&#45;14&#45;&gt;2</title>
<path fill="none" stroke="red" stroke-width="0.103683" d="M338.594,-65.6548C349.044,-56.8941 366.02,-42.6612 379.155,-31.6492"/>
<polygon fill="red" stroke="red" stroke-width="0.103683" points="381.709,-34.0746 387.124,-24.9678 377.212,-28.7104 381.709,-34.0746"/>
</g>
<!-- &#45;14&#45;&gt;3 -->
<g id="edge69" class="edge"><title>&#45;14&#45;&gt;3</title>
<path fill="none" stroke="red" stroke-width="0.298896" d="M343.678,-67.201C362.16,-58.9181 394.787,-43.9573 422,-29.6985 422.82,-29.2687 423.653,-28.8252 424.491,-28.3726"/>
<polygon fill="red" stroke="red" stroke-width="0.298896" points="426.392,-31.3194 433.403,-23.3756 422.969,-25.2137 426.392,-31.3194"/>
</g>
<!-- &#45;14&#45;&gt;4 -->
<g id="edge70" class="edge"><title>&#45;14&#45;&gt;4</title>
<path fill="none" stroke="red" stroke-width="0.297011" d="M343.572,-68.5349C346.363,-67.5728 349.267,-66.5903 352,-65.6985 404.126,-48.6888 419.708,-51.5417 470,-29.6985 470.849,-29.3296 471.707,-28.9378 472.566,-28.5288"/>
<polygon fill="red" stroke="red" stroke-width="0.297011" points="474.391,-31.5225 481.575,-23.7352 471.103,-25.3429 474.391,-31.5225"/>
</g>
<!-- &#45;15 -->
<g id="node15" class="node"><title>&#45;15</title>
<polygon fill="lightgray" stroke="black" points="390.5,-83.6985 361.5,-83.6985 361.5,-65.6985 390.5,-65.6985 390.5,-83.6985"/>
<text text-anchor="middle" x="376" y="-72.4985" font-family="Times New Roman,serif" font-size="9.00">&#45;15</text>
</g>
<!-- &#45;15&#45;&gt;0 -->
<g id="edge71" class="edge"><title>&#45;15&#45;&gt;0</title>
<path fill="none" stroke="red" stroke-width="0.3" d="M390.57,-68.5297C393.362,-67.5681 396.266,-66.5871 399,-65.6985 451.55,-48.6185 467.292,-51.6517 518,-29.6985 518.85,-29.3306 519.708,-28.9397 520.567,-28.5313"/>
<polygon fill="red" stroke="red" stroke-width="0.3" points="522.391,-31.5258 529.577,-23.7411 519.105,-25.345 522.391,-31.5258"/>
</g>
<!-- &#45;15&#45;&gt;1 -->
<g id="edge72" class="edge"><title>&#45;15&#45;&gt;1</title>
<path fill="none" stroke="green" stroke-width="0.113036" stroke-dasharray="1,5" d="M372.385,-65.6548C369.162,-58.4832 364.29,-47.6447 359.914,-37.9078"/>
<polygon fill="green" stroke="green" stroke-width="0.113036" points="363.074,-36.4011 355.782,-28.7148 356.689,-39.2707 363.074,-36.4011"/>
</g>
<!-- &#45;15&#45;&gt;2 -->
<g id="edge73" class="edge"><title>&#45;15&#45;&gt;2</title>
<path fill="none" stroke="green" stroke-width="0.3" d="M379.059,-65.6548C381.723,-58.6501 385.717,-48.1471 389.352,-38.5892"/>
<polygon fill="green" stroke="green" stroke-width="0.3" points="392.656,-39.7484 392.939,-29.1573 386.113,-37.2601 392.656,-39.7484"/>
</g>
<!-- &#45;15&#45;&gt;3 -->
<g id="edge74" class="edge"><title>&#45;15&#45;&gt;3</title>
<path fill="none" stroke="red" stroke-width="0.298584" d="M385.733,-65.6548C396.334,-56.8941 413.556,-42.6612 426.881,-31.6492"/>
<polygon fill="red" stroke="red" stroke-width="0.298584" points="429.487,-34.0361 434.966,-24.9678 425.028,-28.6402 429.487,-34.0361"/>
</g>
<!-- &#45;15&#45;&gt;4 -->
<g id="edge75" class="edge"><title>&#45;15&#45;&gt;4</title>
<path fill="none" stroke="green" stroke-width="0.240758" d="M390.519,-67.3666C409.148,-59.137 442.359,-44.1094 470,-29.6985 470.821,-29.2704 471.655,-28.8283 472.494,-28.3769"/>
<polygon fill="green" stroke="green" stroke-width="0.240758" points="474.393,-31.325 481.408,-23.3856 470.973,-25.2172 474.393,-31.325"/>
</g>
<!-- &#45;16 -->
<g id="node16" class="node"><title>&#45;16</title>
<polygon fill="lightgray" stroke="black" points="437.5,-83.6985 408.5,-83.6985 408.5,-65.6985 437.5,-65.6985 437.5,-83.6985"/>
<text text-anchor="middle" x="423" y="-72.4985" font-family="Times New Roman,serif" font-size="9.00">&#45;16</text>
</g>
<!-- &#45;16&#45;&gt;0 -->
<g id="edge76" class="edge"><title>&#45;16&#45;&gt;0</title>
<path fill="none" stroke="green" stroke-width="0.3" d="M437.681,-67.3885C456.516,-59.182 490.088,-44.1788 518,-29.6985 518.822,-29.272 519.656,-28.8314 520.496,-28.3812"/>
<polygon fill="green" stroke="green" stroke-width="0.3" points="522.393,-31.3305 529.413,-23.3954 518.977,-25.2207 522.393,-31.3305"/>
</g>
<!-- &#45;16&#45;&gt;1 -->
<g id="edge77" class="edge"><title>&#45;16&#45;&gt;1</title>
<path fill="none" stroke="red" stroke-width="0.224277" d="M412.85,-65.6548C401.689,-56.8107 383.491,-42.3896 369.542,-31.3354"/>
<polygon fill="red" stroke="red" stroke-width="0.224277" points="371.518,-28.4355 361.507,-24.9678 367.17,-33.9217 371.518,-28.4355"/>
</g>
<!-- &#45;16&#45;&gt;2 -->
<g id="edge78" class="edge"><title>&#45;16&#45;&gt;2</title>
<path fill="none" stroke="red" stroke-width="0.3" d="M419.524,-65.6548C416.425,-58.4832 411.741,-47.6447 407.533,-37.9078"/>
<polygon fill="red" stroke="red" stroke-width="0.3" points="410.74,-36.5058 403.56,-28.7148 404.314,-39.2828 410.74,-36.5058"/>
</g>
<!-- &#45;16&#45;&gt;3 -->
<g id="edge79" class="edge"><title>&#45;16&#45;&gt;3</title>
<path fill="none" stroke="green" stroke-width="0.148347" d="M426.198,-65.6548C428.983,-58.6501 433.159,-48.1471 436.959,-38.5892"/>
<polygon fill="green" stroke="green" stroke-width="0.148347" points="440.267,-39.7429 440.709,-29.1573 433.762,-37.1567 440.267,-39.7429"/>
</g>
<!-- &#45;16&#45;&gt;4 -->
<g id="edge80" class="edge"><title>&#45;16&#45;&gt;4</title>
<path fill="none" stroke="green" stroke-width="0.215653" d="M432.872,-65.6548C443.727,-56.8107 461.426,-42.3896 474.993,-31.3354"/>
<polygon fill="green" stroke="green" stroke-width="0.215653" points="477.267,-33.9977 482.809,-24.9678 472.845,-28.571 477.267,-33.9977"/>
</g>
<!-- &#45;17 -->
<g id="node17" class="node"><title>&#45;17</title>
<polygon fill="lightgray" stroke="black" points="484.5,-83.6985 455.5,-83.6985 455.5,-65.6985 484.5,-65.6985 484.5,-83.6985"/>
<text text-anchor="middle" x="470" y="-72.4985" font-family="Times New Roman,serif" font-size="9.00">&#45;17</text>
</g>
<!-- &#45;17&#45;&gt;0 -->
<g id="edge81" class="edge"><title>&#45;17&#45;&gt;0</title>
<path fill="none" stroke="red" stroke-width="0.182019" d="M480.011,-65.6548C491.019,-56.8107 508.968,-42.3896 522.726,-31.3354"/>
<polygon fill="red" stroke="red" stroke-width="0.182019" points="525.048,-33.9596 530.651,-24.9678 520.663,-28.5028 525.048,-33.9596"/>
</g>
<!-- &#45;17&#45;&gt;1 -->
<g id="edge82" class="edge"><title>&#45;17&#45;&gt;1</title>
<path fill="none" stroke="green" stroke-width="0.233886" d="M455.486,-67.5517C436.509,-59.4003 402.346,-44.3325 374,-29.6985 373.177,-29.2737 372.342,-28.8344 371.502,-28.3854"/>
<polygon fill="green" stroke="green" stroke-width="0.233886" points="373.019,-25.224 362.582,-23.4051 369.607,-31.336 373.019,-25.224"/>
</g>
<!-- &#45;17&#45;&gt;2 -->
<g id="edge83" class="edge"><title>&#45;17&#45;&gt;2</title>
<path fill="none" stroke="red" stroke-width="0.199273" d="M459.989,-65.6548C448.981,-56.8107 431.032,-42.3896 417.274,-31.3354"/>
<polygon fill="red" stroke="red" stroke-width="0.199273" points="419.337,-28.5028 409.349,-24.9678 414.952,-33.9596 419.337,-28.5028"/>
</g>
<!-- &#45;17&#45;&gt;3 -->
<g id="edge84" class="edge"><title>&#45;17&#45;&gt;3</title>
<path fill="none" stroke="green" stroke-width="0.267377" d="M466.663,-65.6548C463.719,-58.5579 459.285,-47.8701 455.278,-38.2124"/>
<polygon fill="green" stroke="green" stroke-width="0.267377" points="458.402,-36.6102 451.338,-28.7148 451.937,-39.2927 458.402,-36.6102"/>
</g>
<!-- &#45;17&#45;&gt;4 -->
<g id="edge85" class="edge"><title>&#45;17&#45;&gt;4</title>
<path fill="none" stroke="red" stroke-width="0.144788" d="M473.337,-65.6548C476.281,-58.5579 480.715,-47.8701 484.722,-38.2124"/>
<polygon fill="red" stroke="red" stroke-width="0.144788" points="488.063,-39.2927 488.662,-28.7148 481.598,-36.6102 488.063,-39.2927"/>
</g>
<!-- &#45;18 -->
<g id="node18" class="node"><title>&#45;18</title>
<polygon fill="lightgray" stroke="black" points="531.5,-83.6985 502.5,-83.6985 502.5,-65.6985 531.5,-65.6985 531.5,-83.6985"/>
<text text-anchor="middle" x="517" y="-72.4985" font-family="Times New Roman,serif" font-size="9.00">&#45;18</text>
</g>
<!-- &#45;18&#45;&gt;0 -->
<g id="edge86" class="edge"><title>&#45;18&#45;&gt;0</title>
<path fill="none" stroke="green" stroke-width="0.222266" d="M520.476,-65.6548C523.575,-58.4832 528.259,-47.6447 532.467,-37.9078"/>
<polygon fill="green" stroke="green" stroke-width="0.222266" points="535.686,-39.2828 536.44,-28.7148 529.26,-36.5058 535.686,-39.2828"/>
</g>
<!-- &#45;18&#45;&gt;1 -->
<g id="edge87" class="edge"><title>&#45;18&#45;&gt;1</title>
<path fill="none" stroke="green" stroke-width="0.186037" d="M502.298,-68.7256C499.231,-67.7083 496.014,-66.6564 493,-65.6985 440.34,-48.9601 424.708,-51.6517 374,-29.6985 373.15,-29.3306 372.292,-28.9397 371.433,-28.5313"/>
<polygon fill="green" stroke="green" stroke-width="0.186037" points="372.895,-25.345 362.423,-23.7411 369.609,-31.5258 372.895,-25.345"/>
</g>
<!-- &#45;18&#45;&gt;2 -->
<g id="edge88" class="edge"><title>&#45;18&#45;&gt;2</title>
<path fill="none" stroke="green" stroke-width="0.3" d="M502.319,-67.3885C483.484,-59.182 449.912,-44.1788 422,-29.6985 421.178,-29.272 420.344,-28.8314 419.504,-28.3812"/>
<polygon fill="green" stroke="green" stroke-width="0.3" points="421.023,-25.2207 410.587,-23.3954 417.607,-31.3305 421.023,-25.2207"/>
</g>
<!-- &#45;18&#45;&gt;3 -->
<g id="edge89" class="edge"><title>&#45;18&#45;&gt;3</title>
<path fill="none" stroke="green" stroke-width="0.3" d="M507.128,-65.6548C496.273,-56.8107 478.574,-42.3896 465.007,-31.3354"/>
<polygon fill="green" stroke="green" stroke-width="0.3" points="467.155,-28.571 457.191,-24.9678 462.733,-33.9977 467.155,-28.571"/>
</g>
<!-- &#45;18&#45;&gt;4 -->
<g id="edge90" class="edge"><title>&#45;18&#45;&gt;4</title>
<path fill="none" stroke="red" stroke-width="0.23112" d="M513.802,-65.6548C511.017,-58.6501 506.841,-48.1471 503.041,-38.5892"/>
<polygon fill="red" stroke="red" stroke-width="0.23112" points="506.238,-37.1567 499.291,-29.1573 499.733,-39.7429 506.238,-37.1567"/>
</g>
<!-- &#45;19 -->
<g id="node19" class="node"><title>&#45;19</title>
<polygon fill="lightgray" stroke="black" points="578.5,-83.6985 549.5,-83.6985 549.5,-65.6985 578.5,-65.6985 578.5,-83.6985"/>
<text text-anchor="middle" x="564" y="-72.4985" font-family="Times New Roman,serif" font-size="9.00">&#45;19</text>
</g>
<!-- &#45;19&#45;&gt;0 -->
<g id="edge91" class="edge"><title>&#45;19&#45;&gt;0</title>
<path fill="none" stroke="green" stroke-width="0.298275" d="M560.941,-65.6548C558.277,-58.6501 554.283,-48.1471 550.648,-38.5892"/>
<polygon fill="green" stroke="green" stroke-width="0.298275" points="553.887,-37.2601 547.061,-29.1573 547.344,-39.7484 553.887,-37.2601"/>
</g>
<!-- &#45;19&#45;&gt;1 -->
<g id="edge92" class="edge"><title>&#45;19&#45;&gt;1</title>
<path fill="none" stroke="red" stroke-width="0.207407" d="M549.354,-68.5371C546.282,-67.5335 543.05,-66.5348 540,-65.6985 467.195,-45.7328 444.426,-56.89 374,-29.6985 373.136,-29.3649 372.266,-29.0032 371.397,-28.6195"/>
<polygon fill="red" stroke="red" stroke-width="0.207407" points="372.831,-25.4211 362.34,-23.9441 369.62,-31.6412 372.831,-25.4211"/>
</g>
<!-- &#45;19&#45;&gt;2 -->
<g id="edge93" class="edge"><title>&#45;19&#45;&gt;2</title>
<path fill="none" stroke="red" stroke-width="0.185359" d="M549.296,-68.731C546.229,-67.7134 543.013,-66.66 540,-65.6985 487.765,-49.0276 472.292,-51.5417 422,-29.6985 421.151,-29.3296 420.293,-28.9378 419.434,-28.5288"/>
<polygon fill="red" stroke="red" stroke-width="0.185359" points="420.897,-25.3429 410.425,-23.7352 417.609,-31.5225 420.897,-25.3429"/>
</g>
<!-- &#45;19&#45;&gt;3 -->
<g id="edge94" class="edge"><title>&#45;19&#45;&gt;3</title>
<path fill="none" stroke="green" stroke-width="0.12621" d="M549.481,-67.3666C530.852,-59.137 497.641,-44.1094 470,-29.6985 469.179,-29.2704 468.345,-28.8283 467.506,-28.3769"/>
<polygon fill="green" stroke="green" stroke-width="0.12621" points="469.027,-25.2172 458.592,-23.3856 465.607,-31.325 469.027,-25.2172"/>
</g>
<!-- &#45;19&#45;&gt;4 -->
<g id="edge95" class="edge"><title>&#45;19&#45;&gt;4</title>
<path fill="none" stroke="red" stroke-width="0.3" d="M554.267,-65.6548C543.666,-56.8941 526.444,-42.6612 513.119,-31.6492"/>
<polygon fill="red" stroke="red" stroke-width="0.3" points="514.972,-28.6402 505.034,-24.9678 510.513,-34.0361 514.972,-28.6402"/>
</g>
<!-- &#45;20 -->
<g id="node20" class="node"><title>&#45;20</title>
<polygon fill="lightgray" stroke="black" points="625.5,-83.6985 596.5,-83.6985 596.5,-65.6985 625.5,-65.6985 625.5,-83.6985"/>
<text text-anchor="middle" x="611" y="-72.4985" font-family="Times New Roman,serif" font-size="9.00">&#45;20</text>
</g>
<!-- &#45;20&#45;&gt;0 -->
<g id="edge96" class="edge"><title>&#45;20&#45;&gt;0</title>
<path fill="none" stroke="green" stroke-width="0.298108" d="M601.406,-65.6548C590.956,-56.8941 573.98,-42.6612 560.845,-31.6492"/>
<polygon fill="green" stroke="green" stroke-width="0.298108" points="562.788,-28.7104 552.876,-24.9678 558.291,-34.0746 562.788,-28.7104"/>
</g>
<!-- &#45;20&#45;&gt;1 -->
<g id="edge97" class="edge"><title>&#45;20&#45;&gt;1</title>
<path fill="none" stroke="green" stroke-width="0.170238" d="M596.017,-68.0812C593.369,-67.2054 590.621,-66.3697 588,-65.6985 494.568,-41.7715 464.764,-62.3185 374,-29.6985 373.129,-29.3853 372.252,-29.0409 371.377,-28.6717"/>
<polygon fill="green" stroke="green" stroke-width="0.170238" points="372.796,-25.467 362.295,-24.0643 369.629,-31.7097 372.796,-25.467"/>
</g>
<!-- &#45;20&#45;&gt;2 -->
<g id="edge98" class="edge"><title>&#45;20&#45;&gt;2</title>
<path fill="none" stroke="green" stroke-width="0.155951" d="M596.484,-68.3512C593.688,-67.4061 590.767,-66.4768 588,-65.6985 515.326,-45.2605 492.426,-56.89 422,-29.6985 421.136,-29.3649 420.266,-29.0032 419.397,-28.6195"/>
<polygon fill="green" stroke="green" stroke-width="0.155951" points="420.831,-25.4211 410.34,-23.9441 417.62,-31.6412 420.831,-25.4211"/>
</g>
<!-- &#45;20&#45;&gt;3 -->
<g id="edge99" class="edge"><title>&#45;20&#45;&gt;3</title>
<path fill="none" stroke="green" stroke-width="0.162587" d="M596.428,-68.5349C593.637,-67.5728 590.733,-66.5903 588,-65.6985 535.874,-48.6888 520.292,-51.5417 470,-29.6985 469.151,-29.3296 468.293,-28.9378 467.434,-28.5288"/>
<polygon fill="green" stroke="green" stroke-width="0.162587" points="468.897,-25.3429 458.425,-23.7352 465.609,-31.5225 468.897,-25.3429"/>
</g>
<!-- &#45;20&#45;&gt;4 -->
<g id="edge100" class="edge"><title>&#45;20&#45;&gt;4</title>
<path fill="none" stroke="green" stroke-width="0.25022" d="M596.322,-67.201C577.84,-58.9181 545.213,-43.9573 518,-29.6985 517.18,-29.2687 516.347,-28.8252 515.509,-28.3726"/>
<polygon fill="green" stroke="green" stroke-width="0.25022" points="517.031,-25.2137 506.597,-23.3756 513.608,-31.3194 517.031,-25.2137"/>
</g>
</g>
</svg>
