<?xml version="1.0" encoding="UTF-8" standalone="no"?>
<!DOCTYPE svg PUBLIC "-//W3C//DTD SVG 1.1//EN"
 "http://www.w3.org/Graphics/SVG/1.1/DTD/svg11.dtd">
<!-- Generated by graphviz version 2.38.0 (20140413.2041)
 -->
<!-- Title: %3 Pages: 1 -->
<svg width="1021pt" height="164pt"
 viewBox="0.00 0.00 1021.04 164.47" xmlns="http://www.w3.org/2000/svg" xmlns:xlink="http://www.w3.org/1999/xlink">
<g id="graph0" class="graph" transform="scale(1 1) rotate(0) translate(4 160.468)">
<title>%3</title>
<polygon fill="white" stroke="none" points="-4,4 -4,-160.468 1017.04,-160.468 1017.04,4 -4,4"/>
<!-- &#45;1 -->
<g id="node1" class="node"><title>&#45;1</title>
<polygon fill="lightgray" stroke="black" points="782.271,-93.0833 758.271,-93.0833 758.271,-75.0833 782.271,-75.0833 782.271,-93.0833"/>
<text text-anchor="middle" x="770.271" y="-81.8833" font-family="Times New Roman,serif" font-size="9.00">&#45;1</text>
</g>
<!-- 0 -->
<g id="node21" class="node"><title>0</title>
<ellipse fill="lightblue" stroke="black" cx="357.271" cy="-14.8492" rx="14.7" ry="14.7"/>
<text text-anchor="middle" x="357.271" y="-12.6492" font-family="Times New Roman,serif" font-size="9.00">0</text>
</g>
<!-- &#45;1&#45;&gt;0 -->
<g id="edge1" class="edge"><title>&#45;1&#45;&gt;0</title>
<path fill="none" stroke="red" stroke-width="0.479838" d="M762.847,-75.0654C759.127,-71.576 754.34,-67.8087 749.271,-65.6985 597.558,-2.53583 537.752,-79.9004 381.271,-29.6985 380.218,-29.3605 379.16,-28.9714 378.107,-28.5432"/>
<polygon fill="red" stroke="red" stroke-width="0.479838" points="379.516,-25.3342 369.012,-23.9536 376.363,-31.5835 379.516,-25.3342"/>
</g>
<!-- 1 -->
<g id="node22" class="node"><title>1</title>
<ellipse fill="lightblue" stroke="black" cx="549.271" cy="-14.8492" rx="14.7" ry="14.7"/>
<text text-anchor="middle" x="549.271" y="-12.6492" font-family="Times New Roman,serif" font-size="9.00">1</text>
</g>
<!-- &#45;1&#45;&gt;1 -->
<g id="edge2" class="edge"><title>&#45;1&#45;&gt;1</title>
<path fill="none" stroke="red" stroke-width="0.206112" d="M762.304,-75.0389C758.613,-71.7156 754.003,-68.0892 749.271,-65.6985 690.592,-36.0475 613.125,-23.2808 574.062,-18.4355"/>
<polygon fill="red" stroke="red" stroke-width="0.206112" points="574.449,-14.957 564.11,-17.2715 573.635,-21.9096 574.449,-14.957"/>
</g>
<!-- 2 -->
<g id="node23" class="node"><title>2</title>
<ellipse fill="lightblue" stroke="black" cx="405.271" cy="-14.8492" rx="14.7" ry="14.7"/>
<text text-anchor="middle" x="405.271" y="-12.6492" font-family="Times New Roman,serif" font-size="9.00">2</text>
</g>
<!-- &#45;1&#45;&gt;2 -->
<g id="edge3" class="edge"><title>&#45;1&#45;&gt;2</title>
<path fill="none" stroke="red" stroke-width="0.385174" d="M762.444,-74.7372C758.78,-71.358 754.15,-67.7714 749.271,-65.6985 617.548,-9.73323 565.228,-74.4067 429.271,-29.6985 428.392,-29.4092 427.508,-29.0851 426.627,-28.7331"/>
<polygon fill="red" stroke="red" stroke-width="0.385174" points="428.03,-25.5219 417.517,-24.2055 424.915,-31.7904 428.03,-25.5219"/>
</g>
<!-- 3 -->
<g id="node24" class="node"><title>3</title>
<ellipse fill="lightblue" stroke="black" cx="453.271" cy="-14.8492" rx="14.7" ry="14.7"/>
<text text-anchor="middle" x="453.271" y="-12.6492" font-family="Times New Roman,serif" font-size="9.00">3</text>
</g>
<!-- &#45;1&#45;&gt;3 -->
<g id="edge4" class="edge"><title>&#45;1&#45;&gt;3</title>
<path fill="none" stroke="green" stroke-width="0.158102" d="M762.424,-74.7824C758.756,-71.4116 754.13,-67.819 749.271,-65.6985 637.51,-16.9187 592.734,-68.9226 477.271,-29.6985 476.394,-29.4006 475.514,-29.0692 474.635,-28.7111"/>
<polygon fill="green" stroke="green" stroke-width="0.158102" points="476.043,-25.5021 465.534,-24.1548 472.909,-31.7614 476.043,-25.5021"/>
</g>
<!-- 4 -->
<g id="node25" class="node"><title>4</title>
<ellipse fill="lightblue" stroke="black" cx="501.271" cy="-14.8492" rx="14.7" ry="14.7"/>
<text text-anchor="middle" x="501.271" y="-12.6492" font-family="Times New Roman,serif" font-size="9.00">4</text>
</g>
<!-- &#45;1&#45;&gt;4 -->
<g id="edge5" class="edge"><title>&#45;1&#45;&gt;4</title>
<path fill="none" stroke="green" stroke-width="0.438213" d="M762.396,-74.8462C758.723,-71.4873 754.1,-67.8862 749.271,-65.6985 657.426,-24.0842 620.286,-63.4546 525.271,-29.6985 524.399,-29.3885 523.522,-29.0468 522.646,-28.6799"/>
<polygon fill="green" stroke="green" stroke-width="0.438213" points="524.062,-25.4743 513.559,-24.0831 520.902,-31.7205 524.062,-25.4743"/>
</g>
<!-- &#45;2 -->
<g id="node2" class="node"><title>&#45;2</title>
<polygon fill="lightgray" stroke="black" points="556.271,-93.0833 532.271,-93.0833 532.271,-75.0833 556.271,-75.0833 556.271,-93.0833"/>
<text text-anchor="middle" x="544.271" y="-81.8833" font-family="Times New Roman,serif" font-size="9.00">&#45;2</text>
</g>
<!-- &#45;2&#45;&gt;0 -->
<g id="edge6" class="edge"><title>&#45;2&#45;&gt;0</title>
<path fill="none" stroke="green" stroke-width="0.390766" d="M535.858,-75.0642C531.98,-71.7456 527.158,-68.1159 522.271,-65.6985 464.299,-37.0222 441.173,-54.089 381.271,-29.6985 380.414,-29.3493 379.549,-28.9742 378.684,-28.5793"/>
<polygon fill="green" stroke="green" stroke-width="0.390766" points="380.131,-25.3861 369.648,-23.8515 376.886,-31.5885 380.131,-25.3861"/>
</g>
<!-- &#45;2&#45;&gt;1 -->
<g id="edge7" class="edge"><title>&#45;2&#45;&gt;1</title>
<path fill="none" stroke="green" stroke-width="0.50438" d="M544.884,-74.8391C545.53,-66.1604 546.576,-52.0878 547.485,-39.8642"/>
<polygon fill="green" stroke="green" stroke-width="0.50438" points="550.984,-40.0122 548.235,-29.7802 544.003,-39.493 550.984,-40.0122"/>
</g>
<!-- &#45;2&#45;&gt;2 -->
<g id="edge8" class="edge"><title>&#45;2&#45;&gt;2</title>
<path fill="none" stroke="green" stroke-width="0.101064" d="M535.291,-74.9851C531.465,-71.808 526.836,-68.3064 522.271,-65.6985 483.787,-43.7127 469.251,-48.8314 429.271,-29.6985 428.436,-29.2987 427.591,-28.8808 426.741,-28.4496"/>
<polygon fill="green" stroke="green" stroke-width="0.101064" points="428.233,-25.2765 417.78,-23.5531 424.877,-31.4194 428.233,-25.2765"/>
</g>
<!-- &#45;2&#45;&gt;3 -->
<g id="edge9" class="edge"><title>&#45;2&#45;&gt;3</title>
<path fill="none" stroke="red" stroke-width="0.196644" d="M534.046,-74.854C530.361,-71.9284 526.155,-68.6337 522.271,-65.6985 506.023,-53.4186 487.273,-39.9137 473.423,-30.0614"/>
<polygon fill="red" stroke="red" stroke-width="0.196644" points="475.287,-27.0925 465.104,-24.1641 471.238,-32.803 475.287,-27.0925"/>
</g>
<!-- &#45;2&#45;&gt;4 -->
<g id="edge10" class="edge"><title>&#45;2&#45;&gt;4</title>
<path fill="none" stroke="red" stroke-width="0.47754" d="M538.999,-74.8391C532.935,-65.3583 522.755,-49.4405 514.496,-36.528"/>
<polygon fill="red" stroke="red" stroke-width="0.47754" points="517.246,-34.3305 508.909,-27.7919 511.349,-38.1021 517.246,-34.3305"/>
</g>
<!-- &#45;3 -->
<g id="node3" class="node"><title>&#45;3</title>
<polygon fill="lightgray" stroke="black" points="883.271,-156.468 859.271,-156.468 859.271,-138.468 883.271,-138.468 883.271,-156.468"/>
<text text-anchor="middle" x="871.271" y="-145.268" font-family="Times New Roman,serif" font-size="9.00">&#45;3</text>
</g>
<!-- &#45;3&#45;&gt;0 -->
<g id="edge11" class="edge"><title>&#45;3&#45;&gt;0</title>
<path fill="none" stroke="green" stroke-width="0.701302" d="M859.207,-146.322C756.991,-145.026 38.984,-134.787 8.27124,-102.468 -2.98627,-90.6219 -2.43622,-78.044 8.27124,-65.6985 50.5159,-16.9911 259.607,-14.6915 332.307,-15.4036"/>
<polygon fill="green" stroke="green" stroke-width="0.701302" points="332.341,-18.9042 342.384,-15.5312 332.429,-11.9048 332.341,-18.9042"/>
</g>
<!-- &#45;3&#45;&gt;1 -->
<g id="edge12" class="edge"><title>&#45;3&#45;&gt;1</title>
<path fill="none" stroke="green" stroke-width="0.292945" stroke-dasharray="1,5" d="M883.579,-146.767C910.918,-146.676 976.548,-142.132 1005.27,-102.468 1014.86,-89.2322 1016.18,-77.8657 1005.27,-65.6985 976.279,-33.3637 665.619,-19.94 574.348,-16.6762"/>
<polygon fill="green" stroke="green" stroke-width="0.292945" points="574.455,-13.1779 564.339,-16.328 574.211,-20.1737 574.455,-13.1779"/>
</g>
<!-- &#45;3&#45;&gt;2 -->
<g id="edge13" class="edge"><title>&#45;3&#45;&gt;2</title>
<path fill="none" stroke="green" stroke-width="0.613427" d="M859.055,-146.311C757.09,-144.941 50.5148,-134.316 20.2712,-102.468 9.01798,-90.6179 9.304,-77.8138 20.2712,-65.6985 74.376,-5.92991 304.528,-54.3986 381.271,-29.6985 382.324,-29.3595 383.382,-28.9696 384.435,-28.5408"/>
<polygon fill="green" stroke="green" stroke-width="0.613427" points="386.18,-31.5805 393.529,-23.9487 383.025,-25.3319 386.18,-31.5805"/>
</g>
<!-- &#45;3&#45;&gt;3 -->
<g id="edge14" class="edge"><title>&#45;3&#45;&gt;3</title>
<path fill="none" stroke="red" stroke-width="0.791779" d="M863.553,-138.392C844.384,-118.372 795.82,-67.9082 791.271,-65.6985 664.918,-4.3249 610.665,-73.7206 477.271,-29.6985 476.392,-29.4083 475.509,-29.0834 474.628,-28.7307"/>
<polygon fill="red" stroke="red" stroke-width="0.791779" points="476.032,-25.5197 465.519,-24.2 472.914,-31.7873 476.032,-25.5197"/>
</g>
<!-- &#45;3&#45;&gt;4 -->
<g id="edge15" class="edge"><title>&#45;3&#45;&gt;4</title>
<path fill="none" stroke="red" stroke-width="0.328112" d="M883.08,-138.269C893.253,-130.421 907.223,-117.564 913.271,-102.468 919.349,-87.2983 924.28,-77.776 913.271,-65.6985 854.938,-1.70234 607.79,-55.9449 525.271,-29.6985 524.217,-29.3631 523.158,-28.9762 522.105,-28.5498"/>
<polygon fill="red" stroke="red" stroke-width="0.328112" points="523.513,-25.3403 513.008,-23.9665 520.363,-31.5917 523.513,-25.3403"/>
</g>
<!-- 25 -->
<g id="node26" class="node"><title>25</title>
<ellipse fill="white" stroke="black" cx="978.271" cy="-84.0833" rx="18.2703" ry="18.2703"/>
<text text-anchor="middle" x="978.271" y="-81.8833" font-family="Times New Roman,serif" font-size="9.00">25</text>
</g>
<!-- &#45;3&#45;&gt;25 -->
<g id="edge101" class="edge"><title>&#45;3&#45;&gt;25</title>
<path fill="none" stroke="green" stroke-width="0.260459" d="M883.546,-139.426C900.645,-129.617 932,-111.628 953.936,-99.0442"/>
<polygon fill="green" stroke="green" stroke-width="0.260459" points="955.759,-102.034 962.691,-94.0214 952.275,-95.9618 955.759,-102.034"/>
</g>
<!-- &#45;4 -->
<g id="node4" class="node"><title>&#45;4</title>
<polygon fill="lightgray" stroke="black" points="862.271,-93.0833 838.271,-93.0833 838.271,-75.0833 862.271,-75.0833 862.271,-93.0833"/>
<text text-anchor="middle" x="850.271" y="-81.8833" font-family="Times New Roman,serif" font-size="9.00">&#45;4</text>
</g>
<!-- &#45;4&#45;&gt;0 -->
<g id="edge16" class="edge"><title>&#45;4&#45;&gt;0</title>
<path fill="none" stroke="red" stroke-width="0.258843" d="M838.241,-78.7703C826.438,-74.7231 807.849,-68.8363 791.271,-65.6985 611.539,-31.6793 555.726,-84.7124 381.271,-29.6985 380.216,-29.3657 379.157,-28.981 378.102,-28.5562"/>
<polygon fill="red" stroke="red" stroke-width="0.258843" points="379.51,-25.3463 369.004,-23.9794 376.364,-31.5998 379.51,-25.3463"/>
</g>
<!-- &#45;4&#45;&gt;1 -->
<g id="edge17" class="edge"><title>&#45;4&#45;&gt;1</title>
<path fill="none" stroke="red" stroke-width="0.499193" d="M840.198,-74.9341C835.59,-71.5914 829.909,-67.9788 824.271,-65.6985 736.871,-30.3483 623.721,-19.9425 574.26,-16.9801"/>
<polygon fill="red" stroke="red" stroke-width="0.499193" points="574.346,-13.4796 564.169,-16.4281 573.963,-20.4691 574.346,-13.4796"/>
</g>
<!-- &#45;4&#45;&gt;2 -->
<g id="edge18" class="edge"><title>&#45;4&#45;&gt;2</title>
<path fill="none" stroke="red" stroke-width="0.379703" d="M838.232,-78.8123C826.424,-74.7963 807.83,-68.9319 791.271,-65.6985 632.586,-34.7133 583.185,-79.2133 429.271,-29.6985 428.218,-29.3596 427.16,-28.9699 426.107,-28.5411"/>
<polygon fill="red" stroke="red" stroke-width="0.379703" points="427.517,-25.3322 417.013,-23.9494 424.362,-31.5809 427.517,-25.3322"/>
</g>
<!-- &#45;4&#45;&gt;3 -->
<g id="edge19" class="edge"><title>&#45;4&#45;&gt;3</title>
<path fill="none" stroke="green" stroke-width="0.228177" d="M840.276,-74.7293C835.683,-71.3487 829.992,-67.7631 824.271,-65.6985 678.43,-13.0607 624.77,-77.496 477.271,-29.6985 476.219,-29.3574 475.162,-28.9658 474.109,-28.5356"/>
<polygon fill="green" stroke="green" stroke-width="0.228177" points="475.52,-25.327 465.017,-23.9384 472.362,-31.574 475.52,-25.327"/>
</g>
<!-- &#45;4&#45;&gt;4 -->
<g id="edge20" class="edge"><title>&#45;4&#45;&gt;4</title>
<path fill="none" stroke="green" stroke-width="0.295496" d="M840.26,-74.7739C835.664,-71.4016 829.974,-67.8101 824.271,-65.6985 698.75,-19.2245 652.258,-72.006 525.271,-29.6985 524.393,-29.4058 523.511,-29.0788 522.63,-28.7243"/>
<polygon fill="green" stroke="green" stroke-width="0.295496" points="524.035,-25.514 513.524,-24.1853 520.913,-31.7788 524.035,-25.514"/>
</g>
<!-- &#45;5 -->
<g id="node5" class="node"><title>&#45;5</title>
<polygon fill="lightgray" stroke="black" points="904.271,-93.0833 880.271,-93.0833 880.271,-75.0833 904.271,-75.0833 904.271,-93.0833"/>
<text text-anchor="middle" x="892.271" y="-81.8833" font-family="Times New Roman,serif" font-size="9.00">&#45;5</text>
</g>
<!-- &#45;5&#45;&gt;0 -->
<g id="edge21" class="edge"><title>&#45;5&#45;&gt;0</title>
<path fill="none" stroke="red" stroke-width="0.527691" d="M884.869,-75.0103C881.154,-71.5088 876.365,-67.7473 871.271,-65.6985 668.68,15.7869 589.989,-93.8867 381.271,-29.6985 380.214,-29.3732 379.152,-28.9947 378.097,-28.5749"/>
<polygon fill="red" stroke="red" stroke-width="0.527691" points="379.501,-25.3638 368.992,-24.0164 376.367,-31.6231 379.501,-25.3638"/>
</g>
<!-- &#45;5&#45;&gt;1 -->
<g id="edge22" class="edge"><title>&#45;5&#45;&gt;1</title>
<path fill="none" stroke="red" stroke-width="0.283814" d="M884.402,-74.833C880.73,-71.4716 876.106,-67.8723 871.271,-65.6985 768.246,-19.3756 630.026,-14.9886 574.203,-15.3"/>
<polygon fill="red" stroke="red" stroke-width="0.283814" points="574.132,-11.8005 564.172,-15.4139 574.211,-18.8 574.132,-11.8005"/>
</g>
<!-- &#45;5&#45;&gt;2 -->
<g id="edge23" class="edge"><title>&#45;5&#45;&gt;2</title>
<path fill="none" stroke="red" stroke-width="0.147589" d="M884.862,-75.0284C881.145,-71.5309 876.357,-67.7674 871.271,-65.6985 688.706,8.57433 617.428,-88.381 429.271,-29.6985 428.215,-29.3691 427.155,-28.987 426.1,-28.5645"/>
<polygon fill="red" stroke="red" stroke-width="0.147589" points="427.506,-25.3541 416.998,-23.9958 424.365,-31.6101 427.506,-25.3541"/>
</g>
<!-- &#45;5&#45;&gt;3 -->
<g id="edge24" class="edge"><title>&#45;5&#45;&gt;3</title>
<path fill="none" stroke="red" stroke-width="0.20732" d="M884.853,-75.0508C881.134,-71.5583 876.347,-67.7925 871.271,-65.6985 708.722,1.36616 644.877,-82.8788 477.271,-29.6985 476.217,-29.3639 475.158,-28.9776 474.104,-28.5516"/>
<polygon fill="red" stroke="red" stroke-width="0.20732" points="475.512,-25.342 465.006,-23.9702 472.364,-31.594 475.512,-25.342"/>
</g>
<!-- &#45;5&#45;&gt;4 -->
<g id="edge25" class="edge"><title>&#45;5&#45;&gt;4</title>
<path fill="none" stroke="red" stroke-width="0.504001" d="M884.841,-75.0794C881.12,-71.5931 876.333,-67.8243 871.271,-65.6985 728.723,-5.83579 672.342,-77.3815 525.271,-29.6985 524.219,-29.3572 523.162,-28.9655 522.109,-28.5352"/>
<polygon fill="red" stroke="red" stroke-width="0.504001" points="523.52,-25.3267 513.017,-23.9376 520.362,-31.5735 523.52,-25.3267"/>
</g>
<!-- &#45;6 -->
<g id="node6" class="node"><title>&#45;6</title>
<polygon fill="lightgray" stroke="black" points="53.2712,-93.0833 29.2712,-93.0833 29.2712,-75.0833 53.2712,-75.0833 53.2712,-93.0833"/>
<text text-anchor="middle" x="41.2712" y="-81.8833" font-family="Times New Roman,serif" font-size="9.00">&#45;6</text>
</g>
<!-- &#45;6&#45;&gt;0 -->
<g id="edge26" class="edge"><title>&#45;6&#45;&gt;0</title>
<path fill="none" stroke="green" stroke-width="0.506224" d="M49.1548,-74.8646C52.8296,-71.5091 57.4516,-67.9056 62.2712,-65.6985 155.299,-23.0965 279.831,-16.5416 332.301,-15.7834"/>
<polygon fill="green" stroke="green" stroke-width="0.506224" points="332.397,-19.2828 342.367,-15.6986 332.338,-12.283 332.397,-19.2828"/>
</g>
<!-- &#45;6&#45;&gt;1 -->
<g id="edge27" class="edge"><title>&#45;6&#45;&gt;1</title>
<path fill="none" stroke="red" stroke-width="0.222726" d="M48.6772,-75.02C52.393,-71.5207 57.1819,-67.7581 62.2712,-65.6985 253.597,11.7294 328.121,-90.7894 525.271,-29.6985 526.328,-29.371 527.389,-28.9906 528.444,-28.5693"/>
<polygon fill="red" stroke="red" stroke-width="0.222726" points="530.176,-31.6161 537.547,-24.0053 527.039,-25.3586 530.176,-31.6161"/>
</g>
<!-- &#45;6&#45;&gt;2 -->
<g id="edge28" class="edge"><title>&#45;6&#45;&gt;2</title>
<path fill="none" stroke="green" stroke-width="0.158036" d="M49.0989,-74.738C52.7634,-71.359 57.3927,-67.7722 62.2712,-65.6985 193.578,-9.88306 245.741,-74.2924 381.271,-29.6985 382.151,-29.409 383.034,-29.0848 383.915,-28.7327"/>
<polygon fill="green" stroke="green" stroke-width="0.158036" points="385.628,-31.7899 393.025,-24.2046 382.512,-25.5215 385.628,-31.7899"/>
</g>
<!-- &#45;6&#45;&gt;3 -->
<g id="edge29" class="edge"><title>&#45;6&#45;&gt;3</title>
<path fill="none" stroke="green" stroke-width="0.756353" d="M48.6961,-75.066C52.416,-71.5767 57.2029,-67.8094 62.2712,-65.6985 213.568,-2.68587 273.218,-79.7859 429.271,-29.6985 430.325,-29.3603 431.383,-28.9712 432.436,-28.5429"/>
<polygon fill="green" stroke="green" stroke-width="0.756353" points="434.18,-31.5831 441.531,-23.9529 431.026,-25.3339 434.18,-31.5831"/>
</g>
<!-- &#45;6&#45;&gt;4 -->
<g id="edge30" class="edge"><title>&#45;6&#45;&gt;4</title>
<path fill="none" stroke="red" stroke-width="0.18551" d="M48.6855,-75.0404C52.4031,-71.5455 57.1911,-67.7808 62.2712,-65.6985 233.576,4.5191 300.676,-85.2855 477.271,-29.6985 478.327,-29.3663 479.386,-28.982 480.44,-28.5576"/>
<polygon fill="red" stroke="red" stroke-width="0.18551" points="482.178,-31.6015 489.54,-23.9821 479.033,-25.3476 482.178,-31.6015"/>
</g>
<!-- &#45;7 -->
<g id="node7" class="node"><title>&#45;7</title>
<polygon fill="lightgray" stroke="black" points="740.271,-93.0833 716.271,-93.0833 716.271,-75.0833 740.271,-75.0833 740.271,-93.0833"/>
<text text-anchor="middle" x="728.271" y="-81.8833" font-family="Times New Roman,serif" font-size="9.00">&#45;7</text>
</g>
<!-- &#45;7&#45;&gt;0 -->
<g id="edge31" class="edge"><title>&#45;7&#45;&gt;0</title>
<path fill="none" stroke="red" stroke-width="0.248461" d="M720.446,-74.7324C716.782,-71.3524 712.152,-67.7664 707.271,-65.6985 573.05,-8.83409 519.792,-75.093 381.271,-29.6985 380.391,-29.4101 379.508,-29.0868 378.627,-28.7354"/>
<polygon fill="red" stroke="red" stroke-width="0.248461" points="380.029,-25.5239 369.516,-24.2109 376.915,-31.7934 380.029,-25.5239"/>
</g>
<!-- &#45;7&#45;&gt;1 -->
<g id="edge32" class="edge"><title>&#45;7&#45;&gt;1</title>
<path fill="none" stroke="green" stroke-width="0.181266" d="M719.832,-74.8209C716.2,-71.6187 711.761,-68.1427 707.271,-65.6985 663.24,-41.7267 605.925,-27.2894 573.825,-20.5157"/>
<polygon fill="green" stroke="green" stroke-width="0.181266" points="574.458,-17.0729 563.961,-18.5097 573.063,-23.9325 574.458,-17.0729"/>
</g>
<!-- &#45;7&#45;&gt;2 -->
<g id="edge33" class="edge"><title>&#45;7&#45;&gt;2</title>
<path fill="none" stroke="red" stroke-width="0.271015" d="M720.427,-74.7759C716.76,-71.4039 712.133,-67.8122 707.271,-65.6985 593.016,-16.0214 547.293,-69.6074 429.271,-29.6985 428.394,-29.4018 427.513,-29.0715 426.634,-28.7142"/>
<polygon fill="red" stroke="red" stroke-width="0.271015" points="428.041,-25.5049 417.532,-24.1621 424.91,-31.7656 428.041,-25.5049"/>
</g>
<!-- &#45;7&#45;&gt;3 -->
<g id="edge34" class="edge"><title>&#45;7&#45;&gt;3</title>
<path fill="none" stroke="green" stroke-width="0.45248" d="M720.4,-74.8368C716.728,-71.4761 712.104,-67.8764 707.271,-65.6985 612.94,-23.19 574.839,-64.1368 477.271,-29.6985 476.398,-29.3903 475.52,-29.0501 474.644,-28.6845"/>
<polygon fill="green" stroke="green" stroke-width="0.45248" points="476.06,-25.4784 465.556,-24.0936 472.903,-31.7265 476.06,-25.4784"/>
</g>
<!-- &#45;7&#45;&gt;4 -->
<g id="edge35" class="edge"><title>&#45;7&#45;&gt;4</title>
<path fill="none" stroke="green" stroke-width="0.21357" d="M720.358,-74.9282C716.678,-71.5844 712.06,-67.9726 707.271,-65.6985 632.788,-30.3247 602.461,-58.6938 525.271,-29.6985 524.404,-29.3728 523.532,-29.0179 522.66,-28.6398"/>
<polygon fill="green" stroke="green" stroke-width="0.21357" points="524.088,-25.4389 513.593,-23.9908 520.895,-31.6678 524.088,-25.4389"/>
</g>
<!-- &#45;8 -->
<g id="node8" class="node"><title>&#45;8</title>
<polygon fill="lightgray" stroke="black" points="95.2712,-93.0833 71.2712,-93.0833 71.2712,-75.0833 95.2712,-75.0833 95.2712,-93.0833"/>
<text text-anchor="middle" x="83.2712" y="-81.8833" font-family="Times New Roman,serif" font-size="9.00">&#45;8</text>
</g>
<!-- &#45;8&#45;&gt;0 -->
<g id="edge36" class="edge"><title>&#45;8&#45;&gt;0</title>
<path fill="none" stroke="red" stroke-width="0.130966" d="M91.1837,-74.9265C94.8638,-71.5824 99.482,-67.9708 104.271,-65.6985 181.781,-28.9223 285.021,-19.2718 332.034,-16.7439"/>
<polygon fill="red" stroke="red" stroke-width="0.130966" points="332.391,-20.231 342.215,-16.2629 332.06,-13.2388 332.391,-20.231"/>
</g>
<!-- &#45;8&#45;&gt;1 -->
<g id="edge37" class="edge"><title>&#45;8&#45;&gt;1</title>
<path fill="none" stroke="red" stroke-width="0.452983" d="M90.6844,-75.0376C94.4017,-71.5421 99.1899,-67.7777 104.271,-65.6985 278.078,5.42013 346.107,-85.9733 525.271,-29.6985 526.327,-29.3669 527.386,-28.9832 528.441,-28.5592"/>
<polygon fill="red" stroke="red" stroke-width="0.452983" points="530.178,-31.6035 537.541,-23.9853 527.034,-25.3491 530.178,-31.6035"/>
</g>
<!-- &#45;8&#45;&gt;2 -->
<g id="edge38" class="edge"><title>&#45;8&#45;&gt;2</title>
<path fill="none" stroke="green" stroke-width="0.198039" d="M91.1157,-74.7769C94.7832,-71.4052 99.4104,-67.8133 104.271,-65.6985 218.11,-16.1709 263.676,-69.4933 381.271,-29.6985 382.148,-29.4016 383.029,-29.0711 383.909,-28.7137"/>
<polygon fill="green" stroke="green" stroke-width="0.198039" points="385.633,-31.7649 393.01,-24.1609 382.501,-25.5044 385.633,-31.7649"/>
</g>
<!-- &#45;8&#45;&gt;3 -->
<g id="edge39" class="edge"><title>&#45;8&#45;&gt;3</title>
<path fill="none" stroke="red" stroke-width="0.587158" d="M91.0969,-74.7332C94.761,-71.3534 99.3906,-67.7672 104.271,-65.6985 238.076,-8.98396 291.177,-74.9786 429.271,-29.6985 430.151,-29.41 431.035,-29.0865 431.916,-28.735"/>
<polygon fill="red" stroke="red" stroke-width="0.587158" points="433.627,-31.7929 441.027,-24.21 430.513,-25.5236 433.627,-31.7929"/>
</g>
<!-- &#45;8&#45;&gt;4 -->
<g id="edge40" class="edge"><title>&#45;8&#45;&gt;4</title>
<path fill="none" stroke="green" stroke-width="0.190455" d="M90.6946,-75.0624C94.4142,-71.5724 99.2013,-67.8054 104.271,-65.6985 258.068,-1.78561 318.652,-80.473 477.271,-29.6985 478.325,-29.3612 479.383,-28.9727 480.436,-28.5449"/>
<polygon fill="green" stroke="green" stroke-width="0.190455" points="482.18,-31.5857 489.532,-23.9569 479.027,-25.3358 482.18,-31.5857"/>
</g>
<!-- &#45;9 -->
<g id="node9" class="node"><title>&#45;9</title>
<polygon fill="lightgray" stroke="black" points="137.271,-93.0833 113.271,-93.0833 113.271,-75.0833 137.271,-75.0833 137.271,-93.0833"/>
<text text-anchor="middle" x="125.271" y="-81.8833" font-family="Times New Roman,serif" font-size="9.00">&#45;9</text>
</g>
<!-- &#45;9&#45;&gt;0 -->
<g id="edge41" class="edge"><title>&#45;9&#45;&gt;0</title>
<path fill="none" stroke="green" stroke-width="0.197181" d="M133.225,-75.0113C136.913,-71.6829 141.525,-68.0601 146.271,-65.6985 208.78,-34.5928 291.482,-22.3925 332.296,-18.0317"/>
<polygon fill="green" stroke="green" stroke-width="0.197181" points="332.815,-21.4974 342.418,-17.0214 332.12,-14.532 332.815,-21.4974"/>
</g>
<!-- &#45;9&#45;&gt;1 -->
<g id="edge42" class="edge"><title>&#45;9&#45;&gt;1</title>
<path fill="none" stroke="red" stroke-width="0.208667" d="M132.693,-75.059C136.412,-71.5682 141.2,-67.8016 146.271,-65.6985 302.568,-0.885237 364.084,-81.1603 525.271,-29.6985 526.325,-29.362 527.384,-28.9741 528.437,-28.5469"/>
<polygon fill="red" stroke="red" stroke-width="0.208667" points="530.179,-31.5881 537.533,-23.9609 527.028,-25.3376 530.179,-31.5881"/>
</g>
<!-- &#45;9&#45;&gt;2 -->
<g id="edge43" class="edge"><title>&#45;9&#45;&gt;2</title>
<path fill="none" stroke="red" stroke-width="0.112076" d="M133.139,-74.8293C136.811,-71.4673 141.435,-67.8685 146.271,-65.6985 242.675,-22.4445 281.576,-64.7057 381.271,-29.6985 382.145,-29.3917 383.023,-29.0527 383.9,-28.6881"/>
<polygon fill="red" stroke="red" stroke-width="0.112076" points="385.638,-31.7313 392.99,-24.102 382.485,-25.4816 385.638,-31.7313"/>
</g>
<!-- &#45;9&#45;&gt;3 -->
<g id="edge44" class="edge"><title>&#45;9&#45;&gt;3</title>
<path fill="none" stroke="green" stroke-width="0.377161" d="M133.113,-74.7707C136.78,-71.3978 141.408,-67.8067 146.271,-65.6985 262.604,-15.2734 309.115,-70.1783 429.271,-29.6985 430.149,-29.4028 431.03,-29.0733 431.91,-28.7168"/>
<polygon fill="green" stroke="green" stroke-width="0.377161" points="433.632,-31.7689 441.013,-24.1679 430.503,-25.5072 433.632,-31.7689"/>
</g>
<!-- &#45;9&#45;&gt;4 -->
<g id="edge45" class="edge"><title>&#45;9&#45;&gt;4</title>
<path fill="none" stroke="red" stroke-width="0.188739" d="M133.095,-74.7286C136.759,-71.3479 141.389,-67.7624 146.271,-65.6985 282.574,-8.08468 336.613,-75.665 477.271,-29.6985 478.151,-29.4108 479.035,-29.0881 479.916,-28.7373"/>
<polygon fill="red" stroke="red" stroke-width="0.188739" points="481.627,-31.7959 489.028,-24.2151 478.515,-25.5256 481.627,-31.7959"/>
</g>
<!-- &#45;10 -->
<g id="node10" class="node"><title>&#45;10</title>
<polygon fill="lightgray" stroke="black" points="231.771,-93.0833 202.771,-93.0833 202.771,-75.0833 231.771,-75.0833 231.771,-93.0833"/>
<text text-anchor="middle" x="217.271" y="-81.8833" font-family="Times New Roman,serif" font-size="9.00">&#45;10</text>
</g>
<!-- &#45;10&#45;&gt;0 -->
<g id="edge46" class="edge"><title>&#45;10&#45;&gt;0</title>
<path fill="none" stroke="red" stroke-width="0.301525" d="M227.204,-74.7343C231.126,-71.666 235.767,-68.3076 240.271,-65.6985 271.199,-47.7845 309.794,-32.594 333.995,-23.8453"/>
<polygon fill="red" stroke="red" stroke-width="0.301525" points="335.167,-27.1434 343.421,-20.5012 332.826,-20.5463 335.167,-27.1434"/>
</g>
<!-- &#45;10&#45;&gt;1 -->
<g id="edge47" class="edge"><title>&#45;10&#45;&gt;1</title>
<path fill="none" stroke="red" stroke-width="0.379194" d="M225.987,-74.7752C230.027,-71.4031 235.079,-67.8114 240.271,-65.6985 358.529,-17.5786 404.262,-70.4067 525.271,-29.6985 526.149,-29.4032 527.03,-29.074 527.91,-28.7177"/>
<polygon fill="red" stroke="red" stroke-width="0.379194" points="529.632,-31.7702 537.013,-24.1702 526.503,-25.5081 529.632,-31.7702"/>
</g>
<!-- &#45;10&#45;&gt;2 -->
<g id="edge48" class="edge"><title>&#45;10&#45;&gt;2</title>
<path fill="none" stroke="green" stroke-width="0.194576" d="M226.121,-75.0775C230.186,-71.7614 235.22,-68.1299 240.271,-65.6985 298.548,-37.6472 321.37,-54.089 381.271,-29.6985 382.129,-29.3493 382.993,-28.9742 383.859,-28.5793"/>
<polygon fill="green" stroke="green" stroke-width="0.194576" points="385.657,-31.5885 392.895,-23.8515 382.412,-25.3861 385.657,-31.5885"/>
</g>
<!-- &#45;10&#45;&gt;3 -->
<g id="edge49" class="edge"><title>&#45;10&#45;&gt;3</title>
<path fill="none" stroke="red" stroke-width="0.286264" d="M226.052,-74.9283C230.104,-71.5846 235.147,-67.9728 240.271,-65.6985 318.429,-31.008 349.117,-59.485 429.271,-29.6985 430.139,-29.3759 431.012,-29.0235 431.885,-28.6477"/>
<polygon fill="red" stroke="red" stroke-width="0.286264" points="433.646,-31.6781 440.956,-24.0089 430.459,-25.4458 433.646,-31.6781"/>
</g>
<!-- &#45;10&#45;&gt;4 -->
<g id="edge50" class="edge"><title>&#45;10&#45;&gt;4</title>
<path fill="none" stroke="green" stroke-width="0.300608" d="M226.013,-74.8368C230.057,-71.4762 235.106,-67.8764 240.271,-65.6985 338.444,-24.308 376.725,-64.9333 477.271,-29.6985 478.145,-29.3922 479.023,-29.0537 479.9,-28.6895"/>
<polygon fill="green" stroke="green" stroke-width="0.300608" points="481.638,-31.7331 488.991,-24.1053 478.486,-25.4829 481.638,-31.7331"/>
</g>
<!-- &#45;11 -->
<g id="node11" class="node"><title>&#45;11</title>
<polygon fill="lightgray" stroke="black" points="278.771,-93.0833 249.771,-93.0833 249.771,-75.0833 278.771,-75.0833 278.771,-93.0833"/>
<text text-anchor="middle" x="264.271" y="-81.8833" font-family="Times New Roman,serif" font-size="9.00">&#45;11</text>
</g>
<!-- &#45;11&#45;&gt;0 -->
<g id="edge51" class="edge"><title>&#45;11&#45;&gt;0</title>
<path fill="none" stroke="red" stroke-width="0.410953" d="M274.989,-74.8829C278.843,-71.9601 283.236,-68.6596 287.271,-65.6985 303.848,-53.5349 322.863,-40.0211 336.888,-30.1358"/>
<polygon fill="red" stroke="red" stroke-width="0.410953" points="339.141,-32.83 345.307,-24.2144 335.114,-27.1043 339.141,-32.83"/>
</g>
<!-- &#45;11&#45;&gt;1 -->
<g id="edge52" class="edge"><title>&#45;11&#45;&gt;1</title>
<path fill="none" stroke="green" stroke-width="0.150362" d="M273.012,-74.8353C277.057,-71.4744 282.105,-67.8748 287.271,-65.6985 385.862,-24.1681 424.299,-65.0472 525.271,-29.6985 526.145,-29.3925 527.024,-29.0542 527.901,-28.6902"/>
<polygon fill="green" stroke="green" stroke-width="0.150362" points="529.638,-31.7341 536.992,-24.1069 526.487,-25.4835 529.638,-31.7341"/>
</g>
<!-- &#45;11&#45;&gt;2 -->
<g id="edge53" class="edge"><title>&#45;11&#45;&gt;2</title>
<path fill="none" stroke="green" stroke-width="0.180156" d="M273.705,-74.9997C277.712,-71.8248 282.544,-68.3209 287.271,-65.6985 326.391,-43.996 340.883,-48.9381 381.271,-29.6985 382.107,-29.3002 382.953,-28.8836 383.803,-28.4535"/>
<polygon fill="green" stroke="green" stroke-width="0.180156" points="385.666,-31.4244 392.767,-23.5619 382.313,-25.2797 385.666,-31.4244"/>
</g>
<!-- &#45;11&#45;&gt;3 -->
<g id="edge54" class="edge"><title>&#45;11&#45;&gt;3</title>
<path fill="none" stroke="red" stroke-width="0.704962" d="M273.12,-75.0734C277.184,-71.7566 282.218,-68.1256 287.271,-65.6985 345.96,-37.51 368.95,-54.2005 429.271,-29.6985 430.129,-29.35 430.994,-28.9756 431.859,-28.5812"/>
<polygon fill="red" stroke="red" stroke-width="0.704962" points="433.657,-31.591 440.897,-23.8558 430.413,-25.3877 433.657,-31.591"/>
</g>
<!-- &#45;11&#45;&gt;4 -->
<g id="edge55" class="edge"><title>&#45;11&#45;&gt;4</title>
<path fill="none" stroke="green" stroke-width="0.466682" d="M273.051,-74.926C277.103,-71.5818 282.146,-67.9703 287.271,-65.6985 365.845,-30.8689 396.693,-59.5981 477.271,-29.6985 478.139,-29.3763 479.013,-29.0243 479.886,-28.6487"/>
<polygon fill="green" stroke="green" stroke-width="0.466682" points="481.646,-31.6796 488.957,-24.0114 478.46,-25.4467 481.646,-31.6796"/>
</g>
<!-- &#45;12 -->
<g id="node12" class="node"><title>&#45;12</title>
<polygon fill="lightgray" stroke="black" points="325.771,-93.0833 296.771,-93.0833 296.771,-75.0833 325.771,-75.0833 325.771,-93.0833"/>
<text text-anchor="middle" x="311.271" y="-81.8833" font-family="Times New Roman,serif" font-size="9.00">&#45;12</text>
</g>
<!-- &#45;12&#45;&gt;0 -->
<g id="edge56" class="edge"><title>&#45;12&#45;&gt;0</title>
<path fill="none" stroke="red" stroke-width="0.326343" d="M316.912,-74.8391C323.461,-65.2662 334.501,-49.1308 343.38,-36.1528"/>
<polygon fill="red" stroke="red" stroke-width="0.326343" points="346.342,-38.0214 349.1,-27.7919 340.565,-34.0687 346.342,-38.0214"/>
</g>
<!-- &#45;12&#45;&gt;1 -->
<g id="edge57" class="edge"><title>&#45;12&#45;&gt;1</title>
<path fill="none" stroke="green" stroke-width="0.513939" d="M320.05,-74.9237C324.102,-71.5791 329.145,-67.9679 334.271,-65.6985 413.261,-30.7297 444.269,-59.7113 525.271,-29.6985 526.14,-29.3767 527.013,-29.0251 527.886,-28.6498"/>
<polygon fill="green" stroke="green" stroke-width="0.513939" points="529.646,-31.681 536.958,-24.0138 526.461,-25.4477 529.646,-31.681"/>
</g>
<!-- &#45;12&#45;&gt;2 -->
<g id="edge58" class="edge"><title>&#45;12&#45;&gt;2</title>
<path fill="none" stroke="red" stroke-width="0.101184" d="M321.978,-74.8679C325.831,-71.9436 330.226,-68.6461 334.271,-65.6985 351.047,-53.4753 370.336,-39.9661 384.572,-30.0977"/>
<polygon fill="red" stroke="red" stroke-width="0.101184" points="386.884,-32.7542 393.12,-24.1886 382.903,-26.9962 386.884,-32.7542"/>
</g>
<!-- &#45;12&#45;&gt;3 -->
<g id="edge59" class="edge"><title>&#45;12&#45;&gt;3</title>
<path fill="none" stroke="green" stroke-width="0.299" d="M320.7,-74.9913C324.707,-71.8152 329.54,-68.3126 334.271,-65.6985 373.793,-43.8641 388.474,-49.0449 429.271,-29.6985 430.108,-29.3017 430.955,-28.8863 431.805,-28.4573"/>
<polygon fill="green" stroke="green" stroke-width="0.299" points="433.666,-31.4293 440.771,-23.5706 430.316,-25.2828 433.666,-31.4293"/>
</g>
<!-- &#45;12&#45;&gt;4 -->
<g id="edge60" class="edge"><title>&#45;12&#45;&gt;4</title>
<path fill="none" stroke="green" stroke-width="0.629578" d="M320.118,-75.0694C324.182,-71.7518 329.216,-68.1214 334.271,-65.6985 393.372,-37.3726 416.53,-54.3121 477.271,-29.6985 478.13,-29.3507 478.994,-28.9769 479.86,-28.583"/>
<polygon fill="green" stroke="green" stroke-width="0.629578" points="481.656,-31.5934 488.898,-23.86 478.415,-25.3893 481.656,-31.5934"/>
</g>
<!-- &#45;13 -->
<g id="node13" class="node"><title>&#45;13</title>
<polygon fill="lightgray" stroke="black" points="372.771,-93.0833 343.771,-93.0833 343.771,-75.0833 372.771,-75.0833 372.771,-93.0833"/>
<text text-anchor="middle" x="358.271" y="-81.8833" font-family="Times New Roman,serif" font-size="9.00">&#45;13</text>
</g>
<!-- &#45;13&#45;&gt;0 -->
<g id="edge61" class="edge"><title>&#45;13&#45;&gt;0</title>
<path fill="none" stroke="red" stroke-width="0.388971" d="M358.149,-74.8391C358.02,-66.1604 357.81,-52.0878 357.628,-39.8642"/>
<polygon fill="red" stroke="red" stroke-width="0.388971" points="361.127,-39.727 357.478,-29.7802 354.128,-39.8312 361.127,-39.727"/>
</g>
<!-- &#45;13&#45;&gt;1 -->
<g id="edge62" class="edge"><title>&#45;13&#45;&gt;1</title>
<path fill="none" stroke="red" stroke-width="0.393561" d="M367.116,-75.0655C371.179,-71.7472 376.214,-68.1173 381.271,-65.6985 440.785,-37.2352 464.11,-54.4237 525.271,-29.6985 526.13,-29.3514 526.995,-28.9782 527.861,-28.5848"/>
<polygon fill="red" stroke="red" stroke-width="0.393561" points="529.656,-31.5957 536.9,-23.8642 526.416,-25.3909 529.656,-31.5957"/>
</g>
<!-- &#45;13&#45;&gt;2 -->
<g id="edge63" class="edge"><title>&#45;13&#45;&gt;2</title>
<path fill="none" stroke="red" stroke-width="0.207697" d="M364.034,-74.8391C370.726,-65.2662 382.006,-49.1308 391.078,-36.1528"/>
<polygon fill="red" stroke="red" stroke-width="0.207697" points="394.062,-37.9932 396.923,-27.7919 388.325,-33.9825 394.062,-37.9932"/>
</g>
<!-- &#45;13&#45;&gt;3 -->
<g id="edge64" class="edge"><title>&#45;13&#45;&gt;3</title>
<path fill="none" stroke="red" stroke-width="0.335964" d="M368.967,-74.8531C372.82,-71.9274 377.216,-68.6328 381.271,-65.6985 398.347,-53.3423 418.043,-39.7499 432.514,-29.8838"/>
<polygon fill="red" stroke="red" stroke-width="0.335964" points="434.885,-32.5043 441.189,-23.9889 430.951,-26.7146 434.885,-32.5043"/>
</g>
<!-- &#45;13&#45;&gt;4 -->
<g id="edge65" class="edge"><title>&#45;13&#45;&gt;4</title>
<path fill="none" stroke="green" stroke-width="0.296263" d="M367.696,-74.9831C371.701,-71.8057 376.535,-68.3044 381.271,-65.6985 421.195,-43.7319 436.064,-49.1519 477.271,-29.6985 478.109,-29.3031 478.956,-28.889 479.807,-28.461"/>
<polygon fill="green" stroke="green" stroke-width="0.296263" points="481.665,-31.4341 488.775,-23.5792 478.319,-25.2859 481.665,-31.4341"/>
</g>
<!-- &#45;14 -->
<g id="node14" class="node"><title>&#45;14</title>
<polygon fill="lightgray" stroke="black" points="419.771,-93.0833 390.771,-93.0833 390.771,-75.0833 419.771,-75.0833 419.771,-93.0833"/>
<text text-anchor="middle" x="405.271" y="-81.8833" font-family="Times New Roman,serif" font-size="9.00">&#45;14</text>
</g>
<!-- &#45;14&#45;&gt;0 -->
<g id="edge66" class="edge"><title>&#45;14&#45;&gt;0</title>
<path fill="none" stroke="green" stroke-width="0.301802" d="M399.386,-74.8391C392.47,-65.1523 380.757,-48.7457 371.436,-35.6906"/>
<polygon fill="green" stroke="green" stroke-width="0.301802" points="374.114,-33.4168 365.455,-27.3117 368.416,-37.4841 374.114,-33.4168"/>
</g>
<!-- &#45;14&#45;&gt;1 -->
<g id="edge67" class="edge"><title>&#45;14&#45;&gt;1</title>
<path fill="none" stroke="green" stroke-width="0.161582" d="M414.691,-74.975C418.696,-71.7964 423.531,-68.2964 428.271,-65.6985 468.597,-43.5996 483.655,-49.2591 525.271,-29.6985 526.109,-29.3046 526.957,-28.8916 527.808,-28.4646"/>
<polygon fill="green" stroke="green" stroke-width="0.161582" points="529.665,-31.4389 536.779,-23.5875 526.322,-25.2889 529.665,-31.4389"/>
</g>
<!-- &#45;14&#45;&gt;2 -->
<g id="edge68" class="edge"><title>&#45;14&#45;&gt;2</title>
<path fill="none" stroke="green" stroke-width="0.111605" d="M405.271,-74.8391C405.271,-66.1604 405.271,-52.0878 405.271,-39.8642"/>
<polygon fill="green" stroke="green" stroke-width="0.111605" points="408.771,-39.7801 405.271,-29.7802 401.771,-39.7802 408.771,-39.7801"/>
</g>
<!-- &#45;14&#45;&gt;3 -->
<g id="edge69" class="edge"><title>&#45;14&#45;&gt;3</title>
<path fill="none" stroke="green" stroke-width="0.67139" d="M411.157,-74.8391C418.073,-65.1523 429.786,-48.7457 439.106,-35.6906"/>
<polygon fill="green" stroke="green" stroke-width="0.67139" points="442.126,-37.4841 445.088,-27.3117 436.429,-33.4168 442.126,-37.4841"/>
</g>
<!-- &#45;14&#45;&gt;4 -->
<g id="edge70" class="edge"><title>&#45;14&#45;&gt;4</title>
<path fill="none" stroke="green" stroke-width="0.106064" d="M415.957,-74.8385C419.808,-71.9115 424.207,-68.6198 428.271,-65.6985 445.815,-53.0891 466.14,-39.2728 480.881,-29.3904"/>
<polygon fill="green" stroke="green" stroke-width="0.106064" points="482.892,-32.2563 489.264,-23.7915 479.004,-26.4354 482.892,-32.2563"/>
</g>
<!-- &#45;15 -->
<g id="node15" class="node"><title>&#45;15</title>
<polygon fill="lightgray" stroke="black" points="184.771,-93.0833 155.771,-93.0833 155.771,-75.0833 184.771,-75.0833 184.771,-93.0833"/>
<text text-anchor="middle" x="170.271" y="-81.8833" font-family="Times New Roman,serif" font-size="9.00">&#45;15</text>
</g>
<!-- &#45;15&#45;&gt;0 -->
<g id="edge71" class="edge"><title>&#45;15&#45;&gt;0</title>
<path fill="none" stroke="red" stroke-width="0.349396" d="M179.615,-74.8306C183.608,-71.6298 188.454,-68.1523 193.271,-65.6985 239.726,-42.033 299.406,-27.4122 332.453,-20.5401"/>
<polygon fill="red" stroke="red" stroke-width="0.349396" points="333.467,-23.9063 342.581,-18.5047 332.088,-17.0435 333.467,-23.9063"/>
</g>
<!-- &#45;15&#45;&gt;1 -->
<g id="edge72" class="edge"><title>&#45;15&#45;&gt;1</title>
<path fill="none" stroke="red" stroke-width="0.210476" d="M178.97,-74.7316C183.006,-71.3515 188.06,-67.7655 193.271,-65.6985 331.234,-10.9736 384.185,-75.7794 525.271,-29.6985 526.152,-29.411 527.035,-29.0884 527.917,-28.7376"/>
<polygon fill="red" stroke="red" stroke-width="0.210476" points="529.627,-31.7964 537.029,-24.216 526.515,-25.526 529.627,-31.7964"/>
</g>
<!-- &#45;15&#45;&gt;2 -->
<g id="edge73" class="edge"><title>&#45;15&#45;&gt;2</title>
<path fill="none" stroke="green" stroke-width="0.931984" d="M179.054,-74.9307C183.106,-71.5874 188.148,-67.9753 193.271,-65.6985 271.013,-31.1471 301.54,-59.3719 381.271,-29.6985 382.139,-29.3755 383.012,-29.0227 383.885,-28.6466"/>
<polygon fill="green" stroke="green" stroke-width="0.931984" points="385.647,-31.6767 392.955,-24.0064 382.459,-25.4448 385.647,-31.6767"/>
</g>
<!-- &#45;15&#45;&gt;3 -->
<g id="edge74" class="edge"><title>&#45;15&#45;&gt;3</title>
<path fill="none" stroke="red" stroke-width="0.199244" d="M179.014,-74.8384C183.058,-71.478 188.106,-67.878 193.271,-65.6985 291.026,-24.448 329.15,-64.8195 429.271,-29.6985 430.145,-29.392 431.023,-29.0532 431.9,-28.6888"/>
<polygon fill="red" stroke="red" stroke-width="0.199244" points="433.638,-31.7322 440.99,-24.1037 430.486,-25.4822 433.638,-31.7322"/>
</g>
<!-- &#45;15&#45;&gt;4 -->
<g id="edge75" class="edge"><title>&#45;15&#45;&gt;4</title>
<path fill="none" stroke="red" stroke-width="0.429336" d="M178.988,-74.7762C183.028,-71.4043 188.079,-67.8125 193.271,-65.6985 311.11,-17.719 356.689,-70.2925 477.271,-29.6985 478.149,-29.403 479.03,-29.0737 479.91,-28.7173"/>
<polygon fill="red" stroke="red" stroke-width="0.429336" points="481.632,-31.7696 489.013,-24.1691 478.503,-25.5076 481.632,-31.7696"/>
</g>
<!-- &#45;16 -->
<g id="node16" class="node"><title>&#45;16</title>
<polygon fill="lightgray" stroke="black" points="466.771,-93.0833 437.771,-93.0833 437.771,-75.0833 466.771,-75.0833 466.771,-93.0833"/>
<text text-anchor="middle" x="452.271" y="-81.8833" font-family="Times New Roman,serif" font-size="9.00">&#45;16</text>
</g>
<!-- &#45;16&#45;&gt;0 -->
<g id="edge76" class="edge"><title>&#45;16&#45;&gt;0</title>
<path fill="none" stroke="red" stroke-width="0.26581" d="M441.063,-74.9121C437.038,-71.992 432.46,-68.6858 428.271,-65.6985 411.372,-53.6466 392.092,-40.1243 377.892,-30.2072"/>
<polygon fill="red" stroke="red" stroke-width="0.26581" points="379.574,-27.1132 369.37,-24.2627 375.569,-32.8544 379.574,-27.1132"/>
</g>
<!-- &#45;16&#45;&gt;1 -->
<g id="edge77" class="edge"><title>&#45;16&#45;&gt;1</title>
<path fill="none" stroke="red" stroke-width="0.368684" d="M462.946,-74.8242C466.797,-71.8958 471.198,-68.6069 475.271,-65.6985 493.02,-53.0271 513.626,-39.217 528.58,-29.3527"/>
<polygon fill="red" stroke="red" stroke-width="0.368684" points="530.648,-32.1819 537.085,-23.7661 526.805,-26.3313 530.648,-32.1819"/>
</g>
<!-- &#45;16&#45;&gt;2 -->
<g id="edge78" class="edge"><title>&#45;16&#45;&gt;2</title>
<path fill="none" stroke="green" stroke-width="0.122202" d="M446.508,-74.8391C439.816,-65.2662 428.537,-49.1308 419.464,-36.1528"/>
<polygon fill="green" stroke="green" stroke-width="0.122202" points="422.218,-33.9825 413.62,-27.7919 416.481,-37.9932 422.218,-33.9825"/>
</g>
<!-- &#45;16&#45;&gt;3 -->
<g id="edge79" class="edge"><title>&#45;16&#45;&gt;3</title>
<path fill="none" stroke="red" stroke-width="0.436094" d="M452.394,-74.8391C452.523,-66.1604 452.732,-52.0878 452.914,-39.8642"/>
<polygon fill="red" stroke="red" stroke-width="0.436094" points="456.415,-39.8312 453.064,-29.7802 449.416,-39.727 456.415,-39.8312"/>
</g>
<!-- &#45;16&#45;&gt;4 -->
<g id="edge80" class="edge"><title>&#45;16&#45;&gt;4</title>
<path fill="none" stroke="green" stroke-width="0.343786" d="M458.28,-74.8391C465.339,-65.1523 477.296,-48.7457 486.811,-35.6906"/>
<polygon fill="green" stroke="green" stroke-width="0.343786" points="489.856,-37.4547 492.917,-27.3117 484.199,-33.3318 489.856,-37.4547"/>
</g>
<!-- &#45;17 -->
<g id="node17" class="node"><title>&#45;17</title>
<polygon fill="lightgray" stroke="black" points="513.771,-93.0833 484.771,-93.0833 484.771,-75.0833 513.771,-75.0833 513.771,-93.0833"/>
<text text-anchor="middle" x="499.271" y="-81.8833" font-family="Times New Roman,serif" font-size="9.00">&#45;17</text>
</g>
<!-- &#45;17&#45;&gt;0 -->
<g id="edge81" class="edge"><title>&#45;17&#45;&gt;0</title>
<path fill="none" stroke="green" stroke-width="0.413675" d="M489.381,-75.0233C485.192,-71.852 480.157,-68.3445 475.271,-65.6985 435.932,-44.3951 421.66,-48.9381 381.271,-29.6985 380.435,-29.3002 379.589,-28.8836 378.739,-28.4535"/>
<polygon fill="green" stroke="green" stroke-width="0.413675" points="380.23,-25.2797 369.775,-23.5619 376.877,-31.4244 380.23,-25.2797"/>
</g>
<!-- &#45;17&#45;&gt;1 -->
<g id="edge82" class="edge"><title>&#45;17&#45;&gt;1</title>
<path fill="none" stroke="green" stroke-width="0.534025" d="M505.402,-74.8391C512.606,-65.1523 524.807,-48.7457 534.516,-35.6906"/>
<polygon fill="green" stroke="green" stroke-width="0.534025" points="537.588,-37.4247 540.747,-27.3117 531.971,-33.2474 537.588,-37.4247"/>
</g>
<!-- &#45;17&#45;&gt;2 -->
<g id="edge83" class="edge"><title>&#45;17&#45;&gt;2</title>
<path fill="none" stroke="green" stroke-width="0.53224" d="M488.052,-74.9277C484.026,-72.0091 479.45,-68.6998 475.271,-65.6985 458.571,-53.7042 439.566,-40.1774 425.576,-30.244"/>
<polygon fill="green" stroke="green" stroke-width="0.53224" points="427.363,-27.2203 417.182,-24.2875 423.312,-32.9291 427.363,-27.2203"/>
</g>
<!-- &#45;17&#45;&gt;3 -->
<g id="edge84" class="edge"><title>&#45;17&#45;&gt;3</title>
<path fill="none" stroke="red" stroke-width="0.274893" d="M493.631,-74.8391C487.081,-65.2662 476.042,-49.1308 467.162,-36.1528"/>
<polygon fill="red" stroke="red" stroke-width="0.274893" points="469.977,-34.0687 461.442,-27.7919 464.2,-38.0214 469.977,-34.0687"/>
</g>
<!-- &#45;17&#45;&gt;4 -->
<g id="edge85" class="edge"><title>&#45;17&#45;&gt;4</title>
<path fill="none" stroke="green" stroke-width="0.132821" d="M499.516,-74.8391C499.775,-66.1604 500.193,-52.0878 500.557,-39.8642"/>
<polygon fill="green" stroke="green" stroke-width="0.132821" points="504.058,-39.8799 500.857,-29.7802 497.061,-39.6717 504.058,-39.8799"/>
</g>
<!-- &#45;18 -->
<g id="node18" class="node"><title>&#45;18</title>
<polygon fill="lightgray" stroke="black" points="603.771,-93.0833 574.771,-93.0833 574.771,-75.0833 603.771,-75.0833 603.771,-93.0833"/>
<text text-anchor="middle" x="589.271" y="-81.8833" font-family="Times New Roman,serif" font-size="9.00">&#45;18</text>
</g>
<!-- &#45;18&#45;&gt;0 -->
<g id="edge86" class="edge"><title>&#45;18&#45;&gt;0</title>
<path fill="none" stroke="red" stroke-width="0.104459" d="M580.049,-74.9501C575.81,-71.6104 570.556,-67.9957 565.271,-65.6985 488.851,-32.4791 459.308,-58.9197 381.271,-29.6985 380.404,-29.3737 379.531,-29.0195 378.659,-28.6421"/>
<polygon fill="red" stroke="red" stroke-width="0.104459" points="380.087,-25.4409 369.591,-23.9961 376.895,-31.6709 380.087,-25.4409"/>
</g>
<!-- &#45;18&#45;&gt;1 -->
<g id="edge87" class="edge"><title>&#45;18&#45;&gt;1</title>
<path fill="none" stroke="red" stroke-width="0.119093" d="M584.366,-74.8391C578.793,-65.4711 569.481,-49.8186 561.849,-36.9904"/>
<polygon fill="red" stroke="red" stroke-width="0.119093" points="564.787,-35.0835 556.666,-28.279 558.771,-38.6626 564.787,-35.0835"/>
</g>
<!-- &#45;18&#45;&gt;2 -->
<g id="edge88" class="edge"><title>&#45;18&#45;&gt;2</title>
<path fill="none" stroke="green" stroke-width="0.103497" d="M579.516,-74.7575C575.348,-71.5456 570.292,-68.0795 565.271,-65.6985 508.776,-38.906 487.077,-53.5323 429.271,-29.6985 428.415,-29.3455 427.552,-28.9673 426.688,-28.5696"/>
<polygon fill="green" stroke="green" stroke-width="0.103497" points="428.138,-25.3778 417.657,-23.8293 424.884,-31.5759 428.138,-25.3778"/>
</g>
<!-- &#45;18&#45;&gt;3 -->
<g id="edge89" class="edge"><title>&#45;18&#45;&gt;3</title>
<path fill="none" stroke="red" stroke-width="0.330507" d="M579.351,-75.0784C575.157,-71.9156 570.127,-68.3994 565.271,-65.6985 528.342,-45.1578 515.214,-48.3011 477.271,-29.6985 476.44,-29.2908 475.598,-28.8662 474.751,-28.4293"/>
<polygon fill="red" stroke="red" stroke-width="0.330507" points="476.251,-25.2598 465.802,-23.5063 472.877,-31.393 476.251,-25.2598"/>
</g>
<!-- &#45;18&#45;&gt;4 -->
<g id="edge90" class="edge"><title>&#45;18&#45;&gt;4</title>
<path fill="none" stroke="green" stroke-width="0.352123" d="M578.481,-74.8391C564.124,-63.8702 538.49,-44.2851 520.717,-30.7065"/>
<polygon fill="green" stroke="green" stroke-width="0.352123" points="522.779,-27.8771 512.708,-24.5872 518.529,-33.4395 522.779,-27.8771"/>
</g>
<!-- &#45;19 -->
<g id="node19" class="node"><title>&#45;19</title>
<polygon fill="lightgray" stroke="black" points="650.771,-93.0833 621.771,-93.0833 621.771,-75.0833 650.771,-75.0833 650.771,-93.0833"/>
<text text-anchor="middle" x="636.271" y="-81.8833" font-family="Times New Roman,serif" font-size="9.00">&#45;19</text>
</g>
<!-- &#45;19&#45;&gt;0 -->
<g id="edge91" class="edge"><title>&#45;19&#45;&gt;0</title>
<path fill="none" stroke="red" stroke-width="0.32976" d="M627.526,-74.8447C623.481,-71.4855 618.433,-67.8846 613.271,-65.6985 517.187,-25.0076 479.69,-64.3644 381.271,-29.6985 380.398,-29.3908 379.52,-29.0511 378.643,-28.686"/>
<polygon fill="red" stroke="red" stroke-width="0.32976" points="380.059,-25.4797 369.554,-24.097 376.904,-31.7284 380.059,-25.4797"/>
</g>
<!-- &#45;19&#45;&gt;1 -->
<g id="edge92" class="edge"><title>&#45;19&#45;&gt;1</title>
<path fill="none" stroke="red" stroke-width="0.353339" stroke-dasharray="1,5" d="M625.603,-74.8391C611.41,-63.8702 586.067,-44.2851 568.496,-30.7065"/>
<polygon fill="red" stroke="red" stroke-width="0.353339" points="570.631,-27.9327 560.578,-24.5872 566.35,-33.4715 570.631,-27.9327"/>
</g>
<!-- &#45;19&#45;&gt;2 -->
<g id="edge93" class="edge"><title>&#45;19&#45;&gt;2</title>
<path fill="none" stroke="green" stroke-width="0.18149" d="M627.485,-74.9405C623.432,-71.599 618.39,-67.9856 613.271,-65.6985 537.193,-31.7033 507.308,-58.9197 429.271,-29.6985 428.404,-29.3737 427.531,-29.0195 426.659,-28.6421"/>
<polygon fill="green" stroke="green" stroke-width="0.18149" points="428.087,-25.4409 417.591,-23.9961 424.895,-31.6709 428.087,-25.4409"/>
</g>
<!-- &#45;19&#45;&gt;3 -->
<g id="edge94" class="edge"><title>&#45;19&#45;&gt;3</title>
<path fill="none" stroke="green" stroke-width="0.38737" d="M626.971,-74.7425C622.985,-71.5283 618.132,-68.0645 613.271,-65.6985 557.052,-38.3326 535.077,-53.5323 477.271,-29.6985 476.415,-29.3455 475.552,-28.9673 474.688,-28.5696"/>
<polygon fill="green" stroke="green" stroke-width="0.38737" points="476.138,-25.3778 465.657,-23.8293 472.884,-31.5759 476.138,-25.3778"/>
</g>
<!-- &#45;19&#45;&gt;4 -->
<g id="edge95" class="edge"><title>&#45;19&#45;&gt;4</title>
<path fill="none" stroke="green" stroke-width="0.112064" d="M626.808,-75.053C622.796,-71.8863 617.968,-68.3741 613.271,-65.6985 576.553,-44.7831 563.214,-48.3011 525.271,-29.6985 524.44,-29.2908 523.598,-28.8662 522.751,-28.4293"/>
<polygon fill="green" stroke="green" stroke-width="0.112064" points="524.251,-25.2598 513.802,-23.5063 520.877,-31.393 524.251,-25.2598"/>
</g>
<!-- &#45;20 -->
<g id="node20" class="node"><title>&#45;20</title>
<polygon fill="lightgray" stroke="black" points="697.771,-93.0833 668.771,-93.0833 668.771,-75.0833 697.771,-75.0833 697.771,-93.0833"/>
<text text-anchor="middle" x="683.271" y="-81.8833" font-family="Times New Roman,serif" font-size="9.00">&#45;20</text>
</g>
<!-- &#45;20&#45;&gt;0 -->
<g id="edge96" class="edge"><title>&#45;20&#45;&gt;0</title>
<path fill="none" stroke="green" stroke-width="0.214701" d="M674.552,-74.7817C670.512,-71.4109 665.461,-67.8183 660.271,-65.6985 544.527,-18.4209 499.72,-69.7216 381.271,-29.6985 380.394,-29.402 379.513,-29.0719 378.634,-28.7147"/>
<polygon fill="green" stroke="green" stroke-width="0.214701" points="380.041,-25.5054 369.531,-24.1633 376.91,-31.7662 380.041,-25.5054"/>
</g>
<!-- &#45;20&#45;&gt;1 -->
<g id="edge97" class="edge"><title>&#45;20&#45;&gt;1</title>
<path fill="none" stroke="green" stroke-width="0.32597" d="M673.312,-74.7802C669.386,-71.7176 664.75,-68.351 660.271,-65.6985 631.426,-48.6159 595.688,-33.5564 572.688,-24.5762"/>
<polygon fill="green" stroke="green" stroke-width="0.32597" points="573.677,-21.207 563.087,-20.8925 571.17,-27.7425 573.677,-21.207"/>
</g>
<!-- &#45;20&#45;&gt;2 -->
<g id="edge98" class="edge"><title>&#45;20&#45;&gt;2</title>
<path fill="none" stroke="red" stroke-width="0.171707" d="M674.526,-74.8463C670.48,-71.4874 665.433,-67.8863 660.271,-65.6985 564.605,-25.1475 527.264,-64.2506 429.271,-29.6985 428.398,-29.3905 427.52,-29.0506 426.644,-28.6852"/>
<polygon fill="red" stroke="red" stroke-width="0.171707" points="428.059,-25.479 417.555,-24.0953 424.904,-31.7275 428.059,-25.479"/>
</g>
<!-- &#45;20&#45;&gt;3 -->
<g id="edge99" class="edge"><title>&#45;20&#45;&gt;3</title>
<path fill="none" stroke="green" stroke-width="0.401722" d="M674.483,-74.943C670.43,-71.602 665.388,-67.9882 660.271,-65.6985 584.608,-31.8423 554.885,-58.8068 477.271,-29.6985 476.404,-29.3733 475.532,-29.0187 474.66,-28.641"/>
<polygon fill="green" stroke="green" stroke-width="0.401722" points="476.088,-25.4399 465.592,-23.9935 472.895,-31.6694 476.088,-25.4399"/>
</g>
<!-- &#45;20&#45;&gt;4 -->
<g id="edge100" class="edge"><title>&#45;20&#45;&gt;4</title>
<path fill="none" stroke="red" stroke-width="0.435939" d="M673.969,-74.747C669.982,-71.5334 665.13,-68.0689 660.271,-65.6985 604.463,-38.4695 582.658,-53.4211 525.271,-29.6985 524.415,-29.3447 523.553,-28.9658 522.689,-28.5676"/>
<polygon fill="red" stroke="red" stroke-width="0.435939" points="524.139,-25.3761 513.659,-23.8246 520.884,-31.5733 524.139,-25.3761"/>
</g>
<!-- 25&#45;&gt;1 -->
<g id="edge102" class="edge"><title>25&#45;&gt;1</title>
<path fill="none" stroke="green" stroke-width="0.164302" d="M963.167,-73.3777C957.994,-70.467 952.049,-67.5575 946.271,-65.6985 810.905,-22.1445 638.174,-16.3708 574.393,-15.8055"/>
<polygon fill="green" stroke="green" stroke-width="0.164302" points="574.132,-12.3042 564.114,-15.753 574.096,-19.3041 574.132,-12.3042"/>
</g>
</g>
</svg>
