<?xml version="1.0" encoding="UTF-8" standalone="no"?>
<!DOCTYPE svg PUBLIC "-//W3C//DTD SVG 1.1//EN"
 "http://www.w3.org/Graphics/SVG/1.1/DTD/svg11.dtd">
<!-- Generated by graphviz version 2.38.0 (20140413.2041)
 -->
<!-- Title: %3 Pages: 1 -->
<svg width="887pt" height="92pt"
 viewBox="0.00 0.00 886.50 91.70" xmlns="http://www.w3.org/2000/svg" xmlns:xlink="http://www.w3.org/1999/xlink">
<g id="graph0" class="graph" transform="scale(1 1) rotate(0) translate(4 87.6985)">
<title>%3</title>
<polygon fill="white" stroke="none" points="-4,4 -4,-87.6985 882.5,-87.6985 882.5,4 -4,4"/>
<!-- &#45;1 -->
<g id="node1" class="node"><title>&#45;1</title>
<polygon fill="lightgray" stroke="black" points="537,-83.6985 513,-83.6985 513,-65.6985 537,-65.6985 537,-83.6985"/>
<text text-anchor="middle" x="525" y="-72.4985" font-family="Times New Roman,serif" font-size="9.00">&#45;1</text>
</g>
<!-- 0 -->
<g id="node21" class="node"><title>0</title>
<ellipse fill="lightblue" stroke="black" cx="519" cy="-14.8492" rx="14.7" ry="14.7"/>
<text text-anchor="middle" x="519" y="-12.6492" font-family="Times New Roman,serif" font-size="9.00">0</text>
</g>
<!-- &#45;1&#45;&gt;0 -->
<g id="edge1" class="edge"><title>&#45;1&#45;&gt;0</title>
<path fill="none" stroke="green" stroke-width="0.221914" d="M524.166,-65.6548C523.481,-59.0498 522.473,-49.3344 521.529,-40.2339"/>
<polygon fill="green" stroke="green" stroke-width="0.221914" points="524.987,-39.6419 520.474,-30.0563 518.024,-40.3641 524.987,-39.6419"/>
</g>
<!-- 1 -->
<g id="node22" class="node"><title>1</title>
<ellipse fill="lightblue" stroke="black" cx="375" cy="-14.8492" rx="14.7" ry="14.7"/>
<text text-anchor="middle" x="375" y="-12.6492" font-family="Times New Roman,serif" font-size="9.00">1</text>
</g>
<!-- &#45;1&#45;&gt;1 -->
<g id="edge2" class="edge"><title>&#45;1&#45;&gt;1</title>
<path fill="none" stroke="red" stroke-width="0.166682" d="M512.909,-69.2634C509.692,-68.094 506.217,-66.8402 503,-65.6985 456.903,-49.3401 443.495,-50.0138 399,-29.6985 398.158,-29.3139 397.306,-28.9088 396.452,-28.4885"/>
<polygon fill="red" stroke="red" stroke-width="0.166682" points="397.929,-25.3088 387.466,-23.6425 394.607,-31.4699 397.929,-25.3088"/>
</g>
<!-- 2 -->
<g id="node23" class="node"><title>2</title>
<ellipse fill="lightblue" stroke="black" cx="567" cy="-14.8492" rx="14.7" ry="14.7"/>
<text text-anchor="middle" x="567" y="-12.6492" font-family="Times New Roman,serif" font-size="9.00">2</text>
</g>
<!-- &#45;1&#45;&gt;2 -->
<g id="edge3" class="edge"><title>&#45;1&#45;&gt;2</title>
<path fill="none" stroke="green" stroke-width="0.297421" d="M530.84,-65.6548C536.475,-57.8934 545.228,-45.8369 552.711,-35.5302"/>
<polygon fill="green" stroke="green" stroke-width="0.297421" points="555.559,-37.5653 558.602,-27.4169 549.894,-33.4527 555.559,-37.5653"/>
</g>
<!-- 3 -->
<g id="node24" class="node"><title>3</title>
<ellipse fill="lightblue" stroke="black" cx="423" cy="-14.8492" rx="14.7" ry="14.7"/>
<text text-anchor="middle" x="423" y="-12.6492" font-family="Times New Roman,serif" font-size="9.00">3</text>
</g>
<!-- &#45;1&#45;&gt;3 -->
<g id="edge4" class="edge"><title>&#45;1&#45;&gt;3</title>
<path fill="none" stroke="red" stroke-width="0.201139" d="M512.82,-66.876C497.453,-58.2577 470.227,-42.951 447,-29.6985 446.196,-29.2396 445.377,-28.7714 444.55,-28.2978"/>
<polygon fill="red" stroke="red" stroke-width="0.201139" points="446.105,-25.1548 435.691,-23.2036 442.615,-31.223 446.105,-25.1548"/>
</g>
<!-- 4 -->
<g id="node25" class="node"><title>4</title>
<ellipse fill="lightblue" stroke="black" cx="471" cy="-14.8492" rx="14.7" ry="14.7"/>
<text text-anchor="middle" x="471" y="-12.6492" font-family="Times New Roman,serif" font-size="9.00">4</text>
</g>
<!-- &#45;1&#45;&gt;4 -->
<g id="edge5" class="edge"><title>&#45;1&#45;&gt;4</title>
<path fill="none" stroke="green" stroke-width="0.144121" d="M517.492,-65.6548C509.825,-57.4413 497.668,-44.4177 487.708,-33.7481"/>
<polygon fill="green" stroke="green" stroke-width="0.144121" points="490.013,-31.0883 480.631,-26.1665 484.896,-35.8649 490.013,-31.0883"/>
</g>
<!-- &#45;2 -->
<g id="node2" class="node"><title>&#45;2</title>
<polygon fill="lightgray" stroke="black" points="579,-83.6985 555,-83.6985 555,-65.6985 579,-65.6985 579,-83.6985"/>
<text text-anchor="middle" x="567" y="-72.4985" font-family="Times New Roman,serif" font-size="9.00">&#45;2</text>
</g>
<!-- &#45;2&#45;&gt;0 -->
<g id="edge6" class="edge"><title>&#45;2&#45;&gt;0</title>
<path fill="none" stroke="red" stroke-width="0.289122" d="M560.326,-65.6548C553.74,-57.7178 543.428,-45.2891 534.752,-34.8334"/>
<polygon fill="red" stroke="red" stroke-width="0.289122" points="537.327,-32.4555 528.248,-26.9946 531.94,-36.9253 537.327,-32.4555"/>
</g>
<!-- &#45;2&#45;&gt;1 -->
<g id="edge7" class="edge"><title>&#45;2&#45;&gt;1</title>
<path fill="none" stroke="green" stroke-width="0.104198" stroke-dasharray="1,5" d="M554.652,-68.7034C551.832,-67.644 548.831,-66.5806 546,-65.6985 481.782,-45.6873 461.421,-54.7588 399,-29.6985 398.141,-29.3535 397.275,-28.982 396.408,-28.5901"/>
<polygon fill="green" stroke="green" stroke-width="0.104198" points="397.852,-25.3955 387.366,-23.8764 394.616,-31.6027 397.852,-25.3955"/>
</g>
<!-- &#45;2&#45;&gt;2 -->
<g id="edge8" class="edge"><title>&#45;2&#45;&gt;2</title>
<path fill="none" stroke="green" stroke-width="0.170106" d="M567,-65.6548C567,-59.0498 567,-49.3344 567,-40.2339"/>
<polygon fill="green" stroke="green" stroke-width="0.170106" points="570.5,-40.0563 567,-30.0563 563.5,-40.0564 570.5,-40.0563"/>
</g>
<!-- &#45;2&#45;&gt;3 -->
<g id="edge9" class="edge"><title>&#45;2&#45;&gt;3</title>
<path fill="none" stroke="red" stroke-width="0.285191" d="M554.575,-68.9293C551.758,-67.8583 548.779,-66.7329 546,-65.6985 502.123,-49.3644 489.437,-49.474 447,-29.6985 446.161,-29.3073 445.312,-28.8967 444.46,-28.4717"/>
<polygon fill="red" stroke="red" stroke-width="0.285191" points="445.943,-25.2948 435.484,-23.6039 442.606,-31.4481 445.943,-25.2948"/>
</g>
<!-- &#45;2&#45;&gt;4 -->
<g id="edge10" class="edge"><title>&#45;2&#45;&gt;4</title>
<path fill="none" stroke="green" stroke-width="0.298096" d="M554.842,-66.3718C539.059,-56.8613 511.266,-40.1132 492.029,-28.5212"/>
<polygon fill="green" stroke="green" stroke-width="0.298096" points="493.735,-25.4627 483.363,-23.2991 490.122,-31.4583 493.735,-25.4627"/>
</g>
<!-- &#45;3 -->
<g id="node3" class="node"><title>&#45;3</title>
<polygon fill="lightgray" stroke="black" points="621,-83.6985 597,-83.6985 597,-65.6985 621,-65.6985 621,-83.6985"/>
<text text-anchor="middle" x="609" y="-72.4985" font-family="Times New Roman,serif" font-size="9.00">&#45;3</text>
</g>
<!-- &#45;3&#45;&gt;0 -->
<g id="edge11" class="edge"><title>&#45;3&#45;&gt;0</title>
<path fill="none" stroke="red" stroke-width="0.178443" d="M596.862,-65.8967C582.235,-56.4946 557.422,-40.5455 539.738,-29.1793"/>
<polygon fill="red" stroke="red" stroke-width="0.178443" points="541.538,-26.175 531.233,-23.7122 537.753,-32.0635 541.538,-26.175"/>
</g>
<!-- &#45;3&#45;&gt;1 -->
<g id="edge12" class="edge"><title>&#45;3&#45;&gt;1</title>
<path fill="none" stroke="red" stroke-width="0.3" d="M596.685,-68.5939C593.863,-67.5402 590.853,-66.5068 588,-65.6985 505.728,-42.3879 479.155,-59.485 399,-29.6985 398.132,-29.3759 397.259,-29.0235 396.386,-28.6477"/>
<polygon fill="red" stroke="red" stroke-width="0.3" points="397.812,-25.4458 387.315,-24.0089 394.625,-31.6781 397.812,-25.4458"/>
</g>
<!-- &#45;3&#45;&gt;2 -->
<g id="edge13" class="edge"><title>&#45;3&#45;&gt;2</title>
<path fill="none" stroke="red" stroke-width="0.264759" d="M603.16,-65.6548C597.525,-57.8934 588.772,-45.8369 581.289,-35.5302"/>
<polygon fill="red" stroke="red" stroke-width="0.264759" points="584.106,-33.4527 575.398,-27.4169 578.441,-37.5653 584.106,-33.4527"/>
</g>
<!-- &#45;3&#45;&gt;3 -->
<g id="edge14" class="edge"><title>&#45;3&#45;&gt;3</title>
<path fill="none" stroke="red" stroke-width="0.217044" stroke-dasharray="1,5" d="M596.646,-68.724C593.826,-67.6635 590.826,-66.5945 588,-65.6985 526.347,-46.1544 506.902,-54.089 447,-29.6985 446.142,-29.3493 445.278,-28.9742 444.413,-28.5793"/>
<polygon fill="red" stroke="red" stroke-width="0.217044" points="445.859,-25.3861 435.376,-23.8515 442.614,-31.5885 445.859,-25.3861"/>
</g>
<!-- &#45;3&#45;&gt;4 -->
<g id="edge15" class="edge"><title>&#45;3&#45;&gt;4</title>
<path fill="none" stroke="red" stroke-width="0.296658" d="M596.989,-69.1201C568.694,-58.3269 499.857,-32.0199 495,-29.6985 494.164,-29.2991 493.319,-28.8815 492.47,-28.4507"/>
<polygon fill="red" stroke="red" stroke-width="0.296658" points="493.961,-25.2774 483.507,-23.5555 490.606,-31.4207 493.961,-25.2774"/>
</g>
<!-- &#45;4 -->
<g id="node4" class="node"><title>&#45;4</title>
<polygon fill="lightgray" stroke="black" points="663,-83.6985 639,-83.6985 639,-65.6985 663,-65.6985 663,-83.6985"/>
<text text-anchor="middle" x="651" y="-72.4985" font-family="Times New Roman,serif" font-size="9.00">&#45;4</text>
</g>
<!-- &#45;4&#45;&gt;0 -->
<g id="edge16" class="edge"><title>&#45;4&#45;&gt;0</title>
<path fill="none" stroke="green" stroke-width="0.268381" d="M638.92,-69.0178C614.662,-59.5788 560.822,-38.4203 543,-29.6985 542.168,-29.2914 541.326,-28.8673 540.479,-28.4309"/>
<polygon fill="green" stroke="green" stroke-width="0.268381" points="541.978,-25.2611 531.529,-23.5099 538.606,-31.395 541.978,-25.2611"/>
</g>
<!-- &#45;4&#45;&gt;1 -->
<g id="edge17" class="edge"><title>&#45;4&#45;&gt;1</title>
<path fill="none" stroke="red" stroke-width="0.134621" d="M638.704,-68.5226C635.881,-67.4726 632.866,-66.4587 630,-65.6985 529.567,-39.0576 496.993,-64.2506 399,-29.6985 398.127,-29.3905 397.249,-29.0506 396.372,-28.6852"/>
<polygon fill="red" stroke="red" stroke-width="0.134621" points="397.788,-25.479 387.284,-24.0953 394.632,-31.7275 397.788,-25.479"/>
</g>
<!-- &#45;4&#45;&gt;2 -->
<g id="edge18" class="edge"><title>&#45;4&#45;&gt;2</title>
<path fill="none" stroke="green" stroke-width="0.105638" stroke-dasharray="1,5" d="M639.32,-65.6548C625.855,-56.3818 603.488,-40.978 587.188,-29.7523"/>
<polygon fill="green" stroke="green" stroke-width="0.105638" points="589.073,-26.8005 578.851,-24.0111 585.102,-32.5656 589.073,-26.8005"/>
</g>
<!-- &#45;4&#45;&gt;3 -->
<g id="edge19" class="edge"><title>&#45;4&#45;&gt;3</title>
<path fill="none" stroke="red" stroke-width="0.290368" d="M638.681,-68.6066C635.859,-67.5523 632.85,-66.5154 630,-65.6985 550.316,-42.8617 524.613,-58.8068 447,-29.6985 446.133,-29.3733 445.261,-29.0187 444.389,-28.641"/>
<polygon fill="red" stroke="red" stroke-width="0.290368" points="445.816,-25.4399 435.321,-23.9935 442.624,-31.6694 445.816,-25.4399"/>
</g>
<!-- &#45;4&#45;&gt;4 -->
<g id="edge20" class="edge"><title>&#45;4&#45;&gt;4</title>
<path fill="none" stroke="red" stroke-width="0.111344" d="M638.639,-68.7462C635.819,-67.6846 632.822,-66.6095 630,-65.6985 570.907,-46.6199 552.387,-53.4211 495,-29.6985 494.144,-29.3447 493.281,-28.9658 492.417,-28.5676"/>
<polygon fill="red" stroke="red" stroke-width="0.111344" points="493.868,-25.3761 483.387,-23.8246 490.613,-31.5733 493.868,-25.3761"/>
</g>
<!-- &#45;5 -->
<g id="node5" class="node"><title>&#45;5</title>
<polygon fill="lightgray" stroke="black" points="705,-83.6985 681,-83.6985 681,-65.6985 705,-65.6985 705,-83.6985"/>
<text text-anchor="middle" x="693" y="-72.4985" font-family="Times New Roman,serif" font-size="9.00">&#45;5</text>
</g>
<!-- &#45;5&#45;&gt;0 -->
<g id="edge21" class="edge"><title>&#45;5&#45;&gt;0</title>
<path fill="none" stroke="green" stroke-width="0.235093" d="M680.631,-68.7703C677.811,-67.7075 674.816,-66.6257 672,-65.6985 615.462,-47.0837 597.877,-52.7554 543,-29.6985 542.146,-29.3398 541.285,-28.9567 540.423,-28.555"/>
<polygon fill="green" stroke="green" stroke-width="0.235093" points="541.877,-25.3652 531.399,-23.7955 538.612,-31.5567 541.877,-25.3652"/>
</g>
<!-- &#45;5&#45;&gt;1 -->
<g id="edge22" class="edge"><title>&#45;5&#45;&gt;1</title>
<path fill="none" stroke="red" stroke-width="0.229469" d="M680.717,-68.4726C677.893,-67.4252 674.875,-66.425 672,-65.6985 553.347,-35.7114 514.889,-69.0368 399,-29.6985 398.123,-29.4008 397.242,-29.0696 396.363,-28.7116"/>
<polygon fill="red" stroke="red" stroke-width="0.229469" points="397.772,-25.5026 387.263,-24.156 394.638,-31.7621 397.772,-25.5026"/>
</g>
<!-- &#45;5&#45;&gt;2 -->
<g id="edge23" class="edge"><title>&#45;5&#45;&gt;2</title>
<path fill="none" stroke="green" stroke-width="0.15861" d="M680.919,-68.1517C659.945,-58.5224 616.485,-38.5687 589.722,-26.2816"/>
<polygon fill="green" stroke="green" stroke-width="0.15861" points="590.913,-22.9771 580.365,-21.9854 587.992,-29.3387 590.913,-22.9771"/>
</g>
<!-- &#45;5&#45;&gt;3 -->
<g id="edge24" class="edge"><title>&#45;5&#45;&gt;3</title>
<path fill="none" stroke="red" stroke-width="0.3" d="M680.702,-68.5312C677.879,-67.4808 674.864,-66.4645 672,-65.6985 574.166,-39.5346 542.44,-63.5683 447,-29.6985 446.127,-29.3888 445.25,-29.0473 444.374,-28.6807"/>
<polygon fill="red" stroke="red" stroke-width="0.3" points="445.791,-25.475 435.287,-24.0849 442.631,-31.7215 445.791,-25.475"/>
</g>
<!-- &#45;5&#45;&gt;4 -->
<g id="edge25" class="edge"><title>&#45;5&#45;&gt;4</title>
<path fill="none" stroke="red" stroke-width="0.223812" d="M680.677,-68.6202C677.855,-67.5651 674.848,-66.5245 672,-65.6985 594.901,-43.3348 570.074,-58.1294 495,-29.6985 494.134,-29.3705 493.262,-29.0136 492.391,-28.6338"/>
<polygon fill="red" stroke="red" stroke-width="0.223812" points="493.821,-25.4336 483.327,-23.9771 490.622,-31.66 493.821,-25.4336"/>
</g>
<!-- &#45;6 -->
<g id="node6" class="node"><title>&#45;6</title>
<polygon fill="lightgray" stroke="black" points="24,-83.6985 0,-83.6985 0,-65.6985 24,-65.6985 24,-83.6985"/>
<text text-anchor="middle" x="12" y="-72.4985" font-family="Times New Roman,serif" font-size="9.00">&#45;6</text>
</g>
<!-- &#45;6&#45;&gt;0 -->
<g id="edge26" class="edge"><title>&#45;6&#45;&gt;0</title>
<path fill="none" stroke="red" stroke-width="0.196379" d="M24.2556,-68.3585C27.0808,-67.3171 30.1069,-66.3481 33,-65.6985 233.952,-20.5776 298.278,-90.6747 495,-29.6985 496.057,-29.3709 497.118,-28.9904 498.173,-28.5691"/>
<polygon fill="red" stroke="red" stroke-width="0.196379" points="499.905,-31.6158 507.276,-24.0049 496.768,-25.3584 499.905,-31.6158"/>
</g>
<!-- &#45;6&#45;&gt;1 -->
<g id="edge27" class="edge"><title>&#45;6&#45;&gt;1</title>
<path fill="none" stroke="red" stroke-width="0.3" d="M24.2903,-68.5016C27.1137,-67.4528 30.1303,-66.4446 33,-65.6985 149.234,-35.4787 292.777,-22.0411 349.871,-17.6166"/>
<polygon fill="red" stroke="red" stroke-width="0.3" points="350.393,-21.0873 360.103,-16.8495 349.87,-14.1069 350.393,-21.0873"/>
</g>
<!-- &#45;6&#45;&gt;3 -->
<g id="edge28" class="edge"><title>&#45;6&#45;&gt;3</title>
<path fill="none" stroke="red" stroke-width="0.286483" d="M24.2656,-68.402C27.0903,-67.3583 30.1137,-66.3774 33,-65.6985 192.11,-28.2741 243.375,-79.6713 399,-29.6985 400.053,-29.3602 401.111,-28.9709 402.164,-28.5425"/>
<polygon fill="red" stroke="red" stroke-width="0.286483" points="403.909,-31.5827 411.259,-23.9522 400.755,-25.3335 403.909,-31.5827"/>
</g>
<!-- &#45;6&#45;&gt;4 -->
<g id="edge29" class="edge"><title>&#45;6&#45;&gt;4</title>
<path fill="none" stroke="red" stroke-width="0.23244" d="M24.26,-68.3778C27.085,-67.3353 30.1099,-66.3611 33,-65.6985 213.024,-24.4274 270.833,-85.1709 447,-29.6985 448.055,-29.3662 449.115,-28.9818 450.169,-28.5573"/>
<polygon fill="red" stroke="red" stroke-width="0.23244" points="451.907,-31.6012 459.268,-23.9816 448.762,-25.3474 451.907,-31.6012"/>
</g>
<!-- &#45;7 -->
<g id="node7" class="node"><title>&#45;7</title>
<polygon fill="lightgray" stroke="black" points="747,-83.6985 723,-83.6985 723,-65.6985 747,-65.6985 747,-83.6985"/>
<text text-anchor="middle" x="735" y="-72.4985" font-family="Times New Roman,serif" font-size="9.00">&#45;7</text>
</g>
<!-- &#45;7&#45;&gt;0 -->
<g id="edge30" class="edge"><title>&#45;7&#45;&gt;0</title>
<path fill="none" stroke="green" stroke-width="0.29468" d="M722.673,-68.6346C719.851,-67.5788 716.845,-66.5342 714,-65.6985 639.483,-43.8072 615.538,-57.4529 543,-29.6985 542.135,-29.3676 541.265,-29.0081 540.394,-28.6262"/>
<polygon fill="green" stroke="green" stroke-width="0.29468" points="541.826,-25.427 531.334,-23.9596 538.621,-31.65 541.826,-25.427"/>
</g>
<!-- &#45;7&#45;&gt;1 -->
<g id="edge31" class="edge"><title>&#45;7&#45;&gt;1</title>
<path fill="none" stroke="red" stroke-width="0.153474" stroke-dasharray="1,5" d="M722.726,-68.4357C719.902,-67.3902 716.881,-66.4001 714,-65.6985 577.09,-32.3561 532.821,-73.835 399,-29.6985 398.121,-29.4084 397.238,-29.0837 396.357,-28.7311"/>
<polygon fill="red" stroke="red" stroke-width="0.153474" points="397.76,-25.5201 387.248,-24.201 394.643,-31.7878 397.76,-25.5201"/>
</g>
<!-- &#45;7&#45;&gt;2 -->
<g id="edge32" class="edge"><title>&#45;7&#45;&gt;2</title>
<path fill="none" stroke="red" stroke-width="0.12943" d="M722.591,-68.8843C719.774,-67.8155 716.79,-66.7025 714,-65.6985 670.641,-50.0939 619.618,-33.0942 590.516,-23.5257"/>
<polygon fill="red" stroke="red" stroke-width="0.12943" points="591.433,-20.1432 580.841,-20.353 589.252,-26.7947 591.433,-20.1432"/>
</g>
<!-- &#45;7&#45;&gt;3 -->
<g id="edge33" class="edge"><title>&#45;7&#45;&gt;3</title>
<path fill="none" stroke="green" stroke-width="0.3" d="M722.716,-68.4788C719.892,-67.4311 716.874,-66.4292 714,-65.6985 597.952,-36.1901 560.33,-68.3521 447,-29.6985 446.124,-29.3995 445.243,-29.0673 444.364,-28.7083"/>
<polygon fill="green" stroke="green" stroke-width="0.3" points="445.774,-25.4996 435.265,-24.1485 442.637,-31.7578 445.774,-25.4996"/>
</g>
<!-- &#45;7&#45;&gt;4 -->
<g id="edge34" class="edge"><title>&#45;7&#45;&gt;4</title>
<path fill="none" stroke="green" stroke-width="0.274229" d="M722.7,-68.5403C719.877,-67.4894 716.863,-66.4706 714,-65.6985 618.764,-40.0112 587.889,-62.8864 495,-29.6985 494.128,-29.3869 493.251,-29.0439 492.376,-28.6759"/>
<polygon fill="green" stroke="green" stroke-width="0.274229" points="493.794,-25.4707 483.291,-24.0739 490.63,-31.7152 493.794,-25.4707"/>
</g>
<!-- &#45;8 -->
<g id="node8" class="node"><title>&#45;8</title>
<polygon fill="lightgray" stroke="black" points="789,-83.6985 765,-83.6985 765,-65.6985 789,-65.6985 789,-83.6985"/>
<text text-anchor="middle" x="777" y="-72.4985" font-family="Times New Roman,serif" font-size="9.00">&#45;8</text>
</g>
<!-- &#45;8&#45;&gt;0 -->
<g id="edge35" class="edge"><title>&#45;8&#45;&gt;0</title>
<path fill="none" stroke="green" stroke-width="0.117617" d="M764.697,-68.5499C761.874,-67.4985 758.861,-66.4771 756,-65.6985 663.36,-40.4874 633.339,-62.2049 543,-29.6985 542.129,-29.3849 541.253,-29.0403 540.378,-28.6709"/>
<polygon fill="green" stroke="green" stroke-width="0.117617" points="541.797,-25.4663 531.295,-24.0623 538.629,-31.7086 541.797,-25.4663"/>
</g>
<!-- &#45;8&#45;&gt;1 -->
<g id="edge36" class="edge"><title>&#45;8&#45;&gt;1</title>
<path fill="none" stroke="red" stroke-width="0.154354" d="M764.733,-68.4072C761.909,-67.3632 758.885,-66.3809 756,-65.6985 600.81,-28.9949 550.775,-78.6408 399,-29.6985 397.947,-29.3589 396.889,-28.9686 395.837,-28.5393"/>
<polygon fill="red" stroke="red" stroke-width="0.154354" points="397.247,-25.3305 386.743,-23.9458 394.091,-31.5787 397.247,-25.3305"/>
</g>
<!-- &#45;8&#45;&gt;2 -->
<g id="edge37" class="edge"><title>&#45;8&#45;&gt;2</title>
<path fill="none" stroke="red" stroke-width="0.297685" d="M764.64,-68.7405C761.821,-67.6792 758.823,-66.6056 756,-65.6985 697.736,-46.9751 627.766,-29.8928 591.498,-21.4314"/>
<polygon fill="red" stroke="red" stroke-width="0.297685" points="591.907,-17.9335 581.375,-19.0899 590.329,-24.7534 591.907,-17.9335"/>
</g>
<!-- &#45;8&#45;&gt;3 -->
<g id="edge38" class="edge"><title>&#45;8&#45;&gt;3</title>
<path fill="none" stroke="red" stroke-width="0.29664" d="M764.725,-68.4403C761.901,-67.3946 758.88,-66.4032 756,-65.6985 621.7,-32.8358 578.257,-73.149 447,-29.6985 446.121,-29.4075 445.238,-29.0819 444.358,-28.7286"/>
<polygon fill="red" stroke="red" stroke-width="0.29664" points="445.762,-25.5179 435.25,-24.1953 442.642,-31.7845 445.762,-25.5179"/>
</g>
<!-- &#45;8&#45;&gt;4 -->
<g id="edge39" class="edge"><title>&#45;8&#45;&gt;4</title>
<path fill="none" stroke="green" stroke-width="0.127366" d="M764.714,-68.4853C761.89,-67.4373 758.873,-66.4336 756,-65.6985 642.557,-36.6686 605.772,-67.6678 495,-29.6985 494.124,-29.3982 493.244,-29.0648 492.366,-28.7049"/>
<polygon fill="green" stroke="green" stroke-width="0.127366" points="493.776,-25.4966 483.268,-24.1406 490.637,-31.7533 493.776,-25.4966"/>
</g>
<!-- &#45;9 -->
<g id="node9" class="node"><title>&#45;9</title>
<polygon fill="lightgray" stroke="black" points="831,-83.6985 807,-83.6985 807,-65.6985 831,-65.6985 831,-83.6985"/>
<text text-anchor="middle" x="819" y="-72.4985" font-family="Times New Roman,serif" font-size="9.00">&#45;9</text>
</g>
<!-- &#45;9&#45;&gt;0 -->
<g id="edge40" class="edge"><title>&#45;9&#45;&gt;0</title>
<path fill="none" stroke="green" stroke-width="0.183161" d="M806.712,-68.4921C803.889,-67.4437 800.871,-66.4381 798,-65.6985 687.161,-37.1469 651.214,-66.9837 543,-29.6985 542.124,-29.3968 541.245,-29.0622 540.367,-28.7013"/>
<polygon fill="green" stroke="green" stroke-width="0.183161" points="541.778,-25.4934 531.271,-24.1324 538.636,-31.7486 541.778,-25.4934"/>
</g>
<!-- &#45;9&#45;&gt;1 -->
<g id="edge41" class="edge"><title>&#45;9&#45;&gt;1</title>
<path fill="none" stroke="green" stroke-width="0.2969" d="M806.738,-68.3847C803.914,-67.3419 800.889,-66.3657 798,-65.6985 624.513,-25.6299 568.746,-83.4518 399,-29.6985 397.945,-29.3645 396.886,-28.9787 395.832,-28.5531"/>
<polygon fill="green" stroke="green" stroke-width="0.2969" points="397.24,-25.3434 386.734,-23.9731 394.093,-31.5959 397.24,-25.3434"/>
</g>
<!-- &#45;9&#45;&gt;2 -->
<g id="edge42" class="edge"><title>&#45;9&#45;&gt;2</title>
<path fill="none" stroke="green" stroke-width="0.239316" d="M806.67,-68.6453C803.848,-67.5889 800.843,-66.5414 798,-65.6985 724.002,-43.7569 634.016,-27.1437 591.5,-19.8766"/>
<polygon fill="green" stroke="green" stroke-width="0.239316" points="591.961,-16.405 581.518,-18.1939 590.797,-23.3076 591.961,-16.405"/>
</g>
<!-- &#45;9&#45;&gt;3 -->
<g id="edge43" class="edge"><title>&#45;9&#45;&gt;3</title>
<path fill="none" stroke="red" stroke-width="0.3" d="M806.732,-68.4109C803.908,-67.3667 800.885,-66.3834 798,-65.6985 645.423,-29.4754 596.209,-77.9539 447,-29.6985 445.947,-29.358 444.89,-28.9669 443.837,-28.5371"/>
<polygon fill="red" stroke="red" stroke-width="0.3" points="445.248,-25.3285 434.744,-23.9414 442.091,-31.5759 445.248,-25.3285"/>
</g>
<!-- &#45;9&#45;&gt;4 -->
<g id="edge44" class="edge"><title>&#45;9&#45;&gt;4</title>
<path fill="none" stroke="red" stroke-width="0.2057" d="M806.724,-68.4452C803.9,-67.3992 800.879,-66.4065 798,-65.6985 666.309,-33.3154 623.695,-72.4631 495,-29.6985 494.121,-29.4065 493.239,-29.0801 492.358,-28.7261"/>
<polygon fill="red" stroke="red" stroke-width="0.2057" points="493.763,-25.5155 483.251,-24.1894 490.642,-31.7812 493.763,-25.5155"/>
</g>
<!-- &#45;10 -->
<g id="node10" class="node"><title>&#45;10</title>
<polygon fill="lightgray" stroke="black" points="878.5,-83.6985 849.5,-83.6985 849.5,-65.6985 878.5,-65.6985 878.5,-83.6985"/>
<text text-anchor="middle" x="864" y="-72.4985" font-family="Times New Roman,serif" font-size="9.00">&#45;10</text>
</g>
<!-- &#45;10&#45;&gt;0 -->
<g id="edge45" class="edge"><title>&#45;10&#45;&gt;0</title>
<path fill="none" stroke="red" stroke-width="0.147266" stroke-dasharray="1,5" d="M849.409,-68.3162C846.333,-67.3286 843.085,-66.3923 840,-65.6985 710.273,-36.5273 669.132,-71.7774 543,-29.6985 542.122,-29.4054 541.24,-29.0781 540.359,-28.7234"/>
<polygon fill="red" stroke="red" stroke-width="0.147266" points="541.765,-25.5132 531.254,-24.1832 538.641,-31.7777 541.765,-25.5132"/>
</g>
<!-- &#45;10&#45;&gt;1 -->
<g id="edge46" class="edge"><title>&#45;10&#45;&gt;1</title>
<path fill="none" stroke="green" stroke-width="0.3" stroke-dasharray="1,5" d="M849.429,-68.2223C846.352,-67.2415 843.098,-66.3317 840,-65.6985 647.331,-26.3212 586.728,-88.2664 399,-29.6985 397.944,-29.369 396.884,-28.9869 395.829,-28.5643"/>
<polygon fill="green" stroke="green" stroke-width="0.3" points="397.235,-25.3538 386.727,-23.9953 394.094,-31.6098 397.235,-25.3538"/>
</g>
<!-- &#45;10&#45;&gt;2 -->
<g id="edge47" class="edge"><title>&#45;10&#45;&gt;2</title>
<path fill="none" stroke="red" stroke-width="0.29569" d="M849.375,-68.4591C846.302,-67.4611 843.063,-66.4845 840,-65.6985 749.73,-42.5352 640.012,-25.9159 591.774,-19.1759"/>
<polygon fill="red" stroke="red" stroke-width="0.29569" points="592.043,-15.6799 581.659,-17.7822 591.087,-22.6144 592.043,-15.6799"/>
</g>
<!-- &#45;10&#45;&gt;3 -->
<g id="edge48" class="edge"><title>&#45;10&#45;&gt;3</title>
<path fill="none" stroke="green" stroke-width="0.297074" d="M849.424,-68.2461C846.348,-67.2636 843.095,-66.347 840,-65.6985 668.33,-29.7272 614.178,-82.7642 447,-29.6985 445.945,-29.3637 444.887,-28.9773 443.833,-28.5513"/>
<polygon fill="green" stroke="green" stroke-width="0.297074" points="445.241,-25.3417 434.735,-23.9696 442.092,-31.5936 445.241,-25.3417"/>
</g>
<!-- &#45;10&#45;&gt;4 -->
<g id="edge49" class="edge"><title>&#45;10&#45;&gt;4</title>
<path fill="none" stroke="red" stroke-width="0.196997" d="M849.418,-68.2763C846.342,-67.2916 843.091,-66.3665 840,-65.6985 689.314,-33.1298 641.644,-77.2671 495,-29.6985 493.948,-29.3571 492.89,-28.9652 491.838,-28.5348"/>
<polygon fill="red" stroke="red" stroke-width="0.196997" points="493.249,-25.3263 482.746,-23.9368 490.09,-31.573 493.249,-25.3263"/>
</g>
<!-- &#45;11 -->
<g id="node11" class="node"><title>&#45;11</title>
<polygon fill="lightgray" stroke="black" points="71.5,-83.6985 42.5,-83.6985 42.5,-65.6985 71.5,-65.6985 71.5,-83.6985"/>
<text text-anchor="middle" x="57" y="-72.4985" font-family="Times New Roman,serif" font-size="9.00">&#45;11</text>
</g>
<!-- &#45;11&#45;&gt;0 -->
<g id="edge50" class="edge"><title>&#45;11&#45;&gt;0</title>
<path fill="none" stroke="red" stroke-width="0.270179" d="M71.9412,-67.9031C74.5936,-67.0471 77.3541,-66.2642 80,-65.6985 261.045,-26.9901 318.405,-85.2855 495,-29.6985 496.055,-29.3663 497.115,-28.982 498.169,-28.5576"/>
<polygon fill="red" stroke="red" stroke-width="0.270179" points="499.907,-31.6015 507.269,-23.9821 496.762,-25.3476 499.907,-31.6015"/>
</g>
<!-- &#45;11&#45;&gt;1 -->
<g id="edge51" class="edge"><title>&#45;11&#45;&gt;1</title>
<path fill="none" stroke="green" stroke-width="0.272794" d="M71.9835,-68.0828C74.6311,-67.2068 77.3791,-66.3707 80,-65.6985 178.434,-40.4521 298.711,-24.6793 349.954,-18.6453"/>
<polygon fill="green" stroke="green" stroke-width="0.272794" points="350.551,-22.0997 360.083,-17.4745 349.747,-15.146 350.551,-22.0997"/>
</g>
<!-- &#45;11&#45;&gt;2 -->
<g id="edge52" class="edge"><title>&#45;11&#45;&gt;2</title>
<path fill="none" stroke="green" stroke-width="0.15229" stroke-dasharray="1,5" d="M71.937,-67.8832C74.5899,-67.0293 77.3516,-66.2524 80,-65.6985 282.028,-23.4466 345.849,-90.7894 543,-29.6985 544.057,-29.371 545.118,-28.9906 546.173,-28.5693"/>
<polygon fill="green" stroke="green" stroke-width="0.15229" points="547.905,-31.6161 555.276,-24.0053 544.768,-25.3586 547.905,-31.6161"/>
</g>
<!-- &#45;11&#45;&gt;3 -->
<g id="edge53" class="edge"><title>&#45;11&#45;&gt;3</title>
<path fill="none" stroke="green" stroke-width="0.161795" d="M71.9539,-67.9607C74.6049,-67.0983 77.3616,-66.2983 80,-65.6985 219.127,-34.0669 263.47,-74.2924 399,-29.6985 399.88,-29.409 400.763,-29.0848 401.644,-28.7327"/>
<polygon fill="green" stroke="green" stroke-width="0.161795" points="403.357,-31.7899 410.754,-24.2046 400.241,-25.5215 403.357,-31.7899"/>
</g>
<!-- &#45;11&#45;&gt;4 -->
<g id="edge54" class="edge"><title>&#45;11&#45;&gt;4</title>
<path fill="none" stroke="red" stroke-width="0.293393" d="M71.9467,-67.9282C74.5984,-67.0694 77.3573,-66.2791 80,-65.6985 240.076,-30.5307 290.947,-79.7859 447,-29.6985 448.054,-29.3603 449.111,-28.9712 450.164,-28.5429"/>
<polygon fill="red" stroke="red" stroke-width="0.293393" points="451.909,-31.5831 459.259,-23.9529 448.755,-25.3339 451.909,-31.5831"/>
</g>
<!-- &#45;12 -->
<g id="node12" class="node"><title>&#45;12</title>
<polygon fill="lightgray" stroke="black" points="118.5,-83.6985 89.5,-83.6985 89.5,-65.6985 118.5,-65.6985 118.5,-83.6985"/>
<text text-anchor="middle" x="104" y="-72.4985" font-family="Times New Roman,serif" font-size="9.00">&#45;12</text>
</g>
<!-- &#45;12&#45;&gt;0 -->
<g id="edge55" class="edge"><title>&#45;12&#45;&gt;0</title>
<path fill="none" stroke="red" stroke-width="0.160454" d="M118.947,-67.9276C121.598,-67.0688 124.357,-66.2787 127,-65.6985 287.513,-30.4569 338.519,-79.9004 495,-29.6985 496.054,-29.3605 497.112,-28.9714 498.165,-28.5432"/>
<polygon fill="red" stroke="red" stroke-width="0.160454" points="499.909,-31.5835 507.26,-23.9536 496.755,-25.3342 499.909,-31.5835"/>
</g>
<!-- &#45;12&#45;&gt;1 -->
<g id="edge56" class="edge"><title>&#45;12&#45;&gt;1</title>
<path fill="none" stroke="red" stroke-width="0.224538" d="M118.507,-68.3171C121.304,-67.3751 124.227,-66.4557 127,-65.6985 207.626,-43.6839 305.431,-26.8519 350.317,-19.6631"/>
<polygon fill="red" stroke="red" stroke-width="0.224538" points="350.971,-23.1033 360.302,-18.0841 349.878,-16.1893 350.971,-23.1033"/>
</g>
<!-- &#45;12&#45;&gt;2 -->
<g id="edge57" class="edge"><title>&#45;12&#45;&gt;2</title>
<path fill="none" stroke="red" stroke-width="0.3" d="M118.941,-67.9027C121.594,-67.0466 124.354,-66.2639 127,-65.6985 308.482,-26.9163 365.977,-85.4002 543,-29.6985 544.055,-29.3664 545.115,-28.9822 546.169,-28.5579"/>
<polygon fill="red" stroke="red" stroke-width="0.3" points="547.907,-31.6018 555.269,-23.9826 544.762,-25.3479 547.907,-31.6018"/>
</g>
<!-- &#45;12&#45;&gt;3 -->
<g id="edge58" class="edge"><title>&#45;12&#45;&gt;3</title>
<path fill="none" stroke="green" stroke-width="0.298382" d="M118.964,-68.0035C121.614,-67.1362 124.367,-66.3237 127,-65.6985 245.643,-37.5228 283.537,-68.9226 399,-29.6985 399.877,-29.4006 400.758,-29.0692 401.636,-28.7111"/>
<polygon fill="green" stroke="green" stroke-width="0.298382" points="403.362,-31.7614 410.737,-24.1548 400.228,-25.5021 403.362,-31.7614"/>
</g>
<!-- &#45;12&#45;&gt;4 -->
<g id="edge59" class="edge"><title>&#45;12&#45;&gt;4</title>
<path fill="none" stroke="green" stroke-width="0.299868" d="M118.954,-67.96C121.605,-67.0976 124.361,-66.2979 127,-65.6985 266.563,-33.9933 311.043,-74.4067 447,-29.6985 447.88,-29.4092 448.763,-29.0851 449.644,-28.7331"/>
<polygon fill="green" stroke="green" stroke-width="0.299868" points="451.357,-31.7904 458.754,-24.2055 448.241,-25.5219 451.357,-31.7904"/>
</g>
<!-- &#45;13 -->
<g id="node13" class="node"><title>&#45;13</title>
<polygon fill="lightgray" stroke="black" points="165.5,-83.6985 136.5,-83.6985 136.5,-65.6985 165.5,-65.6985 165.5,-83.6985"/>
<text text-anchor="middle" x="151" y="-72.4985" font-family="Times New Roman,serif" font-size="9.00">&#45;13</text>
</g>
<!-- &#45;13&#45;&gt;0 -->
<g id="edge60" class="edge"><title>&#45;13&#45;&gt;0</title>
<path fill="none" stroke="green" stroke-width="0.295096" d="M165.954,-67.9592C168.605,-67.0969 171.361,-66.2974 174,-65.6985 314,-33.9197 358.616,-74.5211 495,-29.6985 495.88,-29.4094 496.763,-29.0854 497.644,-28.7335"/>
<polygon fill="green" stroke="green" stroke-width="0.295096" points="499.356,-31.7909 506.754,-24.2064 496.241,-25.5222 499.356,-31.7909"/>
</g>
<!-- &#45;13&#45;&gt;1 -->
<g id="edge61" class="edge"><title>&#45;13&#45;&gt;1</title>
<path fill="none" stroke="red" stroke-width="0.233555" d="M165.535,-68.4172C168.33,-67.466 171.244,-66.5176 174,-65.6985 236.733,-47.0519 311.879,-29.7189 350.067,-21.2593"/>
<polygon fill="red" stroke="red" stroke-width="0.233555" points="351.233,-24.5866 360.248,-19.0207 349.73,-17.7499 351.233,-24.5866"/>
</g>
<!-- &#45;13&#45;&gt;2 -->
<g id="edge62" class="edge"><title>&#45;13&#45;&gt;2</title>
<path fill="none" stroke="green" stroke-width="0.253261" d="M165.946,-67.9271C168.598,-67.0683 171.357,-66.2784 174,-65.6985 334.95,-30.3832 386.092,-80.0149 543,-29.6985 544.054,-29.3606 545.112,-28.9717 546.165,-28.5436"/>
<polygon fill="green" stroke="green" stroke-width="0.253261" points="547.909,-31.584 555.26,-23.9543 544.755,-25.3345 547.909,-31.584"/>
</g>
<!-- &#45;13&#45;&gt;3 -->
<g id="edge63" class="edge"><title>&#45;13&#45;&gt;3</title>
<path fill="none" stroke="green" stroke-width="0.260774" d="M165.979,-68.0635C168.627,-67.1896 171.376,-66.3592 174,-65.6985 272.206,-40.9677 303.56,-63.5683 399,-29.6985 399.873,-29.3888 400.75,-29.0473 401.626,-28.6807"/>
<polygon fill="green" stroke="green" stroke-width="0.260774" points="403.369,-31.7215 410.713,-24.0849 400.209,-25.475 403.369,-31.7215"/>
</g>
<!-- &#45;13&#45;&gt;4 -->
<g id="edge64" class="edge"><title>&#45;13&#45;&gt;4</title>
<path fill="none" stroke="green" stroke-width="0.128505" d="M165.964,-68.0024C168.614,-67.1353 171.367,-66.323 174,-65.6985 293.079,-37.4494 331.111,-69.0368 447,-29.6985 447.877,-29.4008 448.758,-29.0696 449.637,-28.7116"/>
<polygon fill="green" stroke="green" stroke-width="0.128505" points="451.362,-31.7621 458.737,-24.156 448.228,-25.5026 451.362,-31.7621"/>
</g>
<!-- &#45;14 -->
<g id="node14" class="node"><title>&#45;14</title>
<polygon fill="lightgray" stroke="black" points="212.5,-83.6985 183.5,-83.6985 183.5,-65.6985 212.5,-65.6985 212.5,-83.6985"/>
<text text-anchor="middle" x="198" y="-72.4985" font-family="Times New Roman,serif" font-size="9.00">&#45;14</text>
</g>
<!-- &#45;14&#45;&gt;0 -->
<g id="edge65" class="edge"><title>&#45;14&#45;&gt;0</title>
<path fill="none" stroke="red" stroke-width="0.146574" d="M212.963,-68.0014C215.613,-67.1344 218.367,-66.3224 221,-65.6985 340.514,-37.376 378.684,-69.1509 495,-29.6985 495.877,-29.401 496.758,-29.07 497.637,-28.7121"/>
<polygon fill="red" stroke="red" stroke-width="0.146574" points="499.362,-31.7628 506.738,-24.1573 496.229,-25.503 499.362,-31.7628"/>
</g>
<!-- &#45;14&#45;&gt;1 -->
<g id="edge66" class="edge"><title>&#45;14&#45;&gt;1</title>
<path fill="none" stroke="green" stroke-width="0.258272" d="M212.584,-68.5723C215.374,-67.6068 218.275,-66.6134 221,-65.6985 266.994,-50.2576 320.992,-32.9714 351.28,-23.3515"/>
<polygon fill="green" stroke="green" stroke-width="0.258272" points="352.478,-26.6433 360.952,-20.2841 350.362,-19.9708 352.478,-26.6433"/>
</g>
<!-- &#45;14&#45;&gt;2 -->
<g id="edge67" class="edge"><title>&#45;14&#45;&gt;2</title>
<path fill="none" stroke="green" stroke-width="0.117369" d="M212.953,-67.9584C215.604,-67.0962 218.361,-66.297 221,-65.6985 361.436,-33.846 406.188,-74.6355 543,-29.6985 543.88,-29.4095 544.763,-29.0857 545.644,-28.7339"/>
<polygon fill="green" stroke="green" stroke-width="0.117369" points="547.356,-31.7914 554.754,-24.2073 544.242,-25.5226 547.356,-31.7914"/>
</g>
<!-- &#45;14&#45;&gt;3 -->
<g id="edge68" class="edge"><title>&#45;14&#45;&gt;3</title>
<path fill="none" stroke="red" stroke-width="0.200939" d="M212.507,-68.3198C215.305,-67.3776 218.227,-66.4574 221,-65.6985 298.85,-44.3919 323.503,-58.2422 399,-29.6985 399.866,-29.371 400.738,-29.0144 401.609,-28.6351"/>
<polygon fill="red" stroke="red" stroke-width="0.200939" points="403.377,-31.6616 410.674,-23.9799 400.18,-25.4347 403.377,-31.6616"/>
</g>
<!-- &#45;14&#45;&gt;4 -->
<g id="edge69" class="edge"><title>&#45;14&#45;&gt;4</title>
<path fill="none" stroke="red" stroke-width="0.29833" d="M212.978,-68.062C215.626,-67.1882 218.376,-66.3583 221,-65.6985 319.64,-40.8946 351.134,-63.6819 447,-29.6985 447.873,-29.3891 448.75,-29.0479 449.626,-28.6815"/>
<polygon fill="red" stroke="red" stroke-width="0.29833" points="451.369,-31.7225 458.713,-24.0867 448.21,-25.4757 451.369,-31.7225"/>
</g>
<!-- &#45;15 -->
<g id="node15" class="node"><title>&#45;15</title>
<polygon fill="lightgray" stroke="black" points="259.5,-83.6985 230.5,-83.6985 230.5,-65.6985 259.5,-65.6985 259.5,-83.6985"/>
<text text-anchor="middle" x="245" y="-72.4985" font-family="Times New Roman,serif" font-size="9.00">&#45;15</text>
</g>
<!-- &#45;15&#45;&gt;0 -->
<g id="edge70" class="edge"><title>&#45;15&#45;&gt;0</title>
<path fill="none" stroke="green" stroke-width="0.3" d="M259.978,-68.0604C262.626,-67.1869 265.376,-66.3574 268,-65.6985 367.074,-40.8215 398.709,-63.7957 495,-29.6985 495.873,-29.3894 496.75,-29.0484 497.626,-28.6822"/>
<polygon fill="green" stroke="green" stroke-width="0.3" points="499.368,-31.7235 506.714,-24.0884 496.21,-25.4764 499.368,-31.7235"/>
</g>
<!-- &#45;15&#45;&gt;1 -->
<g id="edge71" class="edge"><title>&#45;15&#45;&gt;1</title>
<path fill="none" stroke="green" stroke-width="0.151788" d="M259.66,-67.1749C282.27,-57.1135 325.819,-37.7344 352.457,-25.8808"/>
<polygon fill="green" stroke="green" stroke-width="0.151788" points="354.046,-29.0047 361.759,-21.7414 351.2,-22.6093 354.046,-29.0047"/>
</g>
<!-- &#45;15&#45;&gt;2 -->
<g id="edge72" class="edge"><title>&#45;15&#45;&gt;2</title>
<path fill="none" stroke="red" stroke-width="0.293806" d="M259.963,-68.0003C262.613,-67.1334 265.367,-66.3218 268,-65.6985 387.95,-37.3025 426.258,-69.265 543,-29.6985 543.877,-29.4012 544.758,-29.0704 545.637,-28.7127"/>
<polygon fill="red" stroke="red" stroke-width="0.293806" points="547.362,-31.7635 554.738,-24.1585 544.229,-25.5035 547.362,-31.7635"/>
</g>
<!-- &#45;15&#45;&gt;3 -->
<g id="edge73" class="edge"><title>&#45;15&#45;&gt;3</title>
<path fill="none" stroke="green" stroke-width="0.148788" d="M259.552,-68.473C262.345,-67.5166 265.255,-66.5521 268,-65.6985 325.658,-47.7704 343.287,-52.977 399,-29.6985 399.854,-29.3415 400.716,-28.9598 401.579,-28.5593"/>
<polygon fill="green" stroke="green" stroke-width="0.148788" points="403.388,-31.5624 410.605,-23.8055 400.126,-25.3689 403.388,-31.5624"/>
</g>
<!-- &#45;15&#45;&gt;4 -->
<g id="edge74" class="edge"><title>&#45;15&#45;&gt;4</title>
<path fill="none" stroke="green" stroke-width="0.3" d="M259.507,-68.3174C262.304,-67.3754 265.227,-66.4559 268,-65.6985 346.282,-44.3194 371.08,-58.3551 447,-29.6985 447.866,-29.3715 448.738,-29.0153 449.61,-28.6363"/>
<polygon fill="green" stroke="green" stroke-width="0.3" points="451.377,-31.6632 458.675,-23.9826 448.18,-25.4358 451.377,-31.6632"/>
</g>
<!-- &#45;16 -->
<g id="node16" class="node"><title>&#45;16</title>
<polygon fill="lightgray" stroke="black" points="306.5,-83.6985 277.5,-83.6985 277.5,-65.6985 306.5,-65.6985 306.5,-83.6985"/>
<text text-anchor="middle" x="292" y="-72.4985" font-family="Times New Roman,serif" font-size="9.00">&#45;16</text>
</g>
<!-- &#45;16&#45;&gt;0 -->
<g id="edge75" class="edge"><title>&#45;16&#45;&gt;0</title>
<path fill="none" stroke="green" stroke-width="0.290949" d="M306.506,-68.315C309.303,-67.3732 312.226,-66.4544 315,-65.6985 393.714,-44.2469 418.657,-58.4679 495,-29.6985 495.867,-29.3719 496.738,-29.0162 497.61,-28.6375"/>
<polygon fill="green" stroke="green" stroke-width="0.290949" points="499.377,-31.6648 506.676,-23.9854 496.181,-25.4368 499.377,-31.6648"/>
</g>
<!-- &#45;16&#45;&gt;1 -->
<g id="edge76" class="edge"><title>&#45;16&#45;&gt;1</title>
<path fill="none" stroke="green" stroke-width="0.298047" d="M303.541,-65.6548C316.845,-56.3818 338.946,-40.978 355.052,-29.7523"/>
<polygon fill="green" stroke="green" stroke-width="0.298047" points="357.087,-32.6005 363.29,-24.0111 353.084,-26.8577 357.087,-32.6005"/>
</g>
<!-- &#45;16&#45;&gt;2 -->
<g id="edge77" class="edge"><title>&#45;16&#45;&gt;2</title>
<path fill="none" stroke="red" stroke-width="0.23822" d="M306.977,-68.0589C309.626,-67.1856 312.376,-66.3565 315,-65.6985 414.508,-40.7483 446.284,-63.9094 543,-29.6985 543.873,-29.3897 544.75,-29.049 545.627,-28.683"/>
<polygon fill="red" stroke="red" stroke-width="0.23822" points="547.368,-31.7245 554.714,-24.0902 544.211,-25.477 547.368,-31.7245"/>
</g>
<!-- &#45;16&#45;&gt;3 -->
<g id="edge78" class="edge"><title>&#45;16&#45;&gt;3</title>
<path fill="none" stroke="red" stroke-width="0.204593" d="M306.81,-68.325C327.717,-60.5795 366.913,-45.4667 399,-29.6985 399.831,-29.2901 400.673,-28.8648 401.519,-28.4274"/>
<polygon fill="red" stroke="red" stroke-width="0.204593" points="403.394,-31.3905 410.467,-23.5019 400.019,-25.2582 403.394,-31.3905"/>
</g>
<!-- &#45;16&#45;&gt;4 -->
<g id="edge79" class="edge"><title>&#45;16&#45;&gt;4</title>
<path fill="none" stroke="red" stroke-width="0.197231" d="M306.551,-68.4687C309.344,-67.5127 312.254,-66.5494 315,-65.6985 373.085,-47.6994 390.869,-53.088 447,-29.6985 447.855,-29.3423 448.717,-28.9614 449.58,-28.5614"/>
<polygon fill="red" stroke="red" stroke-width="0.197231" points="451.388,-31.5652 458.607,-23.8104 448.127,-25.3707 451.388,-31.5652"/>
</g>
<!-- &#45;17 -->
<g id="node17" class="node"><title>&#45;17</title>
<polygon fill="lightgray" stroke="black" points="353.5,-83.6985 324.5,-83.6985 324.5,-65.6985 353.5,-65.6985 353.5,-83.6985"/>
<text text-anchor="middle" x="339" y="-72.4985" font-family="Times New Roman,serif" font-size="9.00">&#45;17</text>
</g>
<!-- &#45;17&#45;&gt;0 -->
<g id="edge80" class="edge"><title>&#45;17&#45;&gt;0</title>
<path fill="none" stroke="green" stroke-width="0.158419" d="M353.55,-68.4645C356.343,-67.5089 359.253,-66.5468 362,-65.6985 420.511,-47.6283 438.45,-53.1989 495,-29.6985 495.855,-29.3431 496.717,-28.9629 497.581,-28.5635"/>
<polygon fill="green" stroke="green" stroke-width="0.158419" points="499.388,-31.5679 506.609,-23.8152 496.129,-25.3725 499.388,-31.5679"/>
</g>
<!-- &#45;17&#45;&gt;1 -->
<g id="edge81" class="edge"><title>&#45;17&#45;&gt;1</title>
<path fill="none" stroke="red" stroke-width="0.267747" d="M344.006,-65.6548C348.68,-58.1437 355.857,-46.6101 362.129,-36.5326"/>
<polygon fill="red" stroke="red" stroke-width="0.267747" points="365.223,-38.1839 367.535,-27.8444 359.28,-34.4854 365.223,-38.1839"/>
</g>
<!-- &#45;17&#45;&gt;2 -->
<g id="edge82" class="edge"><title>&#45;17&#45;&gt;2</title>
<path fill="none" stroke="red" stroke-width="0.221471" d="M353.505,-68.3126C356.303,-67.371 359.226,-66.4529 362,-65.6985 441.146,-44.1743 466.233,-58.5809 543,-29.6985 543.867,-29.3724 544.739,-29.017 545.611,-28.6386"/>
<polygon fill="red" stroke="red" stroke-width="0.221471" points="547.377,-31.6663 554.677,-23.9881 544.182,-25.4378 547.377,-31.6663"/>
</g>
<!-- &#45;17&#45;&gt;3 -->
<g id="edge83" class="edge"><title>&#45;17&#45;&gt;3</title>
<path fill="none" stroke="green" stroke-width="0.123702" d="M350.68,-65.6548C364.145,-56.3818 386.512,-40.978 402.812,-29.7523"/>
<polygon fill="green" stroke="green" stroke-width="0.123702" points="404.898,-32.5656 411.149,-24.0111 400.927,-26.8005 404.898,-32.5656"/>
</g>
<!-- &#45;17&#45;&gt;4 -->
<g id="edge84" class="edge"><title>&#45;17&#45;&gt;4</title>
<path fill="none" stroke="green" stroke-width="0.193023" d="M353.6,-68.4748C374.616,-60.7937 414.448,-45.6291 447,-29.6985 447.832,-29.2914 448.674,-28.8673 449.521,-28.4309"/>
<polygon fill="green" stroke="green" stroke-width="0.193023" points="451.394,-31.395 458.471,-23.5099 448.022,-25.2611 451.394,-31.395"/>
</g>
<!-- &#45;18 -->
<g id="node18" class="node"><title>&#45;18</title>
<polygon fill="lightgray" stroke="black" points="400.5,-83.6985 371.5,-83.6985 371.5,-65.6985 400.5,-65.6985 400.5,-83.6985"/>
<text text-anchor="middle" x="386" y="-72.4985" font-family="Times New Roman,serif" font-size="9.00">&#45;18</text>
</g>
<!-- &#45;18&#45;&gt;0 -->
<g id="edge85" class="edge"><title>&#45;18&#45;&gt;0</title>
<path fill="none" stroke="green" stroke-width="0.256904" d="M400.739,-68.4949C421.956,-60.8381 462.164,-45.703 495,-29.6985 495.832,-29.2928 496.675,-28.8697 497.523,-28.4343"/>
<polygon fill="green" stroke="green" stroke-width="0.256904" points="499.394,-31.3994 506.475,-23.5178 496.025,-25.2639 499.394,-31.3994"/>
</g>
<!-- &#45;18&#45;&gt;1 -->
<g id="edge86" class="edge"><title>&#45;18&#45;&gt;1</title>
<path fill="none" stroke="red" stroke-width="0.240402" d="M384.47,-65.6548C383.184,-58.8878 381.276,-48.8559 379.51,-39.5653"/>
<polygon fill="red" stroke="red" stroke-width="0.240402" points="382.922,-38.7747 377.616,-29.6046 376.045,-40.0824 382.922,-38.7747"/>
</g>
<!-- &#45;18&#45;&gt;2 -->
<g id="edge87" class="edge"><title>&#45;18&#45;&gt;2</title>
<path fill="none" stroke="red" stroke-width="0.290822" d="M400.548,-68.4603C403.342,-67.5051 406.252,-66.5442 409,-65.6985 467.939,-47.5571 486.032,-53.31 543,-29.6985 543.855,-29.3439 544.718,-28.9644 545.582,-28.5656"/>
<polygon fill="red" stroke="red" stroke-width="0.290822" points="547.387,-31.5706 554.611,-23.8199 544.131,-25.3743 547.387,-31.5706"/>
</g>
<!-- &#45;18&#45;&gt;3 -->
<g id="edge88" class="edge"><title>&#45;18&#45;&gt;3</title>
<path fill="none" stroke="green" stroke-width="0.29452" d="M391.145,-65.6548C395.949,-58.1437 403.326,-46.6101 409.771,-36.5326"/>
<polygon fill="green" stroke="green" stroke-width="0.29452" points="412.888,-38.1546 415.328,-27.8444 406.991,-34.3829 412.888,-38.1546"/>
</g>
<!-- &#45;18&#45;&gt;4 -->
<g id="edge89" class="edge"><title>&#45;18&#45;&gt;4</title>
<path fill="none" stroke="red" stroke-width="0.141574" d="M397.819,-65.6548C411.444,-56.3818 434.077,-40.978 450.572,-29.7523"/>
<polygon fill="red" stroke="red" stroke-width="0.141574" points="452.71,-32.531 459.007,-24.0111 448.771,-26.7441 452.71,-32.531"/>
</g>
<!-- &#45;19 -->
<g id="node19" class="node"><title>&#45;19</title>
<polygon fill="lightgray" stroke="black" points="447.5,-83.6985 418.5,-83.6985 418.5,-65.6985 447.5,-65.6985 447.5,-83.6985"/>
<text text-anchor="middle" x="433" y="-72.4985" font-family="Times New Roman,serif" font-size="9.00">&#45;19</text>
</g>
<!-- &#45;19&#45;&gt;0 -->
<g id="edge90" class="edge"><title>&#45;19&#45;&gt;0</title>
<path fill="none" stroke="red" stroke-width="0.294988" d="M444.958,-65.6548C458.821,-56.3294 481.902,-40.8037 498.614,-29.5624"/>
<polygon fill="red" stroke="red" stroke-width="0.294988" points="500.8,-32.3102 507.144,-23.8246 496.893,-26.502 500.8,-32.3102"/>
</g>
<!-- &#45;19&#45;&gt;1 -->
<g id="edge91" class="edge"><title>&#45;19&#45;&gt;1</title>
<path fill="none" stroke="green" stroke-width="0.12176" d="M424.935,-65.6548C416.62,-57.3607 403.386,-44.1619 392.632,-33.435"/>
<polygon fill="green" stroke="green" stroke-width="0.12176" points="394.896,-30.7503 385.344,-26.1665 389.953,-35.7065 394.896,-30.7503"/>
</g>
<!-- &#45;19&#45;&gt;2 -->
<g id="edge92" class="edge"><title>&#45;19&#45;&gt;2</title>
<path fill="none" stroke="red" stroke-width="0.275217" d="M447.522,-68.6422C468.842,-61.0514 509.694,-45.8669 543,-29.6985 543.833,-29.2941 544.677,-28.8722 545.524,-28.4377"/>
<polygon fill="red" stroke="red" stroke-width="0.275217" points="547.394,-31.4038 554.478,-23.5255 544.028,-25.2666 547.394,-31.4038"/>
</g>
<!-- &#45;19&#45;&gt;3 -->
<g id="edge93" class="edge"><title>&#45;19&#45;&gt;3</title>
<path fill="none" stroke="green" stroke-width="0.22673" d="M431.61,-65.6548C430.44,-58.8878 428.706,-48.8559 427.1,-39.5653"/>
<polygon fill="green" stroke="green" stroke-width="0.22673" points="430.53,-38.8622 425.378,-29.6046 423.632,-40.0546 430.53,-38.8622"/>
</g>
<!-- &#45;19&#45;&gt;4 -->
<g id="edge94" class="edge"><title>&#45;19&#45;&gt;4</title>
<path fill="none" stroke="green" stroke-width="0.223665" d="M438.284,-65.6548C443.268,-58.067 450.949,-46.3743 457.616,-36.2246"/>
<polygon fill="green" stroke="green" stroke-width="0.223665" points="460.556,-38.1241 463.121,-27.8444 454.705,-34.2809 460.556,-38.1241"/>
</g>
<!-- &#45;20 -->
<g id="node20" class="node"><title>&#45;20</title>
<polygon fill="lightgray" stroke="black" points="494.5,-83.6985 465.5,-83.6985 465.5,-65.6985 494.5,-65.6985 494.5,-83.6985"/>
<text text-anchor="middle" x="480" y="-72.4985" font-family="Times New Roman,serif" font-size="9.00">&#45;20</text>
</g>
<!-- &#45;20&#45;&gt;0 -->
<g id="edge95" class="edge"><title>&#45;20&#45;&gt;0</title>
<path fill="none" stroke="green" stroke-width="0.145643" d="M485.423,-65.6548C490.538,-58.067 498.421,-46.3743 505.264,-36.2246"/>
<polygon fill="green" stroke="green" stroke-width="0.145643" points="508.225,-38.0926 510.913,-27.8444 502.421,-34.1796 508.225,-38.0926"/>
</g>
<!-- &#45;20&#45;&gt;1 -->
<g id="edge96" class="edge"><title>&#45;20&#45;&gt;1</title>
<path fill="none" stroke="green" stroke-width="0.182259" d="M465.305,-65.8627C449.028,-57.1495 422.039,-42.6005 399,-29.6985 398.192,-29.246 397.37,-28.7833 396.54,-28.3144"/>
<polygon fill="green" stroke="green" stroke-width="0.182259" points="398.088,-25.1677 387.67,-23.2417 394.613,-31.2443 398.088,-25.1677"/>
</g>
<!-- &#45;20&#45;&gt;2 -->
<g id="edge97" class="edge"><title>&#45;20&#45;&gt;2</title>
<path fill="none" stroke="green" stroke-width="0.129719" d="M492.097,-65.6548C506.121,-56.3294 529.471,-40.8037 546.377,-29.5624"/>
<polygon fill="green" stroke="green" stroke-width="0.129719" points="548.617,-32.2762 555.006,-23.8246 544.741,-26.4472 548.617,-32.2762"/>
</g>
<!-- &#45;20&#45;&gt;3 -->
<g id="edge98" class="edge"><title>&#45;20&#45;&gt;3</title>
<path fill="none" stroke="red" stroke-width="0.271131" d="M472.074,-65.6548C463.902,-57.3607 450.897,-44.1619 440.328,-33.435"/>
<polygon fill="red" stroke="red" stroke-width="0.271131" points="442.678,-30.8332 433.166,-26.1665 437.691,-35.7462 442.678,-30.8332"/>
</g>
<!-- &#45;20&#45;&gt;4 -->
<g id="edge99" class="edge"><title>&#45;20&#45;&gt;4</title>
<path fill="none" stroke="red" stroke-width="0.296328" d="M478.749,-65.6548C477.696,-58.8878 476.135,-48.8559 474.69,-39.5653"/>
<polygon fill="red" stroke="red" stroke-width="0.296328" points="478.136,-38.9476 473.14,-29.6046 471.219,-40.0238 478.136,-38.9476"/>
</g>
</g>
</svg>
