<?xml version="1.0" encoding="UTF-8" standalone="no"?>
<!DOCTYPE svg PUBLIC "-//W3C//DTD SVG 1.1//EN"
 "http://www.w3.org/Graphics/SVG/1.1/DTD/svg11.dtd">
<!-- Generated by graphviz version 2.38.0 (20140413.2041)
 -->
<!-- Title: %3 Pages: 1 -->
<svg width="887pt" height="92pt"
 viewBox="0.00 0.00 886.50 91.70" xmlns="http://www.w3.org/2000/svg" xmlns:xlink="http://www.w3.org/1999/xlink">
<g id="graph0" class="graph" transform="scale(1 1) rotate(0) translate(4 87.6985)">
<title>%3</title>
<polygon fill="white" stroke="none" points="-4,4 -4,-87.6985 882.5,-87.6985 882.5,4 -4,4"/>
<!-- &#45;1 -->
<g id="node1" class="node"><title>&#45;1</title>
<polygon fill="lightgray" stroke="black" points="349,-83.6985 325,-83.6985 325,-65.6985 349,-65.6985 349,-83.6985"/>
<text text-anchor="middle" x="337" y="-72.4985" font-family="Times New Roman,serif" font-size="9.00">&#45;1</text>
</g>
<!-- 0 -->
<g id="node21" class="node"><title>0</title>
<ellipse fill="lightblue" stroke="black" cx="394" cy="-14.8492" rx="14.7" ry="14.7"/>
<text text-anchor="middle" x="394" y="-12.6492" font-family="Times New Roman,serif" font-size="9.00">0</text>
</g>
<!-- &#45;1&#45;&gt;0 -->
<g id="edge1" class="edge"><title>&#45;1&#45;&gt;0</title>
<path fill="none" stroke="green" stroke-width="0.295178" d="M344.926,-65.6548C353.098,-57.3607 366.103,-44.1619 376.672,-33.435"/>
<polygon fill="green" stroke="green" stroke-width="0.295178" points="379.309,-35.7462 383.834,-26.1665 374.322,-30.8332 379.309,-35.7462"/>
</g>
<!-- 1 -->
<g id="node22" class="node"><title>1</title>
<ellipse fill="lightblue" stroke="black" cx="442" cy="-14.8492" rx="14.7" ry="14.7"/>
<text text-anchor="middle" x="442" y="-12.6492" font-family="Times New Roman,serif" font-size="9.00">1</text>
</g>
<!-- &#45;1&#45;&gt;1 -->
<g id="edge2" class="edge"><title>&#45;1&#45;&gt;1</title>
<path fill="none" stroke="green" stroke-width="0.124572" d="M349.13,-67.2352C365.016,-58.7415 393.704,-43.3042 418,-29.6985 418.808,-29.246 419.63,-28.7833 420.46,-28.3144"/>
<polygon fill="green" stroke="green" stroke-width="0.124572" points="422.387,-31.2443 429.33,-23.2417 418.912,-25.1677 422.387,-31.2443"/>
</g>
<!-- 2 -->
<g id="node23" class="node"><title>2</title>
<ellipse fill="lightblue" stroke="black" cx="538" cy="-14.8492" rx="14.7" ry="14.7"/>
<text text-anchor="middle" x="538" y="-12.6492" font-family="Times New Roman,serif" font-size="9.00">2</text>
</g>
<!-- &#45;1&#45;&gt;2 -->
<g id="edge3" class="edge"><title>&#45;1&#45;&gt;2</title>
<path fill="none" stroke="green" stroke-width="0.207694" d="M349.339,-68.6753C352.16,-67.6174 355.163,-66.5617 358,-65.6985 426.074,-44.9843 447.791,-55.7666 514,-29.6985 514.862,-29.3592 515.729,-28.9927 516.598,-28.6049"/>
<polygon fill="green" stroke="green" stroke-width="0.207694" points="518.382,-31.622 525.647,-23.9104 515.159,-25.4083 518.382,-31.622"/>
</g>
<!-- 3 -->
<g id="node24" class="node"><title>3</title>
<ellipse fill="lightblue" stroke="black" cx="346" cy="-14.8492" rx="14.7" ry="14.7"/>
<text text-anchor="middle" x="346" y="-12.6492" font-family="Times New Roman,serif" font-size="9.00">3</text>
</g>
<!-- &#45;1&#45;&gt;3 -->
<g id="edge4" class="edge"><title>&#45;1&#45;&gt;3</title>
<path fill="none" stroke="red" stroke-width="0.2314" d="M338.251,-65.6548C339.304,-58.8878 340.865,-48.8559 342.31,-39.5653"/>
<polygon fill="red" stroke="red" stroke-width="0.2314" points="345.781,-40.0238 343.86,-29.6046 338.864,-38.9476 345.781,-40.0238"/>
</g>
<!-- 4 -->
<g id="node25" class="node"><title>4</title>
<ellipse fill="lightblue" stroke="black" cx="490" cy="-14.8492" rx="14.7" ry="14.7"/>
<text text-anchor="middle" x="490" y="-12.6492" font-family="Times New Roman,serif" font-size="9.00">4</text>
</g>
<!-- &#45;1&#45;&gt;4 -->
<g id="edge5" class="edge"><title>&#45;1&#45;&gt;4</title>
<path fill="none" stroke="green" stroke-width="0.295811" d="M349.405,-68.8735C352.222,-67.8053 355.207,-66.6953 358,-65.6985 405.651,-48.6886 419.854,-50.448 466,-29.6985 466.845,-29.3187 467.698,-28.9177 468.554,-28.5009"/>
<polygon fill="green" stroke="green" stroke-width="0.295811" points="470.393,-31.4861 477.546,-23.6711 467.081,-25.3193 470.393,-31.4861"/>
</g>
<!-- &#45;2 -->
<g id="node2" class="node"><title>&#45;2</title>
<polygon fill="lightgray" stroke="black" points="391,-83.6985 367,-83.6985 367,-65.6985 391,-65.6985 391,-83.6985"/>
<text text-anchor="middle" x="379" y="-72.4985" font-family="Times New Roman,serif" font-size="9.00">&#45;2</text>
</g>
<!-- &#45;2&#45;&gt;0 -->
<g id="edge6" class="edge"><title>&#45;2&#45;&gt;0</title>
<path fill="none" stroke="red" stroke-width="0.3" d="M381.086,-65.6548C382.84,-58.8878 385.442,-48.8559 387.851,-39.5653"/>
<polygon fill="red" stroke="red" stroke-width="0.3" points="391.311,-40.1629 390.433,-29.6046 384.535,-38.4059 391.311,-40.1629"/>
</g>
<!-- &#45;2&#45;&gt;1 -->
<g id="edge7" class="edge"><title>&#45;2&#45;&gt;1</title>
<path fill="none" stroke="red" stroke-width="0.233775" d="M387.76,-65.6548C396.99,-57.1793 411.798,-43.5822 423.611,-32.7347"/>
<polygon fill="red" stroke="red" stroke-width="0.233775" points="426.207,-35.1026 431.206,-25.761 421.473,-29.9466 426.207,-35.1026"/>
</g>
<!-- &#45;2&#45;&gt;2 -->
<g id="edge8" class="edge"><title>&#45;2&#45;&gt;2</title>
<path fill="none" stroke="red" stroke-width="0.263448" d="M391.393,-68.8406C394.211,-67.7741 397.2,-66.6731 400,-65.6985 450.181,-48.2336 465.369,-51.103 514,-29.6985 514.848,-29.3254 515.703,-28.9302 516.561,-28.5182"/>
<polygon fill="red" stroke="red" stroke-width="0.263448" points="518.392,-31.5086 525.564,-23.7108 515.094,-25.3338 518.392,-31.5086"/>
</g>
<!-- &#45;2&#45;&gt;3 -->
<g id="edge9" class="edge"><title>&#45;2&#45;&gt;3</title>
<path fill="none" stroke="red" stroke-width="0.128715" d="M374.411,-65.6548C370.224,-58.3144 363.845,-47.1324 358.192,-37.2221"/>
<polygon fill="red" stroke="red" stroke-width="0.128715" points="361.085,-35.229 353.089,-28.2771 355.004,-38.6975 361.085,-35.229"/>
</g>
<!-- &#45;2&#45;&gt;4 -->
<g id="edge10" class="edge"><title>&#45;2&#45;&gt;4</title>
<path fill="none" stroke="green" stroke-width="0.3" d="M391.213,-67.7861C408.146,-59.5289 439.649,-43.9512 466,-29.6985 466.815,-29.2579 467.642,-28.8053 468.477,-28.345"/>
<polygon fill="green" stroke="green" stroke-width="0.3" points="470.39,-31.2837 477.369,-23.3121 466.942,-25.1918 470.39,-31.2837"/>
</g>
<!-- &#45;3 -->
<g id="node3" class="node"><title>&#45;3</title>
<polygon fill="lightgray" stroke="black" points="433,-83.6985 409,-83.6985 409,-65.6985 433,-65.6985 433,-83.6985"/>
<text text-anchor="middle" x="421" y="-72.4985" font-family="Times New Roman,serif" font-size="9.00">&#45;3</text>
</g>
<!-- &#45;3&#45;&gt;0 -->
<g id="edge11" class="edge"><title>&#45;3&#45;&gt;0</title>
<path fill="none" stroke="green" stroke-width="0.280065" d="M417.246,-65.6548C413.899,-58.4832 408.84,-47.6447 404.295,-37.9078"/>
<polygon fill="green" stroke="green" stroke-width="0.280065" points="407.406,-36.2961 400.005,-28.7148 401.063,-39.2567 407.406,-36.2961"/>
</g>
<!-- &#45;3&#45;&gt;1 -->
<g id="edge12" class="edge"><title>&#45;3&#45;&gt;1</title>
<path fill="none" stroke="red" stroke-width="0.107975" d="M423.92,-65.6548C426.463,-58.6501 430.275,-48.1471 433.745,-38.5892"/>
<polygon fill="red" stroke="red" stroke-width="0.107975" points="437.047,-39.7515 437.169,-29.1573 430.467,-37.3628 437.047,-39.7515"/>
</g>
<!-- &#45;3&#45;&gt;2 -->
<g id="edge13" class="edge"><title>&#45;3&#45;&gt;2</title>
<path fill="none" stroke="green" stroke-width="0.166505" d="M433.193,-68.3127C451.113,-60.3114 485.522,-44.6205 514,-29.6985 514.82,-29.2687 515.653,-28.8252 516.491,-28.3726"/>
<polygon fill="green" stroke="green" stroke-width="0.166505" points="518.392,-31.3194 525.403,-23.3756 514.969,-25.2137 518.392,-31.3194"/>
</g>
<!-- &#45;3&#45;&gt;3 -->
<g id="edge14" class="edge"><title>&#45;3&#45;&gt;3</title>
<path fill="none" stroke="red" stroke-width="0.11146" d="M410.572,-65.6548C398.972,-56.7078 379.973,-42.0534 365.579,-30.9512"/>
<polygon fill="red" stroke="red" stroke-width="0.11146" points="367.376,-27.9165 357.32,-24.5803 363.1,-33.4593 367.376,-27.9165"/>
</g>
<!-- &#45;3&#45;&gt;4 -->
<g id="edge15" class="edge"><title>&#45;3&#45;&gt;4</title>
<path fill="none" stroke="green" stroke-width="0.241004" d="M430.594,-65.6548C441.044,-56.8941 458.02,-42.6612 471.155,-31.6492"/>
<polygon fill="green" stroke="green" stroke-width="0.241004" points="473.709,-34.0746 479.124,-24.9678 469.212,-28.7104 473.709,-34.0746"/>
</g>
<!-- &#45;4 -->
<g id="node4" class="node"><title>&#45;4</title>
<polygon fill="lightgray" stroke="black" points="475,-83.6985 451,-83.6985 451,-65.6985 475,-65.6985 475,-83.6985"/>
<text text-anchor="middle" x="463" y="-72.4985" font-family="Times New Roman,serif" font-size="9.00">&#45;4</text>
</g>
<!-- &#45;4&#45;&gt;0 -->
<g id="edge16" class="edge"><title>&#45;4&#45;&gt;0</title>
<path fill="none" stroke="green" stroke-width="0.3" d="M453.406,-65.6548C442.956,-56.8941 425.98,-42.6612 412.845,-31.6492"/>
<polygon fill="green" stroke="green" stroke-width="0.3" points="414.788,-28.7104 404.876,-24.9678 410.291,-34.0746 414.788,-28.7104"/>
</g>
<!-- &#45;4&#45;&gt;1 -->
<g id="edge17" class="edge"><title>&#45;4&#45;&gt;1</title>
<path fill="none" stroke="red" stroke-width="0.27082" d="M460.08,-65.6548C457.537,-58.6501 453.725,-48.1471 450.255,-38.5892"/>
<polygon fill="red" stroke="red" stroke-width="0.27082" points="453.533,-37.3628 446.831,-29.1573 446.953,-39.7515 453.533,-37.3628"/>
</g>
<!-- &#45;4&#45;&gt;2 -->
<g id="edge18" class="edge"><title>&#45;4&#45;&gt;2</title>
<path fill="none" stroke="green" stroke-width="0.298068" d="M473.428,-65.6548C485.028,-56.7078 504.027,-42.0534 518.421,-30.9512"/>
<polygon fill="green" stroke="green" stroke-width="0.298068" points="520.9,-33.4593 526.68,-24.5803 516.624,-27.9165 520.9,-33.4593"/>
</g>
<!-- &#45;4&#45;&gt;3 -->
<g id="edge19" class="edge"><title>&#45;4&#45;&gt;3</title>
<path fill="none" stroke="green" stroke-width="0.233833" d="M450.807,-68.3127C432.887,-60.3114 398.478,-44.6205 370,-29.6985 369.18,-29.2687 368.347,-28.8252 367.509,-28.3726"/>
<polygon fill="green" stroke="green" stroke-width="0.233833" points="369.031,-25.2137 358.597,-23.3756 365.608,-31.3194 369.031,-25.2137"/>
</g>
<!-- &#45;4&#45;&gt;4 -->
<g id="edge20" class="edge"><title>&#45;4&#45;&gt;4</title>
<path fill="none" stroke="green" stroke-width="0.293696" d="M466.754,-65.6548C470.101,-58.4832 475.16,-47.6447 479.705,-37.9078"/>
<polygon fill="green" stroke="green" stroke-width="0.293696" points="482.937,-39.2567 483.995,-28.7148 476.594,-36.2961 482.937,-39.2567"/>
</g>
<!-- &#45;5 -->
<g id="node5" class="node"><title>&#45;5</title>
<polygon fill="lightgray" stroke="black" points="517,-83.6985 493,-83.6985 493,-65.6985 517,-65.6985 517,-83.6985"/>
<text text-anchor="middle" x="505" y="-72.4985" font-family="Times New Roman,serif" font-size="9.00">&#45;5</text>
</g>
<!-- &#45;5&#45;&gt;0 -->
<g id="edge21" class="edge"><title>&#45;5&#45;&gt;0</title>
<path fill="none" stroke="green" stroke-width="0.295169" d="M492.787,-67.7861C475.854,-59.5289 444.351,-43.9512 418,-29.6985 417.185,-29.2579 416.358,-28.8053 415.523,-28.345"/>
<polygon fill="green" stroke="green" stroke-width="0.295169" points="417.058,-25.1918 406.631,-23.3121 413.61,-31.2837 417.058,-25.1918"/>
</g>
<!-- &#45;5&#45;&gt;1 -->
<g id="edge22" class="edge"><title>&#45;5&#45;&gt;1</title>
<path fill="none" stroke="red" stroke-width="0.278352" d="M496.24,-65.6548C487.01,-57.1793 472.202,-43.5822 460.389,-32.7347"/>
<polygon fill="red" stroke="red" stroke-width="0.278352" points="462.527,-29.9466 452.794,-25.761 457.793,-35.1026 462.527,-29.9466"/>
</g>
<!-- &#45;5&#45;&gt;2 -->
<g id="edge23" class="edge"><title>&#45;5&#45;&gt;2</title>
<path fill="none" stroke="green" stroke-width="0.3" d="M509.589,-65.6548C513.776,-58.3144 520.155,-47.1324 525.808,-37.2221"/>
<polygon fill="green" stroke="green" stroke-width="0.3" points="528.996,-38.6975 530.911,-28.2771 522.915,-35.229 528.996,-38.6975"/>
</g>
<!-- &#45;5&#45;&gt;3 -->
<g id="edge24" class="edge"><title>&#45;5&#45;&gt;3</title>
<path fill="none" stroke="red" stroke-width="0.298245" d="M492.607,-68.8406C489.789,-67.7741 486.8,-66.6731 484,-65.6985 433.819,-48.2336 418.631,-51.103 370,-29.6985 369.152,-29.3254 368.297,-28.9302 367.439,-28.5182"/>
<polygon fill="red" stroke="red" stroke-width="0.298245" points="368.906,-25.3338 358.436,-23.7108 365.608,-31.5086 368.906,-25.3338"/>
</g>
<!-- &#45;5&#45;&gt;4 -->
<g id="edge25" class="edge"><title>&#45;5&#45;&gt;4</title>
<path fill="none" stroke="red" stroke-width="0.143573" d="M502.914,-65.6548C501.16,-58.8878 498.558,-48.8559 496.149,-39.5653"/>
<polygon fill="red" stroke="red" stroke-width="0.143573" points="499.465,-38.4059 493.567,-29.6046 492.689,-40.1629 499.465,-38.4059"/>
</g>
<!-- &#45;6 -->
<g id="node6" class="node"><title>&#45;6</title>
<polygon fill="lightgray" stroke="black" points="559,-83.6985 535,-83.6985 535,-65.6985 559,-65.6985 559,-83.6985"/>
<text text-anchor="middle" x="547" y="-72.4985" font-family="Times New Roman,serif" font-size="9.00">&#45;6</text>
</g>
<!-- &#45;6&#45;&gt;0 -->
<g id="edge26" class="edge"><title>&#45;6&#45;&gt;0</title>
<path fill="none" stroke="red" stroke-width="0.118416" d="M534.595,-68.8735C531.778,-67.8053 528.793,-66.6953 526,-65.6985 478.349,-48.6886 464.146,-50.448 418,-29.6985 417.155,-29.3187 416.302,-28.9177 415.446,-28.5009"/>
<polygon fill="red" stroke="red" stroke-width="0.118416" points="416.919,-25.3193 406.454,-23.6711 413.607,-31.4861 416.919,-25.3193"/>
</g>
<!-- &#45;6&#45;&gt;1 -->
<g id="edge27" class="edge"><title>&#45;6&#45;&gt;1</title>
<path fill="none" stroke="red" stroke-width="0.295941" d="M534.87,-67.2352C518.984,-58.7415 490.296,-43.3042 466,-29.6985 465.192,-29.246 464.37,-28.7833 463.54,-28.3144"/>
<polygon fill="red" stroke="red" stroke-width="0.295941" points="465.088,-25.1677 454.67,-23.2417 461.613,-31.2443 465.088,-25.1677"/>
</g>
<!-- &#45;6&#45;&gt;2 -->
<g id="edge28" class="edge"><title>&#45;6&#45;&gt;2</title>
<path fill="none" stroke="red" stroke-width="0.159557" d="M545.749,-65.6548C544.696,-58.8878 543.135,-48.8559 541.69,-39.5653"/>
<polygon fill="red" stroke="red" stroke-width="0.159557" points="545.136,-38.9476 540.14,-29.6046 538.219,-40.0238 545.136,-38.9476"/>
</g>
<!-- &#45;6&#45;&gt;3 -->
<g id="edge29" class="edge"><title>&#45;6&#45;&gt;3</title>
<path fill="none" stroke="green" stroke-width="0.3" d="M534.661,-68.6753C531.84,-67.6174 528.837,-66.5617 526,-65.6985 457.926,-44.9843 436.209,-55.7666 370,-29.6985 369.138,-29.3592 368.271,-28.9927 367.402,-28.6049"/>
<polygon fill="green" stroke="green" stroke-width="0.3" points="368.841,-25.4083 358.353,-23.9104 365.618,-31.622 368.841,-25.4083"/>
</g>
<!-- &#45;6&#45;&gt;4 -->
<g id="edge30" class="edge"><title>&#45;6&#45;&gt;4</title>
<path fill="none" stroke="red" stroke-width="0.241915" d="M539.074,-65.6548C530.902,-57.3607 517.897,-44.1619 507.328,-33.435"/>
<polygon fill="red" stroke="red" stroke-width="0.241915" points="509.678,-30.8332 500.166,-26.1665 504.691,-35.7462 509.678,-30.8332"/>
</g>
<!-- &#45;7 -->
<g id="node7" class="node"><title>&#45;7</title>
<polygon fill="lightgray" stroke="black" points="601,-83.6985 577,-83.6985 577,-65.6985 601,-65.6985 601,-83.6985"/>
<text text-anchor="middle" x="589" y="-72.4985" font-family="Times New Roman,serif" font-size="9.00">&#45;7</text>
</g>
<!-- &#45;7&#45;&gt;0 -->
<g id="edge31" class="edge"><title>&#45;7&#45;&gt;0</title>
<path fill="none" stroke="red" stroke-width="0.171484" d="M576.655,-68.6937C573.835,-67.6348 570.833,-66.5741 568,-65.6985 502.498,-45.4533 481.683,-55.0943 418,-29.6985 417.14,-29.3555 416.273,-28.9857 415.406,-28.5952"/>
<polygon fill="red" stroke="red" stroke-width="0.171484" points="416.848,-25.3999 406.362,-23.8881 413.616,-31.6094 416.848,-25.3999"/>
</g>
<!-- &#45;7&#45;&gt;1 -->
<g id="edge32" class="edge"><title>&#45;7&#45;&gt;1</title>
<path fill="none" stroke="red" stroke-width="0.209582" d="M576.582,-68.9098C573.765,-67.8397 570.784,-66.7198 568,-65.6985 522.868,-49.1402 509.671,-49.7974 466,-29.6985 465.159,-29.3113 464.308,-28.9041 463.455,-28.482"/>
<polygon fill="red" stroke="red" stroke-width="0.209582" points="464.935,-25.3034 454.473,-23.6274 461.606,-31.4614 464.935,-25.3034"/>
</g>
<!-- &#45;7&#45;&gt;2 -->
<g id="edge33" class="edge"><title>&#45;7&#45;&gt;2</title>
<path fill="none" stroke="red" stroke-width="0.105417" d="M581.909,-65.6548C574.755,-57.5402 563.462,-44.7309 554.121,-34.1348"/>
<polygon fill="red" stroke="red" stroke-width="0.105417" points="556.697,-31.7644 547.458,-26.5778 551.446,-36.3935 556.697,-31.7644"/>
</g>
<!-- &#45;7&#45;&gt;3 -->
<g id="edge34" class="edge"><title>&#45;7&#45;&gt;3</title>
<path fill="none" stroke="green" stroke-width="0.135791" d="M576.69,-68.5762C573.867,-67.5234 570.856,-66.4948 568,-65.6985 481.844,-41.6762 453.97,-60.5038 370,-29.6985 369.131,-29.3795 368.256,-29.0303 367.383,-28.657"/>
<polygon fill="green" stroke="green" stroke-width="0.135791" points="368.806,-25.454 358.307,-24.0304 365.627,-31.6904 368.806,-25.454"/>
</g>
<!-- &#45;7&#45;&gt;4 -->
<g id="edge35" class="edge"><title>&#45;7&#45;&gt;4</title>
<path fill="none" stroke="red" stroke-width="0.191976" d="M576.861,-66.605C560.547,-57.0723 531.289,-39.9759 511.276,-28.2815"/>
<polygon fill="red" stroke="red" stroke-width="0.191976" points="512.951,-25.2065 502.551,-23.1832 509.419,-31.2504 512.951,-25.2065"/>
</g>
<!-- &#45;8 -->
<g id="node8" class="node"><title>&#45;8</title>
<polygon fill="lightgray" stroke="black" points="643,-83.6985 619,-83.6985 619,-65.6985 643,-65.6985 643,-83.6985"/>
<text text-anchor="middle" x="631" y="-72.4985" font-family="Times New Roman,serif" font-size="9.00">&#45;8</text>
</g>
<!-- &#45;8&#45;&gt;0 -->
<g id="edge36" class="edge"><title>&#45;8&#45;&gt;0</title>
<path fill="none" stroke="green" stroke-width="0.249632" d="M618.686,-68.5878C615.864,-67.5345 612.854,-66.5027 610,-65.6985 526.434,-42.1508 499.426,-59.8244 418,-29.6985 417.131,-29.3772 416.258,-29.0258 415.385,-28.6509"/>
<polygon fill="green" stroke="green" stroke-width="0.249632" points="416.81,-25.4486 406.312,-24.0163 413.625,-31.6823 416.81,-25.4486"/>
</g>
<!-- &#45;8&#45;&gt;1 -->
<g id="edge37" class="edge"><title>&#45;8&#45;&gt;1</title>
<path fill="none" stroke="green" stroke-width="0.287051" d="M618.649,-68.7135C615.829,-67.6536 612.829,-66.5874 610,-65.6985 547.065,-45.921 527.161,-54.4237 466,-29.6985 465.141,-29.3514 464.276,-28.9782 463.41,-28.5848"/>
<polygon fill="green" stroke="green" stroke-width="0.287051" points="464.855,-25.3909 454.371,-23.8642 461.615,-31.5957 464.855,-25.3909"/>
</g>
<!-- &#45;8&#45;&gt;2 -->
<g id="edge38" class="edge"><title>&#45;8&#45;&gt;2</title>
<path fill="none" stroke="red" stroke-width="0.3" d="M618.842,-66.1357C603.595,-56.6513 577.217,-40.2435 558.751,-28.7572"/>
<polygon fill="red" stroke="red" stroke-width="0.3" points="560.501,-25.7238 550.161,-23.4139 556.804,-31.6677 560.501,-25.7238"/>
</g>
<!-- &#45;8&#45;&gt;3 -->
<g id="edge39" class="edge"><title>&#45;8&#45;&gt;3</title>
<path fill="none" stroke="red" stroke-width="0.166311" stroke-dasharray="1,5" d="M618.707,-68.5105C615.884,-67.4611 612.868,-66.4505 610,-65.6985 505.667,-38.3416 471.824,-65.2749 370,-29.6985 369.126,-29.393 368.247,-29.0552 367.37,-28.6916"/>
<polygon fill="red" stroke="red" stroke-width="0.166311" points="368.784,-25.4847 358.279,-24.1101 365.634,-31.7359 368.784,-25.4847"/>
</g>
<!-- &#45;8&#45;&gt;4 -->
<g id="edge40" class="edge"><title>&#45;8&#45;&gt;4</title>
<path fill="none" stroke="green" stroke-width="0.228875" d="M618.567,-68.9499C615.751,-67.8778 612.774,-66.7468 610,-65.6985 567.375,-49.5874 555.207,-49.1519 514,-29.6985 513.163,-29.3031 512.315,-28.889 511.465,-28.461"/>
<polygon fill="green" stroke="green" stroke-width="0.228875" points="512.952,-25.2859 502.496,-23.5792 509.606,-31.4341 512.952,-25.2859"/>
</g>
<!-- &#45;9 -->
<g id="node9" class="node"><title>&#45;9</title>
<polygon fill="lightgray" stroke="black" points="24,-83.6985 0,-83.6985 0,-65.6985 24,-65.6985 24,-83.6985"/>
<text text-anchor="middle" x="12" y="-72.4985" font-family="Times New Roman,serif" font-size="9.00">&#45;9</text>
</g>
<!-- &#45;9&#45;&gt;0 -->
<g id="edge41" class="edge"><title>&#45;9&#45;&gt;0</title>
<path fill="none" stroke="green" stroke-width="0.3" d="M24.2698,-68.4199C27.0943,-67.3752 30.1166,-66.3895 33,-65.6985 179.483,-30.596 226.777,-76.3515 370,-29.6985 370.881,-29.4117 371.764,-29.0897 372.646,-28.7394"/>
<polygon fill="green" stroke="green" stroke-width="0.3" points="374.355,-31.7987 381.759,-24.2201 371.245,-25.5276 374.355,-31.7987"/>
</g>
<!-- &#45;9&#45;&gt;1 -->
<g id="edge42" class="edge"><title>&#45;9&#45;&gt;1</title>
<path fill="none" stroke="green" stroke-width="0.227395" d="M24.2632,-68.3917C27.088,-67.3485 30.1121,-66.3704 33,-65.6985 200.386,-26.7519 254.246,-81.8476 418,-29.6985 419.054,-29.3627 420.113,-28.9755 421.166,-28.5488"/>
<polygon fill="green" stroke="green" stroke-width="0.227395" points="422.908,-31.5905 430.263,-23.9647 419.758,-25.3394 422.908,-31.5905"/>
</g>
<!-- &#45;9&#45;&gt;3 -->
<g id="edge43" class="edge"><title>&#45;9&#45;&gt;3</title>
<path fill="none" stroke="green" stroke-width="0.108157" d="M24.2977,-68.5297C27.1207,-67.4794 30.1353,-66.4635 33,-65.6985 137.971,-37.6662 267.221,-23.2208 320.848,-18.0799"/>
<polygon fill="green" stroke="green" stroke-width="0.108157" points="321.476,-21.5365 331.107,-17.1225 320.825,-14.5668 321.476,-21.5365"/>
</g>
<!-- &#45;9&#45;&gt;4 -->
<g id="edge44" class="edge"><title>&#45;9&#45;&gt;4</title>
<path fill="none" stroke="green" stroke-width="0.296959" d="M24.2581,-68.3696C27.0832,-67.3276 30.1086,-66.3556 33,-65.6985 221.307,-22.9039 281.698,-87.3491 466,-29.6985 467.056,-29.3682 468.116,-28.9854 469.171,-28.5623"/>
<polygon fill="green" stroke="green" stroke-width="0.296959" points="470.906,-31.6074 478.272,-23.9914 467.764,-25.352 470.906,-31.6074"/>
</g>
<!-- &#45;10 -->
<g id="node10" class="node"><title>&#45;10</title>
<polygon fill="lightgray" stroke="black" points="690.5,-83.6985 661.5,-83.6985 661.5,-65.6985 690.5,-65.6985 690.5,-83.6985"/>
<text text-anchor="middle" x="676" y="-72.4985" font-family="Times New Roman,serif" font-size="9.00">&#45;10</text>
</g>
<!-- &#45;10&#45;&gt;0 -->
<g id="edge45" class="edge"><title>&#45;10&#45;&gt;0</title>
<path fill="none" stroke="red" stroke-width="0.288424" d="M661.391,-68.3926C658.317,-67.3995 655.074,-66.4416 652,-65.6985 549.723,-40.9729 517.27,-64.5919 418,-29.6985 417.126,-29.3914 416.248,-29.0522 415.372,-28.6874"/>
<polygon fill="red" stroke="red" stroke-width="0.288424" points="416.786,-25.481 406.282,-24.1004 413.633,-31.7303 416.786,-25.481"/>
</g>
<!-- &#45;10&#45;&gt;1 -->
<g id="edge46" class="edge"><title>&#45;10&#45;&gt;1</title>
<path fill="none" stroke="green" stroke-width="0.150616" d="M661.368,-68.4842C658.296,-67.4844 655.059,-66.5006 652,-65.6985 570.553,-44.3397 544.884,-59.1458 466,-29.6985 465.132,-29.3746 464.26,-29.0212 463.387,-28.6444"/>
<polygon fill="green" stroke="green" stroke-width="0.150616" points="464.814,-25.4429 454.318,-24.0013 461.624,-31.6738 464.814,-25.4429"/>
</g>
<!-- &#45;10&#45;&gt;2 -->
<g id="edge47" class="edge"><title>&#45;10&#45;&gt;2</title>
<path fill="none" stroke="red" stroke-width="0.292781" d="M661.492,-67.6169C637.579,-57.5925 589.691,-37.5181 561.084,-25.526"/>
<polygon fill="red" stroke="red" stroke-width="0.292781" points="562.073,-22.1454 551.497,-21.5072 559.366,-28.6011 562.073,-22.1454"/>
</g>
<!-- &#45;10&#45;&gt;3 -->
<g id="edge48" class="edge"><title>&#45;10&#45;&gt;3</title>
<path fill="none" stroke="red" stroke-width="0.276638" d="M661.406,-68.3313C658.33,-67.3427 655.083,-66.402 652,-65.6985 528.816,-37.5875 489.729,-70.0641 370,-29.6985 369.122,-29.4026 368.241,-29.073 367.362,-28.7163"/>
<polygon fill="red" stroke="red" stroke-width="0.276638" points="368.769,-25.5067 358.259,-24.1668 365.639,-31.7682 368.769,-25.5067"/>
</g>
<!-- &#45;10&#45;&gt;4 -->
<g id="edge49" class="edge"><title>&#45;10&#45;&gt;4</title>
<path fill="none" stroke="red" stroke-width="0.29604" d="M661.326,-68.6352C658.256,-67.6245 655.032,-66.5981 652,-65.6985 591.233,-47.6663 572.644,-53.7548 514,-29.6985 513.143,-29.347 512.28,-28.9701 511.415,-28.5736"/>
<polygon fill="red" stroke="red" stroke-width="0.29604" points="512.864,-25.3812 502.382,-23.8383 509.614,-31.5811 512.864,-25.3812"/>
</g>
<!-- &#45;11 -->
<g id="node11" class="node"><title>&#45;11</title>
<polygon fill="lightgray" stroke="black" points="737.5,-83.6985 708.5,-83.6985 708.5,-65.6985 737.5,-65.6985 737.5,-83.6985"/>
<text text-anchor="middle" x="723" y="-72.4985" font-family="Times New Roman,serif" font-size="9.00">&#45;11</text>
</g>
<!-- &#45;11&#45;&gt;0 -->
<g id="edge50" class="edge"><title>&#45;11&#45;&gt;0</title>
<path fill="none" stroke="green" stroke-width="0.273144" d="M708.039,-67.9932C705.388,-67.1271 702.634,-66.3176 700,-65.6985 577.001,-36.7883 537.729,-70.0641 418,-29.6985 417.122,-29.4026 416.241,-29.073 415.362,-28.7163"/>
<polygon fill="green" stroke="green" stroke-width="0.273144" points="416.769,-25.5067 406.259,-24.1668 413.639,-31.7682 416.769,-25.5067"/>
</g>
<!-- &#45;11&#45;&gt;1 -->
<g id="edge51" class="edge"><title>&#45;11&#45;&gt;1</title>
<path fill="none" stroke="green" stroke-width="0.266593" stroke-dasharray="1,5" d="M708.025,-68.0502C705.376,-67.1778 702.626,-66.3513 700,-65.6985 597.885,-40.3093 565.27,-64.5919 466,-29.6985 465.126,-29.3914 464.248,-29.0522 463.372,-28.6874"/>
<polygon fill="green" stroke="green" stroke-width="0.266593" points="464.786,-25.481 454.282,-24.1004 461.633,-31.7303 464.786,-25.481"/>
</g>
<!-- &#45;11&#45;&gt;2 -->
<g id="edge52" class="edge"><title>&#45;11&#45;&gt;2</title>
<path fill="none" stroke="green" stroke-width="0.296318" d="M708.426,-68.5402C705.635,-67.5776 702.732,-66.5936 700,-65.6985 651.26,-49.7289 593.794,-32.3973 562.077,-22.961"/>
<polygon fill="green" stroke="green" stroke-width="0.296318" points="562.94,-19.5664 552.358,-20.0769 560.949,-26.2772 562.94,-19.5664"/>
</g>
<!-- &#45;11&#45;&gt;3 -->
<g id="edge53" class="edge"><title>&#45;11&#45;&gt;3</title>
<path fill="none" stroke="red" stroke-width="0.273692" d="M708.048,-67.9525C705.397,-67.0909 702.64,-66.2934 700,-65.6985 556.074,-33.257 510.231,-75.5506 370,-29.6985 369.12,-29.4107 368.236,-29.0879 367.355,-28.7369"/>
<polygon fill="red" stroke="red" stroke-width="0.273692" points="368.757,-25.5253 358.243,-24.2143 365.644,-31.7954 368.757,-25.5253"/>
</g>
<!-- &#45;11&#45;&gt;4 -->
<g id="edge54" class="edge"><title>&#45;11&#45;&gt;4</title>
<path fill="none" stroke="red" stroke-width="0.3" d="M708.498,-68.301C705.7,-67.3605 702.776,-66.4458 700,-65.6985 618.694,-43.8113 592.884,-59.1458 514,-29.6985 513.132,-29.3746 512.26,-29.0212 511.387,-28.6444"/>
<polygon fill="red" stroke="red" stroke-width="0.3" points="512.814,-25.4429 502.318,-24.0013 509.624,-31.6738 512.814,-25.4429"/>
</g>
<!-- &#45;12 -->
<g id="node12" class="node"><title>&#45;12</title>
<polygon fill="lightgray" stroke="black" points="878.5,-83.6985 849.5,-83.6985 849.5,-65.6985 878.5,-65.6985 878.5,-83.6985"/>
<text text-anchor="middle" x="864" y="-72.4985" font-family="Times New Roman,serif" font-size="9.00">&#45;12</text>
</g>
<!-- &#45;12&#45;&gt;0 -->
<g id="edge55" class="edge"><title>&#45;12&#45;&gt;0</title>
<path fill="none" stroke="green" stroke-width="0.292872" d="M849.06,-67.8995C846.407,-67.0438 843.646,-66.262 841,-65.6985 656.458,-26.3997 598.02,-86.2026 418,-29.6985 416.944,-29.3671 415.885,-28.9835 414.83,-28.5598"/>
<polygon fill="green" stroke="green" stroke-width="0.292872" points="416.237,-25.3496 405.73,-23.9863 413.093,-31.6042 416.237,-25.3496"/>
</g>
<!-- &#45;12&#45;&gt;1 -->
<g id="edge56" class="edge"><title>&#45;12&#45;&gt;1</title>
<path fill="none" stroke="red" stroke-width="0.11539" d="M849.054,-67.9236C846.402,-67.0653 843.643,-66.2763 841,-65.6985 677.43,-29.9408 625.475,-80.7021 466,-29.6985 464.946,-29.3614 463.888,-28.9732 462.835,-28.5456"/>
<polygon fill="red" stroke="red" stroke-width="0.11539" points="464.244,-25.3364 453.739,-23.9583 461.092,-31.5865 464.244,-25.3364"/>
</g>
<!-- &#45;12&#45;&gt;2 -->
<g id="edge57" class="edge"><title>&#45;12&#45;&gt;2</title>
<path fill="none" stroke="red" stroke-width="0.1223" d="M849.019,-68.0732C846.371,-67.1983 843.622,-66.365 841,-65.6985 739.219,-39.829 614.667,-24.2558 562.654,-18.4507"/>
<polygon fill="red" stroke="red" stroke-width="0.1223" points="563.011,-14.969 552.69,-17.36 562.25,-21.9275 563.011,-14.969"/>
</g>
<!-- &#45;12&#45;&gt;4 -->
<g id="edge58" class="edge"><title>&#45;12&#45;&gt;4</title>
<path fill="none" stroke="red" stroke-width="0.298155" d="M849.047,-67.9547C846.396,-67.0929 843.639,-66.2947 841,-65.6985 698.383,-33.4779 652.949,-75.2074 514,-29.6985 513.12,-29.4102 512.237,-29.0871 511.355,-28.7358"/>
<polygon fill="red" stroke="red" stroke-width="0.298155" points="512.757,-25.5243 502.244,-24.2117 509.644,-31.7939 512.757,-25.5243"/>
</g>
<!-- &#45;13 -->
<g id="node13" class="node"><title>&#45;13</title>
<polygon fill="lightgray" stroke="black" points="784.5,-83.6985 755.5,-83.6985 755.5,-65.6985 784.5,-65.6985 784.5,-83.6985"/>
<text text-anchor="middle" x="770" y="-72.4985" font-family="Times New Roman,serif" font-size="9.00">&#45;13</text>
</g>
<!-- &#45;13&#45;&gt;0 -->
<g id="edge59" class="edge"><title>&#45;13&#45;&gt;0</title>
<path fill="none" stroke="green" stroke-width="0.297266" d="M755.048,-67.9532C752.397,-67.0916 749.639,-66.2939 747,-65.6985 603.51,-33.3306 557.803,-75.4362 418,-29.6985 417.12,-29.4105 416.236,-29.0876 415.355,-28.7365"/>
<polygon fill="green" stroke="green" stroke-width="0.297266" points="416.757,-25.525 406.244,-24.2134 413.644,-31.7949 416.757,-25.525"/>
</g>
<!-- &#45;13&#45;&gt;1 -->
<g id="edge60" class="edge"><title>&#45;13&#45;&gt;1</title>
<path fill="none" stroke="red" stroke-width="0.274917" d="M755.038,-67.9942C752.388,-67.128 749.634,-66.3182 747,-65.6985 624.437,-36.8617 585.302,-69.9499 466,-29.6985 465.123,-29.4024 464.241,-29.0726 463.362,-28.7158"/>
<polygon fill="red" stroke="red" stroke-width="0.274917" points="464.769,-25.5063 454.259,-24.1656 461.639,-31.7676 464.769,-25.5063"/>
</g>
<!-- &#45;13&#45;&gt;2 -->
<g id="edge61" class="edge"><title>&#45;13&#45;&gt;2</title>
<path fill="none" stroke="green" stroke-width="0.199634" d="M755.471,-68.3972C752.676,-67.4478 749.759,-66.5052 747,-65.6985 681.055,-46.4186 601.815,-29.0776 562.546,-20.8654"/>
<polygon fill="green" stroke="green" stroke-width="0.199634" points="563.077,-17.4011 552.575,-18.7973 561.655,-24.2552 563.077,-17.4011"/>
</g>
<!-- &#45;13&#45;&gt;3 -->
<g id="edge62" class="edge"><title>&#45;13&#45;&gt;3</title>
<path fill="none" stroke="green" stroke-width="0.107533" d="M755.055,-67.9225C752.403,-67.0643 749.643,-66.2757 747,-65.6985 582.556,-29.7934 530.331,-80.9312 370,-29.6985 368.946,-29.3617 367.888,-28.9736 366.834,-28.5463"/>
<polygon fill="green" stroke="green" stroke-width="0.107533" points="368.243,-25.337 357.739,-23.9596 365.092,-31.5873 368.243,-25.337"/>
</g>
<!-- &#45;13&#45;&gt;4 -->
<g id="edge63" class="edge"><title>&#45;13&#45;&gt;4</title>
<path fill="none" stroke="green" stroke-width="0.19275" d="M755.024,-68.0516C752.376,-67.179 749.626,-66.3522 747,-65.6985 645.32,-40.3825 612.844,-64.4781 514,-29.6985 513.126,-29.3911 512.249,-29.0517 511.372,-28.6867"/>
<polygon fill="green" stroke="green" stroke-width="0.19275" points="512.787,-25.4803 502.283,-24.0987 509.633,-31.7294 512.787,-25.4803"/>
</g>
<!-- &#45;14 -->
<g id="node14" class="node"><title>&#45;14</title>
<polygon fill="lightgray" stroke="black" points="831.5,-83.6985 802.5,-83.6985 802.5,-65.6985 831.5,-65.6985 831.5,-83.6985"/>
<text text-anchor="middle" x="817" y="-72.4985" font-family="Times New Roman,serif" font-size="9.00">&#45;14</text>
</g>
<!-- &#45;14&#45;&gt;0 -->
<g id="edge64" class="edge"><title>&#45;14&#45;&gt;0</title>
<path fill="none" stroke="green" stroke-width="0.3" stroke-dasharray="1,5" d="M802.054,-67.923C799.403,-67.0648 796.643,-66.276 794,-65.6985 629.993,-29.8671 577.903,-80.8167 418,-29.6985 416.946,-29.3616 415.888,-28.9734 414.835,-28.5459"/>
<polygon fill="green" stroke="green" stroke-width="0.3" points="416.244,-25.3367 405.739,-23.9589 413.092,-31.5869 416.244,-25.3367"/>
</g>
<!-- &#45;14&#45;&gt;1 -->
<g id="edge65" class="edge"><title>&#45;14&#45;&gt;1</title>
<path fill="none" stroke="red" stroke-width="0.152617" d="M802.048,-67.9539C799.396,-67.0922 796.639,-66.2943 794,-65.6985 650.947,-33.4043 605.376,-75.3218 466,-29.6985 465.12,-29.4104 464.236,-29.0873 463.355,-28.7362"/>
<polygon fill="red" stroke="red" stroke-width="0.152617" points="464.757,-25.5246 454.244,-24.2126 461.644,-31.7944 464.757,-25.5246"/>
</g>
<!-- &#45;14&#45;&gt;2 -->
<g id="edge66" class="edge"><title>&#45;14&#45;&gt;2</title>
<path fill="none" stroke="red" stroke-width="0.102571" d="M802.497,-68.3036C799.699,-67.3628 796.776,-66.4473 794,-65.6985 710.224,-43.0956 608.419,-26.3987 562.523,-19.4316"/>
<polygon fill="red" stroke="red" stroke-width="0.102571" points="563.009,-15.9655 552.6,-17.9456 561.972,-22.8882 563.009,-15.9655"/>
</g>
<!-- &#45;14&#45;&gt;3 -->
<g id="edge67" class="edge"><title>&#45;14&#45;&gt;3</title>
<path fill="none" stroke="green" stroke-width="0.282382" d="M802.06,-67.899C799.407,-67.0434 796.646,-66.2618 794,-65.6985 609.021,-26.3259 550.448,-86.3172 370,-29.6985 368.944,-29.3672 367.885,-28.9837 366.83,-28.56"/>
<polygon fill="green" stroke="green" stroke-width="0.282382" points="368.237,-25.3498 357.73,-23.9869 365.093,-31.6045 368.237,-25.3498"/>
</g>
<!-- &#45;14&#45;&gt;4 -->
<g id="edge68" class="edge"><title>&#45;14&#45;&gt;4</title>
<path fill="none" stroke="green" stroke-width="0.29367" d="M802.038,-67.9952C799.388,-67.1289 796.634,-66.3188 794,-65.6985 671.873,-36.9352 632.876,-69.8358 514,-29.6985 513.123,-29.4022 512.241,-29.0722 511.362,-28.7152"/>
<polygon fill="green" stroke="green" stroke-width="0.29367" points="512.769,-25.5058 502.26,-24.1644 509.639,-31.7669 512.769,-25.5058"/>
</g>
<!-- &#45;15 -->
<g id="node15" class="node"><title>&#45;15</title>
<polygon fill="lightgray" stroke="black" points="71.5,-83.6985 42.5,-83.6985 42.5,-65.6985 71.5,-65.6985 71.5,-83.6985"/>
<text text-anchor="middle" x="57" y="-72.4985" font-family="Times New Roman,serif" font-size="9.00">&#45;15</text>
</g>
<!-- &#45;15&#45;&gt;0 -->
<g id="edge69" class="edge"><title>&#45;15&#45;&gt;0</title>
<path fill="none" stroke="green" stroke-width="0.145254" d="M71.9597,-67.9855C74.61,-67.1203 77.365,-66.313 80,-65.6985 206.484,-36.2003 246.856,-70.9777 370,-29.6985 370.878,-29.4042 371.76,-29.0758 372.64,-28.7202"/>
<polygon fill="green" stroke="green" stroke-width="0.145254" points="374.36,-31.7734 381.744,-24.1758 371.233,-25.5102 374.36,-31.7734"/>
</g>
<!-- &#45;15&#45;&gt;1 -->
<g id="edge70" class="edge"><title>&#45;15&#45;&gt;1</title>
<path fill="none" stroke="red" stroke-width="0.227882" d="M71.9508,-67.9468C74.6021,-67.0859 77.3597,-66.2901 80,-65.6985 227.417,-32.6678 274.349,-76.466 418,-29.6985 418.881,-29.4118 419.764,-29.0899 420.646,-28.7398"/>
<polygon fill="red" stroke="red" stroke-width="0.227882" points="422.355,-31.7992 429.759,-24.2209 419.245,-25.5279 422.355,-31.7992"/>
</g>
<!-- &#45;15&#45;&gt;2 -->
<g id="edge71" class="edge"><title>&#45;15&#45;&gt;2</title>
<path fill="none" stroke="green" stroke-width="0.26709" d="M71.9394,-67.8947C74.592,-67.0396 77.353,-66.2592 80,-65.6985 269.35,-25.5878 329.27,-87.4637 514,-29.6985 515.056,-29.3683 516.116,-28.9856 517.171,-28.5626"/>
<polygon fill="green" stroke="green" stroke-width="0.26709" points="518.906,-31.6077 526.272,-23.9919 515.765,-25.3522 518.906,-31.6077"/>
</g>
<!-- &#45;15&#45;&gt;3 -->
<g id="edge72" class="edge"><title>&#45;15&#45;&gt;3</title>
<path fill="none" stroke="red" stroke-width="0.200491" d="M71.9938,-68.1223C74.6403,-67.2419 77.3852,-66.3941 80,-65.6985 167.618,-42.3906 274.285,-25.8971 321.499,-19.1881"/>
<polygon fill="red" stroke="red" stroke-width="0.200491" points="321.995,-22.6529 331.413,-17.7998 321.024,-15.7205 321.995,-22.6529"/>
</g>
<!-- &#45;15&#45;&gt;4 -->
<g id="edge73" class="edge"><title>&#45;15&#45;&gt;4</title>
<path fill="none" stroke="green" stroke-width="0.297128" d="M71.9443,-67.9176C74.5964,-67.0599 77.3559,-66.2727 80,-65.6985 248.375,-29.1296 301.818,-81.9622 466,-29.6985 467.054,-29.3629 468.113,-28.9758 469.167,-28.5491"/>
<polygon fill="green" stroke="green" stroke-width="0.297128" points="470.908,-31.5909 478.263,-23.9653 467.758,-25.3397 470.908,-31.5909"/>
</g>
<!-- &#45;16 -->
<g id="node16" class="node"><title>&#45;16</title>
<polygon fill="lightgray" stroke="black" points="118.5,-83.6985 89.5,-83.6985 89.5,-65.6985 118.5,-65.6985 118.5,-83.6985"/>
<text text-anchor="middle" x="104" y="-72.4985" font-family="Times New Roman,serif" font-size="9.00">&#45;16</text>
</g>
<!-- &#45;16&#45;&gt;0 -->
<g id="edge74" class="edge"><title>&#45;16&#45;&gt;0</title>
<path fill="none" stroke="red" stroke-width="0.297894" d="M118.972,-68.0378C121.621,-67.1668 124.372,-66.344 127,-65.6985 233.026,-39.6502 266.899,-65.6165 370,-29.6985 370.874,-29.3938 371.753,-29.0567 372.63,-28.6937"/>
<polygon fill="red" stroke="red" stroke-width="0.297894" points="374.366,-31.7385 381.723,-24.1148 371.217,-25.4865 374.366,-31.7385"/>
</g>
<!-- &#45;16&#45;&gt;1 -->
<g id="edge75" class="edge"><title>&#45;16&#45;&gt;1</title>
<path fill="none" stroke="green" stroke-width="0.16766" stroke-dasharray="1,5" d="M118.959,-67.9846C121.61,-67.1195 124.365,-66.3125 127,-65.6985 253.92,-36.1268 294.429,-71.092 418,-29.6985 418.878,-29.4043 419.76,-29.0761 420.64,-28.7206"/>
<polygon fill="green" stroke="green" stroke-width="0.16766" points="422.36,-31.774 429.744,-24.1768 419.234,-25.5107 422.36,-31.774"/>
</g>
<!-- &#45;16&#45;&gt;2 -->
<g id="edge76" class="edge"><title>&#45;16&#45;&gt;2</title>
<path fill="none" stroke="red" stroke-width="0.203802" d="M118.944,-67.917C121.596,-67.0594 124.356,-66.2724 127,-65.6985 295.811,-29.0559 349.39,-82.0768 514,-29.6985 515.054,-29.363 516.113,-28.976 517.167,-28.5495"/>
<polygon fill="red" stroke="red" stroke-width="0.203802" points="518.908,-31.5913 526.263,-23.9659 515.758,-25.34 518.908,-31.5913"/>
</g>
<!-- &#45;16&#45;&gt;3 -->
<g id="edge77" class="edge"><title>&#45;16&#45;&gt;3</title>
<path fill="none" stroke="red" stroke-width="0.275739" stroke-dasharray="1,5" d="M118.523,-68.3741C121.318,-67.4269 124.237,-66.491 127,-65.6985 196.699,-45.711 280.691,-28.4589 321.438,-20.5142"/>
<polygon fill="red" stroke="red" stroke-width="0.275739" points="322.356,-23.9017 331.51,-18.5687 321.028,-17.0287 322.356,-23.9017"/>
</g>
<!-- &#45;16&#45;&gt;4 -->
<g id="edge78" class="edge"><title>&#45;16&#45;&gt;4</title>
<path fill="none" stroke="red" stroke-width="0.100493" d="M118.951,-67.9461C121.602,-67.0853 124.36,-66.2897 127,-65.6985 274.853,-32.5941 321.922,-76.5804 466,-29.6985 466.881,-29.4119 467.764,-29.0902 468.646,-28.7401"/>
<polygon fill="red" stroke="red" stroke-width="0.100493" points="470.355,-31.7997 477.759,-24.2217 467.245,-25.5282 470.355,-31.7997"/>
</g>
<!-- &#45;17 -->
<g id="node17" class="node"><title>&#45;17</title>
<polygon fill="lightgray" stroke="black" points="165.5,-83.6985 136.5,-83.6985 136.5,-65.6985 165.5,-65.6985 165.5,-83.6985"/>
<text text-anchor="middle" x="151" y="-72.4985" font-family="Times New Roman,serif" font-size="9.00">&#45;17</text>
</g>
<!-- &#45;17&#45;&gt;0 -->
<g id="edge79" class="edge"><title>&#45;17&#45;&gt;0</title>
<path fill="none" stroke="red" stroke-width="0.159353" d="M165.992,-68.1143C168.638,-67.2348 171.384,-66.3893 174,-65.6985 259.633,-43.084 286.878,-60.2773 370,-29.6985 370.869,-29.3788 371.743,-29.0288 372.617,-28.655"/>
<polygon fill="red" stroke="red" stroke-width="0.159353" points="374.374,-31.6878 381.691,-24.0258 371.193,-25.4522 374.374,-31.6878"/>
</g>
<!-- &#45;17&#45;&gt;1 -->
<g id="edge80" class="edge"><title>&#45;17&#45;&gt;1</title>
<path fill="none" stroke="red" stroke-width="0.299691" d="M165.972,-68.0365C168.621,-67.1656 171.372,-66.3432 174,-65.6985 280.461,-39.5769 314.473,-65.7303 418,-29.6985 418.875,-29.3941 419.753,-29.0572 420.631,-28.6943"/>
<polygon fill="red" stroke="red" stroke-width="0.299691" points="422.366,-31.7394 429.724,-24.1163 419.218,-25.4871 422.366,-31.7394"/>
</g>
<!-- &#45;17&#45;&gt;2 -->
<g id="edge81" class="edge"><title>&#45;17&#45;&gt;2</title>
<path fill="none" stroke="red" stroke-width="0.270805" d="M165.95,-67.9454C168.602,-67.0846 171.36,-66.2893 174,-65.6985 322.29,-32.5205 369.494,-76.6948 514,-29.6985 515.052,-29.3563 516.109,-28.9638 517.161,-28.5328"/>
<polygon fill="red" stroke="red" stroke-width="0.270805" points="518.91,-31.5705 526.253,-23.9329 515.75,-25.3245 518.91,-31.5705"/>
</g>
<!-- &#45;17&#45;&gt;3 -->
<g id="edge82" class="edge"><title>&#45;17&#45;&gt;3</title>
<path fill="none" stroke="red" stroke-width="0.3" d="M165.562,-68.5039C168.354,-67.5446 171.261,-66.5711 174,-65.6985 226.391,-49.0077 288.485,-31.5866 321.87,-22.4105"/>
<polygon fill="red" stroke="red" stroke-width="0.3" points="322.932,-25.7489 331.652,-19.7323 321.083,-18.9974 322.932,-25.7489"/>
</g>
<!-- &#45;17&#45;&gt;4 -->
<g id="edge83" class="edge"><title>&#45;17&#45;&gt;4</title>
<path fill="none" stroke="green" stroke-width="0.221313" d="M165.959,-67.9836C168.61,-67.1186 171.365,-66.3119 174,-65.6985 301.356,-36.0532 342.002,-71.2062 466,-29.6985 466.878,-29.4045 467.76,-29.0765 468.64,-28.7211"/>
<polygon fill="green" stroke="green" stroke-width="0.221313" points="470.359,-31.7746 477.745,-24.1779 467.234,-25.5111 470.359,-31.7746"/>
</g>
<!-- &#45;18 -->
<g id="node18" class="node"><title>&#45;18</title>
<polygon fill="lightgray" stroke="black" points="212.5,-83.6985 183.5,-83.6985 183.5,-65.6985 212.5,-65.6985 212.5,-83.6985"/>
<text text-anchor="middle" x="198" y="-72.4985" font-family="Times New Roman,serif" font-size="9.00">&#45;18</text>
</g>
<!-- &#45;18&#45;&gt;0 -->
<g id="edge84" class="edge"><title>&#45;18&#45;&gt;0</title>
<path fill="none" stroke="red" stroke-width="0.297952" d="M212.531,-68.4037C215.326,-67.4538 218.242,-66.5093 221,-65.6985 286.362,-46.4849 306.738,-54.9824 370,-29.6985 370.86,-29.3548 371.726,-28.9845 372.593,-28.5935"/>
<polygon fill="red" stroke="red" stroke-width="0.297952" points="374.384,-31.6072 381.637,-23.8843 371.151,-25.3985 374.384,-31.6072"/>
</g>
<!-- &#45;18&#45;&gt;1 -->
<g id="edge85" class="edge"><title>&#45;18&#45;&gt;1</title>
<path fill="none" stroke="green" stroke-width="0.167625" stroke-dasharray="1,5" d="M212.991,-68.1123C215.638,-67.233 218.384,-66.3882 221,-65.6985 307.065,-43.0112 334.454,-60.3905 418,-29.6985 418.869,-29.3792 419.743,-29.0295 420.617,-28.656"/>
<polygon fill="green" stroke="green" stroke-width="0.167625" points="422.374,-31.6891 429.692,-24.0281 419.194,-25.4531 422.374,-31.6891"/>
</g>
<!-- &#45;18&#45;&gt;2 -->
<g id="edge86" class="edge"><title>&#45;18&#45;&gt;2</title>
<path fill="none" stroke="red" stroke-width="0.198985" d="M212.959,-67.9827C215.609,-67.1178 218.365,-66.3114 221,-65.6985 348.791,-35.9797 389.576,-71.3204 514,-29.6985 514.878,-29.4047 515.76,-29.0768 516.64,-28.7216"/>
<polygon fill="red" stroke="red" stroke-width="0.198985" points="518.359,-31.7752 525.745,-24.179 515.234,-25.5115 518.359,-31.7752"/>
</g>
<!-- &#45;18&#45;&gt;3 -->
<g id="edge87" class="edge"><title>&#45;18&#45;&gt;3</title>
<path fill="none" stroke="red" stroke-width="0.200576" d="M212.732,-67.9402C238.482,-57.8751 291.864,-37.0096 322.68,-24.9645"/>
<polygon fill="red" stroke="red" stroke-width="0.200576" points="324.153,-28.1465 332.193,-21.2461 321.605,-21.6268 324.153,-28.1465"/>
</g>
<!-- &#45;18&#45;&gt;4 -->
<g id="edge88" class="edge"><title>&#45;18&#45;&gt;4</title>
<path fill="none" stroke="red" stroke-width="0.296299" d="M212.972,-68.0352C215.621,-67.1645 218.372,-66.3425 221,-65.6985 327.895,-39.5036 362.047,-65.8442 466,-29.6985 466.875,-29.3943 467.754,-29.0576 468.631,-28.695"/>
<polygon fill="red" stroke="red" stroke-width="0.296299" points="470.366,-31.7403 477.724,-24.1178 467.218,-25.4877 470.366,-31.7403"/>
</g>
<!-- &#45;19 -->
<g id="node19" class="node"><title>&#45;19</title>
<polygon fill="lightgray" stroke="black" points="259.5,-83.6985 230.5,-83.6985 230.5,-65.6985 259.5,-65.6985 259.5,-83.6985"/>
<text text-anchor="middle" x="245" y="-72.4985" font-family="Times New Roman,serif" font-size="9.00">&#45;19</text>
</g>
<!-- &#45;19&#45;&gt;0 -->
<g id="edge89" class="edge"><title>&#45;19&#45;&gt;0</title>
<path fill="none" stroke="green" stroke-width="0.143795" d="M259.952,-68.4757C292.563,-57.0795 367.387,-30.8997 370,-29.6985 370.841,-29.3117 371.692,-28.9047 372.546,-28.4829"/>
<polygon fill="green" stroke="green" stroke-width="0.143795" points="374.394,-31.4626 381.528,-23.6295 371.066,-25.3041 374.394,-31.4626"/>
</g>
<!-- &#45;19&#45;&gt;1 -->
<g id="edge90" class="edge"><title>&#45;19&#45;&gt;1</title>
<path fill="none" stroke="green" stroke-width="0.11496" d="M259.53,-68.4003C262.325,-67.4507 265.241,-66.5072 268,-65.6985 333.791,-46.4131 354.317,-55.0943 418,-29.6985 418.86,-29.3555 419.727,-28.9857 420.594,-28.5952"/>
<polygon fill="green" stroke="green" stroke-width="0.11496" points="422.384,-31.6094 429.638,-23.8881 419.152,-25.3999 422.384,-31.6094"/>
</g>
<!-- &#45;19&#45;&gt;2 -->
<g id="edge91" class="edge"><title>&#45;19&#45;&gt;2</title>
<path fill="none" stroke="red" stroke-width="0.290272" d="M259.971,-68.0339C262.62,-67.1633 265.372,-66.3417 268,-65.6985 375.33,-39.4303 409.621,-65.9581 514,-29.6985 514.875,-29.3946 515.754,-29.0581 516.631,-28.6956"/>
<polygon fill="red" stroke="red" stroke-width="0.290272" points="518.365,-31.7411 525.725,-24.1193 515.219,-25.4883 518.365,-31.7411"/>
</g>
<!-- &#45;19&#45;&gt;3 -->
<g id="edge92" class="edge"><title>&#45;19&#45;&gt;3</title>
<path fill="none" stroke="red" stroke-width="0.3" d="M259.044,-65.6548C275.999,-55.9433 304.695,-39.5074 324.456,-28.1888"/>
<polygon fill="red" stroke="red" stroke-width="0.3" points="326.411,-31.1027 333.349,-23.0954 322.932,-25.0285 326.411,-31.1027"/>
</g>
<!-- &#45;19&#45;&gt;4 -->
<g id="edge93" class="edge"><title>&#45;19&#45;&gt;4</title>
<path fill="none" stroke="green" stroke-width="0.231363" d="M259.991,-68.1104C262.638,-67.2313 265.383,-66.387 268,-65.6985 354.498,-42.9384 382.03,-60.5038 466,-29.6985 466.869,-29.3795 467.744,-29.0303 468.617,-28.657"/>
<polygon fill="green" stroke="green" stroke-width="0.231363" points="470.373,-31.6904 477.693,-24.0304 467.194,-25.454 470.373,-31.6904"/>
</g>
<!-- &#45;20 -->
<g id="node20" class="node"><title>&#45;20</title>
<polygon fill="lightgray" stroke="black" points="306.5,-83.6985 277.5,-83.6985 277.5,-65.6985 306.5,-65.6985 306.5,-83.6985"/>
<text text-anchor="middle" x="292" y="-72.4985" font-family="Times New Roman,serif" font-size="9.00">&#45;20</text>
</g>
<!-- &#45;20&#45;&gt;0 -->
<g id="edge94" class="edge"><title>&#45;20&#45;&gt;0</title>
<path fill="none" stroke="red" stroke-width="0.103835" d="M306.4,-65.6309C322.071,-56.8383 347.853,-42.3346 370,-29.6985 370.804,-29.2396 371.623,-28.7714 372.45,-28.2978"/>
<polygon fill="red" stroke="red" stroke-width="0.103835" points="374.385,-31.223 381.309,-23.2036 370.895,-25.1548 374.385,-31.223"/>
</g>
<!-- &#45;20&#45;&gt;1 -->
<g id="edge95" class="edge"><title>&#45;20&#45;&gt;1</title>
<path fill="none" stroke="red" stroke-width="0.267671" d="M306.867,-68.682C337.901,-58.1845 407.573,-34.4763 418,-29.6985 418.842,-29.3127 419.693,-28.9067 420.547,-28.4855"/>
<polygon fill="red" stroke="red" stroke-width="0.267671" points="422.393,-31.4661 429.53,-23.6357 419.068,-25.3064 422.393,-31.4661"/>
</g>
<!-- &#45;20&#45;&gt;2 -->
<g id="edge96" class="edge"><title>&#45;20&#45;&gt;2</title>
<path fill="none" stroke="green" stroke-width="0.24347" d="M306.625,-68.4573C309.698,-67.4595 312.937,-66.4833 316,-65.6985 402.644,-43.5005 430.03,-60.5038 514,-29.6985 514.869,-29.3795 515.744,-29.0303 516.617,-28.657"/>
<polygon fill="green" stroke="green" stroke-width="0.24347" points="518.373,-31.6904 525.693,-24.0304 515.194,-25.454 518.373,-31.6904"/>
</g>
<!-- &#45;20&#45;&gt;3 -->
<g id="edge97" class="edge"><title>&#45;20&#45;&gt;3</title>
<path fill="none" stroke="red" stroke-width="0.198156" d="M299.508,-65.6548C307.175,-57.4413 319.332,-44.4177 329.292,-33.7481"/>
<polygon fill="red" stroke="red" stroke-width="0.198156" points="332.104,-35.8649 336.369,-26.1665 326.987,-31.0883 332.104,-35.8649"/>
</g>
<!-- &#45;20&#45;&gt;4 -->
<g id="edge98" class="edge"><title>&#45;20&#45;&gt;4</title>
<path fill="none" stroke="green" stroke-width="0.108509" d="M306.661,-68.589C309.731,-67.5816 312.96,-66.5683 316,-65.6985 381.915,-46.8407 402.317,-55.0943 466,-29.6985 466.86,-29.3555 467.727,-28.9857 468.594,-28.5952"/>
<polygon fill="green" stroke="green" stroke-width="0.108509" points="470.384,-31.6094 477.638,-23.8881 467.152,-25.3999 470.384,-31.6094"/>
</g>
</g>
</svg>
