<?xml version="1.0" encoding="UTF-8" standalone="no"?>
<!DOCTYPE svg PUBLIC "-//W3C//DTD SVG 1.1//EN"
 "http://www.w3.org/Graphics/SVG/1.1/DTD/svg11.dtd">
<!-- Generated by graphviz version 2.38.0 (20140413.2041)
 -->
<!-- Title: %3 Pages: 1 -->
<svg width="1007pt" height="157pt"
 viewBox="0.00 0.00 1007.14 157.40" xmlns="http://www.w3.org/2000/svg" xmlns:xlink="http://www.w3.org/1999/xlink">
<g id="graph0" class="graph" transform="scale(1 1) rotate(0) translate(4 153.397)">
<title>%3</title>
<polygon fill="white" stroke="none" points="-4,4 -4,-153.397 1003.14,-153.397 1003.14,4 -4,4"/>
<!-- &#45;1 -->
<g id="node1" class="node"><title>&#45;1</title>
<polygon fill="lightgray" stroke="black" points="774.676,-89.5477 750.676,-89.5477 750.676,-71.5477 774.676,-71.5477 774.676,-89.5477"/>
<text text-anchor="middle" x="762.676" y="-78.3477" font-family="Times New Roman,serif" font-size="9.00">&#45;1</text>
</g>
<!-- 0 -->
<g id="node21" class="node"><title>0</title>
<ellipse fill="lightblue" stroke="black" cx="349.676" cy="-14.8492" rx="14.7" ry="14.7"/>
<text text-anchor="middle" x="349.676" y="-12.6492" font-family="Times New Roman,serif" font-size="9.00">0</text>
</g>
<!-- &#45;1&#45;&gt;0 -->
<g id="edge1" class="edge"><title>&#45;1&#45;&gt;0</title>
<path fill="none" stroke="green" stroke-width="0.3" d="M752.526,-71.4298C749.241,-69.2052 745.464,-67.0394 741.676,-65.6985 586.762,-10.8532 530.157,-79.9004 373.676,-29.6985 372.623,-29.3605 371.565,-28.9714 370.511,-28.5432"/>
<polygon fill="green" stroke="green" stroke-width="0.3" points="371.921,-25.3342 361.417,-23.9536 368.767,-31.5835 371.921,-25.3342"/>
</g>
<!-- 1 -->
<g id="node22" class="node"><title>1</title>
<ellipse fill="lightblue" stroke="black" cx="541.676" cy="-14.8492" rx="14.7" ry="14.7"/>
<text text-anchor="middle" x="541.676" y="-12.6492" font-family="Times New Roman,serif" font-size="9.00">1</text>
</g>
<!-- &#45;1&#45;&gt;1 -->
<g id="edge2" class="edge"><title>&#45;1&#45;&gt;1</title>
<path fill="none" stroke="red" stroke-width="0.3" d="M751.961,-71.4787C748.776,-69.3625 745.195,-67.2433 741.676,-65.6985 681.732,-39.3851 605.327,-25.2229 566.599,-19.2826"/>
<polygon fill="red" stroke="red" stroke-width="0.3" points="566.688,-15.7578 556.284,-17.76 565.666,-22.6828 566.688,-15.7578"/>
</g>
<!-- 2 -->
<g id="node23" class="node"><title>2</title>
<ellipse fill="lightblue" stroke="black" cx="397.676" cy="-14.8492" rx="14.7" ry="14.7"/>
<text text-anchor="middle" x="397.676" y="-12.6492" font-family="Times New Roman,serif" font-size="9.00">2</text>
</g>
<!-- &#45;1&#45;&gt;2 -->
<g id="edge3" class="edge"><title>&#45;1&#45;&gt;2</title>
<path fill="none" stroke="green" stroke-width="0.224182" d="M752.514,-71.4636C749.228,-69.2403 745.454,-67.0669 741.676,-65.6985 607.112,-16.9564 557.633,-74.4067 421.676,-29.6985 420.796,-29.4092 419.913,-29.0851 419.032,-28.7331"/>
<polygon fill="green" stroke="green" stroke-width="0.224182" points="420.435,-25.5219 409.922,-24.2055 417.32,-31.7904 420.435,-25.5219"/>
</g>
<!-- 3 -->
<g id="node24" class="node"><title>3</title>
<ellipse fill="lightblue" stroke="black" cx="445.676" cy="-14.8492" rx="14.7" ry="14.7"/>
<text text-anchor="middle" x="445.676" y="-12.6492" font-family="Times New Roman,serif" font-size="9.00">3</text>
</g>
<!-- &#45;1&#45;&gt;3 -->
<g id="edge4" class="edge"><title>&#45;1&#45;&gt;3</title>
<path fill="none" stroke="red" stroke-width="0.108625" d="M752.498,-71.509C749.211,-69.2876 745.44,-67.1037 741.676,-65.6985 627.434,-23.0491 585.139,-68.9226 469.676,-29.6985 468.799,-29.4006 467.919,-29.0692 467.04,-28.7111"/>
<polygon fill="red" stroke="red" stroke-width="0.108625" points="468.448,-25.5021 457.939,-24.1548 465.314,-31.7614 468.448,-25.5021"/>
</g>
<!-- 4 -->
<g id="node25" class="node"><title>4</title>
<ellipse fill="lightblue" stroke="black" cx="493.676" cy="-14.8492" rx="14.7" ry="14.7"/>
<text text-anchor="middle" x="493.676" y="-12.6492" font-family="Times New Roman,serif" font-size="9.00">4</text>
</g>
<!-- &#45;1&#45;&gt;4 -->
<g id="edge5" class="edge"><title>&#45;1&#45;&gt;4</title>
<path fill="none" stroke="red" stroke-width="0.112246" d="M752.042,-71.2839C748.858,-69.1646 745.258,-67.0925 741.676,-65.6985 647.71,-29.1244 612.691,-63.4546 517.676,-29.6985 516.803,-29.3885 515.926,-29.0468 515.05,-28.6799"/>
<polygon fill="red" stroke="red" stroke-width="0.112246" points="516.467,-25.4743 505.964,-24.0831 513.307,-31.7205 516.467,-25.4743"/>
</g>
<!-- &#45;2 -->
<g id="node2" class="node"><title>&#45;2</title>
<polygon fill="lightgray" stroke="black" points="548.676,-89.5477 524.676,-89.5477 524.676,-71.5477 548.676,-71.5477 548.676,-89.5477"/>
<text text-anchor="middle" x="536.676" y="-78.3477" font-family="Times New Roman,serif" font-size="9.00">&#45;2</text>
</g>
<!-- &#45;2&#45;&gt;0 -->
<g id="edge6" class="edge"><title>&#45;2&#45;&gt;0</title>
<path fill="none" stroke="red" stroke-width="0.244884" d="M525.402,-71.509C522.065,-69.3932 518.325,-67.2667 514.676,-65.6985 455.254,-40.1606 433.578,-54.089 373.676,-29.6985 372.818,-29.3493 371.954,-28.9742 371.089,-28.5793"/>
<polygon fill="red" stroke="red" stroke-width="0.244884" points="372.535,-25.3861 362.052,-23.8515 369.29,-31.5885 372.535,-25.3861"/>
</g>
<!-- &#45;2&#45;&gt;1 -->
<g id="edge7" class="edge"><title>&#45;2&#45;&gt;1</title>
<path fill="none" stroke="green" stroke-width="0.298581" d="M537.309,-71.4803C537.931,-63.565 538.909,-51.0967 539.783,-39.9685"/>
<polygon fill="green" stroke="green" stroke-width="0.298581" points="543.28,-40.1453 540.573,-29.9021 536.301,-39.5975 543.28,-40.1453"/>
</g>
<!-- &#45;2&#45;&gt;2 -->
<g id="edge8" class="edge"><title>&#45;2&#45;&gt;2</title>
<path fill="none" stroke="green" stroke-width="0.129743" d="M524.815,-71.4982C521.597,-69.4766 518.064,-67.4005 514.676,-65.6985 475.072,-45.8003 461.656,-48.8314 421.676,-29.6985 420.841,-29.2987 419.995,-28.8808 419.146,-28.4496"/>
<polygon fill="green" stroke="green" stroke-width="0.129743" points="420.638,-25.2765 410.184,-23.5531 417.282,-31.4194 420.638,-25.2765"/>
</g>
<!-- &#45;2&#45;&gt;3 -->
<g id="edge9" class="edge"><title>&#45;2&#45;&gt;3</title>
<path fill="none" stroke="red" stroke-width="0.128133" d="M525.151,-71.4803C510.19,-61.0082 483.845,-42.5665 465.61,-29.8025"/>
<polygon fill="red" stroke="red" stroke-width="0.128133" points="467.595,-26.9196 457.395,-24.0524 463.58,-32.6543 467.595,-26.9196"/>
</g>
<!-- &#45;2&#45;&gt;4 -->
<g id="edge10" class="edge"><title>&#45;2&#45;&gt;4</title>
<path fill="none" stroke="red" stroke-width="0.130722" d="M531.23,-71.4803C525.251,-62.6234 515.424,-48.066 507.322,-36.064"/>
<polygon fill="red" stroke="red" stroke-width="0.130722" points="510.051,-33.851 501.555,-27.5209 504.249,-37.7675 510.051,-33.851"/>
</g>
<!-- &#45;3 -->
<g id="node3" class="node"><title>&#45;3</title>
<polygon fill="lightgray" stroke="black" points="854.676,-89.5477 830.676,-89.5477 830.676,-71.5477 854.676,-71.5477 854.676,-89.5477"/>
<text text-anchor="middle" x="842.676" y="-78.3477" font-family="Times New Roman,serif" font-size="9.00">&#45;3</text>
</g>
<!-- &#45;3&#45;&gt;0 -->
<g id="edge11" class="edge"><title>&#45;3&#45;&gt;0</title>
<path fill="none" stroke="red" stroke-width="0.292809" d="M830.573,-76.1706C818.717,-72.99 800.09,-68.3317 783.676,-65.6985 603.062,-36.7235 548.131,-84.7124 373.676,-29.6985 372.621,-29.3657 371.562,-28.981 370.507,-28.5562"/>
<polygon fill="red" stroke="red" stroke-width="0.292809" points="371.915,-25.3463 361.408,-23.9794 368.769,-31.5998 371.915,-25.3463"/>
</g>
<!-- &#45;3&#45;&gt;1 -->
<g id="edge12" class="edge"><title>&#45;3&#45;&gt;1</title>
<path fill="none" stroke="green" stroke-width="0.3" d="M830.6,-72.1129C826.33,-69.7584 821.41,-67.3433 816.676,-65.6985 727.619,-34.7578 615.328,-22.0678 566.376,-17.7484"/>
<polygon fill="green" stroke="green" stroke-width="0.3" points="566.652,-14.2593 556.394,-16.9077 566.065,-21.2346 566.652,-14.2593"/>
</g>
<!-- &#45;3&#45;&gt;2 -->
<g id="edge13" class="edge"><title>&#45;3&#45;&gt;2</title>
<path fill="none" stroke="red" stroke-width="0.134392" d="M830.567,-76.2122C818.706,-73.0625 800.075,-68.4264 783.676,-65.6985 624.185,-39.1672 575.59,-79.2133 421.676,-29.6985 420.623,-29.3596 419.565,-28.9699 418.512,-28.5411"/>
<polygon fill="red" stroke="red" stroke-width="0.134392" points="419.922,-25.3322 409.418,-23.9494 416.767,-31.5809 419.922,-25.3322"/>
</g>
<!-- &#45;3&#45;&gt;3 -->
<g id="edge14" class="edge"><title>&#45;3&#45;&gt;3</title>
<path fill="none" stroke="red" stroke-width="0.3" d="M830.667,-71.9062C826.403,-69.5351 821.47,-67.1624 816.676,-65.6985 668.387,-20.4107 617.175,-77.496 469.676,-29.6985 468.623,-29.3574 467.566,-28.9658 466.514,-28.5356"/>
<polygon fill="red" stroke="red" stroke-width="0.3" points="467.925,-25.327 457.421,-23.9384 464.766,-31.574 467.925,-25.327"/>
</g>
<!-- &#45;3&#45;&gt;4 -->
<g id="edge15" class="edge"><title>&#45;3&#45;&gt;4</title>
<path fill="none" stroke="green" stroke-width="0.3" d="M830.653,-71.9512C826.388,-69.5837 821.457,-67.2018 816.676,-65.6985 688.99,-25.5519 644.662,-72.006 517.676,-29.6985 516.797,-29.4058 515.915,-29.0788 515.035,-28.7243"/>
<polygon fill="green" stroke="green" stroke-width="0.3" points="516.44,-25.514 505.929,-24.1853 513.317,-31.7788 516.44,-25.514"/>
</g>
<!-- &#45;4 -->
<g id="node4" class="node"><title>&#45;4</title>
<polygon fill="lightgray" stroke="black" points="896.676,-89.5477 872.676,-89.5477 872.676,-71.5477 896.676,-71.5477 896.676,-89.5477"/>
<text text-anchor="middle" x="884.676" y="-78.3477" font-family="Times New Roman,serif" font-size="9.00">&#45;4</text>
</g>
<!-- &#45;4&#45;&gt;0 -->
<g id="edge16" class="edge"><title>&#45;4&#45;&gt;0</title>
<path fill="none" stroke="red" stroke-width="0.3" d="M874.546,-71.3733C871.261,-69.1464 867.48,-66.9935 863.676,-65.6985 656.965,4.68434 582.394,-93.8867 373.676,-29.6985 372.618,-29.3732 371.557,-28.9947 370.501,-28.5749"/>
<polygon fill="red" stroke="red" stroke-width="0.3" points="371.906,-25.3638 361.397,-24.0164 368.772,-31.6231 371.906,-25.3638"/>
</g>
<!-- &#45;4&#45;&gt;1 -->
<g id="edge17" class="edge"><title>&#45;4&#45;&gt;1</title>
<path fill="none" stroke="green" stroke-width="0.210934" d="M874.047,-71.2706C870.863,-69.1511 867.262,-67.0822 863.676,-65.6985 758.757,-25.2088 622.604,-17.5432 567.002,-16.139"/>
<polygon fill="green" stroke="green" stroke-width="0.210934" points="566.763,-12.6335 556.694,-15.9292 566.621,-19.632 566.763,-12.6335"/>
</g>
<!-- &#45;4&#45;&gt;2 -->
<g id="edge18" class="edge"><title>&#45;4&#45;&gt;2</title>
<path fill="none" stroke="green" stroke-width="0.294916" d="M874.54,-71.3918C871.255,-69.1657 867.474,-67.0086 863.676,-65.6985 677.353,-1.43193 609.832,-88.381 421.676,-29.6985 420.62,-29.3691 419.56,-28.987 418.505,-28.5645"/>
<polygon fill="green" stroke="green" stroke-width="0.294916" points="419.911,-25.3541 409.403,-23.9958 416.77,-31.6101 419.911,-25.3541"/>
</g>
<!-- &#45;4&#45;&gt;3 -->
<g id="edge19" class="edge"><title>&#45;4&#45;&gt;3</title>
<path fill="none" stroke="green" stroke-width="0.137115" d="M874.532,-71.4148C871.246,-69.1896 867.468,-67.0273 863.676,-65.6985 697.73,-7.54443 637.282,-82.8788 469.676,-29.6985 468.621,-29.3639 467.563,-28.9776 466.509,-28.5516"/>
<polygon fill="green" stroke="green" stroke-width="0.137115" points="467.917,-25.342 457.411,-23.9702 464.768,-31.594 467.917,-25.342"/>
</g>
<!-- &#45;4&#45;&gt;4 -->
<g id="edge20" class="edge"><title>&#45;4&#45;&gt;4</title>
<path fill="none" stroke="green" stroke-width="0.29813" stroke-dasharray="1,5" d="M874.521,-71.4441C871.236,-69.2201 867.459,-67.0511 863.676,-65.6985 718.092,-13.6515 664.747,-77.3815 517.676,-29.6985 516.624,-29.3572 515.566,-28.9655 514.514,-28.5352"/>
<polygon fill="green" stroke="green" stroke-width="0.29813" points="515.925,-25.3267 505.422,-23.9376 512.766,-31.5735 515.925,-25.3267"/>
</g>
<!-- &#45;5 -->
<g id="node5" class="node"><title>&#45;5</title>
<polygon fill="lightgray" stroke="black" points="49.6761,-89.5477 25.6761,-89.5477 25.6761,-71.5477 49.6761,-71.5477 49.6761,-89.5477"/>
<text text-anchor="middle" x="37.6761" y="-78.3477" font-family="Times New Roman,serif" font-size="9.00">&#45;5</text>
</g>
<!-- &#45;5&#45;&gt;0 -->
<g id="edge21" class="edge"><title>&#45;5&#45;&gt;0</title>
<path fill="none" stroke="green" stroke-width="0.17261" d="M48.3198,-71.3077C51.5034,-69.1888 55.1018,-67.1109 58.6761,-65.6985 152.161,-28.7559 273.188,-19.1599 324.698,-16.6919"/>
<polygon fill="green" stroke="green" stroke-width="0.17261" points="325.035,-20.1807 334.876,-16.2557 324.735,-13.1872 325.035,-20.1807"/>
</g>
<!-- &#45;5&#45;&gt;1 -->
<g id="edge22" class="edge"><title>&#45;5&#45;&gt;1</title>
<path fill="none" stroke="red" stroke-width="0.161886" d="M47.8101,-71.3848C51.0948,-69.1584 54.8758,-67.0029 58.6761,-65.6985 252.219,0.733883 322.239,-90.3306 517.676,-29.6985 518.733,-29.3706 519.793,-28.9899 520.849,-28.5685"/>
<polygon fill="red" stroke="red" stroke-width="0.161886" points="522.581,-31.615 529.951,-24.0036 519.443,-25.3577 522.581,-31.615"/>
</g>
<!-- &#45;5&#45;&gt;2 -->
<g id="edge23" class="edge"><title>&#45;5&#45;&gt;2</title>
<path fill="none" stroke="red" stroke-width="0.152135" d="M47.8393,-71.4677C51.1253,-69.2446 54.8996,-67.0702 58.6761,-65.6985 191.121,-17.5916 239.855,-73.835 373.676,-29.6985 374.556,-29.4084 375.438,-29.0837 376.319,-28.7311"/>
<polygon fill="red" stroke="red" stroke-width="0.152135" points="378.033,-31.7878 385.428,-24.201 374.916,-25.5201 378.033,-31.7878"/>
</g>
<!-- &#45;5&#45;&gt;3 -->
<g id="edge24" class="edge"><title>&#45;5&#45;&gt;3</title>
<path fill="none" stroke="red" stroke-width="0.179294" d="M47.8268,-71.4329C51.1123,-69.2084 54.8894,-67.0419 58.6761,-65.6985 211.469,-11.4894 267.334,-79.3278 421.676,-29.6985 422.729,-29.3598 423.787,-28.9702 424.84,-28.5415"/>
<polygon fill="red" stroke="red" stroke-width="0.179294" points="426.585,-31.5814 433.934,-23.9501 423.43,-25.3326 426.585,-31.5814"/>
</g>
<!-- &#45;5&#45;&gt;4 -->
<g id="edge25" class="edge"><title>&#45;5&#45;&gt;4</title>
<path fill="none" stroke="red" stroke-width="0.225024" d="M47.8174,-71.4061C51.1025,-69.1805 54.8818,-67.0202 58.6761,-65.6985 231.837,-5.3801 294.793,-84.827 469.676,-29.6985 470.731,-29.3658 471.791,-28.9812 472.845,-28.5565"/>
<polygon fill="red" stroke="red" stroke-width="0.225024" points="474.583,-31.6001 481.944,-23.9799 471.438,-25.3466 474.583,-31.6001"/>
</g>
<!-- &#45;6 -->
<g id="node6" class="node"><title>&#45;6</title>
<polygon fill="lightgray" stroke="black" points="732.676,-89.5477 708.676,-89.5477 708.676,-71.5477 732.676,-71.5477 732.676,-89.5477"/>
<text text-anchor="middle" x="720.676" y="-78.3477" font-family="Times New Roman,serif" font-size="9.00">&#45;6</text>
</g>
<!-- &#45;6&#45;&gt;0 -->
<g id="edge26" class="edge"><title>&#45;6&#45;&gt;0</title>
<path fill="none" stroke="red" stroke-width="0.16196" d="M710.516,-71.4588C707.23,-69.2354 703.455,-67.063 699.676,-65.6985 562.57,-16.194 512.197,-75.093 373.676,-29.6985 372.796,-29.4101 371.913,-29.0868 371.031,-28.7354"/>
<polygon fill="red" stroke="red" stroke-width="0.16196" points="372.434,-25.5239 361.92,-24.2109 369.32,-31.7934 372.434,-25.5239"/>
</g>
<!-- &#45;6&#45;&gt;1 -->
<g id="edge27" class="edge"><title>&#45;6&#45;&gt;1</title>
<path fill="none" stroke="red" stroke-width="0.111491" d="M709.461,-71.3287C706.388,-69.3085 702.988,-67.2754 699.676,-65.6985 654.607,-44.2427 598.035,-28.9688 566.267,-21.3552"/>
<polygon fill="red" stroke="red" stroke-width="0.111491" points="566.658,-17.8524 556.124,-18.9841 565.065,-24.6686 566.658,-17.8524"/>
</g>
<!-- &#45;6&#45;&gt;2 -->
<g id="edge28" class="edge"><title>&#45;6&#45;&gt;2</title>
<path fill="none" stroke="green" stroke-width="0.237186" d="M710.5,-71.5024C707.214,-69.2808 703.442,-67.0985 699.676,-65.6985 582.896,-22.2883 539.698,-69.6074 421.676,-29.6985 420.799,-29.4018 419.918,-29.0715 419.039,-28.7142"/>
<polygon fill="green" stroke="green" stroke-width="0.237186" points="420.446,-25.5049 409.937,-24.1621 417.315,-31.7656 420.446,-25.5049"/>
</g>
<!-- &#45;6&#45;&gt;3 -->
<g id="edge29" class="edge"><title>&#45;6&#45;&gt;3</title>
<path fill="none" stroke="green" stroke-width="0.137427" d="M710.045,-71.2744C706.862,-69.155 703.26,-67.0852 699.676,-65.6985 603.179,-28.3664 567.243,-64.1368 469.676,-29.6985 468.803,-29.3903 467.925,-29.0501 467.049,-28.6845"/>
<polygon fill="green" stroke="green" stroke-width="0.137427" points="468.464,-25.4784 457.96,-24.0936 465.308,-31.7265 468.464,-25.4784"/>
</g>
<!-- &#45;6&#45;&gt;4 -->
<g id="edge30" class="edge"><title>&#45;6&#45;&gt;4</title>
<path fill="none" stroke="red" stroke-width="0.291835" d="M710.009,-71.3667C706.825,-69.2487 703.232,-67.1566 699.676,-65.6985 623.385,-34.4146 594.866,-58.6938 517.676,-29.6985 516.809,-29.3728 515.937,-29.0179 515.065,-28.6398"/>
<polygon fill="red" stroke="red" stroke-width="0.291835" points="516.493,-25.4389 505.998,-23.9908 513.299,-31.6678 516.493,-25.4389"/>
</g>
<!-- &#45;7 -->
<g id="node7" class="node"><title>&#45;7</title>
<polygon fill="lightgray" stroke="black" points="91.6761,-89.5477 67.6761,-89.5477 67.6761,-71.5477 91.6761,-71.5477 91.6761,-89.5477"/>
<text text-anchor="middle" x="79.6761" y="-78.3477" font-family="Times New Roman,serif" font-size="9.00">&#45;7</text>
</g>
<!-- &#45;7&#45;&gt;0 -->
<g id="edge31" class="edge"><title>&#45;7&#45;&gt;0</title>
<path fill="none" stroke="green" stroke-width="0.298054" d="M90.3457,-71.372C93.5298,-69.2541 97.1219,-67.1607 100.676,-65.6985 178.456,-33.6994 278.587,-21.7093 324.565,-17.6767"/>
<polygon fill="green" stroke="green" stroke-width="0.298054" points="325.112,-21.1436 334.791,-16.8347 324.537,-14.1672 325.112,-21.1436"/>
</g>
<!-- &#45;7&#45;&gt;1 -->
<g id="edge32" class="edge"><title>&#45;7&#45;&gt;1</title>
<path fill="none" stroke="green" stroke-width="0.188097" d="M89.8164,-71.4032C93.1014,-69.1775 96.8809,-67.0178 100.676,-65.6985 276.384,-4.61608 340.225,-85.5148 517.676,-29.6985 518.732,-29.3665 519.791,-28.9824 520.845,-28.5582"/>
<polygon fill="green" stroke="green" stroke-width="0.188097" points="522.583,-31.6022 529.945,-23.9832 519.438,-25.3481 522.583,-31.6022"/>
</g>
<!-- &#45;7&#45;&gt;2 -->
<g id="edge33" class="edge"><title>&#45;7&#45;&gt;2</title>
<path fill="none" stroke="green" stroke-width="0.134465" d="M89.8541,-71.5079C93.1407,-69.2865 96.9116,-67.1028 100.676,-65.6985 215.341,-22.9223 257.787,-69.0368 373.676,-29.6985 374.553,-29.4008 375.434,-29.0696 376.313,-28.7116"/>
<polygon fill="green" stroke="green" stroke-width="0.134465" points="378.038,-31.7621 385.413,-24.156 374.904,-25.5026 378.038,-31.7621"/>
</g>
<!-- &#45;7&#45;&gt;3 -->
<g id="edge34" class="edge"><title>&#45;7&#45;&gt;3</title>
<path fill="none" stroke="red" stroke-width="0.3" d="M89.8375,-71.4627C93.1234,-69.2395 96.8981,-67.0662 100.676,-65.6985 235.663,-16.8293 285.292,-74.5211 421.676,-29.6985 422.556,-29.4094 423.439,-29.0854 424.32,-28.7335"/>
<polygon fill="red" stroke="red" stroke-width="0.3" points="426.032,-31.7909 433.43,-24.2064 422.917,-25.5222 426.032,-31.7909"/>
</g>
<!-- &#45;7&#45;&gt;4 -->
<g id="edge35" class="edge"><title>&#45;7&#45;&gt;4</title>
<path fill="none" stroke="red" stroke-width="0.112538" d="M89.8255,-71.4291C93.1109,-69.2045 96.8883,-67.0389 100.676,-65.6985 256.014,-10.726 312.768,-80.0149 469.676,-29.6985 470.73,-29.3606 471.788,-28.9717 472.841,-28.5436"/>
<polygon fill="red" stroke="red" stroke-width="0.112538" points="474.585,-31.584 481.936,-23.9543 471.431,-25.3345 474.585,-31.584"/>
</g>
<!-- &#45;8 -->
<g id="node8" class="node"><title>&#45;8</title>
<polygon fill="lightgray" stroke="black" points="133.676,-89.5477 109.676,-89.5477 109.676,-71.5477 133.676,-71.5477 133.676,-89.5477"/>
<text text-anchor="middle" x="121.676" y="-78.3477" font-family="Times New Roman,serif" font-size="9.00">&#45;8</text>
</g>
<!-- &#45;8&#45;&gt;0 -->
<g id="edge36" class="edge"><title>&#45;8&#45;&gt;0</title>
<path fill="none" stroke="red" stroke-width="0.181784" d="M132.383,-71.4606C135.568,-69.3441 139.151,-67.2292 142.676,-65.6985 205.281,-38.5134 285.26,-24.6111 324.984,-18.9729"/>
<polygon fill="red" stroke="red" stroke-width="0.181784" points="325.637,-22.4163 335.073,-17.5976 324.692,-15.4805 325.637,-22.4163"/>
</g>
<!-- &#45;8&#45;&gt;1 -->
<g id="edge37" class="edge"><title>&#45;8&#45;&gt;1</title>
<path fill="none" stroke="red" stroke-width="0.200458" d="M131.824,-71.4255C135.11,-69.2008 138.887,-67.036 142.676,-65.6985 300.56,-9.96259 358.201,-80.7021 517.676,-29.6985 518.73,-29.3614 519.788,-28.9732 520.841,-28.5456"/>
<polygon fill="red" stroke="red" stroke-width="0.200458" points="522.584,-31.5865 529.937,-23.9583 519.432,-25.3364 522.584,-31.5865"/>
</g>
<!-- &#45;8&#45;&gt;2 -->
<g id="edge38" class="edge"><title>&#45;8&#45;&gt;2</title>
<path fill="none" stroke="red" stroke-width="0.298652" d="M132.306,-71.2729C135.49,-69.1534 139.091,-67.084 142.676,-65.6985 239.595,-28.24 275.683,-64.2506 373.676,-29.6985 374.549,-29.3905 375.427,-29.0506 376.304,-28.6852"/>
<polygon fill="red" stroke="red" stroke-width="0.298652" points="378.044,-31.7275 385.392,-24.0953 374.888,-25.479 378.044,-31.7275"/>
</g>
<!-- &#45;8&#45;&gt;3 -->
<g id="edge39" class="edge"><title>&#45;8&#45;&gt;3</title>
<path fill="none" stroke="red" stroke-width="0.150268" d="M131.852,-71.5014C135.138,-69.2797 138.91,-67.0976 142.676,-65.6985 259.879,-22.1615 303.227,-69.7216 421.676,-29.6985 422.553,-29.402 423.434,-29.0719 424.314,-28.7147"/>
<polygon fill="red" stroke="red" stroke-width="0.150268" points="426.037,-31.7662 433.416,-24.1633 422.906,-25.5054 426.037,-31.7662"/>
</g>
<!-- &#45;8&#45;&gt;4 -->
<g id="edge40" class="edge"><title>&#45;8&#45;&gt;4</title>
<path fill="none" stroke="green" stroke-width="0.29619" d="M131.836,-71.458C135.122,-69.2346 138.897,-67.0624 142.676,-65.6985 280.206,-16.0669 330.727,-75.2074 469.676,-29.6985 470.556,-29.4102 471.44,-29.0871 472.321,-28.7358"/>
<polygon fill="green" stroke="green" stroke-width="0.29619" points="474.032,-31.7939 481.432,-24.2117 470.919,-25.5243 474.032,-31.7939"/>
</g>
<!-- &#45;9 -->
<g id="node9" class="node"><title>&#45;9</title>
<polygon fill="lightgray" stroke="black" points="223.676,-89.5477 199.676,-89.5477 199.676,-71.5477 223.676,-71.5477 223.676,-89.5477"/>
<text text-anchor="middle" x="211.676" y="-78.3477" font-family="Times New Roman,serif" font-size="9.00">&#45;9</text>
</g>
<!-- &#45;9&#45;&gt;0 -->
<g id="edge41" class="edge"><title>&#45;9&#45;&gt;0</title>
<path fill="none" stroke="red" stroke-width="0.167943" d="M223,-71.544C226.072,-69.5221 229.444,-67.4343 232.676,-65.6985 264.022,-48.8622 302.267,-33.469 326.304,-24.3738"/>
<polygon fill="red" stroke="red" stroke-width="0.167943" points="327.828,-27.5409 335.973,-20.7655 325.38,-20.9827 327.828,-27.5409"/>
</g>
<!-- &#45;9&#45;&gt;1 -->
<g id="edge42" class="edge"><title>&#45;9&#45;&gt;1</title>
<path fill="none" stroke="green" stroke-width="0.22653" d="M221.849,-71.4952C225.136,-69.2733 228.908,-67.0926 232.676,-65.6985 352.418,-21.4003 396.667,-70.4067 517.676,-29.6985 518.554,-29.4032 519.435,-29.074 520.315,-28.7177"/>
<polygon fill="green" stroke="green" stroke-width="0.22653" points="522.036,-31.7702 529.418,-24.1702 518.908,-25.5081 522.036,-31.7702"/>
</g>
<!-- &#45;9&#45;&gt;2 -->
<g id="edge43" class="edge"><title>&#45;9&#45;&gt;2</title>
<path fill="none" stroke="green" stroke-width="0.3" d="M222.397,-71.4917C225.582,-69.3757 229.161,-67.2533 232.676,-65.6985 291.824,-39.5328 313.774,-54.089 373.676,-29.6985 374.534,-29.3493 375.398,-28.9742 376.263,-28.5793"/>
<polygon fill="green" stroke="green" stroke-width="0.3" points="378.062,-31.5885 385.3,-23.8515 374.817,-25.3861 378.062,-31.5885"/>
</g>
<!-- &#45;9&#45;&gt;3 -->
<g id="edge44" class="edge"><title>&#45;9&#45;&gt;3</title>
<path fill="none" stroke="red" stroke-width="0.3" stroke-dasharray="1,5" d="M222.337,-71.3505C225.521,-69.2323 229.115,-67.144 232.676,-65.6985 311.907,-33.5353 341.521,-59.485 421.676,-29.6985 422.544,-29.3759 423.417,-29.0235 424.29,-28.6477"/>
<polygon fill="red" stroke="red" stroke-width="0.3" points="426.051,-31.6781 433.361,-24.0089 422.864,-25.4458 426.051,-31.6781"/>
</g>
<!-- &#45;9&#45;&gt;4 -->
<g id="edge45" class="edge"><title>&#45;9&#45;&gt;4</title>
<path fill="none" stroke="red" stroke-width="0.13704" d="M222.303,-71.264C225.486,-69.1444 229.089,-67.0771 232.676,-65.6985 332.127,-27.4814 369.129,-64.9333 469.676,-29.6985 470.55,-29.3922 471.428,-29.0537 472.305,-28.6895"/>
<polygon fill="red" stroke="red" stroke-width="0.13704" points="474.043,-31.7331 481.396,-24.1053 470.891,-25.4829 474.043,-31.7331"/>
</g>
<!-- &#45;10 -->
<g id="node10" class="node"><title>&#45;10</title>
<polygon fill="lightgray" stroke="black" points="271.176,-89.5477 242.176,-89.5477 242.176,-71.5477 271.176,-71.5477 271.176,-89.5477"/>
<text text-anchor="middle" x="256.676" y="-78.3477" font-family="Times New Roman,serif" font-size="9.00">&#45;10</text>
</g>
<!-- &#45;10&#45;&gt;0 -->
<g id="edge46" class="edge"><title>&#45;10&#45;&gt;0</title>
<path fill="none" stroke="red" stroke-width="0.15689" d="M268.455,-71.4803C283.744,-61.0082 310.669,-42.5665 329.304,-29.8025"/>
<polygon fill="red" stroke="red" stroke-width="0.15689" points="331.427,-32.5909 337.699,-24.0524 327.471,-26.8157 331.427,-32.5909"/>
</g>
<!-- &#45;10&#45;&gt;1 -->
<g id="edge47" class="edge"><title>&#45;10&#45;&gt;1</title>
<path fill="none" stroke="green" stroke-width="0.248961" d="M268.406,-71.2804C271.894,-69.161 275.817,-67.0898 279.676,-65.6985 380.315,-29.4114 416.704,-65.0472 517.676,-29.6985 518.55,-29.3925 519.428,-29.0542 520.305,-28.6902"/>
<polygon fill="green" stroke="green" stroke-width="0.248961" points="522.043,-31.7341 529.396,-24.1069 518.891,-25.4835 522.043,-31.7341"/>
</g>
<!-- &#45;10&#45;&gt;2 -->
<g id="edge48" class="edge"><title>&#45;10&#45;&gt;2</title>
<path fill="none" stroke="red" stroke-width="0.296411" d="M269.107,-71.518C272.471,-69.4963 276.157,-67.4151 279.676,-65.6985 319.884,-46.0838 333.288,-48.9381 373.676,-29.6985 374.512,-29.3002 375.358,-28.8836 376.208,-28.4535"/>
<polygon fill="red" stroke="red" stroke-width="0.296411" points="378.07,-31.4244 385.172,-23.5619 374.717,-25.2797 378.07,-31.4244"/>
</g>
<!-- &#45;10&#45;&gt;3 -->
<g id="edge49" class="edge"><title>&#45;10&#45;&gt;3</title>
<path fill="none" stroke="red" stroke-width="0.287074" d="M268.5,-71.5228C271.99,-69.4073 275.89,-67.2774 279.676,-65.6985 339.767,-40.636 361.355,-54.2005 421.676,-29.6985 422.534,-29.35 423.399,-28.9756 424.264,-28.5812"/>
<polygon fill="red" stroke="red" stroke-width="0.287074" points="426.062,-31.591 433.302,-23.8558 422.818,-25.3877 426.062,-31.591"/>
</g>
<!-- &#45;10&#45;&gt;4 -->
<g id="edge50" class="edge"><title>&#45;10&#45;&gt;4</title>
<path fill="none" stroke="red" stroke-width="0.297267" d="M268.44,-71.3726C271.929,-69.2547 275.844,-67.1612 279.676,-65.6985 359.973,-35.0501 389.098,-59.5981 469.676,-29.6985 470.544,-29.3763 471.418,-29.0243 472.29,-28.6487"/>
<polygon fill="red" stroke="red" stroke-width="0.297267" points="474.051,-31.6796 481.362,-24.0114 470.865,-25.4467 474.051,-31.6796"/>
</g>
<!-- &#45;11 -->
<g id="node11" class="node"><title>&#45;11</title>
<polygon fill="lightgray" stroke="black" points="318.176,-89.5477 289.176,-89.5477 289.176,-71.5477 318.176,-71.5477 318.176,-89.5477"/>
<text text-anchor="middle" x="303.676" y="-78.3477" font-family="Times New Roman,serif" font-size="9.00">&#45;11</text>
</g>
<!-- &#45;11&#45;&gt;0 -->
<g id="edge51" class="edge"><title>&#45;11&#45;&gt;0</title>
<path fill="none" stroke="red" stroke-width="0.3" d="M309.502,-71.4803C315.961,-62.5366 326.617,-47.78 335.332,-35.7118"/>
<polygon fill="red" stroke="red" stroke-width="0.3" points="338.23,-37.6771 341.247,-27.5209 332.555,-33.5789 338.23,-37.6771"/>
</g>
<!-- &#45;11&#45;&gt;1 -->
<g id="edge52" class="edge"><title>&#45;11&#45;&gt;1</title>
<path fill="none" stroke="green" stroke-width="0.225212" d="M315.439,-71.3702C318.928,-69.2523 322.843,-67.1593 326.676,-65.6985 407.395,-34.933 436.674,-59.7113 517.676,-29.6985 518.544,-29.3767 519.418,-29.0251 520.291,-28.6498"/>
<polygon fill="green" stroke="green" stroke-width="0.225212" points="522.051,-31.681 529.363,-24.0138 518.866,-25.4477 522.051,-31.681"/>
</g>
<!-- &#45;11&#45;&gt;2 -->
<g id="edge53" class="edge"><title>&#45;11&#45;&gt;2</title>
<path fill="none" stroke="red" stroke-width="0.3" d="M315.581,-71.4803C331.035,-61.0082 358.249,-42.5665 377.085,-29.8025"/>
<polygon fill="red" stroke="red" stroke-width="0.3" points="379.256,-32.5596 385.571,-24.0524 375.329,-26.7648 379.256,-32.5596"/>
</g>
<!-- &#45;11&#45;&gt;3 -->
<g id="edge54" class="edge"><title>&#45;11&#45;&gt;3</title>
<path fill="none" stroke="green" stroke-width="0.297565" d="M316.103,-71.5096C319.467,-69.488 323.154,-67.4089 326.676,-65.6985 367.292,-45.9731 380.879,-49.0449 421.676,-29.6985 422.513,-29.3017 423.359,-28.8863 424.21,-28.4573"/>
<polygon fill="green" stroke="green" stroke-width="0.297565" points="426.07,-31.4293 433.176,-23.5706 422.721,-25.2828 426.07,-31.4293"/>
</g>
<!-- &#45;11&#45;&gt;4 -->
<g id="edge55" class="edge"><title>&#45;11&#45;&gt;4</title>
<path fill="none" stroke="green" stroke-width="0.3" d="M315.498,-71.5187C318.988,-69.4032 322.889,-67.2742 326.676,-65.6985 387.185,-40.5206 408.935,-54.3121 469.676,-29.6985 470.534,-29.3507 471.399,-28.9769 472.265,-28.583"/>
<polygon fill="green" stroke="green" stroke-width="0.3" points="474.061,-31.5934 481.303,-23.86 470.819,-25.3893 474.061,-31.5934"/>
</g>
<!-- &#45;12 -->
<g id="node12" class="node"><title>&#45;12</title>
<polygon fill="lightgray" stroke="black" points="365.176,-89.5477 336.176,-89.5477 336.176,-71.5477 365.176,-71.5477 365.176,-89.5477"/>
<text text-anchor="middle" x="350.676" y="-78.3477" font-family="Times New Roman,serif" font-size="9.00">&#45;12</text>
</g>
<!-- &#45;12&#45;&gt;0 -->
<g id="edge56" class="edge"><title>&#45;12&#45;&gt;0</title>
<path fill="none" stroke="red" stroke-width="0.240562" d="M350.549,-71.4803C350.425,-63.565 350.229,-51.0967 350.055,-39.9685"/>
<polygon fill="red" stroke="red" stroke-width="0.240562" points="353.553,-39.8459 349.897,-29.9021 346.554,-39.9558 353.553,-39.8459"/>
</g>
<!-- &#45;12&#45;&gt;1 -->
<g id="edge57" class="edge"><title>&#45;12&#45;&gt;1</title>
<path fill="none" stroke="green" stroke-width="0.102372" d="M362.497,-71.5147C365.986,-69.3991 369.888,-67.2711 373.676,-65.6985 434.604,-40.4051 456.515,-54.4237 517.676,-29.6985 518.535,-29.3514 519.4,-28.9782 520.266,-28.5848"/>
<polygon fill="green" stroke="green" stroke-width="0.102372" points="522.061,-31.5957 529.305,-23.8642 518.821,-25.3909 522.061,-31.5957"/>
</g>
<!-- &#45;12&#45;&gt;2 -->
<g id="edge58" class="edge"><title>&#45;12&#45;&gt;2</title>
<path fill="none" stroke="green" stroke-width="0.299837" d="M356.629,-71.4803C363.228,-62.5366 374.116,-47.78 383.02,-35.7118"/>
<polygon fill="green" stroke="green" stroke-width="0.299837" points="385.943,-37.6457 389.064,-27.5209 380.31,-33.4896 385.943,-37.6457"/>
</g>
<!-- &#45;12&#45;&gt;3 -->
<g id="edge59" class="edge"><title>&#45;12&#45;&gt;3</title>
<path fill="none" stroke="red" stroke-width="0.151781" d="M362.708,-71.4803C378.412,-60.9506 406.132,-42.3636 425.179,-29.5926"/>
<polygon fill="red" stroke="red" stroke-width="0.151781" points="427.385,-32.3273 433.742,-23.8512 423.487,-26.5133 427.385,-32.3273"/>
</g>
<!-- &#45;12&#45;&gt;4 -->
<g id="edge60" class="edge"><title>&#45;12&#45;&gt;4</title>
<path fill="none" stroke="red" stroke-width="0.225003" d="M363.099,-71.5014C366.463,-69.4798 370.151,-67.4028 373.676,-65.6985 414.7,-45.8623 428.469,-49.1519 469.676,-29.6985 470.513,-29.3031 471.361,-28.889 472.211,-28.461"/>
<polygon fill="red" stroke="red" stroke-width="0.225003" points="474.07,-31.4341 481.18,-23.5792 470.724,-25.2859 474.07,-31.4341"/>
</g>
<!-- &#45;13 -->
<g id="node13" class="node"><title>&#45;13</title>
<polygon fill="lightgray" stroke="black" points="412.176,-89.5477 383.176,-89.5477 383.176,-71.5477 412.176,-71.5477 412.176,-89.5477"/>
<text text-anchor="middle" x="397.676" y="-78.3477" font-family="Times New Roman,serif" font-size="9.00">&#45;13</text>
</g>
<!-- &#45;13&#45;&gt;0 -->
<g id="edge61" class="edge"><title>&#45;13&#45;&gt;0</title>
<path fill="none" stroke="red" stroke-width="0.123136" d="M391.597,-71.4803C384.776,-62.4288 373.469,-47.4236 364.316,-35.2768"/>
<polygon fill="red" stroke="red" stroke-width="0.123136" points="366.94,-32.9432 358.126,-27.0632 361.349,-37.156 366.94,-32.9432"/>
</g>
<!-- &#45;13&#45;&gt;1 -->
<g id="edge62" class="edge"><title>&#45;13&#45;&gt;1</title>
<path fill="none" stroke="green" stroke-width="0.148783" d="M410.095,-71.4933C413.459,-69.4718 417.148,-67.3969 420.676,-65.6985 462.109,-45.7513 476.059,-49.2591 517.676,-29.6985 518.514,-29.3046 519.362,-28.8916 520.213,-28.4646"/>
<polygon fill="green" stroke="green" stroke-width="0.148783" points="522.07,-31.4389 529.184,-23.5875 518.727,-25.2889 522.07,-31.4389"/>
</g>
<!-- &#45;13&#45;&gt;2 -->
<g id="edge63" class="edge"><title>&#45;13&#45;&gt;2</title>
<path fill="none" stroke="red" stroke-width="0.298832" d="M397.676,-71.4803C397.676,-63.565 397.676,-51.0967 397.676,-39.9685"/>
<polygon fill="red" stroke="red" stroke-width="0.298832" points="401.176,-39.902 397.676,-29.9021 394.176,-39.9021 401.176,-39.902"/>
</g>
<!-- &#45;13&#45;&gt;3 -->
<g id="edge64" class="edge"><title>&#45;13&#45;&gt;3</title>
<path fill="none" stroke="green" stroke-width="0.29507" d="M403.755,-71.4803C410.576,-62.4288 421.883,-47.4236 431.036,-35.2768"/>
<polygon fill="green" stroke="green" stroke-width="0.29507" points="434.003,-37.156 437.226,-27.0632 428.412,-32.9432 434.003,-37.156"/>
</g>
<!-- &#45;13&#45;&gt;4 -->
<g id="edge65" class="edge"><title>&#45;13&#45;&gt;4</title>
<path fill="none" stroke="red" stroke-width="0.124336" d="M409.835,-71.4803C425.776,-60.9028 453.971,-42.1945 473.225,-29.4188"/>
<polygon fill="red" stroke="red" stroke-width="0.124336" points="475.219,-32.2965 481.616,-23.8512 471.349,-26.4637 475.219,-32.2965"/>
</g>
<!-- &#45;14 -->
<g id="node14" class="node"><title>&#45;14</title>
<polygon fill="lightgray" stroke="black" points="181.176,-89.5477 152.176,-89.5477 152.176,-71.5477 181.176,-71.5477 181.176,-89.5477"/>
<text text-anchor="middle" x="166.676" y="-78.3477" font-family="Times New Roman,serif" font-size="9.00">&#45;14</text>
</g>
<!-- &#45;14&#45;&gt;0 -->
<g id="edge66" class="edge"><title>&#45;14&#45;&gt;0</title>
<path fill="none" stroke="green" stroke-width="0.3" d="M179.609,-71.3926C183.12,-69.3719 186.976,-67.3225 190.676,-65.6985 236.847,-45.4336 293.852,-29.6556 325.536,-21.6485"/>
<polygon fill="green" stroke="green" stroke-width="0.3" points="326.395,-25.0414 335.258,-19.2357 324.709,-18.2475 326.395,-25.0414"/>
</g>
<!-- &#45;14&#45;&gt;1 -->
<g id="edge67" class="edge"><title>&#45;14&#45;&gt;1</title>
<path fill="none" stroke="green" stroke-width="0.155813" d="M178.427,-71.4748C182.188,-69.2521 186.47,-67.076 190.676,-65.6985 329.625,-20.1896 378.727,-75.2074 517.676,-29.6985 518.556,-29.4102 519.44,-29.0871 520.321,-28.7358"/>
<polygon fill="green" stroke="green" stroke-width="0.155813" points="522.032,-31.7939 529.432,-24.2117 518.919,-25.5243 522.032,-31.7939"/>
</g>
<!-- &#45;14&#45;&gt;2 -->
<g id="edge68" class="edge"><title>&#45;14&#45;&gt;2</title>
<path fill="none" stroke="green" stroke-width="0.297209" d="M178.997,-71.4035C182.638,-69.2861 186.712,-67.1851 190.676,-65.6985 268.289,-36.5902 296.063,-58.8068 373.676,-29.6985 374.543,-29.3733 375.416,-29.0187 376.287,-28.641"/>
<polygon fill="green" stroke="green" stroke-width="0.297209" points="378.052,-31.6694 385.355,-23.9935 374.86,-25.4399 378.052,-31.6694"/>
</g>
<!-- &#45;14&#45;&gt;3 -->
<g id="edge69" class="edge"><title>&#45;14&#45;&gt;3</title>
<path fill="none" stroke="green" stroke-width="0.214259" stroke-dasharray="1,5" d="M178.96,-71.3016C182.6,-69.1826 186.684,-67.1062 190.676,-65.6985 288.669,-31.1464 323.683,-64.2506 421.676,-29.6985 422.549,-29.3905 423.427,-29.0506 424.304,-28.6852"/>
<polygon fill="green" stroke="green" stroke-width="0.214259" points="426.044,-31.7275 433.392,-24.0953 422.888,-25.479 426.044,-31.7275"/>
</g>
<!-- &#45;14&#45;&gt;4 -->
<g id="edge70" class="edge"><title>&#45;14&#45;&gt;4</title>
<path fill="none" stroke="green" stroke-width="0.169634" d="M178.443,-71.5231C182.204,-69.3023 186.483,-67.1152 190.676,-65.6985 309.125,-25.6754 351.227,-69.7216 469.676,-29.6985 470.553,-29.402 471.434,-29.0719 472.314,-28.7147"/>
<polygon fill="green" stroke="green" stroke-width="0.169634" points="474.037,-31.7662 481.416,-24.1633 470.906,-25.5054 474.037,-31.7662"/>
</g>
<!-- &#45;15 -->
<g id="node15" class="node"><title>&#45;15</title>
<polygon fill="lightgray" stroke="black" points="459.176,-89.5477 430.176,-89.5477 430.176,-71.5477 459.176,-71.5477 459.176,-89.5477"/>
<text text-anchor="middle" x="444.676" y="-78.3477" font-family="Times New Roman,serif" font-size="9.00">&#45;15</text>
</g>
<!-- &#45;15&#45;&gt;0 -->
<g id="edge71" class="edge"><title>&#45;15&#45;&gt;0</title>
<path fill="none" stroke="green" stroke-width="0.259336" d="M432.644,-71.4803C416.94,-60.9506 389.22,-42.3636 370.173,-29.5926"/>
<polygon fill="green" stroke="green" stroke-width="0.259336" points="371.865,-26.5133 361.61,-23.8512 367.967,-32.3273 371.865,-26.5133"/>
</g>
<!-- &#45;15&#45;&gt;1 -->
<g id="edge72" class="edge"><title>&#45;15&#45;&gt;1</title>
<path fill="none" stroke="green" stroke-width="0.3" d="M456.961,-71.4803C473.069,-60.9028 501.558,-42.1945 521.012,-29.4188"/>
<polygon fill="green" stroke="green" stroke-width="0.3" points="523.053,-32.2659 529.491,-23.8512 519.211,-26.4148 523.053,-32.2659"/>
</g>
<!-- &#45;15&#45;&gt;2 -->
<g id="edge73" class="edge"><title>&#45;15&#45;&gt;2</title>
<path fill="none" stroke="red" stroke-width="0.151378" d="M438.723,-71.4803C432.124,-62.5366 421.236,-47.78 412.332,-35.7118"/>
<polygon fill="red" stroke="red" stroke-width="0.151378" points="415.042,-33.4896 406.288,-27.5209 409.409,-37.6457 415.042,-33.4896"/>
</g>
<!-- &#45;15&#45;&gt;3 -->
<g id="edge74" class="edge"><title>&#45;15&#45;&gt;3</title>
<path fill="none" stroke="red" stroke-width="0.17979" d="M444.803,-71.4803C444.927,-63.565 445.123,-51.0967 445.297,-39.9685"/>
<polygon fill="red" stroke="red" stroke-width="0.17979" points="448.798,-39.9558 445.455,-29.9021 441.799,-39.8459 448.798,-39.9558"/>
</g>
<!-- &#45;15&#45;&gt;4 -->
<g id="edge75" class="edge"><title>&#45;15&#45;&gt;4</title>
<path fill="none" stroke="green" stroke-width="0.296929" d="M450.882,-71.4803C457.845,-62.4288 469.388,-47.4236 478.731,-35.2768"/>
<polygon fill="green" stroke="green" stroke-width="0.296929" points="481.727,-37.1234 485.05,-27.0632 476.178,-32.8554 481.727,-37.1234"/>
</g>
<!-- &#45;16 -->
<g id="node16" class="node"><title>&#45;16</title>
<polygon fill="lightgray" stroke="black" points="506.176,-89.5477 477.176,-89.5477 477.176,-71.5477 506.176,-71.5477 506.176,-89.5477"/>
<text text-anchor="middle" x="491.676" y="-78.3477" font-family="Times New Roman,serif" font-size="9.00">&#45;16</text>
</g>
<!-- &#45;16&#45;&gt;0 -->
<g id="edge76" class="edge"><title>&#45;16&#45;&gt;0</title>
<path fill="none" stroke="red" stroke-width="0.3" d="M478.673,-71.5467C475.162,-69.5248 471.324,-67.4363 467.676,-65.6985 427.288,-46.4589 414.064,-48.9381 373.676,-29.6985 372.84,-29.3002 371.994,-28.8836 371.144,-28.4535"/>
<polygon fill="red" stroke="red" stroke-width="0.3" points="372.635,-25.2797 362.18,-23.5619 369.282,-31.4244 372.635,-25.2797"/>
</g>
<!-- &#45;16&#45;&gt;1 -->
<g id="edge77" class="edge"><title>&#45;16&#45;&gt;1</title>
<path fill="none" stroke="green" stroke-width="0.296895" d="M498.009,-71.4803C505.113,-62.4288 516.892,-47.4236 526.426,-35.2768"/>
<polygon fill="green" stroke="green" stroke-width="0.296895" points="529.452,-37.0904 532.874,-27.0632 523.946,-32.7683 529.452,-37.0904"/>
</g>
<!-- &#45;16&#45;&gt;2 -->
<g id="edge78" class="edge"><title>&#45;16&#45;&gt;2</title>
<path fill="none" stroke="red" stroke-width="0.168735" d="M479.771,-71.4803C464.317,-61.0082 437.103,-42.5665 418.267,-29.8025"/>
<polygon fill="red" stroke="red" stroke-width="0.168735" points="420.023,-26.7648 409.781,-24.0524 416.096,-32.5596 420.023,-26.7648"/>
</g>
<!-- &#45;16&#45;&gt;3 -->
<g id="edge79" class="edge"><title>&#45;16&#45;&gt;3</title>
<path fill="none" stroke="red" stroke-width="0.114765" d="M485.85,-71.4803C479.391,-62.5366 468.735,-47.78 460.02,-35.7118"/>
<polygon fill="red" stroke="red" stroke-width="0.114765" points="462.797,-33.5789 454.105,-27.5209 457.122,-37.6771 462.797,-33.5789"/>
</g>
<!-- &#45;16&#45;&gt;4 -->
<g id="edge80" class="edge"><title>&#45;16&#45;&gt;4</title>
<path fill="none" stroke="red" stroke-width="0.272773" d="M491.929,-71.4803C492.178,-63.565 492.569,-51.0967 492.919,-39.9685"/>
<polygon fill="red" stroke="red" stroke-width="0.272773" points="496.419,-40.007 493.235,-29.9021 489.423,-39.7873 496.419,-40.007"/>
</g>
<!-- &#45;17 -->
<g id="node17" class="node"><title>&#45;17</title>
<polygon fill="lightgray" stroke="black" points="596.176,-89.5477 567.176,-89.5477 567.176,-71.5477 596.176,-71.5477 596.176,-89.5477"/>
<text text-anchor="middle" x="581.676" y="-78.3477" font-family="Times New Roman,serif" font-size="9.00">&#45;17</text>
</g>
<!-- &#45;17&#45;&gt;0 -->
<g id="edge81" class="edge"><title>&#45;17&#45;&gt;0</title>
<path fill="none" stroke="red" stroke-width="0.3" d="M569.356,-71.4009C565.715,-69.2834 561.641,-67.183 557.676,-65.6985 479.639,-36.4772 451.713,-58.9197 373.676,-29.6985 372.809,-29.3737 371.936,-29.0195 371.064,-28.6421"/>
<polygon fill="red" stroke="red" stroke-width="0.3" points="372.492,-25.4409 361.996,-23.9961 369.3,-31.6709 372.492,-25.4409"/>
</g>
<!-- &#45;17&#45;&gt;1 -->
<g id="edge82" class="edge"><title>&#45;17&#45;&gt;1</title>
<path fill="none" stroke="red" stroke-width="0.3" d="M576.61,-71.4803C571.115,-62.7301 562.127,-48.416 554.643,-36.4989"/>
<polygon fill="red" stroke="red" stroke-width="0.3" points="557.579,-34.5925 549.297,-27.9851 551.651,-38.3151 557.579,-34.5925"/>
</g>
<!-- &#45;17&#45;&gt;2 -->
<g id="edge83" class="edge"><title>&#45;17&#45;&gt;2</title>
<path fill="none" stroke="red" stroke-width="0.133133" d="M568.792,-71.2792C565.28,-69.2594 561.412,-67.2388 557.676,-65.6985 499.871,-41.8647 479.482,-53.5323 421.676,-29.6985 420.82,-29.3455 419.957,-28.9673 419.093,-28.5696"/>
<polygon fill="red" stroke="red" stroke-width="0.133133" points="420.543,-25.3778 410.061,-23.8293 417.289,-31.5759 420.543,-25.3778"/>
</g>
<!-- &#45;17&#45;&gt;3 -->
<g id="edge84" class="edge"><title>&#45;17&#45;&gt;3</title>
<path fill="none" stroke="green" stroke-width="0.299456" d="M568.142,-71.3129C564.771,-69.3805 561.132,-67.3927 557.676,-65.6985 519.734,-47.0959 507.618,-48.3011 469.676,-29.6985 468.845,-29.2908 468.002,-28.8662 467.156,-28.4293"/>
<polygon fill="green" stroke="green" stroke-width="0.299456" points="468.656,-25.2598 458.207,-23.5063 465.282,-31.393 468.656,-25.2598"/>
</g>
<!-- &#45;17&#45;&gt;4 -->
<g id="edge85" class="edge"><title>&#45;17&#45;&gt;4</title>
<path fill="none" stroke="green" stroke-width="0.3" d="M570.531,-71.4803C556.274,-61.1604 531.325,-43.101 513.726,-30.3626"/>
<polygon fill="green" stroke="green" stroke-width="0.3" points="515.442,-27.2839 505.289,-24.2555 511.338,-32.9543 515.442,-27.2839"/>
</g>
<!-- &#45;18 -->
<g id="node18" class="node"><title>&#45;18</title>
<polygon fill="lightgray" stroke="black" points="643.176,-89.5477 614.176,-89.5477 614.176,-71.5477 643.176,-71.5477 643.176,-89.5477"/>
<text text-anchor="middle" x="628.676" y="-78.3477" font-family="Times New Roman,serif" font-size="9.00">&#45;18</text>
</g>
<!-- &#45;18&#45;&gt;0 -->
<g id="edge86" class="edge"><title>&#45;18&#45;&gt;0</title>
<path fill="none" stroke="red" stroke-width="0.174303" stroke-dasharray="1,5" d="M616.943,-71.2899C613.455,-69.1707 609.532,-67.0971 605.676,-65.6985 507.585,-30.118 472.094,-64.3644 373.676,-29.6985 372.803,-29.3908 371.925,-29.0511 371.048,-28.686"/>
<polygon fill="red" stroke="red" stroke-width="0.174303" points="372.463,-25.4797 361.959,-24.097 369.308,-31.7284 372.463,-25.4797"/>
</g>
<!-- &#45;18&#45;&gt;1 -->
<g id="edge87" class="edge"><title>&#45;18&#45;&gt;1</title>
<path fill="none" stroke="green" stroke-width="0.3" d="M617.657,-71.4803C603.64,-61.2174 579.169,-43.3003 561.788,-30.5743"/>
<polygon fill="green" stroke="green" stroke-width="0.3" points="563.574,-27.5442 553.438,-24.4606 559.438,-33.1921 563.574,-27.5442"/>
</g>
<!-- &#45;18&#45;&gt;2 -->
<g id="edge88" class="edge"><title>&#45;18&#45;&gt;2</title>
<path fill="none" stroke="green" stroke-width="0.3" d="M616.906,-71.3873C613.418,-69.2697 609.504,-67.1726 605.676,-65.6985 527.915,-35.7521 499.713,-58.9197 421.676,-29.6985 420.809,-29.3737 419.936,-29.0195 419.064,-28.6421"/>
<polygon fill="green" stroke="green" stroke-width="0.3" points="420.492,-25.4409 409.996,-23.9961 417.3,-31.6709 420.492,-25.4409"/>
</g>
<!-- &#45;18&#45;&gt;3 -->
<g id="edge89" class="edge"><title>&#45;18&#45;&gt;3</title>
<path fill="none" stroke="red" stroke-width="0.293227" d="M616.363,-71.2599C612.997,-69.2402 609.282,-67.2245 605.676,-65.6985 548.095,-41.3276 527.482,-53.5323 469.676,-29.6985 468.82,-29.3455 467.957,-28.9673 467.093,-28.5696"/>
<polygon fill="red" stroke="red" stroke-width="0.293227" points="468.543,-25.3778 458.061,-23.8293 465.289,-31.5759 468.543,-25.3778"/>
</g>
<!-- &#45;18&#45;&gt;4 -->
<g id="edge90" class="edge"><title>&#45;18&#45;&gt;4</title>
<path fill="none" stroke="red" stroke-width="0.266222" d="M615.736,-71.2823C612.505,-69.3508 609.009,-67.3711 605.676,-65.6985 567.909,-46.7435 555.618,-48.3011 517.676,-29.6985 516.845,-29.2908 516.002,-28.8662 515.156,-28.4293"/>
<polygon fill="red" stroke="red" stroke-width="0.266222" points="516.656,-25.2598 506.207,-23.5063 513.282,-31.393 516.656,-25.2598"/>
</g>
<!-- &#45;19 -->
<g id="node19" class="node"><title>&#45;19</title>
<polygon fill="lightgray" stroke="black" points="878.176,-149.397 849.176,-149.397 849.176,-131.397 878.176,-131.397 878.176,-149.397"/>
<text text-anchor="middle" x="863.676" y="-138.197" font-family="Times New Roman,serif" font-size="9.00">&#45;19</text>
</g>
<!-- &#45;19&#45;&gt;0 -->
<g id="edge91" class="edge"><title>&#45;19&#45;&gt;0</title>
<path fill="none" stroke="red" stroke-width="0.294059" d="M849.005,-139.212C738.242,-137.747 36.9136,-127.227 6.67606,-95.397 -2.41485,-85.8273 -1.96006,-75.6804 6.67606,-65.6985 47.9719,-17.9672 251.908,-14.9889 324.207,-15.4695"/>
<polygon fill="red" stroke="red" stroke-width="0.294059" points="324.601,-18.9734 334.635,-15.57 324.669,-11.9737 324.601,-18.9734"/>
</g>
<!-- &#45;19&#45;&gt;1 -->
<g id="edge92" class="edge"><title>&#45;19&#45;&gt;1</title>
<path fill="none" stroke="red" stroke-width="0.113521" d="M878.358,-136.947C918.971,-129.595 1027.51,-105.722 991.676,-65.6985 963.112,-33.796 657.121,-20.0861 566.7,-16.7127"/>
<polygon fill="red" stroke="red" stroke-width="0.113521" points="566.667,-13.2093 556.546,-16.344 566.413,-20.2047 566.667,-13.2093"/>
</g>
<!-- &#45;19&#45;&gt;2 -->
<g id="edge93" class="edge"><title>&#45;19&#45;&gt;2</title>
<path fill="none" stroke="red" stroke-width="0.113622" d="M848.826,-139.2C738.235,-137.667 46.5205,-126.832 16.6761,-95.397 7.58805,-85.8246 7.82331,-75.4888 16.6761,-65.6985 70.1545,-6.55602 297.788,-54.1696 373.676,-29.6985 374.729,-29.3589 375.787,-28.9686 376.839,-28.5393"/>
<polygon fill="red" stroke="red" stroke-width="0.113622" points="378.585,-31.5787 385.933,-23.9458 375.429,-25.3305 378.585,-31.5787"/>
</g>
<!-- &#45;19&#45;&gt;3 -->
<g id="edge94" class="edge"><title>&#45;19&#45;&gt;3</title>
<path fill="none" stroke="green" stroke-width="0.257384" d="M856.085,-131.226C839.625,-113.714 800.761,-73.5192 783.676,-65.6985 655.952,-7.23185 603.069,-73.7206 469.676,-29.6985 468.797,-29.4083 467.914,-29.0834 467.033,-28.7307"/>
<polygon fill="green" stroke="green" stroke-width="0.257384" points="468.436,-25.5197 457.924,-24.2 465.319,-31.7873 468.436,-25.5197"/>
</g>
<!-- &#45;19&#45;&gt;4 -->
<g id="edge95" class="edge"><title>&#45;19&#45;&gt;4</title>
<path fill="none" stroke="red" stroke-width="0.178897" d="M874.37,-131.351C892.26,-116.957 924.525,-86.3777 905.676,-65.6985 847.343,-1.70234 600.195,-55.9449 517.676,-29.6985 516.622,-29.3631 515.563,-28.9762 514.509,-28.5498"/>
<polygon fill="red" stroke="red" stroke-width="0.178897" points="515.918,-25.3403 505.412,-23.9665 512.768,-31.5917 515.918,-25.3403"/>
</g>
<!-- 5 -->
<g id="node26" class="node"><title>5</title>
<ellipse fill="white" stroke="black" cx="967.676" cy="-80.5477" rx="14.7" ry="14.7"/>
<text text-anchor="middle" x="967.676" y="-78.3477" font-family="Times New Roman,serif" font-size="9.00">5</text>
</g>
<!-- &#45;19&#45;&gt;5 -->
<g id="edge101" class="edge"><title>&#45;19&#45;&gt;5</title>
<path fill="none" stroke="green" stroke-width="0.3" d="M878.137,-131.353C895.772,-121.544 925.74,-104.874 946.104,-93.5471"/>
<polygon fill="green" stroke="green" stroke-width="0.3" points="947.931,-96.5356 954.969,-88.6159 944.529,-90.4183 947.931,-96.5356"/>
</g>
<!-- &#45;20 -->
<g id="node20" class="node"><title>&#45;20</title>
<polygon fill="lightgray" stroke="black" points="690.176,-89.5477 661.176,-89.5477 661.176,-71.5477 690.176,-71.5477 690.176,-89.5477"/>
<text text-anchor="middle" x="675.676" y="-78.3477" font-family="Times New Roman,serif" font-size="9.00">&#45;20</text>
</g>
<!-- &#45;20&#45;&gt;0 -->
<g id="edge96" class="edge"><title>&#45;20&#45;&gt;0</title>
<path fill="none" stroke="green" stroke-width="0.158329" d="M664.438,-71.5154C660.835,-69.2943 656.726,-67.1089 652.676,-65.6985 534.605,-24.5745 492.125,-69.7216 373.676,-29.6985 372.799,-29.402 371.918,-29.0719 371.038,-28.7147"/>
<polygon fill="green" stroke="green" stroke-width="0.158329" points="372.446,-25.5054 361.936,-24.1633 369.315,-31.7662 372.446,-25.5054"/>
</g>
<!-- &#45;20&#45;&gt;1 -->
<g id="edge97" class="edge"><title>&#45;20&#45;&gt;1</title>
<path fill="none" stroke="green" stroke-width="0.116711" d="M662.695,-71.3618C659.465,-69.4279 655.98,-67.4272 652.676,-65.6985 622.972,-50.1569 587.44,-34.7278 564.72,-25.244"/>
<polygon fill="green" stroke="green" stroke-width="0.116711" points="565.829,-21.9149 555.25,-21.3259 563.153,-28.3831 565.829,-21.9149"/>
</g>
<!-- &#45;20&#45;&gt;2 -->
<g id="edge98" class="edge"><title>&#45;20&#45;&gt;2</title>
<path fill="none" stroke="red" stroke-width="0.173151" d="M663.942,-71.2915C660.454,-69.1724 656.532,-67.0984 652.676,-65.6985 555.009,-30.2357 519.669,-64.2506 421.676,-29.6985 420.803,-29.3905 419.925,-29.0506 419.049,-28.6852"/>
<polygon fill="red" stroke="red" stroke-width="0.173151" points="420.464,-25.479 409.96,-24.0953 417.308,-31.7275 420.464,-25.479"/>
</g>
<!-- &#45;20&#45;&gt;3 -->
<g id="edge99" class="edge"><title>&#45;20&#45;&gt;3</title>
<path fill="none" stroke="red" stroke-width="0.227593" d="M663.905,-71.3899C660.417,-69.2723 656.503,-67.1745 652.676,-65.6985 575.337,-35.869 547.289,-58.8068 469.676,-29.6985 468.809,-29.3733 467.937,-29.0187 467.065,-28.641"/>
<polygon fill="red" stroke="red" stroke-width="0.227593" points="468.492,-25.4399 457.997,-23.9935 465.3,-31.6694 468.492,-25.4399"/>
</g>
<!-- &#45;20&#45;&gt;4 -->
<g id="edge100" class="edge"><title>&#45;20&#45;&gt;4</title>
<path fill="none" stroke="green" stroke-width="0.298219" d="M663.361,-71.2644C659.996,-69.2447 656.28,-67.2279 652.676,-65.6985 595.513,-41.4427 575.063,-53.4211 517.676,-29.6985 516.82,-29.3447 515.957,-28.9658 515.094,-28.5676"/>
<polygon fill="green" stroke="green" stroke-width="0.298219" points="516.544,-25.3761 506.063,-23.8246 513.289,-31.5733 516.544,-25.3761"/>
</g>
<!-- 5&#45;&gt;1 -->
<g id="edge102" class="edge"><title>5&#45;&gt;1</title>
<path fill="none" stroke="green" stroke-width="0.29932" d="M955.035,-72.4251C950.074,-69.923 944.244,-67.3312 938.676,-65.6985 802.535,-25.7794 630.935,-17.8269 567.107,-16.243"/>
<polygon fill="green" stroke="green" stroke-width="0.29932" points="566.88,-12.7374 556.807,-16.0211 566.729,-19.7358 566.88,-12.7374"/>
</g>
</g>
</svg>
